G04 Layer_Color=32896*
%FSLAX25Y25*%
%MOIN*%
G70*
G01*
G75*
%ADD38C,0.01000*%
%ADD39C,0.00787*%
%ADD58C,0.01968*%
%ADD93C,0.00984*%
%ADD95C,0.00394*%
G36*
X349568Y533687D02*
X350134Y534253D01*
X350699Y533687D01*
X351265Y534253D01*
X352962Y532556D01*
X353528Y533122D01*
X355790Y530859D01*
X355225Y530293D01*
X354659Y529728D01*
X354093Y529162D01*
X353528Y528596D01*
X352962Y529162D01*
X352396Y528596D01*
X351831Y528030D01*
X351265Y527465D01*
X350699Y526899D01*
X350134Y526333D01*
X349568Y525768D01*
X349002Y525202D01*
X349568Y524636D01*
X349002Y524071D01*
X348437Y523505D01*
X349002Y522939D01*
X348437Y522374D01*
X349002Y521808D01*
X348437Y521242D01*
X349568Y520111D01*
X349002Y519545D01*
X349568Y518980D01*
X349002Y518414D01*
X351265Y516151D01*
X351831Y516717D01*
X352396Y516151D01*
X352962Y516717D01*
X353528Y516151D01*
X354093Y516717D01*
X354659Y516151D01*
X355225Y516717D01*
X355790Y516151D01*
X356356Y516717D01*
X356922Y516151D01*
X357488Y516717D01*
X358053Y516151D01*
X358619Y516717D01*
X359185Y516151D01*
X359750Y516717D01*
X360882Y515585D01*
X361447Y516151D01*
X362579Y515020D01*
X363144Y515585D01*
X364842Y513888D01*
X365407Y514454D01*
X371064Y508797D01*
X370498Y508231D01*
X372195Y506534D01*
X371630Y505969D01*
X372761Y504837D01*
X372195Y504272D01*
X373327Y503140D01*
X372761Y502575D01*
X373892Y501443D01*
X373327Y500878D01*
X373892Y500312D01*
X373327Y499746D01*
X374458Y498615D01*
X375024Y499181D01*
X377287Y496918D01*
X377852Y497483D01*
X384075Y491261D01*
X383509Y490695D01*
X385772Y488432D01*
X385206Y487867D01*
X386337Y486735D01*
X385772Y486170D01*
X386903Y485038D01*
X386337Y484473D01*
X387469Y483341D01*
X386903Y482776D01*
X387469Y482210D01*
X386903Y481644D01*
X387469Y481078D01*
X386903Y480513D01*
X387469Y479947D01*
X386903Y479382D01*
X387469Y478816D01*
X386903Y478250D01*
X387469Y477684D01*
X386903Y477119D01*
X387469Y476553D01*
X386903Y475987D01*
X387469Y475422D01*
X386903Y474856D01*
X387469Y474290D01*
X386903Y473725D01*
X387469Y473159D01*
X386903Y472593D01*
X387469Y472028D01*
X386903Y471462D01*
X387469Y470896D01*
X386903Y470330D01*
X386337Y469765D01*
X386903Y469199D01*
X386337Y468634D01*
X386903Y468068D01*
X386337Y467502D01*
X386903Y466936D01*
X386337Y466371D01*
X385772Y465805D01*
X386337Y465239D01*
X385772Y464674D01*
X386337Y464108D01*
X385772Y463542D01*
X385206Y462977D01*
X385772Y462411D01*
X385206Y461845D01*
X385772Y461280D01*
X385206Y460714D01*
X385772Y460148D01*
X385206Y459583D01*
X385772Y459017D01*
X385206Y458451D01*
X385772Y457885D01*
X385206Y457320D01*
X385772Y456754D01*
X385206Y456188D01*
X385772Y455623D01*
X385206Y455057D01*
X385772Y454491D01*
X385206Y453926D01*
X385772Y453360D01*
X385206Y452794D01*
X385772Y452229D01*
X385206Y451663D01*
X385772Y451097D01*
X385206Y450531D01*
X385772Y449966D01*
X385206Y449400D01*
X385772Y448835D01*
X385206Y448269D01*
X384641Y447703D01*
X384075Y447137D01*
X383509Y447703D01*
X382943Y447137D01*
X381812Y448269D01*
X381246Y447703D01*
X379549Y449400D01*
X378984Y448835D01*
X377287Y450531D01*
X376721Y449966D01*
X373892Y452794D01*
X374458Y453360D01*
X373892Y453926D01*
X373327Y453360D01*
X373892Y452794D01*
X373327Y452229D01*
X373892Y451663D01*
X373327Y451097D01*
X372761Y450531D01*
X373327Y449966D01*
X372761Y449400D01*
X373327Y448835D01*
X372761Y448269D01*
X372195Y447703D01*
X372761Y447137D01*
X372195Y446572D01*
X372761Y446006D01*
X372195Y445440D01*
X371630Y444875D01*
X372195Y444309D01*
X371630Y443743D01*
X371064Y443178D01*
X371630Y442612D01*
X371064Y442046D01*
X370498Y441481D01*
X371064Y440915D01*
X370498Y440349D01*
X369933Y439783D01*
X370498Y439218D01*
X369933Y438652D01*
X369367Y438086D01*
X369933Y437521D01*
X369367Y436955D01*
X368801Y436389D01*
X368236Y435824D01*
X368801Y435258D01*
X368236Y434692D01*
X367670Y434127D01*
X368236Y433561D01*
X368801Y434127D01*
X369367Y434692D01*
X369933Y435258D01*
X370498Y435824D01*
X371064Y435258D01*
X371630Y435824D01*
X372195Y435258D01*
X372761Y435824D01*
X373327Y436389D01*
X373892Y435824D01*
X374458Y436389D01*
X375024Y435824D01*
X375589Y436389D01*
X376155Y436955D01*
X376721Y436389D01*
X377287Y436955D01*
X377852Y436389D01*
X378418Y436955D01*
X378984Y436389D01*
X379549Y436955D01*
X380115Y436389D01*
X380681Y436955D01*
X381246Y436389D01*
X381812Y436955D01*
X382943Y435824D01*
X383509Y436389D01*
X384075Y435824D01*
X384641Y436389D01*
X385772Y435258D01*
X386337Y435824D01*
X392560Y429601D01*
X391994Y429036D01*
X393126Y427904D01*
X392560Y427338D01*
X393126Y426773D01*
X392560Y426207D01*
X393126Y425641D01*
X392560Y425076D01*
X391994Y424510D01*
X392560Y423944D01*
X391994Y423379D01*
X391429Y422813D01*
X390863Y422247D01*
X390297Y422813D01*
X390863Y423379D01*
X389732Y424510D01*
X390297Y425076D01*
X386337Y429036D01*
X385772Y428470D01*
X384075Y430167D01*
X383509Y429601D01*
X382378Y430732D01*
X381812Y430167D01*
X381246Y430732D01*
X380681Y430167D01*
X381812Y429036D01*
X382378Y429601D01*
X385772Y426207D01*
X385206Y425641D01*
X385772Y425076D01*
X385206Y424510D01*
X385772Y423944D01*
X385206Y423379D01*
X385772Y422813D01*
X385206Y422247D01*
X384641Y421682D01*
X385206Y421116D01*
X384641Y420550D01*
X384075Y419984D01*
X383509Y419419D01*
X382378Y420550D01*
X382943Y421116D01*
X380115Y423944D01*
X379549Y423379D01*
X378984Y423944D01*
X378418Y423379D01*
X377852Y423944D01*
X377287Y423379D01*
X378418Y422247D01*
X377852Y421682D01*
X378418Y421116D01*
X377852Y420550D01*
X378418Y419984D01*
X377852Y419419D01*
X378418Y418853D01*
X377852Y418287D01*
X377287Y417722D01*
X376721Y417156D01*
X376155Y416590D01*
X375589Y417156D01*
X376155Y417722D01*
X374458Y419419D01*
X373892Y418853D01*
X373327Y419419D01*
X372761Y418853D01*
X372195Y419419D01*
X371630Y418853D01*
X371064Y419419D01*
X370498Y418853D01*
X369933Y419419D01*
X369367Y418853D01*
X368801Y418287D01*
X368236Y417722D01*
X367670Y418287D01*
X367104Y417722D01*
X366539Y417156D01*
X365973Y416590D01*
X365407Y416025D01*
X364842Y415459D01*
X364276Y414893D01*
X363710Y414328D01*
X363144Y413762D01*
X362579Y413196D01*
X362013Y412631D01*
X361447Y412065D01*
X360882Y411499D01*
X360316Y410933D01*
X359750Y410368D01*
X359185Y409802D01*
X358619Y409236D01*
X358053Y408671D01*
X357488Y408105D01*
X356922Y407539D01*
X356356Y406974D01*
X355790Y406408D01*
X355225Y405842D01*
X354659Y406408D01*
X354093Y405842D01*
X353528Y405277D01*
X352962Y404711D01*
X352396Y404145D01*
X351831Y403580D01*
X351265Y404145D01*
X350699Y403580D01*
X350134Y403014D01*
X349568Y402448D01*
X349002Y403014D01*
X348437Y402448D01*
X347871Y401883D01*
X347305Y402448D01*
X346740Y401883D01*
X346174Y401317D01*
X345608Y401883D01*
X345042Y401317D01*
X344477Y401883D01*
X343911Y401317D01*
X343345Y401883D01*
X342780Y401317D01*
X342214Y401883D01*
X341648Y401317D01*
X339951Y403014D01*
X339386Y402448D01*
X336557Y405277D01*
X337123Y405842D01*
X335426Y407539D01*
X335992Y408105D01*
X334860Y409236D01*
X334295Y408671D01*
X333729Y409236D01*
X333163Y408671D01*
X332597Y409236D01*
X332032Y408671D01*
X331466Y409236D01*
X330900Y408671D01*
X330335Y409236D01*
X329769Y408671D01*
X328638Y409802D01*
X328072Y409236D01*
X326940Y410368D01*
X326375Y409802D01*
X325809Y410368D01*
X325243Y409802D01*
X324678Y410368D01*
X324112Y409802D01*
X323546Y409236D01*
X322981Y408671D01*
X322415Y409236D01*
X321849Y408671D01*
X321284Y408105D01*
X320718Y407539D01*
X320152Y406974D01*
X319587Y406408D01*
X319021Y406974D01*
X318455Y406408D01*
X317890Y405842D01*
X317324Y405277D01*
X316758Y404711D01*
X316193Y404145D01*
X315627Y403580D01*
X315061Y403014D01*
X314495Y402448D01*
X313930Y401883D01*
X313364Y401317D01*
X312798Y400751D01*
X312233Y400185D01*
X312798Y399620D01*
X312233Y399054D01*
X311667Y398488D01*
X312233Y397923D01*
X311667Y397357D01*
X311101Y396791D01*
X310536Y396226D01*
X311101Y395660D01*
X310536Y395094D01*
X309970Y394529D01*
X310536Y393963D01*
X309970Y393397D01*
X310536Y392832D01*
X309970Y392266D01*
X310536Y391700D01*
X309970Y391135D01*
X311101Y390003D01*
X310536Y389438D01*
X311101Y388872D01*
X310536Y388306D01*
X312233Y386609D01*
X311667Y386043D01*
X312798Y384912D01*
X312233Y384346D01*
X313364Y383215D01*
X312798Y382649D01*
X313930Y381518D01*
X313364Y380952D01*
X313930Y380386D01*
X313364Y379821D01*
X313930Y379255D01*
X313364Y378690D01*
X313930Y378124D01*
X313364Y377558D01*
X313930Y376992D01*
X313364Y376427D01*
X313930Y375861D01*
X313364Y375295D01*
X312798Y374730D01*
X313364Y374164D01*
X312798Y373598D01*
X312233Y373033D01*
X312798Y372467D01*
X312233Y371901D01*
X311667Y371336D01*
X311101Y370770D01*
X310536Y370204D01*
X309970Y369638D01*
X309404Y369073D01*
X308839Y368507D01*
X308273Y367941D01*
X307707Y368507D01*
X307142Y367941D01*
X306576Y367376D01*
X306010Y367941D01*
X306576Y368507D01*
X306010Y369073D01*
X306576Y369638D01*
X306010Y370204D01*
X306576Y370770D01*
X307142Y371336D01*
X306576Y371901D01*
X307142Y372467D01*
X306576Y373033D01*
X306010Y372467D01*
X305445Y373033D01*
X304879Y372467D01*
X304313Y371901D01*
X303747Y372467D01*
X303182Y371901D01*
X302616Y372467D01*
X302050Y371901D01*
X301485Y372467D01*
X302050Y373033D01*
X302616Y373598D01*
X302050Y374164D01*
X302616Y374730D01*
X303182Y375295D01*
X302616Y375861D01*
X303182Y376427D01*
X303747Y376992D01*
X303182Y377558D01*
X303747Y378124D01*
X303182Y378690D01*
X303747Y379255D01*
X303182Y379821D01*
X303747Y380386D01*
X303182Y380952D01*
X302616Y380386D01*
X302050Y380952D01*
X301485Y380386D01*
X300919Y379821D01*
X300353Y380386D01*
X299788Y379821D01*
X299222Y380386D01*
X298656Y379821D01*
X296393Y382084D01*
X296959Y382649D01*
X295828Y383781D01*
X296393Y384346D01*
X295262Y385478D01*
X294696Y384912D01*
X292999Y386609D01*
X293565Y387175D01*
X292434Y388306D01*
X292999Y388872D01*
X292434Y389438D01*
X292999Y390003D01*
X292434Y390569D01*
X292999Y391135D01*
X293565Y391700D01*
X294131Y392266D01*
X294696Y392832D01*
X295262Y393397D01*
X295828Y393963D01*
X296393Y393397D01*
X296959Y393963D01*
X297525Y394529D01*
X296959Y395094D01*
X297525Y395660D01*
X296959Y396226D01*
X297525Y396791D01*
X296959Y397357D01*
X297525Y397923D01*
X296959Y398488D01*
X297525Y399054D01*
X298091Y399620D01*
X297525Y400185D01*
X298091Y400751D01*
X297525Y401317D01*
X298091Y401883D01*
X297525Y402448D01*
X298091Y403014D01*
X298656Y403580D01*
X298091Y404145D01*
X298656Y404711D01*
X299222Y405277D01*
X299788Y405842D01*
X299222Y406408D01*
X299788Y406974D01*
X300353Y407539D01*
X299788Y408105D01*
X300353Y408671D01*
X300919Y409236D01*
X301485Y409802D01*
X300919Y410368D01*
X301485Y410933D01*
X302050Y411499D01*
X302616Y412065D01*
X303182Y412631D01*
X303747Y413196D01*
X303182Y413762D01*
X303747Y414328D01*
X304313Y414893D01*
X304879Y415459D01*
X305445Y416025D01*
X306010Y416590D01*
X306576Y417156D01*
X307142Y417722D01*
X305445Y419419D01*
X304879Y418853D01*
X303182Y420550D01*
X302616Y419984D01*
X302050Y419419D01*
X301485Y418853D01*
X300919Y418287D01*
X300353Y417722D01*
X299788Y418287D01*
X299222Y417722D01*
X298656Y417156D01*
X298091Y416590D01*
X297525Y416025D01*
X296959Y416590D01*
X296393Y416025D01*
X295828Y415459D01*
X295262Y414893D01*
X294696Y415459D01*
X294131Y414893D01*
X293565Y414328D01*
X292999Y413762D01*
X292434Y414328D01*
X291868Y413762D01*
X291302Y414328D01*
X290737Y413762D01*
X290171Y413196D01*
X289605Y413762D01*
X289040Y413196D01*
X288474Y412631D01*
X289040Y412065D01*
X288474Y411499D01*
X287908Y410933D01*
X288474Y410368D01*
X287908Y409802D01*
X287343Y409236D01*
X287908Y408671D01*
X287343Y408105D01*
X287908Y407539D01*
X287343Y406974D01*
X287908Y406408D01*
X288474Y406974D01*
X289040Y406408D01*
X289605Y406974D01*
X290171Y406408D01*
X290737Y406974D01*
X291302Y406408D01*
X291868Y406974D01*
X292999Y405842D01*
X293565Y406408D01*
X295828Y404145D01*
X295262Y403580D01*
X296393Y402448D01*
X295828Y401883D01*
X296393Y401317D01*
X295828Y400751D01*
X296393Y400185D01*
X295828Y399620D01*
X296393Y399054D01*
X295828Y398488D01*
X296393Y397923D01*
X295828Y397357D01*
X296393Y396791D01*
X295828Y396226D01*
X295262Y395660D01*
X295828Y395094D01*
X295262Y394529D01*
X294696Y393963D01*
X294131Y393397D01*
X293565Y392832D01*
X292999Y392266D01*
X292434Y391700D01*
X291868Y391135D01*
X291302Y390569D01*
X291868Y390003D01*
X291302Y389438D01*
X291868Y388872D01*
X291302Y388306D01*
X291868Y387740D01*
X291302Y387175D01*
X291868Y386609D01*
X291302Y386043D01*
X291868Y385478D01*
X291302Y384912D01*
X291868Y384346D01*
X291302Y383781D01*
X291868Y383215D01*
X291302Y382649D01*
X291868Y382084D01*
X291302Y381518D01*
X290737Y380952D01*
X291302Y380386D01*
X290737Y379821D01*
X290171Y379255D01*
X290737Y378690D01*
X290171Y378124D01*
X289605Y377558D01*
X290171Y376992D01*
X289605Y376427D01*
X289040Y375861D01*
X288474Y375295D01*
X289040Y374730D01*
X288474Y374164D01*
X287908Y373598D01*
X288474Y373033D01*
X287908Y372467D01*
X287343Y371901D01*
X286777Y371336D01*
X287343Y370770D01*
X286777Y370204D01*
X286211Y369638D01*
X285646Y369073D01*
X286211Y368507D01*
X285646Y367941D01*
X285080Y367376D01*
X285646Y366810D01*
X285080Y366244D01*
X284514Y365679D01*
X285080Y365113D01*
X284514Y364547D01*
X283948Y363982D01*
X283383Y363416D01*
X282817Y362850D01*
X282251Y362285D01*
X281120Y363416D01*
X281686Y363982D01*
X281120Y364547D01*
X281686Y365113D01*
X281120Y365679D01*
X281686Y366244D01*
X280554Y367376D01*
X281120Y367941D01*
X279989Y369073D01*
X280554Y369638D01*
X278292Y371901D01*
X278857Y372467D01*
X276029Y375295D01*
X276594Y375861D01*
X272635Y379821D01*
X273200Y380386D01*
X270372Y383215D01*
X270938Y383781D01*
X269241Y385478D01*
X269806Y386043D01*
X268675Y387175D01*
X269241Y387740D01*
X267544Y389438D01*
X268109Y390003D01*
X267544Y390569D01*
X268109Y391135D01*
X266978Y392266D01*
X267544Y392832D01*
X266978Y393397D01*
X267544Y393963D01*
X266978Y394529D01*
X267544Y395094D01*
X266978Y395660D01*
X267544Y396226D01*
X266978Y396791D01*
X267544Y397357D01*
X266978Y397923D01*
X267544Y398488D01*
X266978Y399054D01*
X267544Y399620D01*
X268109Y400185D01*
X267544Y400751D01*
X268109Y401317D01*
X268675Y401883D01*
X268109Y402448D01*
X268675Y403014D01*
X268109Y403580D01*
X267544Y403014D01*
X266978Y403580D01*
X266412Y403014D01*
X265846Y403580D01*
X265281Y403014D01*
X260755Y407539D01*
X261321Y408105D01*
X259624Y409802D01*
X260190Y410368D01*
X260755Y410933D01*
X260190Y411499D01*
X260755Y412065D01*
X261321Y412631D01*
X260755Y413196D01*
X261321Y413762D01*
X261887Y414328D01*
X262452Y414893D01*
X263018Y415459D01*
X263584Y416025D01*
X264149Y415459D01*
X264715Y416025D01*
X265281Y416590D01*
X265846Y416025D01*
X266412Y416590D01*
X266978Y417156D01*
X267544Y416590D01*
X268109Y417156D01*
X268675Y416590D01*
X269241Y417156D01*
X269806Y416590D01*
X270372Y417156D01*
X271503Y416025D01*
X272069Y416590D01*
X273200Y415459D01*
X273766Y416025D01*
X274332Y415459D01*
X274898Y416025D01*
X274332Y416590D01*
X274898Y417156D01*
X273200Y418853D01*
X273766Y419419D01*
X268109Y425076D01*
X267544Y424510D01*
X265846Y426207D01*
X265281Y425641D01*
X263584Y427338D01*
X263018Y426773D01*
X261887Y427904D01*
X261321Y427338D01*
X260190Y428470D01*
X259624Y427904D01*
X259058Y428470D01*
X258493Y427904D01*
X257361Y429036D01*
X256796Y428470D01*
X256230Y429036D01*
X255664Y428470D01*
X255099Y429036D01*
X254533Y428470D01*
X253967Y429036D01*
X253401Y428470D01*
X252836Y429036D01*
X252270Y428470D01*
X251704Y427904D01*
X251139Y428470D01*
X250573Y427904D01*
X250007Y427338D01*
X249442Y427904D01*
X248876Y427338D01*
X248310Y426773D01*
X247745Y427338D01*
X247179Y426773D01*
X246613Y426207D01*
X246047Y425641D01*
X245482Y425076D01*
X244916Y424510D01*
X244351Y425076D01*
X243785Y424510D01*
X243219Y423944D01*
X242653Y424510D01*
X242088Y423944D01*
X240956Y425076D01*
X241522Y425641D01*
X240391Y426773D01*
X240956Y427338D01*
X239825Y428470D01*
X240391Y429036D01*
X239825Y429601D01*
X240391Y430167D01*
X239825Y430732D01*
X240391Y431298D01*
X240956Y431864D01*
X240391Y432430D01*
X240956Y432995D01*
X240391Y433561D01*
X240956Y434127D01*
X241522Y434692D01*
X240956Y435258D01*
X241522Y435824D01*
X242088Y436389D01*
X242653Y436955D01*
X243219Y437521D01*
X242653Y438086D01*
X243219Y438652D01*
X243785Y439218D01*
X244351Y439783D01*
X244916Y440349D01*
X245482Y440915D01*
X246047Y440349D01*
X246613Y440915D01*
X247179Y441481D01*
X247745Y442046D01*
X248310Y441481D01*
X248876Y442046D01*
X249442Y442612D01*
X250007Y442046D01*
X250573Y442612D01*
X251139Y442046D01*
X251704Y442612D01*
X252270Y442046D01*
X252836Y442612D01*
X253401Y442046D01*
X253967Y442612D01*
X252270Y444309D01*
X252836Y444875D01*
X252270Y445440D01*
X252836Y446006D01*
X252270Y446572D01*
X252836Y447137D01*
X253401Y447703D01*
X252836Y448269D01*
X253401Y448835D01*
X253967Y449400D01*
X253401Y449966D01*
X253967Y450531D01*
X254533Y451097D01*
X255099Y451663D01*
X255664Y452229D01*
X256230Y452794D01*
X256796Y453360D01*
X257361Y453926D01*
X257927Y454491D01*
X258493Y453926D01*
X259058Y454491D01*
X259624Y455057D01*
X260190Y454491D01*
X260755Y455057D01*
X261321Y455623D01*
X261887Y455057D01*
X262452Y455623D01*
X263018Y455057D01*
X263584Y455623D01*
X264149Y455057D01*
X264715Y455623D01*
X265281Y455057D01*
X265846Y455623D01*
X266412Y455057D01*
X266978Y455623D01*
X266412Y456188D01*
X266978Y456754D01*
X266412Y457320D01*
X266978Y457885D01*
X266412Y458451D01*
X266978Y459017D01*
X267544Y459583D01*
X266978Y460148D01*
X267544Y460714D01*
X266978Y461280D01*
X267544Y461845D01*
X268109Y462411D01*
X267544Y462977D01*
X268109Y463542D01*
X268675Y464108D01*
X269241Y464674D01*
X269806Y465239D01*
X269241Y465805D01*
X269806Y466371D01*
X270372Y466936D01*
X270938Y467502D01*
X271503Y468068D01*
X272069Y468634D01*
X271503Y469199D01*
X272069Y469765D01*
X272635Y470330D01*
X273200Y470896D01*
X273766Y471462D01*
X274332Y472028D01*
X274898Y472593D01*
X275463Y473159D01*
X276029Y472593D01*
X276594Y473159D01*
X277160Y473725D01*
X277726Y474290D01*
X278292Y473725D01*
X278857Y474290D01*
X279423Y474856D01*
X279989Y474290D01*
X280554Y474856D01*
X281686Y473725D01*
X281120Y473159D01*
X281686Y472593D01*
X281120Y472028D01*
X281686Y471462D01*
X281120Y470896D01*
X281686Y470330D01*
X281120Y469765D01*
X281686Y469199D01*
X281120Y468634D01*
X282251Y467502D01*
X281686Y466936D01*
X282251Y466371D01*
X281686Y465805D01*
X283383Y464108D01*
X282817Y463542D01*
X283948Y462411D01*
X283383Y461845D01*
X284514Y460714D01*
X283948Y460148D01*
X285646Y458451D01*
X285080Y457885D01*
X286211Y456754D01*
X285646Y456188D01*
X287343Y454491D01*
X286777Y453926D01*
X289040Y451663D01*
X288474Y451097D01*
X290171Y449400D01*
X289605Y448835D01*
X290737Y447703D01*
X290171Y447137D01*
X291868Y445440D01*
X291302Y444875D01*
X292434Y443743D01*
X291868Y443178D01*
X292999Y442046D01*
X292434Y441481D01*
X294131Y439783D01*
X294696Y440349D01*
X295828Y439218D01*
X296393Y439783D01*
X297525Y438652D01*
X298091Y439218D01*
X299788Y437521D01*
X300353Y438086D01*
X300919Y438652D01*
X301485Y439218D01*
X302050Y439783D01*
X302616Y440349D01*
X302050Y440915D01*
X302616Y441481D01*
X303182Y442046D01*
X303747Y442612D01*
X304313Y443178D01*
X304879Y443743D01*
X305445Y444309D01*
X306010Y444875D01*
X305445Y445440D01*
X306010Y446006D01*
X306576Y446572D01*
X307142Y447137D01*
X307707Y447703D01*
X308273Y448269D01*
X307707Y448835D01*
X308273Y449400D01*
X307142Y450531D01*
X307707Y451097D01*
X307142Y451663D01*
X307707Y452229D01*
X307142Y452794D01*
X307707Y453360D01*
X307142Y453926D01*
X307707Y454491D01*
X307142Y455057D01*
X307707Y455623D01*
X308273Y456188D01*
X307707Y456754D01*
X308273Y457320D01*
X308839Y457885D01*
X309404Y458451D01*
X309970Y459017D01*
X310536Y459583D01*
X311101Y459017D01*
X311667Y459583D01*
X312233Y460148D01*
X312798Y459583D01*
X313364Y460148D01*
X313930Y459583D01*
X314495Y460148D01*
X315061Y460714D01*
X315627Y460148D01*
X316193Y460714D01*
X316758Y460148D01*
X317324Y460714D01*
X317890Y460148D01*
X318455Y460714D01*
X316758Y462411D01*
X317324Y462977D01*
X314495Y465805D01*
X313930Y465239D01*
X311101Y468068D01*
X310536Y467502D01*
X308839Y469199D01*
X308273Y468634D01*
X306576Y470330D01*
X306010Y469765D01*
X304879Y470896D01*
X304313Y470330D01*
X303747Y470896D01*
X303182Y470330D01*
X302616Y470896D01*
X302050Y470330D01*
X301485Y470896D01*
X300919Y470330D01*
X300353Y470896D01*
X299788Y470330D01*
X299222Y470896D01*
X298656Y470330D01*
X298091Y470896D01*
X297525Y470330D01*
X296959Y470896D01*
X296393Y470330D01*
X295828Y470896D01*
X295262Y470330D01*
X294696Y470896D01*
X294131Y470330D01*
X293565Y470896D01*
X292999Y470330D01*
X292434Y470896D01*
X291868Y470330D01*
X290737Y471462D01*
X291302Y472028D01*
X290171Y473159D01*
X290737Y473725D01*
X289605Y474856D01*
X290171Y475422D01*
X289605Y475987D01*
X290171Y476553D01*
X289605Y477119D01*
X290171Y477684D01*
X289605Y478250D01*
X290171Y478816D01*
X289605Y479382D01*
X290171Y479947D01*
X289605Y480513D01*
X290171Y481078D01*
X289605Y481644D01*
X290171Y482210D01*
X289605Y482776D01*
X290171Y483341D01*
X290737Y483907D01*
X290171Y484473D01*
X290737Y485038D01*
X291302Y485604D01*
X290737Y486170D01*
X291302Y486735D01*
X291868Y487301D01*
X291302Y487867D01*
X291868Y488432D01*
X292434Y488998D01*
X291868Y489564D01*
X292434Y490130D01*
X292999Y490695D01*
X292434Y491261D01*
X292999Y491827D01*
X293565Y492392D01*
X294131Y492958D01*
X293565Y493524D01*
X294131Y494089D01*
X294696Y494655D01*
X295262Y495221D01*
X295828Y495786D01*
X295262Y496352D01*
X295828Y496918D01*
X296393Y497483D01*
X296959Y498049D01*
X297525Y498615D01*
X298091Y499181D01*
X298656Y499746D01*
X299222Y500312D01*
X299788Y500878D01*
X300353Y501443D01*
X300919Y502009D01*
X301485Y502575D01*
X302050Y503140D01*
X302616Y503706D01*
X303182Y503140D01*
X303747Y503706D01*
X304313Y504272D01*
X304879Y504837D01*
X305445Y504272D01*
X306010Y504837D01*
X306576Y505403D01*
X307142Y504837D01*
X307707Y505403D01*
X308273Y504837D01*
X308839Y505403D01*
X309970Y504272D01*
X309404Y503706D01*
X309970Y503140D01*
X309404Y502575D01*
X310536Y501443D01*
X309970Y500878D01*
X311101Y499746D01*
X310536Y499181D01*
X311667Y498049D01*
X311101Y497483D01*
X312798Y495786D01*
X312233Y495221D01*
X313930Y493524D01*
X313364Y492958D01*
X316193Y490130D01*
X315627Y489564D01*
X326940Y478250D01*
X327506Y478816D01*
X330900Y475422D01*
X331466Y475987D01*
X335992Y471462D01*
X336557Y472028D01*
X340517Y468068D01*
X339951Y467502D01*
X342780Y464674D01*
X342214Y464108D01*
X343345Y462977D01*
X342780Y462411D01*
X343911Y461280D01*
X343345Y460714D01*
X345042Y459017D01*
X345608Y459583D01*
X346174Y460148D01*
X346740Y459583D01*
X347305Y460148D01*
X347871Y460714D01*
X348437Y461280D01*
X349002Y461845D01*
X349568Y461280D01*
X350134Y461845D01*
X350699Y462411D01*
X351265Y462977D01*
X351831Y462411D01*
X352396Y462977D01*
X352962Y463542D01*
X353528Y464108D01*
X352962Y464674D01*
X352396Y464108D01*
X351831Y463542D01*
X351265Y464108D01*
X350699Y463542D01*
X349568Y464674D01*
X349002Y464108D01*
X348437Y464674D01*
X347871Y464108D01*
X346174Y465805D01*
X345608Y465239D01*
X343911Y466936D01*
X344477Y467502D01*
X343911Y468068D01*
X344477Y468634D01*
X345042Y469199D01*
X345608Y469765D01*
X346174Y470330D01*
X346740Y470896D01*
X347305Y470330D01*
X347871Y470896D01*
X348437Y471462D01*
X349002Y472028D01*
X349568Y471462D01*
X350134Y472028D01*
X350699Y472593D01*
X351265Y473159D01*
X351831Y473725D01*
X352396Y474290D01*
X352962Y474856D01*
X353528Y475422D01*
X354093Y475987D01*
X354659Y476553D01*
X354093Y477119D01*
X354659Y477684D01*
X355225Y478250D01*
X355790Y478816D01*
X356356Y479382D01*
X355790Y479947D01*
X356356Y480513D01*
X356922Y481078D01*
X356356Y481644D01*
X356922Y482210D01*
X357488Y482776D01*
X356922Y483341D01*
X357488Y483907D01*
X356922Y484473D01*
X357488Y485038D01*
X358053Y485604D01*
X357488Y486170D01*
X358053Y486735D01*
X357488Y487301D01*
X358053Y487867D01*
X357488Y488432D01*
X358053Y488998D01*
X356922Y490130D01*
X357488Y490695D01*
X355790Y492392D01*
X356356Y492958D01*
X354659Y494655D01*
X355225Y495221D01*
X351831Y498615D01*
X352396Y499181D01*
X351831Y499746D01*
X351265Y499181D01*
X346740Y503706D01*
X346174Y503140D01*
X344477Y504837D01*
X343911Y504272D01*
X342214Y505969D01*
X341648Y505403D01*
X341083Y505969D01*
X340517Y505403D01*
X339386Y506534D01*
X338820Y505969D01*
X338254Y506534D01*
X337689Y505969D01*
X337123Y505403D01*
X336557Y505969D01*
X335992Y505403D01*
X335426Y504837D01*
X334860Y505403D01*
X334295Y504837D01*
X333729Y504272D01*
X333163Y503706D01*
X332597Y504272D01*
X332032Y503706D01*
X331466Y503140D01*
X330900Y502575D01*
X330335Y502009D01*
X330900Y501443D01*
X330335Y500878D01*
X329769Y500312D01*
X329203Y499746D01*
X328638Y499181D01*
X328072Y498615D01*
X327506Y499181D01*
X326940Y498615D01*
X323546Y502009D01*
X324112Y502575D01*
X322415Y504272D01*
X322981Y504837D01*
X321849Y505969D01*
X322415Y506534D01*
X321849Y507100D01*
X322415Y507666D01*
X321849Y508231D01*
X322415Y508797D01*
X321849Y509363D01*
X322415Y509929D01*
X322981Y510494D01*
X322415Y511060D01*
X322981Y511626D01*
X323546Y512191D01*
X324112Y512757D01*
X323546Y513323D01*
X324112Y513888D01*
X322981Y515020D01*
X323546Y515585D01*
X322981Y516151D01*
X323546Y516717D01*
X322981Y517282D01*
X323546Y517848D01*
X324112Y518414D01*
X322981Y519545D01*
X323546Y520111D01*
X322415Y521242D01*
X322981Y521808D01*
X322415Y522374D01*
X322981Y522939D01*
X322415Y523505D01*
X322981Y524071D01*
X322415Y524636D01*
X322981Y525202D01*
X322415Y525768D01*
X322981Y526333D01*
X323546Y526899D01*
X322981Y527465D01*
X323546Y528030D01*
X324112Y528596D01*
X324678Y529162D01*
X325243Y529728D01*
X325809Y530293D01*
X326375Y529728D01*
X326940Y530293D01*
X327506Y530859D01*
X328072Y530293D01*
X328638Y530859D01*
X329203Y531425D01*
X329769Y530859D01*
X330335Y531425D01*
X330900Y530859D01*
X331466Y531425D01*
X332032Y530859D01*
X332597Y531425D01*
X333729Y530293D01*
X334295Y530859D01*
X334860Y531425D01*
X335426Y531990D01*
X335992Y531425D01*
X336557Y531990D01*
X337123Y532556D01*
X337689Y531990D01*
X338254Y532556D01*
X338820Y533122D01*
X339386Y532556D01*
X339951Y533122D01*
X340517Y533687D01*
X341083Y533122D01*
X341648Y533687D01*
X342214Y534253D01*
X342780Y533687D01*
X343345Y534253D01*
X343911Y533687D01*
X344477Y534253D01*
X345042Y534819D01*
X345608Y534253D01*
X346174Y534819D01*
X346740Y534253D01*
X347305Y534819D01*
X347871Y534253D01*
X348437Y534819D01*
X349568Y533687D01*
D02*
G37*
%LPC*%
G36*
X277160Y440915D02*
X276594Y440349D01*
X277160Y439783D01*
X276594Y439218D01*
X277160Y438652D01*
X277726Y439218D01*
X277160Y439783D01*
X277726Y440349D01*
X277160Y440915D01*
D02*
G37*
G36*
X276029D02*
X275463Y440349D01*
X276029Y439783D01*
X275463Y439218D01*
X276029Y438652D01*
X276594Y439218D01*
X276029Y439783D01*
X276594Y440349D01*
X276029Y440915D01*
D02*
G37*
G36*
X340517Y448835D02*
X339951Y448269D01*
X341648Y446572D01*
X341083Y446006D01*
X342214Y444875D01*
X341648Y444309D01*
X341083Y443743D01*
X341648Y443178D01*
X341083Y442612D01*
X340517Y442046D01*
X341083Y441481D01*
X340517Y440915D01*
X339951Y440349D01*
X339386Y439783D01*
X338820Y439218D01*
X338254Y438652D01*
X338820Y438086D01*
X339386Y438652D01*
X339951Y439218D01*
X340517Y439783D01*
X341083Y440349D01*
X341648Y440915D01*
X341083Y441481D01*
X341648Y442046D01*
X342214Y442612D01*
X342780Y443178D01*
X342214Y443743D01*
X342780Y444309D01*
X342214Y444875D01*
X342780Y445440D01*
X341648Y446572D01*
X342214Y447137D01*
X340517Y448835D01*
D02*
G37*
G36*
X255099Y440349D02*
X254533Y439783D01*
X255099Y439218D01*
X255664Y439783D01*
X255099Y440349D01*
D02*
G37*
G36*
X253401Y440915D02*
X252836Y440349D01*
X253967Y439218D01*
X254533Y439783D01*
X253401Y440915D01*
D02*
G37*
G36*
X250007D02*
X249442Y440349D01*
X248876Y439783D01*
X249442Y439218D01*
X250007Y439783D01*
X250573Y440349D01*
X250007Y440915D01*
D02*
G37*
G36*
X334860Y438652D02*
X334295Y438086D01*
X334860Y437521D01*
X335426Y438086D01*
X334860Y438652D01*
D02*
G37*
G36*
X333163Y439218D02*
X332597Y438652D01*
X333729Y437521D01*
X334295Y438086D01*
X333163Y439218D01*
D02*
G37*
G36*
X274898Y440915D02*
X274332Y440349D01*
X274898Y439783D01*
X274332Y439218D01*
X274898Y438652D01*
X274332Y438086D01*
X274898Y437521D01*
X275463Y438086D01*
X274898Y438652D01*
X275463Y439218D01*
X274898Y439783D01*
X275463Y440349D01*
X274898Y440915D01*
D02*
G37*
G36*
X248310Y440349D02*
X247745Y439783D01*
X247179Y439218D01*
X246613Y438652D01*
X247179Y438086D01*
X247745Y438652D01*
X248310Y439218D01*
X248876Y439783D01*
X248310Y440349D01*
D02*
G37*
G36*
X337689Y439218D02*
X337123Y438652D01*
X336557Y438086D01*
X337123Y437521D01*
X337689Y438086D01*
X338254Y438652D01*
X337689Y439218D01*
D02*
G37*
G36*
X335992Y438652D02*
X335426Y438086D01*
X335992Y437521D01*
X336557Y438086D01*
X335992Y438652D01*
D02*
G37*
G36*
X251139Y440915D02*
X250573Y440349D01*
X251139Y439783D01*
X251704Y440349D01*
X251139Y440915D01*
D02*
G37*
G36*
X335426Y412065D02*
X334860Y411499D01*
X335426Y410933D01*
X335992Y411499D01*
X335426Y412065D01*
D02*
G37*
G36*
X312233Y457885D02*
X311667Y457320D01*
X311101Y456754D01*
X310536Y456188D01*
X309970Y455623D01*
X310536Y455057D01*
X309970Y454491D01*
X309404Y453926D01*
X309970Y453360D01*
X309404Y452794D01*
X309970Y452229D01*
X309404Y451663D01*
X310536Y450531D01*
X309970Y449966D01*
X312233Y447703D01*
X312798Y448269D01*
X310536Y450531D01*
X311101Y451097D01*
X309970Y452229D01*
X310536Y452794D01*
X309970Y453360D01*
X310536Y453926D01*
X311101Y454491D01*
X310536Y455057D01*
X311101Y455623D01*
X311667Y456188D01*
X312233Y456754D01*
X312798Y457320D01*
X312233Y457885D01*
D02*
G37*
G36*
X313364Y448835D02*
X312798Y448269D01*
X313930Y447137D01*
X314495Y447703D01*
X313364Y448835D01*
D02*
G37*
G36*
X333163Y472028D02*
X332597Y471462D01*
X338820Y465239D01*
X338254Y464674D01*
X339951Y462977D01*
X339386Y462411D01*
X341083Y460714D01*
X340517Y460148D01*
X341648Y459017D01*
X341083Y458451D01*
X341648Y457885D01*
X341083Y457320D01*
X341648Y456754D01*
X341083Y456188D01*
X340517Y455623D01*
X341083Y455057D01*
X340517Y454491D01*
X341083Y453926D01*
X340517Y453360D01*
X339951Y452794D01*
X339386Y452229D01*
X338820Y451663D01*
X339386Y451097D01*
X339951Y451663D01*
X340517Y452229D01*
X341083Y452794D01*
X341648Y453360D01*
X341083Y453926D01*
X341648Y454491D01*
X341083Y455057D01*
X341648Y455623D01*
X342214Y456188D01*
X341648Y456754D01*
X342214Y457320D01*
X341648Y457885D01*
X342214Y458451D01*
X341648Y459017D01*
X342214Y459583D01*
X341083Y460714D01*
X341648Y461280D01*
X339951Y462977D01*
X340517Y463542D01*
X338820Y465239D01*
X339386Y465805D01*
X333163Y472028D01*
D02*
G37*
G36*
X276029Y463542D02*
X275463Y462977D01*
X274898Y462411D01*
X275463Y461845D01*
X274898Y461280D01*
X274332Y460714D01*
X273766Y460148D01*
X274332Y459583D01*
X273766Y459017D01*
X273200Y458451D01*
X273766Y457885D01*
X273200Y457320D01*
X272635Y456754D01*
X273200Y456188D01*
X272635Y455623D01*
X272069Y455057D01*
X272635Y454491D01*
X272069Y453926D01*
X272635Y453360D01*
X272069Y452794D01*
X272635Y452229D01*
X272069Y451663D01*
X272635Y451097D01*
X272069Y450531D01*
X272635Y449966D01*
X272069Y449400D01*
X271503Y449966D01*
X270938Y449400D01*
X270372Y449966D01*
X269806Y449400D01*
X269241Y449966D01*
X268675Y449400D01*
X268109Y449966D01*
X267544Y449400D01*
X266978Y449966D01*
X266412Y449400D01*
X265846Y449966D01*
X265281Y449400D01*
X264715Y448835D01*
X264149Y449400D01*
X263584Y448835D01*
X263018Y448269D01*
X262452Y448835D01*
X261887Y448269D01*
X261321Y447703D01*
X260755Y447137D01*
X261321Y446572D01*
X260755Y446006D01*
X260190Y445440D01*
X259624Y444875D01*
X260190Y444309D01*
X259624Y443743D01*
X259058Y443178D01*
X259624Y442612D01*
X259058Y442046D01*
X259624Y441481D01*
X259058Y440915D01*
X259624Y440349D01*
X259058Y439783D01*
X259624Y439218D01*
X259058Y438652D01*
X258493Y438086D01*
X257927Y437521D01*
X257361Y438086D01*
X256796Y437521D01*
X256230Y438086D01*
X255664Y437521D01*
X255099Y438086D01*
X254533Y437521D01*
X253967Y436955D01*
X253401Y437521D01*
X252836Y436955D01*
X252270Y436389D01*
X251704Y435824D01*
X251139Y436389D01*
X250573Y435824D01*
X250007Y435258D01*
X249442Y435824D01*
X248876Y435258D01*
X248310Y434692D01*
X247745Y434127D01*
X247179Y433561D01*
X247745Y432995D01*
X247179Y432430D01*
X246613Y431864D01*
X247179Y431298D01*
X246613Y430732D01*
X246047Y430167D01*
X245482Y429601D01*
X246047Y429036D01*
X245482Y428470D01*
X244916Y427904D01*
X245482Y427338D01*
X246047Y427904D01*
X246613Y428470D01*
X247179Y429036D01*
X247745Y428470D01*
X248310Y429036D01*
X248876Y429601D01*
X249442Y429036D01*
X250007Y429601D01*
X250573Y430167D01*
X251139Y429601D01*
X251704Y430167D01*
X252270Y429601D01*
X252836Y430167D01*
X253401Y430732D01*
X253967Y430167D01*
X254533Y430732D01*
X255099Y430167D01*
X255664Y430732D01*
X256230Y430167D01*
X256796Y430732D01*
X257361Y430167D01*
X257927Y430732D01*
X258493Y430167D01*
X259058Y430732D01*
X260190Y429601D01*
X260755Y430167D01*
X261321Y429601D01*
X261887Y430167D01*
X263018Y429036D01*
X263584Y429601D01*
X265281Y427904D01*
X265846Y428470D01*
X266978Y427338D01*
X267544Y427904D01*
X269806Y425641D01*
X270372Y426207D01*
X269241Y427338D01*
X269806Y427904D01*
X269241Y428470D01*
X269806Y429036D01*
X269241Y429601D01*
X269806Y430167D01*
X269241Y430732D01*
X269806Y431298D01*
X269241Y431864D01*
X269806Y432430D01*
X269241Y432995D01*
X269806Y433561D01*
X269241Y434127D01*
X269806Y434692D01*
X269241Y435258D01*
X269806Y435824D01*
X269241Y436389D01*
X269806Y436955D01*
X270372Y437521D01*
X269806Y438086D01*
X270372Y438652D01*
X270938Y439218D01*
X271503Y439783D01*
X272069Y440349D01*
X272635Y440915D01*
X273200Y441481D01*
X273766Y440915D01*
X274332Y441481D01*
X274898Y442046D01*
X275463Y441481D01*
X276029Y442046D01*
X276594Y442612D01*
X277160Y442046D01*
X277726Y442612D01*
X278292Y442046D01*
X278857Y442612D01*
X279989Y441481D01*
X280554Y442046D01*
X283383Y439218D01*
X282817Y438652D01*
X283948Y437521D01*
X283383Y436955D01*
X284514Y435824D01*
X283948Y435258D01*
X284514Y434692D01*
X283948Y434127D01*
X284514Y433561D01*
X283948Y432995D01*
X284514Y432430D01*
X283948Y431864D01*
X284514Y431298D01*
X283948Y430732D01*
X284514Y430167D01*
X283948Y429601D01*
X283383Y429036D01*
X283948Y428470D01*
X283383Y427904D01*
X282817Y427338D01*
X284514Y425641D01*
X285080Y426207D01*
X285646Y425641D01*
X286211Y426207D01*
X286777Y425641D01*
X287343Y426207D01*
X287908Y426773D01*
X288474Y427338D01*
X289040Y427904D01*
X288474Y428470D01*
X289040Y429036D01*
X288474Y429601D01*
X289040Y430167D01*
X288474Y430732D01*
X289040Y431298D01*
X288474Y431864D01*
X289040Y432430D01*
X288474Y432995D01*
X289040Y433561D01*
X288474Y434127D01*
X289040Y434692D01*
X287908Y435824D01*
X288474Y436389D01*
X287343Y437521D01*
X287908Y438086D01*
X286777Y439218D01*
X287343Y439783D01*
X286211Y440915D01*
X286777Y441481D01*
X285646Y442612D01*
X286211Y443178D01*
X285080Y444309D01*
X285646Y444875D01*
X283948Y446572D01*
X284514Y447137D01*
X282817Y448835D01*
X283383Y449400D01*
X281686Y451097D01*
X282251Y451663D01*
X280554Y453360D01*
X281120Y453926D01*
X279989Y455057D01*
X280554Y455623D01*
X279423Y456754D01*
X279989Y457320D01*
X278292Y459017D01*
X278857Y459583D01*
X277160Y461280D01*
X277726Y461845D01*
X276029Y463542D01*
D02*
G37*
G36*
X334295Y412065D02*
X333729Y411499D01*
X334295Y410933D01*
X334860Y411499D01*
X334295Y412065D01*
D02*
G37*
G36*
X268675Y406408D02*
X268109Y405842D01*
X268675Y405277D01*
X269241Y405842D01*
X268675Y406408D01*
D02*
G37*
G36*
X278292Y440915D02*
X277726Y440349D01*
X278292Y439783D01*
X278857Y440349D01*
X278292Y440915D01*
D02*
G37*
G36*
X252270D02*
X251704Y440349D01*
X252270Y439783D01*
X252836Y440349D01*
X252270Y440915D01*
D02*
G37*
G36*
X266978Y406974D02*
X266412Y406408D01*
X267544Y405277D01*
X268109Y405842D01*
X266978Y406974D01*
D02*
G37*
G36*
X316758Y447703D02*
X316193Y447137D01*
X316758Y446572D01*
X317324Y447137D01*
X316758Y447703D01*
D02*
G37*
G36*
X315061Y448269D02*
X314495Y447703D01*
X315627Y446572D01*
X316193Y447137D01*
X315061Y448269D01*
D02*
G37*
G36*
X351831Y418287D02*
X351265Y417722D01*
X350699Y417156D01*
X350134Y416590D01*
X349568Y416025D01*
X350134Y415459D01*
X350699Y416025D01*
X351265Y416590D01*
X351831Y417156D01*
X352396Y417722D01*
X351831Y418287D01*
D02*
G37*
G36*
X349002Y416590D02*
X348437Y416025D01*
X347871Y415459D01*
X348437Y414893D01*
X349002Y415459D01*
X349568Y416025D01*
X349002Y416590D01*
D02*
G37*
G36*
X277726Y415459D02*
X277160Y414893D01*
X276594Y415459D01*
X276029Y414893D01*
X275463Y414328D01*
X274898Y413762D01*
X274332Y413196D01*
X273766Y412631D01*
X273200Y413196D01*
X272635Y412631D01*
X272069Y413196D01*
X271503Y412631D01*
X270938Y413196D01*
X270372Y412631D01*
X269806Y412065D01*
X269241Y412631D01*
X268675Y412065D01*
X268109Y412631D01*
X267544Y412065D01*
X266978Y411499D01*
X266412Y410933D01*
X267544Y409802D01*
X266978Y409236D01*
X267544Y408671D01*
X268109Y409236D01*
X269241Y408105D01*
X269806Y408671D01*
X271503Y406974D01*
X270938Y406408D01*
X270372Y405842D01*
X270938Y405277D01*
X271503Y405842D01*
X272069Y405277D01*
X272635Y405842D01*
X273200Y405277D01*
X272635Y404711D01*
X273200Y404145D01*
X272635Y403580D01*
X273200Y403014D01*
X272635Y402448D01*
X273200Y401883D01*
X272635Y401317D01*
X273200Y400751D01*
X272635Y400185D01*
X273200Y399620D01*
X272635Y399054D01*
X273200Y398488D01*
X272635Y397923D01*
X273200Y397357D01*
X272635Y396791D01*
X273766Y395660D01*
X273200Y395094D01*
X274332Y393963D01*
X273766Y393397D01*
X274332Y392832D01*
X273766Y392266D01*
X274898Y391135D01*
X274332Y390569D01*
X276029Y388872D01*
X275463Y388306D01*
X277726Y386043D01*
X277160Y385478D01*
X280554Y382084D01*
X279989Y381518D01*
X282251Y379255D01*
X281686Y378690D01*
X283383Y376992D01*
X283948Y377558D01*
X283383Y378124D01*
X283948Y378690D01*
X284514Y379255D01*
X285080Y379821D01*
X284514Y380386D01*
X285080Y380952D01*
X285646Y381518D01*
X285080Y382084D01*
X285646Y382649D01*
X286211Y383215D01*
X285646Y383781D01*
X286211Y384346D01*
X286777Y384912D01*
X286211Y385478D01*
X286777Y386043D01*
X286211Y386609D01*
X286777Y387175D01*
X286211Y387740D01*
X286777Y388306D01*
X286211Y388872D01*
X286777Y389438D01*
X284514Y391700D01*
X285080Y392266D01*
X285646Y391700D01*
X286211Y392266D01*
X286777Y392832D01*
X287343Y392266D01*
X287908Y392832D01*
X288474Y392266D01*
X289040Y392832D01*
X289605Y393397D01*
X290171Y392832D01*
X290737Y393397D01*
X291302Y393963D01*
X291868Y394529D01*
X292434Y395094D01*
X292999Y395660D01*
X293565Y396226D01*
X294131Y396791D01*
X293565Y397357D01*
X294131Y397923D01*
X293565Y398488D01*
X294131Y399054D01*
X293565Y399620D01*
X292999Y399054D01*
X293565Y398488D01*
X292999Y397923D01*
X293565Y397357D01*
X292999Y396791D01*
X292434Y396226D01*
X291868Y395660D01*
X291302Y395094D01*
X290737Y394529D01*
X290171Y395094D01*
X289605Y394529D01*
X289040Y393963D01*
X288474Y394529D01*
X287908Y393963D01*
X287343Y394529D01*
X286777Y393963D01*
X286211Y394529D01*
X285646Y393963D01*
X284514Y395094D01*
X285080Y395660D01*
X285646Y396226D01*
X286211Y395660D01*
X286777Y396226D01*
X287343Y396791D01*
X287908Y396226D01*
X288474Y396791D01*
X289040Y396226D01*
X289605Y396791D01*
X290171Y397357D01*
X290737Y397923D01*
X291302Y398488D01*
X291868Y399054D01*
X292434Y399620D01*
X291868Y400185D01*
X292434Y400751D01*
X291868Y401317D01*
X292434Y401883D01*
X290171Y404145D01*
X289605Y403580D01*
X289040Y404145D01*
X288474Y403580D01*
X287908Y404145D01*
X287343Y403580D01*
X286211Y404711D01*
X285646Y404145D01*
X285080Y403580D01*
X284514Y404145D01*
X285080Y404711D01*
X284514Y405277D01*
X285080Y405842D01*
X284514Y406408D01*
X285080Y406974D01*
X284514Y407539D01*
X285080Y408105D01*
X284514Y408671D01*
X285080Y409236D01*
X285646Y409802D01*
X285080Y410368D01*
X285646Y410933D01*
X286211Y411499D01*
X285646Y412065D01*
X286211Y412631D01*
X286777Y413196D01*
X286211Y413762D01*
X285646Y413196D01*
X285080Y413762D01*
X284514Y413196D01*
X283948Y413762D01*
X283383Y413196D01*
X282817Y413762D01*
X282251Y413196D01*
X281120Y414328D01*
X280554Y413762D01*
X279423Y414893D01*
X278857Y414328D01*
X277726Y415459D01*
D02*
G37*
G36*
X278857Y436955D02*
X278292Y436389D01*
X277726Y435824D01*
X277160Y435258D01*
X276594Y434692D01*
X277160Y434127D01*
X276594Y433561D01*
X276029Y432995D01*
X276594Y432430D01*
X276029Y431864D01*
X276594Y431298D01*
X276029Y430732D01*
X275463Y430167D01*
X276029Y429601D01*
X275463Y429036D01*
X276029Y428470D01*
X275463Y427904D01*
X276029Y427338D01*
X275463Y426773D01*
X276594Y425641D01*
X276029Y425076D01*
X277160Y423944D01*
X276594Y423379D01*
X278292Y421682D01*
X277726Y421116D01*
X279989Y418853D01*
X280554Y419419D01*
X281686Y418287D01*
X282251Y418853D01*
X283948Y417156D01*
X284514Y417722D01*
X285080Y417156D01*
X285646Y417722D01*
X286211Y417156D01*
X286777Y417722D01*
X287343Y417156D01*
X287908Y417722D01*
X288474Y417156D01*
X289040Y417722D01*
X289605Y418287D01*
X290171Y417722D01*
X290737Y418287D01*
X291302Y417722D01*
X291868Y418287D01*
X292434Y418853D01*
X292999Y418287D01*
X293565Y418853D01*
X294131Y419419D01*
X294696Y418853D01*
X295262Y419419D01*
X295828Y419984D01*
X296393Y420550D01*
X296959Y421116D01*
X297525Y420550D01*
X298091Y421116D01*
X298656Y421682D01*
X299222Y422247D01*
X299788Y422813D01*
X296959Y425641D01*
X296393Y425076D01*
X295828Y425641D01*
X295262Y425076D01*
X294696Y425641D01*
X294131Y425076D01*
X293565Y424510D01*
X292999Y423944D01*
X292434Y424510D01*
X291868Y423944D01*
X291302Y423379D01*
X290737Y423944D01*
X290171Y423379D01*
X289605Y422813D01*
X289040Y423379D01*
X288474Y422813D01*
X287908Y423379D01*
X287343Y422813D01*
X286777Y423379D01*
X286211Y422813D01*
X285080Y423944D01*
X284514Y423379D01*
X283383Y424510D01*
X282817Y423944D01*
X279989Y426773D01*
X280554Y427338D01*
X279423Y428470D01*
X279989Y429036D01*
X280554Y429601D01*
X279989Y430167D01*
X280554Y430732D01*
X279989Y431298D01*
X280554Y431864D01*
X281120Y432430D01*
X280554Y432995D01*
X281120Y433561D01*
X280554Y434127D01*
X281120Y434692D01*
X278857Y436955D01*
D02*
G37*
G36*
X363710Y426773D02*
X363144Y426207D01*
X363710Y425641D01*
X363144Y425076D01*
X364842Y423379D01*
X364276Y422813D01*
X367104Y419984D01*
X367670Y420550D01*
X365407Y422813D01*
X365973Y423379D01*
X364276Y425076D01*
X364842Y425641D01*
X363710Y426773D01*
D02*
G37*
G36*
X361447Y423379D02*
X360882Y422813D01*
X360316Y422247D01*
X359750Y421682D01*
X359185Y421116D01*
X358619Y420550D01*
X358053Y419984D01*
X357488Y419419D01*
X356922Y418853D01*
X356356Y418287D01*
X355790Y417722D01*
X355225Y417156D01*
X354659Y417722D01*
X354093Y417156D01*
X353528Y416590D01*
X352962Y416025D01*
X352396Y415459D01*
X351831Y414893D01*
X351265Y414328D01*
X350699Y414893D01*
X350134Y414328D01*
X349568Y413762D01*
X349002Y413196D01*
X348437Y412631D01*
X347871Y413196D01*
X347305Y412631D01*
X346740Y412065D01*
X346174Y411499D01*
X345608Y410933D01*
X345042Y411499D01*
X344477Y410933D01*
X343911Y410368D01*
X343345Y410933D01*
X342780Y410368D01*
X343345Y409802D01*
X342780Y409236D01*
X344477Y407539D01*
X345042Y408105D01*
X345608Y407539D01*
X346174Y408105D01*
X346740Y407539D01*
X347305Y408105D01*
X347871Y407539D01*
X348437Y408105D01*
X349002Y407539D01*
X349568Y408105D01*
X350134Y408671D01*
X350699Y408105D01*
X351265Y408671D01*
X351831Y409236D01*
X352396Y409802D01*
X352962Y409236D01*
X353528Y409802D01*
X354093Y410368D01*
X354659Y410933D01*
X355225Y411499D01*
X355790Y412065D01*
X356356Y412631D01*
X356922Y413196D01*
X357488Y412631D01*
X358053Y413196D01*
X358619Y413762D01*
X359185Y414328D01*
X359750Y414893D01*
X360316Y415459D01*
X360882Y414893D01*
X361447Y415459D01*
X362013Y416025D01*
X362579Y416590D01*
X363144Y417156D01*
X363710Y417722D01*
X364276Y418287D01*
X364842Y418853D01*
X362579Y421116D01*
X363144Y421682D01*
X361447Y423379D01*
D02*
G37*
G36*
X342780Y413762D02*
X342214Y413196D01*
X341648Y412631D01*
X342214Y412065D01*
X342780Y412631D01*
X343345Y413196D01*
X342780Y413762D01*
D02*
G37*
G36*
X339386Y412631D02*
X338820Y412065D01*
X338254Y412631D01*
X337689Y412065D01*
X337123Y411499D01*
X337689Y410933D01*
X338254Y411499D01*
X338820Y410933D01*
X339386Y411499D01*
X339951Y412065D01*
X339386Y412631D01*
D02*
G37*
G36*
X341083Y413196D02*
X340517Y412631D01*
X339951Y412065D01*
X340517Y411499D01*
X341083Y412065D01*
X341648Y412631D01*
X341083Y413196D01*
D02*
G37*
G36*
X346740Y415459D02*
X346174Y414893D01*
X345608Y414328D01*
X346174Y413762D01*
X346740Y414328D01*
X347305Y414893D01*
X346740Y415459D01*
D02*
G37*
G36*
X344477Y414328D02*
X343911Y413762D01*
X343345Y413196D01*
X343911Y412631D01*
X344477Y413196D01*
X345042Y413762D01*
X344477Y414328D01*
D02*
G37*
G36*
X266412D02*
X265846Y413762D01*
X265281Y413196D01*
X265846Y412631D01*
X266412Y413196D01*
X266978Y413762D01*
X266412Y414328D01*
D02*
G37*
G36*
X269806Y406408D02*
X269241Y405842D01*
X269806Y405277D01*
X270372Y405842D01*
X269806Y406408D01*
D02*
G37*
G36*
X381246Y435258D02*
X380681Y434692D01*
X380115Y435258D01*
X379549Y434692D01*
X378984Y435258D01*
X378418Y434692D01*
X377852Y435258D01*
X377287Y434692D01*
X376721Y435258D01*
X376155Y434692D01*
X375589Y435258D01*
X375024Y434692D01*
X374458Y434127D01*
X373892Y434692D01*
X373327Y434127D01*
X372761Y433561D01*
X372195Y434127D01*
X371630Y433561D01*
X371064Y432995D01*
X370498Y433561D01*
X369933Y432995D01*
X369367Y432430D01*
X368801Y431864D01*
X368236Y432430D01*
X367670Y431864D01*
X367104Y431298D01*
X366539Y430732D01*
X365973Y431298D01*
X365407Y430732D01*
X365973Y430167D01*
X365407Y429601D01*
X364842Y429036D01*
X365973Y427904D01*
X365407Y427338D01*
X367670Y425076D01*
X367104Y424510D01*
X369367Y422247D01*
X368801Y421682D01*
X369367Y421116D01*
X369933Y421682D01*
X370498Y421116D01*
X371064Y421682D01*
X371630Y421116D01*
X372195Y421682D01*
X372761Y421116D01*
X373327Y421682D01*
X374458Y420550D01*
X375024Y421116D01*
X376155Y419984D01*
X376721Y420550D01*
X375024Y422247D01*
X375589Y422813D01*
X374458Y423944D01*
X373892Y423379D01*
X372761Y424510D01*
X373327Y425076D01*
X373892Y425641D01*
X374458Y425076D01*
X375024Y425641D01*
X375589Y426207D01*
X376155Y425641D01*
X376721Y426207D01*
X377287Y426773D01*
X377852Y426207D01*
X378418Y426773D01*
X379549Y425641D01*
X380115Y426207D01*
X383509Y422813D01*
X384075Y423379D01*
X383509Y423944D01*
X384075Y424510D01*
X382943Y425641D01*
X383509Y426207D01*
X381812Y427904D01*
X381246Y427338D01*
X379549Y429036D01*
X378984Y428470D01*
X377287Y430167D01*
X377852Y430732D01*
X378418Y431298D01*
X378984Y431864D01*
X379549Y432430D01*
X380115Y431864D01*
X380681Y432430D01*
X381246Y431864D01*
X381812Y432430D01*
X382378Y432995D01*
X382943Y432430D01*
X383509Y432995D01*
X385206Y431298D01*
X385772Y431864D01*
X387469Y430167D01*
X388035Y430732D01*
X389732Y429036D01*
X389166Y428470D01*
X390863Y426773D01*
X391429Y427338D01*
X389732Y429036D01*
X390297Y429601D01*
X387469Y432430D01*
X386903Y431864D01*
X384641Y434127D01*
X384075Y433561D01*
X382943Y434692D01*
X382378Y434127D01*
X381246Y435258D01*
D02*
G37*
G36*
X271503Y437521D02*
X270938Y436955D01*
X271503Y436389D01*
X270938Y435824D01*
X271503Y435258D01*
X270938Y434692D01*
X271503Y434127D01*
X272069Y434692D01*
X271503Y435258D01*
X272069Y435824D01*
X271503Y436389D01*
X272069Y436955D01*
X271503Y437521D01*
D02*
G37*
G36*
X310536Y446006D02*
X309970Y445440D01*
X309404Y444875D01*
X308839Y444309D01*
X308273Y443743D01*
X307707Y443178D01*
X308273Y442612D01*
X307707Y442046D01*
X307142Y441481D01*
X306576Y440915D01*
X306010Y440349D01*
X305445Y439783D01*
X304879Y439218D01*
X305445Y438652D01*
X304879Y438086D01*
X304313Y437521D01*
X303747Y436955D01*
X303182Y436389D01*
X304313Y435258D01*
X304879Y435824D01*
X306010Y434692D01*
X306576Y435258D01*
X307707Y434127D01*
X308273Y434692D01*
X309404Y433561D01*
X309970Y434127D01*
X310536Y433561D01*
X311101Y434127D01*
X312233Y432995D01*
X312798Y433561D01*
X313364Y432995D01*
X313930Y433561D01*
X314495Y432995D01*
X315061Y433561D01*
X313930Y434692D01*
X314495Y435258D01*
X313364Y436389D01*
X313930Y436955D01*
X313364Y437521D01*
X313930Y438086D01*
X313364Y438652D01*
X313930Y439218D01*
X313364Y439783D01*
X313930Y440349D01*
X314495Y440915D01*
X313930Y441481D01*
X314495Y442046D01*
X315061Y442612D01*
X315627Y443178D01*
X315061Y443743D01*
X315627Y444309D01*
X315061Y444875D01*
X314495Y444309D01*
X313930Y444875D01*
X313364Y444309D01*
X312233Y445440D01*
X311667Y444875D01*
X310536Y446006D01*
D02*
G37*
G36*
X246047Y439218D02*
X245482Y438652D01*
X244916Y438086D01*
X244351Y437521D01*
X244916Y436955D01*
X245482Y437521D01*
X246047Y438086D01*
X246613Y438652D01*
X246047Y439218D01*
D02*
G37*
G36*
X273766Y439783D02*
X273200Y439218D01*
X273766Y438652D01*
X273200Y438086D01*
X273766Y437521D01*
X273200Y436955D01*
X273766Y436389D01*
X274332Y436955D01*
X273766Y437521D01*
X274332Y438086D01*
X273766Y438652D01*
X274332Y439218D01*
X273766Y439783D01*
D02*
G37*
G36*
X272635Y438652D02*
X272069Y438086D01*
X272635Y437521D01*
X272069Y436955D01*
X272635Y436389D01*
X272069Y435824D01*
X272635Y435258D01*
X273200Y435824D01*
X272635Y436389D01*
X273200Y436955D01*
X272635Y437521D01*
X273200Y438086D01*
X272635Y438652D01*
D02*
G37*
G36*
X320718Y433561D02*
X320152Y432995D01*
X321284Y431864D01*
X321849Y432430D01*
X320718Y433561D01*
D02*
G37*
G36*
X336557Y412065D02*
X335992Y411499D01*
X336557Y410933D01*
X337123Y411499D01*
X336557Y412065D01*
D02*
G37*
G36*
X371064Y453360D02*
X370498Y452794D01*
X371064Y452229D01*
X370498Y451663D01*
X371064Y451097D01*
X370498Y450531D01*
X369933Y449966D01*
X370498Y449400D01*
X369933Y448835D01*
X369367Y448269D01*
X369933Y447703D01*
X369367Y447137D01*
X368801Y446572D01*
X369367Y446006D01*
X368801Y445440D01*
X368236Y444875D01*
X368801Y444309D01*
X368236Y443743D01*
X367670Y443178D01*
X368236Y442612D01*
X367670Y442046D01*
X367104Y441481D01*
X367670Y440915D01*
X367104Y440349D01*
X366539Y439783D01*
X365973Y439218D01*
X366539Y438652D01*
X365973Y438086D01*
X365407Y437521D01*
X364842Y436955D01*
X365407Y436389D01*
X364842Y435824D01*
X364276Y435258D01*
X363710Y434692D01*
X364276Y434127D01*
X363710Y433561D01*
X363144Y432995D01*
X362579Y432430D01*
X363144Y431864D01*
X362579Y431298D01*
X362013Y430732D01*
X362579Y430167D01*
X362013Y429601D01*
X361447Y429036D01*
X360882Y428470D01*
X361447Y427904D01*
X362013Y428470D01*
X362579Y429036D01*
X363144Y429601D01*
X362579Y430167D01*
X363144Y430732D01*
X363710Y431298D01*
X363144Y431864D01*
X363710Y432430D01*
X364276Y432995D01*
X364842Y433561D01*
X364276Y434127D01*
X364842Y434692D01*
X365407Y435258D01*
X365973Y435824D01*
X366539Y436389D01*
X365973Y436955D01*
X366539Y437521D01*
X367104Y438086D01*
X367670Y438652D01*
X367104Y439218D01*
X367670Y439783D01*
X368236Y440349D01*
X367670Y440915D01*
X368236Y441481D01*
X368801Y442046D01*
X368236Y442612D01*
X368801Y443178D01*
X369367Y443743D01*
X368801Y444309D01*
X369367Y444875D01*
X369933Y445440D01*
X369367Y446006D01*
X369933Y446572D01*
X370498Y447137D01*
X369933Y447703D01*
X370498Y448269D01*
X371064Y448835D01*
X370498Y449400D01*
X371064Y449966D01*
X371630Y450531D01*
X371064Y451097D01*
X371630Y451663D01*
X371064Y452229D01*
X371630Y452794D01*
X371064Y453360D01*
D02*
G37*
G36*
X325243Y433561D02*
X324678Y432995D01*
X324112Y432430D01*
X324678Y431864D01*
X325243Y432430D01*
X325809Y432995D01*
X325243Y433561D01*
D02*
G37*
G36*
X323546Y432995D02*
X322981Y432430D01*
X323546Y431864D01*
X324112Y432430D01*
X323546Y432995D01*
D02*
G37*
G36*
X322415D02*
X321849Y432430D01*
X322415Y431864D01*
X322981Y432430D01*
X322415Y432995D01*
D02*
G37*
G36*
X264715Y413762D02*
X264149Y413196D01*
X263584Y412631D01*
X263018Y412065D01*
X263584Y411499D01*
X263018Y410933D01*
X263584Y410368D01*
X263018Y409802D01*
X264149Y408671D01*
X263584Y408105D01*
X265846Y405842D01*
X266412Y406408D01*
X264149Y408671D01*
X264715Y409236D01*
X263584Y410368D01*
X264149Y410933D01*
X263584Y411499D01*
X264149Y412065D01*
X264715Y412631D01*
X265281Y413196D01*
X264715Y413762D01*
D02*
G37*
G36*
X270372Y401317D02*
X269806Y400751D01*
X270372Y400185D01*
X269806Y399620D01*
X270372Y399054D01*
X269806Y398488D01*
X270372Y397923D01*
X269806Y397357D01*
X270372Y396791D01*
X269806Y396226D01*
X270372Y395660D01*
X269806Y395094D01*
X270938Y393963D01*
X270372Y393397D01*
X270938Y392832D01*
X270372Y392266D01*
X270938Y391700D01*
X270372Y391135D01*
X271503Y390003D01*
X270938Y389438D01*
X272635Y387740D01*
X272069Y387175D01*
X273766Y385478D01*
X273200Y384912D01*
X274898Y383215D01*
X274332Y382649D01*
X277160Y379821D01*
X276594Y379255D01*
X279423Y376427D01*
X278857Y375861D01*
X280554Y374164D01*
X279989Y373598D01*
X281686Y371901D01*
X281120Y371336D01*
X283383Y369073D01*
X283948Y369638D01*
X284514Y370204D01*
X285080Y370770D01*
X284514Y371336D01*
X285080Y371901D01*
X285646Y372467D01*
X285080Y373033D01*
X285646Y373598D01*
X286211Y374164D01*
X285646Y374730D01*
X286211Y375295D01*
X286777Y375861D01*
X287343Y376427D01*
X286777Y376992D01*
X287343Y377558D01*
X287908Y378124D01*
X287343Y378690D01*
X287908Y379255D01*
X288474Y379821D01*
X287908Y380386D01*
X288474Y380952D01*
X289040Y381518D01*
X288474Y382084D01*
X289040Y382649D01*
X288474Y383215D01*
X287908Y382649D01*
X288474Y382084D01*
X287908Y381518D01*
X287343Y380952D01*
X287908Y380386D01*
X287343Y379821D01*
X286777Y379255D01*
X286211Y378690D01*
X286777Y378124D01*
X286211Y377558D01*
X285646Y376992D01*
X286211Y376427D01*
X285646Y375861D01*
X285080Y375295D01*
X284514Y374730D01*
X285080Y374164D01*
X284514Y373598D01*
X283948Y373033D01*
X284514Y372467D01*
X283948Y371901D01*
X283383Y371336D01*
X283948Y370770D01*
X283383Y370204D01*
X281686Y371901D01*
X282251Y372467D01*
X280554Y374164D01*
X281120Y374730D01*
X279423Y376427D01*
X279989Y376992D01*
X277160Y379821D01*
X277726Y380386D01*
X274898Y383215D01*
X275463Y383781D01*
X273766Y385478D01*
X274332Y386043D01*
X272635Y387740D01*
X273200Y388306D01*
X271503Y390003D01*
X272069Y390569D01*
X270938Y391700D01*
X271503Y392266D01*
X270938Y392832D01*
X271503Y393397D01*
X270938Y393963D01*
X271503Y394529D01*
X270372Y395660D01*
X270938Y396226D01*
X270372Y396791D01*
X270938Y397357D01*
X270372Y397923D01*
X270938Y398488D01*
X270372Y399054D01*
X270938Y399620D01*
X270372Y400185D01*
X270938Y400751D01*
X270372Y401317D01*
D02*
G37*
G36*
X354093Y409236D02*
X353528Y408671D01*
X352962Y408105D01*
X352396Y407539D01*
X351831Y406974D01*
X351265Y406408D01*
X351831Y405842D01*
X352396Y406408D01*
X352962Y406974D01*
X353528Y407539D01*
X354093Y408105D01*
X354659Y408671D01*
X354093Y409236D01*
D02*
G37*
G36*
X346740Y511626D02*
X346174Y511060D01*
X345608Y510494D01*
X345042Y509929D01*
X344477Y509363D01*
X343911Y508797D01*
X344477Y508231D01*
X345042Y508797D01*
X345608Y509363D01*
X346174Y509929D01*
X346740Y510494D01*
X347305Y511060D01*
X346740Y511626D01*
D02*
G37*
G36*
X306576Y503140D02*
X306010Y502575D01*
X305445Y502009D01*
X304879Y502575D01*
X304313Y502009D01*
X303747Y501443D01*
X303182Y500878D01*
X302616Y501443D01*
X302050Y500878D01*
X301485Y500312D01*
X300919Y499746D01*
X300353Y499181D01*
X300919Y498615D01*
X300353Y498049D01*
X299788Y497483D01*
X299222Y496918D01*
X298656Y496352D01*
X298091Y495786D01*
X298656Y495221D01*
X298091Y494655D01*
X297525Y494089D01*
X296959Y493524D01*
X296393Y492958D01*
X296959Y492392D01*
X296393Y491827D01*
X295828Y491261D01*
X296393Y490695D01*
X295828Y490130D01*
X295262Y489564D01*
X295828Y488998D01*
X295262Y488432D01*
X294696Y487867D01*
X295262Y487301D01*
X294696Y486735D01*
X294131Y486170D01*
X294696Y485604D01*
X294131Y485038D01*
X293565Y484473D01*
X294131Y483907D01*
X293565Y483341D01*
X292999Y482776D01*
X293565Y482210D01*
X292999Y481644D01*
X292434Y481078D01*
X292999Y480513D01*
X292434Y479947D01*
X292999Y479382D01*
X292434Y478816D01*
X292999Y478250D01*
X292434Y477684D01*
X292999Y477119D01*
X293565Y477684D01*
X292999Y478250D01*
X293565Y478816D01*
X292999Y479382D01*
X293565Y479947D01*
X292999Y480513D01*
X293565Y481078D01*
X294131Y481644D01*
X293565Y482210D01*
X294131Y482776D01*
X294696Y483341D01*
X294131Y483907D01*
X294696Y484473D01*
X295262Y485038D01*
X294696Y485604D01*
X295262Y486170D01*
X295828Y486735D01*
X295262Y487301D01*
X295828Y487867D01*
X296393Y488432D01*
X295828Y488998D01*
X296393Y489564D01*
X296959Y490130D01*
X296393Y490695D01*
X296959Y491261D01*
X297525Y491827D01*
X296959Y492392D01*
X297525Y492958D01*
X298091Y493524D01*
X298656Y494089D01*
X299222Y494655D01*
X298656Y495221D01*
X299222Y495786D01*
X299788Y496352D01*
X300353Y496918D01*
X300919Y497483D01*
X301485Y498049D01*
X302050Y498615D01*
X302616Y499181D01*
X303182Y499746D01*
X303747Y500312D01*
X304313Y499746D01*
X304879Y500312D01*
X305445Y500878D01*
X306010Y500312D01*
X306576Y500878D01*
X307707Y499746D01*
X307142Y499181D01*
X308839Y497483D01*
X308273Y496918D01*
X309404Y495786D01*
X308839Y495221D01*
X310536Y493524D01*
X309970Y492958D01*
X312798Y490130D01*
X312233Y489564D01*
X315061Y486735D01*
X314495Y486170D01*
X323546Y477119D01*
X324112Y477684D01*
X315061Y486735D01*
X315627Y487301D01*
X312798Y490130D01*
X313364Y490695D01*
X310536Y493524D01*
X311101Y494089D01*
X309404Y495786D01*
X309970Y496352D01*
X308839Y497483D01*
X309404Y498049D01*
X307707Y499746D01*
X308273Y500312D01*
X307707Y500878D01*
X308273Y501443D01*
X306576Y503140D01*
D02*
G37*
G36*
X352396Y512757D02*
X351831Y512191D01*
X351265Y511626D01*
X350699Y511060D01*
X350134Y510494D01*
X349568Y509929D01*
X350134Y509363D01*
X349568Y508797D01*
X349002Y508231D01*
X348437Y507666D01*
X347871Y507100D01*
X354659Y500312D01*
X355225Y500878D01*
X356356Y499746D01*
X356922Y500312D01*
X358053Y499181D01*
X358619Y499746D01*
X360316Y498049D01*
X360882Y498615D01*
X362013Y497483D01*
X362579Y498049D01*
X362013Y498615D01*
X362579Y499181D01*
X362013Y499746D01*
X362579Y500312D01*
X361447Y501443D01*
X362013Y502009D01*
X360882Y503140D01*
X361447Y503706D01*
X352396Y512757D01*
D02*
G37*
G36*
X304879Y474290D02*
X304313Y473725D01*
X303747Y474290D01*
X303182Y473725D01*
X302616Y474290D01*
X302050Y473725D01*
X301485Y474290D01*
X300919Y473725D01*
X300353Y474290D01*
X299788Y473725D01*
X299222Y474290D01*
X298656Y473725D01*
X298091Y474290D01*
X297525Y473725D01*
X296959Y474290D01*
X296393Y473725D01*
X295828Y474290D01*
X295262Y473725D01*
X294696Y474290D01*
X294131Y473725D01*
X293565Y473159D01*
X294131Y472593D01*
X294696Y473159D01*
X295262Y472593D01*
X295828Y473159D01*
X296393Y472593D01*
X296959Y473159D01*
X297525Y472593D01*
X298091Y473159D01*
X298656Y472593D01*
X299222Y473159D01*
X299788Y472593D01*
X300353Y473159D01*
X300919Y472593D01*
X301485Y473159D01*
X302050Y472593D01*
X302616Y473159D01*
X303182Y472593D01*
X303747Y473159D01*
X304313Y472593D01*
X304879Y473159D01*
X306010Y472028D01*
X306576Y472593D01*
X307142Y472028D01*
X307707Y472593D01*
X306576Y473725D01*
X306010Y473159D01*
X304879Y474290D01*
D02*
G37*
G36*
X279423Y472593D02*
X278857Y472028D01*
X278292Y472593D01*
X277726Y472028D01*
X277160Y471462D01*
X276594Y470896D01*
X276029Y470330D01*
X275463Y469765D01*
X274898Y469199D01*
X274332Y468634D01*
X273766Y468068D01*
X273200Y467502D01*
X272635Y466936D01*
X272069Y466371D01*
X272635Y465805D01*
X272069Y465239D01*
X271503Y464674D01*
X270938Y464108D01*
X271503Y463542D01*
X270938Y462977D01*
X270372Y462411D01*
X269806Y461845D01*
X270372Y461280D01*
X269806Y460714D01*
X269241Y460148D01*
X269806Y459583D01*
X269241Y459017D01*
X269806Y458451D01*
X270372Y459017D01*
X269806Y459583D01*
X270372Y460148D01*
X270938Y460714D01*
X270372Y461280D01*
X270938Y461845D01*
X271503Y462411D01*
X272069Y462977D01*
X271503Y463542D01*
X272069Y464108D01*
X272635Y464674D01*
X273200Y465239D01*
X272635Y465805D01*
X273200Y466371D01*
X273766Y466936D01*
X274332Y467502D01*
X274898Y468068D01*
X275463Y468634D01*
X276029Y469199D01*
X276594Y469765D01*
X277160Y469199D01*
X277726Y469765D01*
X278292Y470330D01*
X278857Y470896D01*
X279423Y471462D01*
X279989Y472028D01*
X279423Y472593D01*
D02*
G37*
G36*
X308273Y473159D02*
X307707Y472593D01*
X308839Y471462D01*
X309404Y472028D01*
X308273Y473159D01*
D02*
G37*
G36*
X342780Y405842D02*
X342214Y405277D01*
X343911Y403580D01*
X344477Y404145D01*
X345042Y403580D01*
X345608Y404145D01*
X346174Y403580D01*
X346740Y404145D01*
X347305Y404711D01*
X346740Y405277D01*
X346174Y404711D01*
X345608Y405277D01*
X345042Y404711D01*
X344477Y405277D01*
X343911Y404711D01*
X342780Y405842D01*
D02*
G37*
G36*
X348437D02*
X347871Y405277D01*
X347305Y404711D01*
X347871Y404145D01*
X348437Y404711D01*
X349002Y405277D01*
X348437Y405842D01*
D02*
G37*
G36*
X324678Y478250D02*
X324112Y477684D01*
X327506Y474290D01*
X328072Y474856D01*
X324678Y478250D01*
D02*
G37*
G36*
X349568Y515585D02*
X349002Y515020D01*
X348437Y514454D01*
X347871Y513888D01*
X347305Y513323D01*
X347871Y512757D01*
X348437Y513323D01*
X349002Y513888D01*
X349568Y514454D01*
X350134Y515020D01*
X349568Y515585D01*
D02*
G37*
G36*
X338254Y531425D02*
X337689Y530859D01*
X337123Y530293D01*
X337689Y529728D01*
X338254Y530293D01*
X338820Y530859D01*
X338254Y531425D01*
D02*
G37*
G36*
X336557Y530859D02*
X335992Y530293D01*
X335426Y529728D01*
X335992Y529162D01*
X336557Y529728D01*
X337123Y530293D01*
X336557Y530859D01*
D02*
G37*
G36*
X332032Y529728D02*
X331466Y529162D01*
X330900Y529728D01*
X330335Y529162D01*
X329769Y528596D01*
X330335Y528030D01*
X330900Y528596D01*
X331466Y528030D01*
X332032Y528596D01*
X332597Y528030D01*
X333163Y528596D01*
X332032Y529728D01*
D02*
G37*
G36*
X348437Y532556D02*
X347871Y531990D01*
X347305Y532556D01*
X346740Y531990D01*
X346174Y532556D01*
X345608Y531990D01*
X345042Y532556D01*
X344477Y531990D01*
X343911Y531425D01*
X344477Y530859D01*
X345042Y531425D01*
X345608Y530859D01*
X346174Y531425D01*
X346740Y530859D01*
X347305Y531425D01*
X347871Y530859D01*
X348437Y531425D01*
X349002Y530859D01*
X349568Y531425D01*
X348437Y532556D01*
D02*
G37*
G36*
X351265Y531990D02*
X350699Y531425D01*
X350134Y531990D01*
X349568Y531425D01*
X350699Y530293D01*
X350134Y529728D01*
X349568Y529162D01*
X350134Y528596D01*
X350699Y529162D01*
X351265Y529728D01*
X351831Y530293D01*
X352396Y530859D01*
X351265Y531990D01*
D02*
G37*
G36*
X339951D02*
X339386Y531425D01*
X338820Y530859D01*
X339386Y530293D01*
X339951Y530859D01*
X340517Y531425D01*
X339951Y531990D01*
D02*
G37*
G36*
X343345D02*
X342780Y531425D01*
X342214Y530859D01*
X341648Y530293D01*
X341083Y529728D01*
X340517Y529162D01*
X339951Y528596D01*
X340517Y528030D01*
X339951Y527465D01*
X340517Y526899D01*
X339951Y526333D01*
X340517Y525768D01*
X339951Y525202D01*
X339386Y525768D01*
X338820Y525202D01*
X337689Y526333D01*
X337123Y525768D01*
X336557Y525202D01*
X337689Y524071D01*
X337123Y523505D01*
X336557Y522939D01*
X335992Y523505D01*
X335426Y522939D01*
X334295Y524071D01*
X333729Y523505D01*
X332032Y525202D01*
X331466Y524636D01*
X330900Y525202D01*
X330335Y524636D01*
X329769Y524071D01*
X330335Y523505D01*
X329769Y522939D01*
X330335Y522374D01*
X329769Y521808D01*
X330900Y520677D01*
X330335Y520111D01*
X332597Y517848D01*
X332032Y517282D01*
X331466Y516717D01*
X330900Y516151D01*
X330335Y516717D01*
X329769Y516151D01*
X329203Y515585D01*
X328638Y515020D01*
X328072Y514454D01*
X328638Y513888D01*
X328072Y513323D01*
X327506Y512757D01*
X326940Y512191D01*
X326375Y511626D01*
X325809Y511060D01*
X326375Y510494D01*
X325809Y509929D01*
X325243Y509363D01*
X325809Y508797D01*
X325243Y508231D01*
X324678Y507666D01*
X325809Y506534D01*
X325243Y505969D01*
X325809Y505403D01*
X325243Y504837D01*
X326375Y503706D01*
X325809Y503140D01*
X326940Y502009D01*
X327506Y502575D01*
X326375Y503706D01*
X326940Y504272D01*
X325809Y505403D01*
X326375Y505969D01*
X325809Y506534D01*
X326375Y507100D01*
X325809Y507666D01*
X326375Y508231D01*
X325809Y508797D01*
X326375Y509363D01*
X326940Y509929D01*
X326375Y510494D01*
X326940Y511060D01*
X327506Y511626D01*
X328072Y512191D01*
X328638Y512757D01*
X329203Y513323D01*
X329769Y512757D01*
X330335Y513323D01*
X330900Y513888D01*
X331466Y514454D01*
X332597Y513323D01*
X332032Y512757D01*
X331466Y512191D01*
X330900Y511626D01*
X330335Y511060D01*
X330900Y510494D01*
X330335Y509929D01*
X329769Y509363D01*
X329203Y508797D01*
X328638Y508231D01*
X329203Y507666D01*
X328638Y507100D01*
X329769Y505969D01*
X329203Y505403D01*
X328638Y504837D01*
X329203Y504272D01*
X329769Y504837D01*
X330335Y505403D01*
X330900Y505969D01*
X331466Y506534D01*
X332032Y507100D01*
X332597Y506534D01*
X333163Y507100D01*
X333729Y507666D01*
X334295Y508231D01*
X334860Y507666D01*
X335426Y508231D01*
X335992Y508797D01*
X336557Y508231D01*
X337123Y508797D01*
X337689Y509363D01*
X338254Y508797D01*
X338820Y509363D01*
X339386Y508797D01*
X339951Y509363D01*
X340517Y508797D01*
X341083Y509363D01*
X341648Y509929D01*
X342214Y510494D01*
X342780Y511060D01*
X342214Y511626D01*
X342780Y512191D01*
X343345Y512757D01*
X343911Y513323D01*
X344477Y513888D01*
X345042Y514454D01*
X344477Y515020D01*
X345042Y515585D01*
X345608Y516151D01*
X346174Y516717D01*
X346740Y517282D01*
X346174Y517848D01*
X346740Y518414D01*
X346174Y518980D01*
X346740Y519545D01*
X345608Y520677D01*
X346174Y521242D01*
X345608Y521808D01*
X346174Y522374D01*
X345608Y522939D01*
X346174Y523505D01*
X346740Y524071D01*
X346174Y524636D01*
X346740Y525202D01*
X347305Y525768D01*
X347871Y526333D01*
X347305Y526899D01*
X347871Y527465D01*
X348437Y528030D01*
X349002Y528596D01*
X349568Y529162D01*
X349002Y529728D01*
X348437Y529162D01*
X347871Y528596D01*
X347305Y529162D01*
X346740Y528596D01*
X346174Y528030D01*
X345608Y528596D01*
X345042Y528030D01*
X344477Y527465D01*
X343911Y528030D01*
X343345Y527465D01*
X342780Y526899D01*
X342214Y526333D01*
X341648Y525768D01*
X341083Y526333D01*
X341648Y526899D01*
X341083Y527465D01*
X341648Y528030D01*
X341083Y528596D01*
X341648Y529162D01*
X342214Y529728D01*
X342780Y530293D01*
X343345Y530859D01*
X343911Y531425D01*
X343345Y531990D01*
D02*
G37*
G36*
X358619Y514454D02*
X358053Y513888D01*
X357488Y514454D01*
X356922Y513888D01*
X356356Y514454D01*
X355790Y513888D01*
X355225Y513323D01*
X356922Y511626D01*
X357488Y512191D01*
X363710Y505969D01*
X363144Y505403D01*
X365407Y503140D01*
X364842Y502575D01*
X365973Y501443D01*
X365407Y500878D01*
X365973Y500312D01*
X365407Y499746D01*
X365973Y499181D01*
X365407Y498615D01*
X365973Y498049D01*
X365407Y497483D01*
X365973Y496918D01*
X365407Y496352D01*
X365973Y495786D01*
X365407Y495221D01*
X365973Y494655D01*
X365407Y494089D01*
X365973Y493524D01*
X365407Y492958D01*
X364842Y492392D01*
X364276Y492958D01*
X363710Y492392D01*
X362013Y494089D01*
X361447Y493524D01*
X358619Y496352D01*
X358053Y495786D01*
X359185Y494655D01*
X358619Y494089D01*
X360316Y492392D01*
X359750Y491827D01*
X360882Y490695D01*
X360316Y490130D01*
X361447Y488998D01*
X360882Y488432D01*
X361447Y487867D01*
X360882Y487301D01*
X361447Y486735D01*
X360882Y486170D01*
X361447Y485604D01*
X360882Y485038D01*
X361447Y484473D01*
X360882Y483907D01*
X360316Y483341D01*
X360882Y482776D01*
X360316Y482210D01*
X359750Y481644D01*
X360316Y481078D01*
X359750Y480513D01*
X359185Y479947D01*
X359750Y479382D01*
X359185Y478816D01*
X358619Y478250D01*
X358053Y477684D01*
X358619Y477119D01*
X358053Y476553D01*
X357488Y475987D01*
X356922Y475422D01*
X356356Y474856D01*
X356922Y474290D01*
X356356Y473725D01*
X355790Y473159D01*
X355225Y472593D01*
X354659Y472028D01*
X354093Y471462D01*
X353528Y470896D01*
X352962Y470330D01*
X352396Y469765D01*
X351831Y470330D01*
X351265Y469765D01*
X350699Y469199D01*
X350134Y468634D01*
X349568Y468068D01*
X349002Y467502D01*
X348437Y468068D01*
X347871Y467502D01*
X349002Y466371D01*
X349568Y466936D01*
X350699Y465805D01*
X351265Y466371D01*
X351831Y465805D01*
X352396Y466371D01*
X352962Y465805D01*
X353528Y466371D01*
X354093Y465805D01*
X354659Y466371D01*
X355225Y465805D01*
X355790Y466371D01*
X356356Y465805D01*
X356922Y466371D01*
X357488Y466936D01*
X358619Y465805D01*
X359185Y466371D01*
X360882Y464674D01*
X361447Y465239D01*
X363144Y463542D01*
X363710Y464108D01*
X365407Y462411D01*
X365973Y462977D01*
X368236Y460714D01*
X368801Y461280D01*
X369933Y460148D01*
X370498Y460714D01*
X371630Y459583D01*
X372195Y460148D01*
X373327Y459017D01*
X372761Y458451D01*
X373892Y457320D01*
X373327Y456754D01*
X377852Y452229D01*
X378418Y452794D01*
X380115Y451097D01*
X380681Y451663D01*
X381246Y451097D01*
X381812Y451663D01*
X382378Y451097D01*
X382943Y451663D01*
X382378Y452229D01*
X382943Y452794D01*
X382378Y453360D01*
X382943Y453926D01*
X382378Y454491D01*
X382943Y455057D01*
X382378Y455623D01*
X382943Y456188D01*
X382378Y456754D01*
X382943Y457320D01*
X382378Y457885D01*
X382943Y458451D01*
X382378Y459017D01*
X382943Y459583D01*
X382378Y460148D01*
X382943Y460714D01*
X382378Y461280D01*
X382943Y461845D01*
X382378Y462411D01*
X382943Y462977D01*
X383509Y463542D01*
X382943Y464108D01*
X383509Y464674D01*
X382943Y465239D01*
X383509Y465805D01*
X382943Y466371D01*
X383509Y466936D01*
X384075Y467502D01*
X383509Y468068D01*
X384075Y468634D01*
X383509Y469199D01*
X384075Y469765D01*
X383509Y470330D01*
X384075Y470896D01*
X384641Y471462D01*
X384075Y472028D01*
X384641Y472593D01*
X384075Y473159D01*
X384641Y473725D01*
X384075Y474290D01*
X384641Y474856D01*
X385206Y475422D01*
X384641Y475987D01*
X385206Y476553D01*
X384641Y477119D01*
X385206Y477684D01*
X384641Y478250D01*
X385206Y478816D01*
X384641Y479382D01*
X385206Y479947D01*
X384641Y480513D01*
X385206Y481078D01*
X384075Y482210D01*
X384641Y482776D01*
X384075Y483341D01*
X384641Y483907D01*
X383509Y485038D01*
X384075Y485604D01*
X382943Y486735D01*
X383509Y487301D01*
X381246Y489564D01*
X381812Y490130D01*
X376155Y495786D01*
X375589Y495221D01*
X373327Y497483D01*
X372761Y496918D01*
X370498Y499181D01*
X371064Y499746D01*
X370498Y500312D01*
X371064Y500878D01*
X370498Y501443D01*
X371064Y502009D01*
X369933Y503140D01*
X370498Y503706D01*
X369367Y504837D01*
X369933Y505403D01*
X368236Y507100D01*
X368801Y507666D01*
X363710Y512757D01*
X363144Y512191D01*
X361447Y513888D01*
X360882Y513323D01*
X360316Y513888D01*
X359750Y513323D01*
X358619Y514454D01*
D02*
G37*
G36*
X325243Y518414D02*
X324678Y517848D01*
X325243Y517282D01*
X324678Y516717D01*
X325243Y516151D01*
X324678Y515585D01*
X325243Y515020D01*
X324678Y514454D01*
X325243Y513888D01*
X325809Y514454D01*
X325243Y515020D01*
X325809Y515585D01*
X325243Y516151D01*
X325809Y516717D01*
X325243Y517282D01*
X325809Y517848D01*
X325243Y518414D01*
D02*
G37*
G36*
X327506Y528596D02*
X326940Y528030D01*
X326375Y528596D01*
X325809Y528030D01*
X325243Y527465D01*
X324678Y526899D01*
X324112Y526333D01*
X324678Y525768D01*
X324112Y525202D01*
X324678Y524636D01*
X324112Y524071D01*
X324678Y523505D01*
X324112Y522939D01*
X325809Y521242D01*
X325243Y520677D01*
X328072Y517848D01*
X328638Y518414D01*
X325809Y521242D01*
X326375Y521808D01*
X325243Y522939D01*
X325809Y523505D01*
X325243Y524071D01*
X325809Y524636D01*
X325243Y525202D01*
X325809Y525768D01*
X325243Y526333D01*
X325809Y526899D01*
X326375Y527465D01*
X326940Y526899D01*
X327506Y527465D01*
X328072Y528030D01*
X327506Y528596D01*
D02*
G37*
G36*
X329203Y529162D02*
X328638Y528596D01*
X328072Y528030D01*
X328638Y527465D01*
X329203Y528030D01*
X329769Y528596D01*
X329203Y529162D01*
D02*
G37*
G36*
X333729D02*
X333163Y528596D01*
X335992Y525768D01*
X336557Y526333D01*
X333729Y529162D01*
D02*
G37*
G36*
X305445Y496352D02*
X304879Y495786D01*
X304313Y495221D01*
X303747Y494655D01*
X303182Y494089D01*
X303747Y493524D01*
X303182Y492958D01*
X302616Y492392D01*
X302050Y491827D01*
X301485Y491261D01*
X300919Y490695D01*
X301485Y490130D01*
X300919Y489564D01*
X300353Y488998D01*
X300919Y488432D01*
X300353Y487867D01*
X299788Y487301D01*
X300353Y486735D01*
X299788Y486170D01*
X299222Y485604D01*
X299788Y485038D01*
X299222Y484473D01*
X298656Y483907D01*
X299222Y483341D01*
X298656Y482776D01*
X298091Y482210D01*
X298656Y481644D01*
X298091Y481078D01*
X298656Y480513D01*
X298091Y479947D01*
X298656Y479382D01*
X298091Y478816D01*
X297525Y478250D01*
X298091Y477684D01*
X297525Y477119D01*
X298656Y475987D01*
X299222Y476553D01*
X299788Y475987D01*
X300353Y476553D01*
X300919Y475987D01*
X301485Y476553D01*
X302050Y477119D01*
X303182Y475987D01*
X303747Y476553D01*
X304313Y477119D01*
X305445Y475987D01*
X306010Y476553D01*
X307142Y475422D01*
X307707Y475987D01*
X308839Y474856D01*
X309404Y475422D01*
X311101Y473725D01*
X311667Y474290D01*
X313364Y472593D01*
X313930Y473159D01*
X315061Y472028D01*
X315627Y472593D01*
X316193Y472028D01*
X315627Y471462D01*
X316193Y470896D01*
X316758Y471462D01*
X317324Y470896D01*
X316758Y470330D01*
X317324Y469765D01*
X317890Y470330D01*
X318455Y470896D01*
X319021Y470330D01*
X318455Y469765D01*
X317890Y469199D01*
X318455Y468634D01*
X319021Y469199D01*
X319587Y469765D01*
X320152Y469199D01*
X319587Y468634D01*
X319021Y468068D01*
X319587Y467502D01*
X320152Y468068D01*
X320718Y468634D01*
X321284Y468068D01*
X320718Y467502D01*
X320152Y466936D01*
X320718Y466371D01*
X321284Y466936D01*
X321849Y467502D01*
X322415Y466936D01*
X321849Y466371D01*
X321284Y465805D01*
X321849Y465239D01*
X322415Y465805D01*
X322981Y465239D01*
X322415Y464674D01*
X322981Y464108D01*
X323546Y464674D01*
X324112Y464108D01*
X323546Y463542D01*
X324678Y462411D01*
X324112Y461845D01*
X324678Y461280D01*
X324112Y460714D01*
X324678Y460148D01*
X324112Y459583D01*
X324678Y459017D01*
X324112Y458451D01*
X323546Y457885D01*
X322981Y457320D01*
X322415Y456754D01*
X321849Y457320D01*
X321284Y456754D01*
X320718Y457320D01*
X320152Y456754D01*
X318455Y458451D01*
X317890Y457885D01*
X319021Y456754D01*
X318455Y456188D01*
X319021Y455623D01*
X318455Y455057D01*
X317890Y454491D01*
X317324Y453926D01*
X316193Y455057D01*
X315627Y454491D01*
X315061Y455057D01*
X314495Y454491D01*
X313930Y453926D01*
X314495Y453360D01*
X313930Y452794D01*
X314495Y452229D01*
X313930Y451663D01*
X315627Y449966D01*
X316193Y450531D01*
X316758Y449966D01*
X317324Y450531D01*
X318455Y449400D01*
X317890Y448835D01*
X318455Y448269D01*
X317890Y447703D01*
X317324Y447137D01*
X317890Y446572D01*
X318455Y447137D01*
X319021Y446572D01*
X319587Y447137D01*
X320152Y446572D01*
X320718Y447137D01*
X321849Y446006D01*
X321284Y445440D01*
X320718Y444875D01*
X320152Y444309D01*
X319587Y444875D01*
X319021Y444309D01*
X318455Y443743D01*
X317890Y443178D01*
X318455Y442612D01*
X317890Y442046D01*
X317324Y441481D01*
X316758Y440915D01*
X317324Y440349D01*
X316758Y439783D01*
X317324Y439218D01*
X316758Y438652D01*
X317324Y438086D01*
X316758Y437521D01*
X317324Y436955D01*
X316758Y436389D01*
X317890Y435258D01*
X317324Y434692D01*
X319587Y432430D01*
X320152Y432995D01*
X317890Y435258D01*
X318455Y435824D01*
X317324Y436955D01*
X317890Y437521D01*
X317324Y438086D01*
X317890Y438652D01*
X317324Y439218D01*
X317890Y439783D01*
X317324Y440349D01*
X317890Y440915D01*
X318455Y441481D01*
X319021Y442046D01*
X319587Y441481D01*
X320152Y442046D01*
X320718Y441481D01*
X320152Y440915D01*
X320718Y440349D01*
X320152Y439783D01*
X321284Y438652D01*
X320718Y438086D01*
X322415Y436389D01*
X322981Y436955D01*
X323546Y436389D01*
X324112Y436955D01*
X324678Y436389D01*
X325243Y436955D01*
X325809Y437521D01*
X326375Y438086D01*
X325809Y438652D01*
X326375Y439218D01*
X326940Y439783D01*
X327506Y440349D01*
X328072Y439783D01*
X328638Y440349D01*
X329769Y439218D01*
X329203Y438652D01*
X329769Y438086D01*
X329203Y437521D01*
X328638Y436955D01*
X328072Y436389D01*
X328638Y435824D01*
X328072Y435258D01*
X327506Y434692D01*
X326940Y434127D01*
X326375Y433561D01*
X325809Y432995D01*
X326375Y432430D01*
X326940Y432995D01*
X327506Y433561D01*
X328072Y434127D01*
X328638Y434692D01*
X329203Y435258D01*
X328638Y435824D01*
X329203Y436389D01*
X329769Y436955D01*
X330335Y437521D01*
X329769Y438086D01*
X330335Y438652D01*
X330900Y439218D01*
X332032Y438086D01*
X332597Y438652D01*
X331466Y439783D01*
X332032Y440349D01*
X331466Y440915D01*
X332032Y441481D01*
X332597Y440915D01*
X333163Y441481D01*
X333729Y440915D01*
X334295Y441481D01*
X334860Y442046D01*
X335426Y441481D01*
X335992Y442046D01*
X336557Y441481D01*
X337123Y442046D01*
X337689Y442612D01*
X338254Y443178D01*
X338820Y443743D01*
X338254Y444309D01*
X338820Y444875D01*
X338254Y445440D01*
X338820Y446006D01*
X336557Y448269D01*
X337123Y448835D01*
X337689Y448269D01*
X338254Y448835D01*
X339386Y447703D01*
X339951Y448269D01*
X338254Y449966D01*
X337689Y449400D01*
X337123Y449966D01*
X336557Y449400D01*
X335426Y450531D01*
X335992Y451097D01*
X336557Y451663D01*
X335992Y452229D01*
X336557Y452794D01*
X337123Y453360D01*
X336557Y453926D01*
X337123Y454491D01*
X337689Y455057D01*
X337123Y455623D01*
X337689Y456188D01*
X338254Y456754D01*
X337689Y457320D01*
X338254Y457885D01*
X337689Y458451D01*
X338254Y459017D01*
X337689Y459583D01*
X338254Y460148D01*
X337123Y461280D01*
X337689Y461845D01*
X336557Y462977D01*
X337123Y463542D01*
X336557Y464108D01*
X335992Y463542D01*
X335426Y464108D01*
X335992Y464674D01*
X335426Y465239D01*
X334860Y464674D01*
X334295Y465239D01*
X334860Y465805D01*
X334295Y466371D01*
X333729Y465805D01*
X333163Y466371D01*
X333729Y466936D01*
X333163Y467502D01*
X332597Y466936D01*
X332032Y467502D01*
X332597Y468068D01*
X332032Y468634D01*
X331466Y468068D01*
X330900Y467502D01*
X330335Y468068D01*
X330900Y468634D01*
X330335Y469199D01*
X329769Y468634D01*
X329203Y468068D01*
X328638Y468634D01*
X329203Y469199D01*
X328638Y469765D01*
X328072Y469199D01*
X327506Y468634D01*
X326940Y469199D01*
X327506Y469765D01*
X326940Y470330D01*
X326375Y469765D01*
X325809Y470330D01*
X326375Y470896D01*
X325809Y471462D01*
X325243Y470896D01*
X324678Y471462D01*
X325243Y472028D01*
X324678Y472593D01*
X324112Y472028D01*
X322981Y473159D01*
X322415Y472593D01*
X321849Y473159D01*
X322415Y473725D01*
X321849Y474290D01*
X321284Y473725D01*
X320718Y474290D01*
X321284Y474856D01*
X320718Y475422D01*
X320152Y474856D01*
X319587Y475422D01*
X320152Y475987D01*
X319587Y476553D01*
X319021Y475987D01*
X318455Y476553D01*
X319021Y477119D01*
X318455Y477684D01*
X317890Y477119D01*
X317324Y477684D01*
X317890Y478250D01*
X317324Y478816D01*
X316758Y478250D01*
X316193Y478816D01*
X316758Y479382D01*
X316193Y479947D01*
X315627Y479382D01*
X315061Y479947D01*
X315627Y480513D01*
X315061Y481078D01*
X314495Y480513D01*
X313930Y481078D01*
X314495Y481644D01*
X313930Y482210D01*
X313364Y481644D01*
X312798Y482210D01*
X313364Y482776D01*
X312798Y483341D01*
X312233Y482776D01*
X311667Y483341D01*
X312233Y483907D01*
X310536Y485604D01*
X311101Y486170D01*
X309404Y487867D01*
X309970Y488432D01*
X308839Y489564D01*
X309404Y490130D01*
X308273Y491261D01*
X308839Y491827D01*
X307142Y493524D01*
X307707Y494089D01*
X305445Y496352D01*
D02*
G37*
G36*
X313930Y458451D02*
X313364Y457885D01*
X312798Y457320D01*
X313364Y456754D01*
X313930Y457320D01*
X314495Y457885D01*
X313930Y458451D01*
D02*
G37*
G36*
X350699Y406974D02*
X350134Y406408D01*
X349568Y405842D01*
X349002Y405277D01*
X349568Y404711D01*
X350134Y405277D01*
X350699Y405842D01*
X351265Y406408D01*
X350699Y406974D01*
D02*
G37*
G36*
X367670Y460148D02*
X367104Y459583D01*
X368801Y457885D01*
X369367Y458451D01*
X367670Y460148D01*
D02*
G37*
G36*
X369933Y459017D02*
X369367Y458451D01*
X371064Y456754D01*
X371630Y457320D01*
X369933Y459017D01*
D02*
G37*
G36*
X340517Y406974D02*
X339951Y406408D01*
X341648Y404711D01*
X342214Y405277D01*
X340517Y406974D01*
D02*
G37*
G36*
X263018Y453926D02*
X262452Y453360D01*
X263018Y452794D01*
X263584Y453360D01*
X263018Y453926D01*
D02*
G37*
G36*
X261887D02*
X261321Y453360D01*
X260755Y452794D01*
X261321Y452229D01*
X261887Y452794D01*
X262452Y453360D01*
X261887Y453926D01*
D02*
G37*
G36*
X260190Y453360D02*
X259624Y452794D01*
X259058Y452229D01*
X259624Y451663D01*
X260190Y452229D01*
X260755Y452794D01*
X260190Y453360D01*
D02*
G37*
G36*
X266412Y453926D02*
X265846Y453360D01*
X266412Y452794D01*
X266978Y453360D01*
X266412Y453926D01*
D02*
G37*
G36*
X265281D02*
X264715Y453360D01*
X265281Y452794D01*
X265846Y453360D01*
X265281Y453926D01*
D02*
G37*
G36*
X264149D02*
X263584Y453360D01*
X264149Y452794D01*
X264715Y453360D01*
X264149Y453926D01*
D02*
G37*
G36*
X333163Y412065D02*
X332597Y411499D01*
X333163Y410933D01*
X333729Y411499D01*
X333163Y412065D01*
D02*
G37*
G36*
X354093Y464674D02*
X353528Y464108D01*
X354093Y463542D01*
X354659Y464108D01*
X354093Y464674D01*
D02*
G37*
G36*
X358619D02*
X358053Y464108D01*
X359185Y462977D01*
X359750Y463542D01*
X358619Y464674D01*
D02*
G37*
G36*
X358053Y462977D02*
X357488Y462411D01*
X356922Y462977D01*
X356356Y462411D01*
X355790Y462977D01*
X355225Y462411D01*
X354659Y461845D01*
X354093Y461280D01*
X353528Y460714D01*
X352962Y461280D01*
X352396Y460714D01*
X351831Y460148D01*
X351265Y460714D01*
X350699Y460148D01*
X350134Y459583D01*
X349568Y459017D01*
X349002Y458451D01*
X348437Y457885D01*
X347871Y458451D01*
X347305Y457885D01*
X346740Y457320D01*
X346174Y457885D01*
X345608Y457320D01*
X345042Y456754D01*
X344477Y457320D01*
X343911Y456754D01*
X344477Y456188D01*
X343911Y455623D01*
X343345Y455057D01*
X343911Y454491D01*
X343345Y453926D01*
X342780Y453360D01*
X343345Y452794D01*
X342780Y452229D01*
X342214Y451663D01*
X341648Y451097D01*
X344477Y448269D01*
X343911Y447703D01*
X345042Y446572D01*
X344477Y446006D01*
X345608Y444875D01*
X345042Y444309D01*
X344477Y443743D01*
X345042Y443178D01*
X344477Y442612D01*
X343911Y442046D01*
X344477Y441481D01*
X343911Y440915D01*
X344477Y440349D01*
X343911Y439783D01*
X343345Y439218D01*
X342780Y438652D01*
X342214Y438086D01*
X341648Y437521D01*
X341083Y436955D01*
X340517Y436389D01*
X339951Y435824D01*
X339386Y436389D01*
X338820Y435824D01*
X338254Y435258D01*
X337689Y434692D01*
X337123Y435258D01*
X336557Y434692D01*
X335992Y435258D01*
X335426Y434692D01*
X334860Y435258D01*
X334295Y434692D01*
X333729Y435258D01*
X333163Y434692D01*
X332597Y435258D01*
X332032Y434692D01*
X331466Y434127D01*
X330900Y434692D01*
X330335Y434127D01*
X329769Y433561D01*
X329203Y432995D01*
X328638Y432430D01*
X328072Y431864D01*
X327506Y432430D01*
X326940Y431864D01*
X326375Y431298D01*
X325809Y430732D01*
X325243Y431298D01*
X324678Y430732D01*
X324112Y430167D01*
X323546Y430732D01*
X322981Y430167D01*
X322415Y430732D01*
X321849Y430167D01*
X321284Y430732D01*
X320718Y430167D01*
X319587Y431298D01*
X319021Y430732D01*
X318455Y431298D01*
X317890Y430732D01*
X316758Y431864D01*
X316193Y431298D01*
X315627Y431864D01*
X315061Y431298D01*
X314495Y431864D01*
X313930Y431298D01*
X313364Y431864D01*
X312798Y431298D01*
X312233Y431864D01*
X311667Y431298D01*
X311101Y431864D01*
X310536Y431298D01*
X309970Y431864D01*
X309404Y431298D01*
X308273Y432430D01*
X307707Y431864D01*
X306576Y432995D01*
X306010Y432430D01*
X304879Y433561D01*
X304313Y432995D01*
X302616Y434692D01*
X302050Y434127D01*
X300919Y435258D01*
X300353Y434692D01*
X298656Y436389D01*
X298091Y435824D01*
X296393Y437521D01*
X295828Y436955D01*
X294696Y438086D01*
X294131Y437521D01*
X293565Y436955D01*
X294696Y435824D01*
X294131Y435258D01*
X294696Y434692D01*
X294131Y434127D01*
X294696Y433561D01*
X294131Y432995D01*
X296393Y430732D01*
X296959Y431298D01*
X298656Y429601D01*
X299222Y430167D01*
X300919Y428470D01*
X301485Y429036D01*
X303747Y426773D01*
X304313Y427338D01*
X305445Y426207D01*
X306010Y426773D01*
X307707Y425076D01*
X308273Y425641D01*
X310536Y423379D01*
X311101Y423944D01*
X312798Y422247D01*
X313364Y422813D01*
X313930Y423379D01*
X314495Y423944D01*
X315061Y423379D01*
X315627Y423944D01*
X316193Y424510D01*
X316758Y425076D01*
X317324Y424510D01*
X317890Y425076D01*
X319021Y423944D01*
X318455Y423379D01*
X317890Y422813D01*
X317324Y423379D01*
X316758Y422813D01*
X316193Y422247D01*
X315627Y421682D01*
X315061Y421116D01*
X314495Y421682D01*
X313930Y421116D01*
X313364Y420550D01*
X312798Y419984D01*
X312233Y419419D01*
X311667Y418853D01*
X311101Y418287D01*
X310536Y417722D01*
X309970Y417156D01*
X309404Y416590D01*
X308839Y416025D01*
X308273Y415459D01*
X307707Y414893D01*
X307142Y414328D01*
X306576Y413762D01*
X306010Y413196D01*
X306576Y412631D01*
X306010Y412065D01*
X305445Y411499D01*
X304879Y410933D01*
X304313Y410368D01*
X304879Y409802D01*
X304313Y409236D01*
X303747Y408671D01*
X303182Y408105D01*
X303747Y407539D01*
X303182Y406974D01*
X302616Y406408D01*
X303182Y405842D01*
X302616Y405277D01*
X302050Y404711D01*
X302616Y404145D01*
X302050Y403580D01*
X301485Y403014D01*
X302050Y402448D01*
X301485Y401883D01*
X300919Y401317D01*
X301485Y400751D01*
X300919Y400185D01*
X301485Y399620D01*
X300919Y399054D01*
X300353Y398488D01*
X300919Y397923D01*
X300353Y397357D01*
X300919Y396791D01*
X300353Y396226D01*
X300919Y395660D01*
X300353Y395094D01*
X300919Y394529D01*
X300353Y393963D01*
X299788Y393397D01*
X299222Y392832D01*
X298656Y392266D01*
X298091Y392832D01*
X297525Y392266D01*
X296959Y391700D01*
X296393Y391135D01*
X295828Y391700D01*
X295262Y391135D01*
X294696Y390569D01*
X295262Y390003D01*
X294696Y389438D01*
X295262Y388872D01*
X294696Y388306D01*
X296393Y386609D01*
X296959Y387175D01*
X297525Y386609D01*
X298091Y387175D01*
X299222Y386043D01*
X298656Y385478D01*
X299222Y384912D01*
X298656Y384346D01*
X299222Y383781D01*
X298656Y383215D01*
X299788Y382084D01*
X300353Y382649D01*
X300919Y382084D01*
X301485Y382649D01*
X302050Y383215D01*
X302616Y382649D01*
X303182Y383215D01*
X303747Y382649D01*
X304313Y383215D01*
X305445Y382084D01*
X304879Y381518D01*
X305445Y380952D01*
X304879Y380386D01*
X305445Y379821D01*
X304879Y379255D01*
X305445Y378690D01*
X304879Y378124D01*
X305445Y377558D01*
X304879Y376992D01*
X304313Y376427D01*
X304879Y375861D01*
X304313Y375295D01*
X304879Y374730D01*
X304313Y374164D01*
X304879Y373598D01*
X305445Y374164D01*
X306010Y374730D01*
X306576Y374164D01*
X307142Y374730D01*
X307707Y375295D01*
X308273Y375861D01*
X308839Y375295D01*
X308273Y374730D01*
X308839Y374164D01*
X308273Y373598D01*
X308839Y373033D01*
X308273Y372467D01*
X308839Y371901D01*
X308273Y371336D01*
X307707Y370770D01*
X308273Y370204D01*
X308839Y370770D01*
X309404Y371336D01*
X309970Y371901D01*
X310536Y372467D01*
X311101Y373033D01*
X310536Y373598D01*
X311101Y374164D01*
X311667Y374730D01*
X311101Y375295D01*
X311667Y375861D01*
X311101Y376427D01*
X311667Y376992D01*
X311101Y377558D01*
X311667Y378124D01*
X311101Y378690D01*
X311667Y379255D01*
X310536Y380386D01*
X311101Y380952D01*
X309970Y382084D01*
X310536Y382649D01*
X309970Y383215D01*
X310536Y383781D01*
X309404Y384912D01*
X309970Y385478D01*
X308839Y386609D01*
X309404Y387175D01*
X308273Y388306D01*
X308839Y388872D01*
X307707Y390003D01*
X308273Y390569D01*
X307707Y391135D01*
X308273Y391700D01*
X307142Y392832D01*
X307707Y393397D01*
X307142Y393963D01*
X307707Y394529D01*
X307142Y395094D01*
X307707Y395660D01*
X307142Y396226D01*
X307707Y396791D01*
X308273Y397357D01*
X307707Y397923D01*
X308273Y398488D01*
X308839Y399054D01*
X309404Y399620D01*
X309970Y400185D01*
X309404Y400751D01*
X309970Y401317D01*
X310536Y401883D01*
X311101Y402448D01*
X310536Y403014D01*
X311101Y403580D01*
X311667Y404145D01*
X312233Y404711D01*
X312798Y405277D01*
X312233Y405842D01*
X312798Y406408D01*
X313364Y405842D01*
X312798Y405277D01*
X313364Y404711D01*
X313930Y405277D01*
X313364Y405842D01*
X313930Y406408D01*
X313364Y406974D01*
X313930Y407539D01*
X314495Y406974D01*
X313930Y406408D01*
X314495Y405842D01*
X315061Y406408D01*
X314495Y406974D01*
X315061Y407539D01*
X314495Y408105D01*
X315061Y408671D01*
X315627Y408105D01*
X315061Y407539D01*
X315627Y406974D01*
X316193Y407539D01*
X315627Y408105D01*
X316193Y408671D01*
X315627Y409236D01*
X316193Y409802D01*
X315627Y410368D01*
X316193Y410933D01*
X316758Y410368D01*
X316193Y409802D01*
X316758Y409236D01*
X316193Y408671D01*
X316758Y408105D01*
X317324Y408671D01*
X316758Y409236D01*
X317324Y409802D01*
X316758Y410368D01*
X317324Y410933D01*
X316758Y411499D01*
X317324Y412065D01*
X317890Y411499D01*
X317324Y410933D01*
X317890Y410368D01*
X317324Y409802D01*
X317890Y409236D01*
X318455Y409802D01*
X317890Y410368D01*
X318455Y410933D01*
X317890Y411499D01*
X318455Y412065D01*
X317890Y412631D01*
X318455Y413196D01*
X317890Y413762D01*
X318455Y414328D01*
X319021Y413762D01*
X318455Y413196D01*
X319021Y412631D01*
X318455Y412065D01*
X319021Y411499D01*
X318455Y410933D01*
X319021Y410368D01*
X319587Y410933D01*
X319021Y411499D01*
X319587Y412065D01*
X319021Y412631D01*
X319587Y413196D01*
X319021Y413762D01*
X319587Y414328D01*
X319021Y414893D01*
X319587Y415459D01*
X320152Y414893D01*
X319587Y414328D01*
X320152Y413762D01*
X319587Y413196D01*
X320152Y412631D01*
X319587Y412065D01*
X320152Y411499D01*
X319587Y410933D01*
X320152Y410368D01*
X320718Y410933D01*
X320152Y411499D01*
X320718Y412065D01*
X320152Y412631D01*
X320718Y413196D01*
X320152Y413762D01*
X320718Y414328D01*
X320152Y414893D01*
X320718Y415459D01*
X320152Y416025D01*
X320718Y416590D01*
X321284Y416025D01*
X320718Y415459D01*
X321284Y414893D01*
X320718Y414328D01*
X321284Y413762D01*
X320718Y413196D01*
X321284Y412631D01*
X320718Y412065D01*
X321284Y411499D01*
X321849Y412065D01*
X321284Y412631D01*
X321849Y413196D01*
X321284Y413762D01*
X321849Y414328D01*
X321284Y414893D01*
X321849Y415459D01*
X321284Y416025D01*
X321849Y416590D01*
X321284Y417156D01*
X321849Y417722D01*
X322415Y417156D01*
X321849Y416590D01*
X322415Y416025D01*
X321849Y415459D01*
X322415Y414893D01*
X321849Y414328D01*
X322415Y413762D01*
X321849Y413196D01*
X322415Y412631D01*
X322981Y413196D01*
X322415Y413762D01*
X322981Y414328D01*
X322415Y414893D01*
X322981Y415459D01*
X322415Y416025D01*
X322981Y416590D01*
X322415Y417156D01*
X322981Y417722D01*
X322415Y418287D01*
X322981Y418853D01*
X323546Y418287D01*
X322981Y417722D01*
X323546Y417156D01*
X322981Y416590D01*
X323546Y416025D01*
X322981Y415459D01*
X323546Y414893D01*
X322981Y414328D01*
X323546Y413762D01*
X324112Y414328D01*
X323546Y414893D01*
X324112Y415459D01*
X323546Y416025D01*
X324112Y416590D01*
X323546Y417156D01*
X324112Y417722D01*
X323546Y418287D01*
X324112Y418853D01*
X324678Y418287D01*
X324112Y417722D01*
X324678Y417156D01*
X324112Y416590D01*
X324678Y416025D01*
X324112Y415459D01*
X324678Y414893D01*
X325243Y415459D01*
X324678Y416025D01*
X325243Y416590D01*
X324678Y417156D01*
X325243Y417722D01*
X324678Y418287D01*
X325243Y418853D01*
X324678Y419419D01*
X325243Y419984D01*
X325809Y419419D01*
X325243Y418853D01*
X325809Y418287D01*
X325243Y417722D01*
X325809Y417156D01*
X325243Y416590D01*
X325809Y416025D01*
X326375Y416590D01*
X325809Y417156D01*
X326375Y417722D01*
X325809Y418287D01*
X326375Y418853D01*
X325809Y419419D01*
X326375Y419984D01*
X326940Y419419D01*
X327506Y419984D01*
X328072Y420550D01*
X329769Y418853D01*
X329203Y418287D01*
X329769Y417722D01*
X329203Y417156D01*
X328638Y416590D01*
X329203Y416025D01*
X328638Y415459D01*
X329203Y414893D01*
X329769Y415459D01*
X330335Y414893D01*
X330900Y415459D01*
X331466Y414893D01*
X332032Y415459D01*
X332597Y414893D01*
X333163Y415459D01*
X333729Y414893D01*
X334295Y415459D01*
X334860Y414893D01*
X335426Y415459D01*
X335992Y414893D01*
X336557Y415459D01*
X337123Y414893D01*
X337689Y415459D01*
X338254Y416025D01*
X338820Y415459D01*
X339386Y416025D01*
X339951Y416590D01*
X340517Y416025D01*
X341083Y416590D01*
X341648Y417156D01*
X342214Y416590D01*
X342780Y417156D01*
X343345Y417722D01*
X343911Y417156D01*
X344477Y417722D01*
X345042Y418287D01*
X345608Y418853D01*
X346174Y418287D01*
X346740Y418853D01*
X347305Y419419D01*
X347871Y419984D01*
X348437Y420550D01*
X349002Y419984D01*
X349568Y420550D01*
X350134Y421116D01*
X350699Y421682D01*
X351265Y422247D01*
X351831Y422813D01*
X352396Y423379D01*
X352962Y423944D01*
X353528Y424510D01*
X354093Y423944D01*
X354659Y424510D01*
X355225Y425076D01*
X355790Y425641D01*
X356356Y426207D01*
X356922Y426773D01*
X357488Y427338D01*
X358053Y427904D01*
X358619Y428470D01*
X358053Y429036D01*
X358619Y429601D01*
X359185Y430167D01*
X359750Y430732D01*
X360316Y431298D01*
X359750Y431864D01*
X360316Y432430D01*
X360882Y432995D01*
X361447Y433561D01*
X360882Y434127D01*
X361447Y434692D01*
X362013Y435258D01*
X362579Y435824D01*
X363144Y436389D01*
X362579Y436955D01*
X363144Y437521D01*
X363710Y438086D01*
X364276Y438652D01*
X363710Y439218D01*
X364276Y439783D01*
X364842Y440349D01*
X364276Y440915D01*
X364842Y441481D01*
X365407Y442046D01*
X364842Y442612D01*
X365407Y443178D01*
X365973Y443743D01*
X366539Y444309D01*
X365973Y444875D01*
X366539Y445440D01*
X367104Y446006D01*
X366539Y446572D01*
X367104Y447137D01*
X367670Y447703D01*
X367104Y448269D01*
X367670Y448835D01*
X368236Y449400D01*
X367670Y449966D01*
X368236Y450531D01*
X368801Y451097D01*
X368236Y451663D01*
X368801Y452229D01*
X369367Y452794D01*
X368801Y453360D01*
X369367Y453926D01*
X369933Y454491D01*
X370498Y455057D01*
X369933Y455623D01*
X370498Y456188D01*
X369367Y457320D01*
X368801Y456754D01*
X367104Y458451D01*
X366539Y457885D01*
X364276Y460148D01*
X363710Y459583D01*
X362013Y461280D01*
X361447Y460714D01*
X359750Y462411D01*
X359185Y461845D01*
X358053Y462977D01*
D02*
G37*
G36*
X328638Y475422D02*
X328072Y474856D01*
X332032Y470896D01*
X332597Y471462D01*
X328638Y475422D01*
D02*
G37*
G36*
X309970Y472593D02*
X309404Y472028D01*
X311101Y470330D01*
X311667Y470896D01*
X309970Y472593D01*
D02*
G37*
G36*
X312233Y471462D02*
X311667Y470896D01*
X313364Y469199D01*
X313930Y469765D01*
X312233Y471462D01*
D02*
G37*
G36*
X364842Y461845D02*
X364276Y461280D01*
X366539Y459017D01*
X367104Y459583D01*
X364842Y461845D01*
D02*
G37*
G36*
X314495Y470330D02*
X313930Y469765D01*
X319021Y464674D01*
X318455Y464108D01*
X320718Y461845D01*
X320152Y461280D01*
X321284Y460148D01*
X320718Y459583D01*
X321849Y458451D01*
X322415Y459017D01*
X322981Y459583D01*
X322415Y460148D01*
X322981Y460714D01*
X322415Y461280D01*
X322981Y461845D01*
X314495Y470330D01*
D02*
G37*
G36*
X316758Y459017D02*
X316193Y458451D01*
X315627Y459017D01*
X315061Y458451D01*
X314495Y457885D01*
X315061Y457320D01*
X315627Y457885D01*
X316193Y457320D01*
X316758Y457885D01*
X317324Y457320D01*
X317890Y457885D01*
X316758Y459017D01*
D02*
G37*
G36*
X360316Y464108D02*
X359750Y463542D01*
X361447Y461845D01*
X362013Y462411D01*
X360316Y464108D01*
D02*
G37*
G36*
X362579Y462977D02*
X362013Y462411D01*
X363710Y460714D01*
X364276Y461280D01*
X362579Y462977D01*
D02*
G37*
G36*
X356356Y410368D02*
X355790Y409802D01*
X355225Y409236D01*
X354659Y408671D01*
X355225Y408105D01*
X355790Y408671D01*
X356356Y409236D01*
X356922Y409802D01*
X356356Y410368D01*
D02*
G37*
%LPD*%
G36*
X378418Y490130D02*
X377852Y489564D01*
X378984Y488432D01*
X378418Y487867D01*
X377852Y487301D01*
X378418Y486735D01*
X377852Y486170D01*
X378418Y485604D01*
X377852Y485038D01*
X378418Y484473D01*
X377852Y483907D01*
X377287Y483341D01*
X377852Y482776D01*
X377287Y482210D01*
X376721Y481644D01*
X376155Y481078D01*
X371630Y485604D01*
X372195Y486170D01*
X371064Y487301D01*
X371630Y487867D01*
X370498Y488998D01*
X371064Y489564D01*
X370498Y490130D01*
X371064Y490695D01*
X371630Y491261D01*
X372195Y491827D01*
X372761Y492392D01*
X373327Y492958D01*
X373892Y492392D01*
X374458Y492958D01*
X375024Y492392D01*
X375589Y492958D01*
X378418Y490130D01*
D02*
G37*
%LPC*%
G36*
X373892Y491261D02*
X373327Y490695D01*
X372761Y490130D01*
X373892Y488998D01*
X374458Y489564D01*
X373892Y490130D01*
X374458Y490695D01*
X373892Y491261D01*
D02*
G37*
G36*
X375589Y487301D02*
X375024Y486735D01*
X374458Y486170D01*
X375589Y485038D01*
X376155Y485604D01*
X375589Y486170D01*
X376155Y486735D01*
X375589Y487301D01*
D02*
G37*
%LPD*%
G36*
X333163Y458451D02*
X332597Y457885D01*
X333163Y457320D01*
X332597Y456754D01*
X332032Y456188D01*
X331466Y455623D01*
X330900Y455057D01*
X330335Y455623D01*
X329769Y455057D01*
X328072Y456754D01*
X328638Y457320D01*
X328072Y457885D01*
X328638Y458451D01*
X329203Y459017D01*
X329769Y459583D01*
X330335Y460148D01*
X330900Y459583D01*
X331466Y460148D01*
X333163Y458451D01*
D02*
G37*
G36*
X307707Y485038D02*
X307142Y484473D01*
X307707Y483907D01*
X307142Y483341D01*
X307707Y482776D01*
X307142Y482210D01*
X306576Y481644D01*
X306010Y481078D01*
X305445Y480513D01*
X304879Y481078D01*
X304313Y480513D01*
X303747Y481078D01*
X303182Y480513D01*
X302050Y481644D01*
X302616Y482210D01*
X302050Y482776D01*
X302616Y483341D01*
X302050Y483907D01*
X302616Y484473D01*
X303182Y485038D01*
X303747Y485604D01*
X304313Y486170D01*
X304879Y485604D01*
X305445Y486170D01*
X306010Y485604D01*
X306576Y486170D01*
X307707Y485038D01*
D02*
G37*
G36*
X329769Y448269D02*
X329203Y447703D01*
X329769Y447137D01*
X329203Y446572D01*
X328638Y446006D01*
X328072Y445440D01*
X327506Y444875D01*
X326940Y445440D01*
X326375Y444875D01*
X324678Y446572D01*
X325243Y447137D01*
X324678Y447703D01*
X325243Y448269D01*
X325809Y448835D01*
X326375Y449400D01*
X326940Y449966D01*
X327506Y449400D01*
X328072Y449966D01*
X329769Y448269D01*
D02*
G37*
%LPC*%
G36*
X330900Y458451D02*
X330335Y457885D01*
X329769Y457320D01*
X330335Y456754D01*
X330900Y457320D01*
X331466Y457885D01*
X330900Y458451D01*
D02*
G37*
G36*
X304879Y484473D02*
X304313Y483907D01*
X303747Y483341D01*
X304879Y482210D01*
X305445Y482776D01*
X306010Y483341D01*
X304879Y484473D01*
D02*
G37*
G36*
X327506Y448269D02*
X326940Y447703D01*
X326375Y447137D01*
X326940Y446572D01*
X327506Y447137D01*
X328072Y447703D01*
X327506Y448269D01*
D02*
G37*
%LPD*%
G36*
X359750Y457885D02*
X359185Y457320D01*
X359750Y456754D01*
X359185Y456188D01*
X359750Y455623D01*
X359185Y455057D01*
X358619Y454491D01*
X358053Y453926D01*
X357488Y453360D01*
X356922Y453926D01*
X356356Y453360D01*
X355790Y453926D01*
X355225Y453360D01*
X354093Y454491D01*
X354659Y455057D01*
X354093Y455623D01*
X354659Y456188D01*
X354093Y456754D01*
X354659Y457320D01*
X355225Y457885D01*
X355790Y458451D01*
X356356Y459017D01*
X356922Y458451D01*
X357488Y459017D01*
X358053Y458451D01*
X358619Y459017D01*
X359750Y457885D01*
D02*
G37*
G36*
X338254Y429601D02*
X337689Y429036D01*
X338254Y428470D01*
X337689Y427904D01*
X338254Y427338D01*
X337689Y426773D01*
X337123Y426207D01*
X336557Y425641D01*
X335992Y425076D01*
X335426Y425641D01*
X334860Y425076D01*
X334295Y425641D01*
X333729Y425076D01*
X332597Y426207D01*
X333163Y426773D01*
X332597Y427338D01*
X333163Y427904D01*
X332597Y428470D01*
X333163Y429036D01*
X333729Y429601D01*
X334295Y430167D01*
X334860Y430732D01*
X335426Y430167D01*
X335992Y430732D01*
X336557Y430167D01*
X337123Y430732D01*
X338254Y429601D01*
D02*
G37*
G36*
X358619Y448835D02*
X358053Y448269D01*
X358619Y447703D01*
X358053Y447137D01*
X358619Y446572D01*
X358053Y446006D01*
X357488Y445440D01*
X356922Y444875D01*
X356356Y444309D01*
X355790Y444875D01*
X355225Y444309D01*
X354659Y444875D01*
X354093Y444309D01*
X352962Y445440D01*
X353528Y446006D01*
X352962Y446572D01*
X353528Y447137D01*
X352962Y447703D01*
X353528Y448269D01*
X354093Y448835D01*
X354659Y449400D01*
X355225Y449966D01*
X355790Y449400D01*
X356356Y449966D01*
X356922Y449400D01*
X357488Y449966D01*
X358619Y448835D01*
D02*
G37*
%LPC*%
G36*
X356922Y457320D02*
X356356Y456754D01*
X355790Y456188D01*
X356922Y455057D01*
X357488Y455623D01*
X358053Y456188D01*
X356922Y457320D01*
D02*
G37*
G36*
X335426Y429036D02*
X334860Y428470D01*
X334295Y427904D01*
X335426Y426773D01*
X335992Y427338D01*
X336557Y427904D01*
X335426Y429036D01*
D02*
G37*
G36*
X355790Y448269D02*
X355225Y447703D01*
X354659Y447137D01*
X355790Y446006D01*
X356356Y446572D01*
X356922Y447137D01*
X355790Y448269D01*
D02*
G37*
%LPD*%
D38*
X574545Y659936D02*
X575857D01*
X575201D01*
Y656656D01*
X575857Y656000D01*
X576513D01*
X577169Y656656D01*
X573234Y659280D02*
X572578Y659936D01*
X571266D01*
X570610Y659280D01*
Y658624D01*
X571266Y657968D01*
X570610Y657312D01*
Y656656D01*
X571266Y656000D01*
X572578D01*
X573234Y656656D01*
Y657312D01*
X572578Y657968D01*
X573234Y658624D01*
Y659280D01*
X572578Y657968D02*
X571266D01*
X545789Y643344D02*
X544789Y644344D01*
Y646343D01*
X545789Y647342D01*
X546789D01*
X547788Y646343D01*
Y644344D01*
X548788Y643344D01*
X549788D01*
X550787Y644344D01*
Y646343D01*
X549788Y647342D01*
X546789Y640345D02*
Y638345D01*
X547788Y637346D01*
X550787D01*
Y640345D01*
X549788Y641344D01*
X548788Y640345D01*
Y637346D01*
X546789Y635346D02*
X550787D01*
X548788D01*
X547788Y634347D01*
X546789Y633347D01*
Y632347D01*
Y628349D02*
Y626349D01*
X547788Y625350D01*
X550787D01*
Y628349D01*
X549788Y629348D01*
X548788Y628349D01*
Y625350D01*
X545789Y622351D02*
X546789D01*
Y623350D01*
Y621351D01*
Y622351D01*
X549788D01*
X550787Y621351D01*
Y617352D02*
Y615353D01*
X549788Y614353D01*
X547788D01*
X546789Y615353D01*
Y617352D01*
X547788Y618352D01*
X549788D01*
X550787Y617352D01*
X546789Y612354D02*
X550787Y610355D01*
X546789Y608355D01*
X538976Y643344D02*
Y647342D01*
X534978Y643344D01*
X533978D01*
X532978Y644344D01*
Y646343D01*
X533978Y647342D01*
Y641344D02*
X532978Y640345D01*
Y638345D01*
X533978Y637346D01*
X537977D01*
X538976Y638345D01*
Y640345D01*
X537977Y641344D01*
X533978D01*
X538976Y635346D02*
Y633347D01*
Y634347D01*
X532978D01*
X533978Y635346D01*
Y630348D02*
X532978Y629348D01*
Y627349D01*
X533978Y626349D01*
X534978D01*
X535977Y627349D01*
X536977Y626349D01*
X537977D01*
X538976Y627349D01*
Y629348D01*
X537977Y630348D01*
X536977D01*
X535977Y629348D01*
X534978Y630348D01*
X533978D01*
X535977Y629348D02*
Y627349D01*
X538976Y624350D02*
X537977D01*
Y623350D01*
X538976D01*
Y624350D01*
X533978Y619352D02*
X532978Y618352D01*
Y616353D01*
X533978Y615353D01*
X537977D01*
X538976Y616353D01*
Y618352D01*
X537977Y619352D01*
X533978D01*
Y613353D02*
X532978Y612354D01*
Y610355D01*
X533978Y609355D01*
X534978D01*
X535977Y610355D01*
Y611354D01*
Y610355D01*
X536977Y609355D01*
X537977D01*
X538976Y610355D01*
Y612354D01*
X537977Y613353D01*
X538976Y607355D02*
X537977D01*
Y606356D01*
X538976D01*
Y607355D01*
X533978Y602357D02*
X532978Y601357D01*
Y599358D01*
X533978Y598358D01*
X537977D01*
X538976Y599358D01*
Y601357D01*
X537977Y602357D01*
X533978D01*
X538976Y596359D02*
Y594360D01*
Y595359D01*
X532978D01*
X533978Y596359D01*
X523167Y646343D02*
Y644344D01*
X524166Y643344D01*
X527165D01*
Y646343D01*
X526166Y647342D01*
X525166Y646343D01*
Y643344D01*
X527165Y641344D02*
X526166D01*
Y640345D01*
X527165D01*
Y641344D01*
Y636346D02*
Y633347D01*
X526166Y632347D01*
X525166Y633347D01*
Y635346D01*
X524166Y636346D01*
X523167Y635346D01*
Y632347D01*
X521167Y630348D02*
X527165D01*
X524166D01*
X523167Y629348D01*
Y627349D01*
X524166Y626349D01*
X527165D01*
X523167Y624350D02*
X526166D01*
X527165Y623350D01*
Y620351D01*
X523167D01*
X527165Y618352D02*
X523167D01*
Y617352D01*
X524166Y616353D01*
X527165D01*
X524166D01*
X523167Y615353D01*
X524166Y614353D01*
X527165D01*
Y611354D02*
Y609355D01*
X526166Y608355D01*
X524166D01*
X523167Y609355D01*
Y611354D01*
X524166Y612354D01*
X526166D01*
X527165Y611354D01*
X523167Y606356D02*
X527165Y604356D01*
X523167Y602357D01*
D39*
X511024Y454134D02*
Y454528D01*
X515748Y454134D02*
Y454528D01*
X525492Y450591D02*
Y453346D01*
X519390Y450591D02*
Y453346D01*
X323819Y551870D02*
X326575D01*
X323819Y545768D02*
X326575D01*
X325000Y627165D02*
X325394D01*
X325000Y622441D02*
X325394D01*
X290158Y579331D02*
Y579724D01*
X285433Y579331D02*
Y579724D01*
X364961Y595079D02*
Y595472D01*
X360236Y595079D02*
Y595472D01*
X285433Y595079D02*
Y595472D01*
X290158Y595079D02*
Y595472D01*
X360236Y579331D02*
Y579724D01*
X364961Y579331D02*
Y579724D01*
X377953Y587992D02*
X379784D01*
X377953Y584449D02*
Y587992D01*
X384784D02*
X386614D01*
Y584449D02*
Y587992D01*
X582185Y354429D02*
X583740D01*
Y355807D01*
X563779Y354429D02*
X565158D01*
X563740Y354429D02*
Y355807D01*
X583740Y653346D02*
Y654724D01*
X582323Y654724D02*
X583701D01*
X563740Y653346D02*
Y654724D01*
X565295D01*
X242913Y607598D02*
X243701D01*
X242913Y610512D02*
X243701D01*
X475394Y454528D02*
Y457480D01*
X488386Y454528D02*
Y457480D01*
X475394Y464567D02*
Y467520D01*
X488386Y464567D02*
Y467520D01*
X475394Y454528D02*
X488386D01*
X475394Y467520D02*
X488386D01*
X478740Y573819D02*
Y586024D01*
X482677Y573819D02*
Y586024D01*
X478740Y573819D02*
X482677D01*
X478740Y586024D02*
X482677D01*
X387402Y550099D02*
Y550394D01*
Y537008D02*
Y537303D01*
X374803Y550099D02*
Y550394D01*
Y537008D02*
Y537303D01*
X384744Y550394D02*
X387402D01*
X374803D02*
X377461D01*
X384744Y537008D02*
X387402D01*
X374803D02*
X377461D01*
X215354Y569291D02*
Y569587D01*
Y582382D02*
Y582677D01*
X227953Y569291D02*
Y569587D01*
Y582382D02*
Y582677D01*
X215354Y569291D02*
X218012D01*
X225295D02*
X227953D01*
X215354Y582677D02*
X218012D01*
X225295D02*
X227953D01*
X258858Y593898D02*
X260433D01*
X248228D02*
X249803D01*
X258858Y581693D02*
X260433D01*
X248228D02*
X249803D01*
X260433Y593858D02*
Y593898D01*
Y581693D02*
Y581732D01*
X248228Y593858D02*
Y593898D01*
Y581693D02*
Y581732D01*
X258858Y564370D02*
X260433D01*
X248228D02*
X249803D01*
X258858Y552165D02*
X260433D01*
X248228D02*
X249803D01*
X260433Y564331D02*
Y564370D01*
Y552165D02*
Y552205D01*
X248228Y564331D02*
Y564370D01*
Y552165D02*
Y552205D01*
X481890Y550394D02*
Y559055D01*
X479528Y550394D02*
Y559055D01*
X481890D01*
X479528Y550394D02*
X481890D01*
X394882Y619488D02*
Y631693D01*
X390945Y619488D02*
Y631693D01*
X394882D01*
X390945Y619488D02*
X394882D01*
X493307Y467717D02*
X494980D01*
X493307Y466043D02*
Y467717D01*
X505020D02*
X506693D01*
Y466043D02*
Y467717D01*
Y454331D02*
Y456004D01*
X505020Y454331D02*
X506693D01*
X493307D02*
X494980D01*
X493307D02*
Y456004D01*
D58*
X586417Y649409D02*
G03*
X586417Y649409I-787J0D01*
G01*
D93*
X385866Y590551D02*
G03*
X385866Y590551I-492J0D01*
G01*
X486516Y587008D02*
G03*
X486516Y587008I-492J0D01*
G01*
X476870Y549311D02*
G03*
X476870Y549311I-492J0D01*
G01*
X388091Y618602D02*
G03*
X388091Y618602I-492J0D01*
G01*
X491240Y454921D02*
G03*
X491240Y454921I-492J0D01*
G01*
D95*
X389173Y550394D02*
G03*
X389173Y550394I-197J0D01*
G01*
X263189Y633661D02*
G03*
X263189Y633661I-197J0D01*
G01*
X213976Y569291D02*
G03*
X213976Y569291I-197J0D01*
G01*
X246850Y581693D02*
G03*
X246850Y581693I-197J0D01*
G01*
Y552165D02*
G03*
X246850Y552165I-197J0D01*
G01*
X237846Y612747D02*
G03*
X237846Y612747I-197J0D01*
G01*
M02*
