G04 Layer_Color=128*
%FSLAX25Y25*%
%MOIN*%
G70*
G01*
G75*
%ADD10R,0.02520X0.02362*%
%ADD11R,0.02362X0.02520*%
%ADD12R,0.03937X0.05512*%
%ADD16R,0.02284X0.03701*%
%ADD17R,0.02165X0.01968*%
%ADD18R,0.01968X0.02165*%
%ADD71R,0.03543X0.03740*%
%ADD72R,0.03740X0.03543*%
%ADD73R,0.05512X0.03937*%
%ADD74R,0.06890X0.05118*%
%ADD75R,0.02362X0.01968*%
%ADD76R,0.05118X0.06890*%
%ADD77R,0.01968X0.02362*%
%ADD78R,0.01850X0.02362*%
%ADD79R,0.05905X0.04724*%
%ADD80R,0.04134X0.02362*%
%ADD83R,0.02953X0.03937*%
%ADD85R,0.03347X0.01102*%
%ADD86R,0.03347X0.01378*%
%ADD87R,0.03347X0.03937*%
%ADD88R,0.03347X0.02362*%
%ADD89R,0.03937X0.02165*%
%ADD90R,0.06693X0.06693*%
G04:AMPARAMS|DCode=91|XSize=9.84mil|YSize=23.62mil|CornerRadius=2.46mil|HoleSize=0mil|Usage=FLASHONLY|Rotation=0.000|XOffset=0mil|YOffset=0mil|HoleType=Round|Shape=RoundedRectangle|*
%AMROUNDEDRECTD91*
21,1,0.00984,0.01870,0,0,0.0*
21,1,0.00492,0.02362,0,0,0.0*
1,1,0.00492,0.00246,-0.00935*
1,1,0.00492,-0.00246,-0.00935*
1,1,0.00492,-0.00246,0.00935*
1,1,0.00492,0.00246,0.00935*
%
%ADD91ROUNDEDRECTD91*%
G04:AMPARAMS|DCode=92|XSize=9.84mil|YSize=23.62mil|CornerRadius=2.46mil|HoleSize=0mil|Usage=FLASHONLY|Rotation=270.000|XOffset=0mil|YOffset=0mil|HoleType=Round|Shape=RoundedRectangle|*
%AMROUNDEDRECTD92*
21,1,0.00984,0.01870,0,0,270.0*
21,1,0.00492,0.02362,0,0,270.0*
1,1,0.00492,-0.00935,-0.00246*
1,1,0.00492,-0.00935,0.00246*
1,1,0.00492,0.00935,0.00246*
1,1,0.00492,0.00935,-0.00246*
%
%ADD92ROUNDEDRECTD92*%
%ADD133R,0.01968X0.01575*%
%ADD145R,0.04331X0.03543*%
%ADD146R,0.04331X0.03543*%
%ADD147R,0.02677X0.04134*%
G36*
X253898Y562992D02*
X252795D01*
Y564961D01*
X253898D01*
Y562992D01*
D02*
G37*
G36*
X255866D02*
X254764D01*
Y564961D01*
X255866D01*
Y562992D01*
D02*
G37*
G36*
X253898Y551575D02*
X252795D01*
Y553543D01*
X253898D01*
Y551575D01*
D02*
G37*
G36*
X255866D02*
X254764D01*
Y553543D01*
X255866D01*
Y551575D01*
D02*
G37*
G36*
X253898Y592520D02*
X252795D01*
Y594488D01*
X253898D01*
Y592520D01*
D02*
G37*
G36*
X255866D02*
X254764D01*
Y594488D01*
X255866D01*
Y592520D01*
D02*
G37*
G36*
X253898Y581102D02*
X252795D01*
Y583071D01*
X253898D01*
Y581102D01*
D02*
G37*
G36*
X255866D02*
X254764D01*
Y583071D01*
X255866D01*
Y581102D01*
D02*
G37*
D10*
X492520Y583779D02*
D03*
Y580000D02*
D03*
X242913Y591024D02*
D03*
Y594803D02*
D03*
X265748Y590945D02*
D03*
Y594724D02*
D03*
X242913Y561496D02*
D03*
Y565276D02*
D03*
X265748Y561496D02*
D03*
Y565276D02*
D03*
X251575Y611890D02*
D03*
Y615669D02*
D03*
X511024Y470551D02*
D03*
Y474331D02*
D03*
X515354Y474331D02*
D03*
Y470551D02*
D03*
X520079Y470551D02*
D03*
Y474331D02*
D03*
D11*
X265433Y631496D02*
D03*
X269213D02*
D03*
X478819Y569291D02*
D03*
X482598D02*
D03*
X478819Y590157D02*
D03*
X482598D02*
D03*
X248110Y577559D02*
D03*
X251890D02*
D03*
X260551D02*
D03*
X256772D02*
D03*
X248110Y548032D02*
D03*
X251890D02*
D03*
X260551D02*
D03*
X256772D02*
D03*
X257756Y619685D02*
D03*
X261535D02*
D03*
X257756Y623622D02*
D03*
X261535D02*
D03*
D12*
X328839Y624803D02*
D03*
X321555D02*
D03*
D16*
X240197Y609055D02*
D03*
X246417D02*
D03*
D17*
X374410Y556988D02*
D03*
Y553248D02*
D03*
X378346D02*
D03*
Y556988D02*
D03*
X383465D02*
D03*
Y553248D02*
D03*
X391339Y541831D02*
D03*
Y545571D02*
D03*
X211024Y577854D02*
D03*
Y574114D02*
D03*
X224016Y566437D02*
D03*
Y562697D02*
D03*
X218898D02*
D03*
Y566437D02*
D03*
X237795Y593996D02*
D03*
Y590256D02*
D03*
X270866Y593996D02*
D03*
Y590256D02*
D03*
Y582382D02*
D03*
Y586122D02*
D03*
X237795Y564468D02*
D03*
Y560728D02*
D03*
X270866D02*
D03*
Y564468D02*
D03*
Y556595D02*
D03*
Y552854D02*
D03*
X274803Y556595D02*
D03*
Y552854D02*
D03*
X494095Y556595D02*
D03*
Y552854D02*
D03*
X490158Y556595D02*
D03*
Y552854D02*
D03*
X471260Y556595D02*
D03*
Y552854D02*
D03*
X467323Y556595D02*
D03*
Y552854D02*
D03*
X235039Y615650D02*
D03*
Y611909D02*
D03*
X253346Y623524D02*
D03*
Y619783D02*
D03*
X213386Y647736D02*
D03*
Y651476D02*
D03*
X372441Y594980D02*
D03*
Y598721D02*
D03*
X376772Y594980D02*
D03*
Y598721D02*
D03*
X385433Y594980D02*
D03*
Y598721D02*
D03*
X381102Y594980D02*
D03*
Y598721D02*
D03*
X295276Y570374D02*
D03*
Y566634D02*
D03*
X489370Y474311D02*
D03*
Y470571D02*
D03*
X481496D02*
D03*
Y474311D02*
D03*
X477559Y470571D02*
D03*
Y474311D02*
D03*
X485433Y470571D02*
D03*
Y474311D02*
D03*
D18*
X482579Y547244D02*
D03*
X478839D02*
D03*
X366240Y653543D02*
D03*
X369980D02*
D03*
Y649606D02*
D03*
X366240D02*
D03*
X498130Y472047D02*
D03*
X501870D02*
D03*
D71*
X378051Y532677D02*
D03*
X384154D02*
D03*
X224705Y587008D02*
D03*
X218602D02*
D03*
X518405Y464961D02*
D03*
X512303D02*
D03*
X483563Y448425D02*
D03*
X489665D02*
D03*
X300886Y548819D02*
D03*
X306988D02*
D03*
D72*
X369291Y540650D02*
D03*
Y546752D02*
D03*
X276378Y637500D02*
D03*
Y643602D02*
D03*
X233071Y579035D02*
D03*
Y572933D02*
D03*
X287795Y563091D02*
D03*
Y569193D02*
D03*
D73*
X513386Y457972D02*
D03*
Y450689D02*
D03*
X287795Y575886D02*
D03*
Y583169D02*
D03*
X362598Y591634D02*
D03*
Y598917D02*
D03*
X287795D02*
D03*
Y591634D02*
D03*
X362598Y583169D02*
D03*
Y575886D02*
D03*
D74*
X522441Y446555D02*
D03*
Y457382D02*
D03*
D75*
X312598Y571654D02*
D03*
Y574803D02*
D03*
X296850Y562205D02*
D03*
Y559055D02*
D03*
X300000Y568504D02*
D03*
Y565354D02*
D03*
X312598D02*
D03*
Y568504D02*
D03*
X331496Y596850D02*
D03*
Y593701D02*
D03*
X315748Y581102D02*
D03*
Y584252D02*
D03*
X337795Y590551D02*
D03*
Y593701D02*
D03*
X322047Y581102D02*
D03*
Y577953D02*
D03*
X331496Y581102D02*
D03*
Y584252D02*
D03*
X318898Y596850D02*
D03*
Y600000D02*
D03*
X334646Y596850D02*
D03*
Y600000D02*
D03*
X315748D02*
D03*
Y596850D02*
D03*
X328346D02*
D03*
Y600000D02*
D03*
X340945Y603150D02*
D03*
Y600000D02*
D03*
X315748Y593701D02*
D03*
Y590551D02*
D03*
X300000Y600000D02*
D03*
Y603150D02*
D03*
X303150Y590551D02*
D03*
Y593701D02*
D03*
X318898Y606299D02*
D03*
Y603150D02*
D03*
X306299Y612598D02*
D03*
Y615748D02*
D03*
X296850Y609449D02*
D03*
Y606299D02*
D03*
X340945Y612598D02*
D03*
Y609449D02*
D03*
X347244Y593701D02*
D03*
Y596850D02*
D03*
X331496Y609449D02*
D03*
Y612598D02*
D03*
X350394Y581102D02*
D03*
Y577953D02*
D03*
X344094Y603150D02*
D03*
Y606299D02*
D03*
X340945Y577953D02*
D03*
Y581102D02*
D03*
X331496Y574803D02*
D03*
Y577953D02*
D03*
X334646Y565354D02*
D03*
Y568504D02*
D03*
X353543Y571654D02*
D03*
Y574803D02*
D03*
X344094Y568504D02*
D03*
Y571654D02*
D03*
D76*
X330610Y548819D02*
D03*
X319783D02*
D03*
D77*
X315748Y615748D02*
D03*
X312598D02*
D03*
X350394D02*
D03*
X353543D02*
D03*
X347244Y559055D02*
D03*
X344094D02*
D03*
D78*
X382283Y589173D02*
D03*
X379724Y581693D02*
D03*
X384842D02*
D03*
D79*
X475984Y461024D02*
D03*
X487795D02*
D03*
D80*
X475394Y583661D02*
D03*
Y579921D02*
D03*
Y576181D02*
D03*
X486024D02*
D03*
Y579921D02*
D03*
Y583661D02*
D03*
D83*
X269488Y637894D02*
D03*
Y643209D02*
D03*
X265157Y637894D02*
D03*
Y643209D02*
D03*
D85*
X260138Y591732D02*
D03*
Y589764D02*
D03*
Y587795D02*
D03*
Y585827D02*
D03*
Y583858D02*
D03*
X248524Y591732D02*
D03*
Y589764D02*
D03*
Y587795D02*
D03*
Y585827D02*
D03*
Y583858D02*
D03*
X260138Y562205D02*
D03*
Y560236D02*
D03*
Y558268D02*
D03*
Y556299D02*
D03*
Y554331D02*
D03*
X248524Y562205D02*
D03*
Y560236D02*
D03*
Y558268D02*
D03*
Y556299D02*
D03*
Y554331D02*
D03*
D86*
X485039Y552165D02*
D03*
Y557283D02*
D03*
X476378D02*
D03*
Y554725D02*
D03*
Y552165D02*
D03*
D87*
X240158Y615551D02*
D03*
Y623819D02*
D03*
X246457Y615551D02*
D03*
Y623819D02*
D03*
D88*
X240158Y619685D02*
D03*
X246457D02*
D03*
D89*
X398228Y621850D02*
D03*
Y629331D02*
D03*
X387598D02*
D03*
Y625591D02*
D03*
Y621850D02*
D03*
D90*
X500000Y461024D02*
D03*
D91*
X497047Y455512D02*
D03*
X499016D02*
D03*
X500984D02*
D03*
X502953D02*
D03*
Y466535D02*
D03*
X500984D02*
D03*
X499016D02*
D03*
X497047D02*
D03*
D92*
X505512Y458071D02*
D03*
Y460039D02*
D03*
Y462008D02*
D03*
Y463976D02*
D03*
X494488D02*
D03*
Y462008D02*
D03*
Y460039D02*
D03*
Y458071D02*
D03*
D133*
X385433Y547539D02*
D03*
Y544980D02*
D03*
Y542421D02*
D03*
Y539862D02*
D03*
X376772Y547539D02*
D03*
Y544980D02*
D03*
Y542421D02*
D03*
Y539862D02*
D03*
X217323Y572146D02*
D03*
Y574705D02*
D03*
Y577264D02*
D03*
Y579823D02*
D03*
X225984Y572146D02*
D03*
Y574705D02*
D03*
Y577264D02*
D03*
Y579823D02*
D03*
D145*
X381102Y545866D02*
D03*
X221654Y573819D02*
D03*
D146*
X381102Y541536D02*
D03*
X221654Y578149D02*
D03*
D147*
X252697Y585532D02*
D03*
X255964D02*
D03*
X252697Y590158D02*
D03*
X255964D02*
D03*
X252697Y556004D02*
D03*
X255964D02*
D03*
X252697Y560630D02*
D03*
X255964D02*
D03*
M02*
