G04 Layer_Color=65535*
%FSLAX25Y25*%
%MOIN*%
G70*
G01*
G75*
%ADD38C,0.01000*%
%ADD39C,0.00787*%
%ADD58C,0.01968*%
%ADD93C,0.00984*%
%ADD95C,0.00394*%
G36*
X297980Y557874D02*
X295669D01*
Y560184D01*
X297980Y557874D01*
D02*
G37*
D38*
X328173Y354463D02*
Y350528D01*
X330141D01*
X330797Y351184D01*
Y353807D01*
X330141Y354463D01*
X328173D01*
X334733D02*
X332109D01*
Y350528D01*
X334733D01*
X332109Y352495D02*
X333421D01*
X336045Y354463D02*
Y351839D01*
X337357Y350528D01*
X338668Y351839D01*
Y354463D01*
X340636Y350528D02*
Y354463D01*
X341948D02*
Y350528D01*
X339981Y353151D02*
X341948D01*
X342604D01*
X339981Y351839D02*
X342604D01*
X346540Y350528D02*
X343916D01*
X346540Y353151D01*
Y353807D01*
X345884Y354463D01*
X344572D01*
X343916Y353807D01*
X254463Y445449D02*
X250528D01*
Y443481D01*
X251184Y442825D01*
X253807D01*
X254463Y443481D01*
Y445449D01*
Y438889D02*
Y441513D01*
X250528D01*
Y438889D01*
X252495Y441513D02*
Y440201D01*
X254463Y437577D02*
X251839D01*
X250528Y436265D01*
X251839Y434953D01*
X254463D01*
X250528Y432986D02*
X254463D01*
Y431674D02*
X250528D01*
X253151Y433642D02*
Y431674D01*
Y431018D01*
X251839Y433642D02*
Y431018D01*
X250528Y429706D02*
Y428394D01*
Y429050D01*
X254463D01*
X253807Y429706D01*
X254463Y522221D02*
X250528D01*
X252495D01*
Y519597D01*
X254463D01*
X250528D01*
X254463Y516317D02*
Y517629D01*
X253807Y518285D01*
X251184D01*
X250528Y517629D01*
Y516317D01*
X251184Y515661D01*
X253807D01*
X254463Y516317D01*
X253807Y511725D02*
X254463Y512381D01*
Y513693D01*
X253807Y514349D01*
X253151D01*
X252495Y513693D01*
Y512381D01*
X251839Y511725D01*
X251184D01*
X250528Y512381D01*
Y513693D01*
X251184Y514349D01*
X254463Y510413D02*
Y507789D01*
Y509101D01*
X250528D01*
Y505822D02*
X254463D01*
Y504510D02*
X250528D01*
X253151Y506477D02*
Y504510D01*
Y503854D01*
X251839Y506477D02*
Y503854D01*
X250528Y502542D02*
Y501230D01*
Y501886D01*
X254463D01*
X253807Y502542D01*
X541904Y672876D02*
Y674188D01*
Y673532D01*
X538624D01*
X537968Y674188D01*
Y674844D01*
X538624Y675500D01*
X537968Y668940D02*
Y671564D01*
X540592Y668940D01*
X541248D01*
X541904Y669596D01*
Y670908D01*
X541248Y671564D01*
X426828Y659936D02*
X425517D01*
X426173D01*
Y656656D01*
X425517Y656000D01*
X424861D01*
X424205Y656656D01*
X428140Y656000D02*
X429452D01*
X428796D01*
Y659936D01*
X428140Y659280D01*
X521311Y618078D02*
Y614142D01*
X523935D01*
X527871Y618078D02*
X525247D01*
Y614142D01*
X527871D01*
X525247Y616110D02*
X526559D01*
X529182Y618078D02*
Y614142D01*
X531150D01*
X531806Y614798D01*
Y617421D01*
X531150Y618078D01*
X529182D01*
X535086Y614142D02*
Y618078D01*
X533118Y616110D01*
X535742D01*
X537054Y613486D02*
X539678D01*
X540990Y618078D02*
Y614142D01*
X542958D01*
X543613Y614798D01*
Y615454D01*
X542958Y616110D01*
X540990D01*
X542958D01*
X543613Y616765D01*
Y617421D01*
X542958Y618078D01*
X540990D01*
X521311Y580282D02*
Y576346D01*
X523935D01*
X527871Y580282D02*
X525247D01*
Y576346D01*
X527871D01*
X525247Y578314D02*
X526559D01*
X529182Y580282D02*
Y576346D01*
X531150D01*
X531806Y577002D01*
Y579626D01*
X531150Y580282D01*
X529182D01*
X533118Y576346D02*
X534430D01*
X533774D01*
Y580282D01*
X533118Y579626D01*
X536398Y575691D02*
X539022D01*
X540334Y580282D02*
Y576346D01*
X541646Y577658D01*
X542958Y576346D01*
Y580282D01*
X521311Y642881D02*
Y638945D01*
X523935D01*
X527871Y642881D02*
X525247D01*
Y638945D01*
X527871D01*
X525247Y640913D02*
X526559D01*
X529182Y642881D02*
Y638945D01*
X531150D01*
X531806Y639601D01*
Y642225D01*
X531150Y642881D01*
X529182D01*
X535742D02*
X534430Y642225D01*
X533118Y640913D01*
Y639601D01*
X533774Y638945D01*
X535086D01*
X535742Y639601D01*
Y640257D01*
X535086Y640913D01*
X533118D01*
X537054Y638289D02*
X539678D01*
X540990Y642881D02*
Y642225D01*
X542302Y640913D01*
X543613Y642225D01*
Y642881D01*
X542302Y640913D02*
Y638945D01*
X521311Y605479D02*
Y601543D01*
X523935D01*
X527871Y605479D02*
X525247D01*
Y601543D01*
X527871D01*
X525247Y603511D02*
X526559D01*
X529182Y605479D02*
Y601543D01*
X531150D01*
X531806Y602199D01*
Y604823D01*
X531150Y605479D01*
X529182D01*
X533118Y604823D02*
X533774Y605479D01*
X535086D01*
X535742Y604823D01*
Y604167D01*
X535086Y603511D01*
X534430D01*
X535086D01*
X535742Y602855D01*
Y602199D01*
X535086Y601543D01*
X533774D01*
X533118Y602199D01*
X537054Y600887D02*
X539678D01*
X540990Y605479D02*
Y601543D01*
X542958D01*
X543613Y602199D01*
Y602855D01*
X542958Y603511D01*
X540990D01*
X542958D01*
X543613Y604167D01*
Y604823D01*
X542958Y605479D01*
X540990D01*
X521311Y630282D02*
Y626346D01*
X523935D01*
X527871Y630282D02*
X525247D01*
Y626346D01*
X527871D01*
X525247Y628314D02*
X526559D01*
X529182Y630282D02*
Y626346D01*
X531150D01*
X531806Y627002D01*
Y629626D01*
X531150Y630282D01*
X529182D01*
X535742D02*
X533118D01*
Y628314D01*
X534430Y628970D01*
X535086D01*
X535742Y628314D01*
Y627002D01*
X535086Y626346D01*
X533774D01*
X533118Y627002D01*
X537054Y625691D02*
X539678D01*
X540990Y630282D02*
Y629626D01*
X542302Y628314D01*
X543613Y629626D01*
Y630282D01*
X542302Y628314D02*
Y626346D01*
X521311Y592881D02*
Y588945D01*
X523935D01*
X527871Y592881D02*
X525247D01*
Y588945D01*
X527871D01*
X525247Y590913D02*
X526559D01*
X529182Y592881D02*
Y588945D01*
X531150D01*
X531806Y589601D01*
Y592225D01*
X531150Y592881D01*
X529182D01*
X535742Y588945D02*
X533118D01*
X535742Y591569D01*
Y592225D01*
X535086Y592881D01*
X533774D01*
X533118Y592225D01*
X537054Y588289D02*
X539678D01*
X540990Y592881D02*
Y588945D01*
X542302Y590257D01*
X543613Y588945D01*
Y592881D01*
X207547Y628314D02*
Y624378D01*
X209515D01*
X210171Y625034D01*
Y627658D01*
X209515Y628314D01*
X207547D01*
X213451Y624378D02*
Y628314D01*
X211483Y626346D01*
X214107D01*
X207547Y614141D02*
Y610205D01*
X209515D01*
X210171Y610861D01*
Y613484D01*
X209515Y614141D01*
X207547D01*
X211483Y613484D02*
X212139Y614141D01*
X213451D01*
X214107Y613484D01*
Y612828D01*
X213451Y612173D01*
X212795D01*
X213451D01*
X214107Y611517D01*
Y610861D01*
X213451Y610205D01*
X212139D01*
X211483Y610861D01*
X207547Y644062D02*
Y640126D01*
X209515D01*
X210171Y640782D01*
Y643406D01*
X209515Y644062D01*
X207547D01*
X214107Y640126D02*
X211483D01*
X214107Y642750D01*
Y643406D01*
X213451Y644062D01*
X212139D01*
X211483Y643406D01*
X251402Y354463D02*
Y350528D01*
Y352495D01*
X254025D01*
Y354463D01*
Y350528D01*
X257305Y354463D02*
X255993D01*
X255337Y353807D01*
Y351184D01*
X255993Y350528D01*
X257305D01*
X257961Y351184D01*
Y353807D01*
X257305Y354463D01*
X261897Y353807D02*
X261241Y354463D01*
X259929D01*
X259273Y353807D01*
Y353151D01*
X259929Y352495D01*
X261241D01*
X261897Y351839D01*
Y351184D01*
X261241Y350528D01*
X259929D01*
X259273Y351184D01*
X263209Y354463D02*
X265833D01*
X264521D01*
Y350528D01*
X267800D02*
Y354463D01*
X269112D02*
Y350528D01*
X267144Y353151D02*
X269112D01*
X269768D01*
X267144Y351839D02*
X269768D01*
X273704Y350528D02*
X271080D01*
X273704Y353151D01*
Y353807D01*
X273048Y354463D01*
X271736D01*
X271080Y353807D01*
X448881Y535495D02*
X445882D01*
X444882Y534495D01*
Y532496D01*
X445882Y531496D01*
X448881D01*
X451880D02*
X453879D01*
X454879Y532496D01*
Y534495D01*
X453879Y535495D01*
X451880D01*
X450880Y534495D01*
Y532496D01*
X451880Y531496D01*
X456878D02*
Y535495D01*
X457878D01*
X458877Y534495D01*
Y531496D01*
Y534495D01*
X459877Y535495D01*
X460877Y534495D01*
Y531496D01*
X462876Y529497D02*
Y535495D01*
X465875D01*
X466875Y534495D01*
Y532496D01*
X465875Y531496D01*
X462876D01*
X469874Y535495D02*
X471873D01*
X472873Y534495D01*
Y531496D01*
X469874D01*
X468874Y532496D01*
X469874Y533495D01*
X472873D01*
X474872Y531496D02*
Y535495D01*
X477871D01*
X478871Y534495D01*
Y531496D01*
X480870Y535495D02*
Y532496D01*
X481870Y531496D01*
X484869D01*
Y530496D01*
X483869Y529497D01*
X482870D01*
X484869Y531496D02*
Y535495D01*
X486868D02*
X487868D01*
Y534495D01*
X486868D01*
Y535495D01*
Y532496D02*
X487868D01*
Y531496D01*
X486868D01*
Y532496D01*
X497865Y535495D02*
Y532496D01*
X498864Y531496D01*
X501863D01*
Y535495D01*
X503863Y531496D02*
Y535495D01*
X506862D01*
X507862Y534495D01*
Y531496D01*
X509861D02*
Y535495D01*
X512860D01*
X513860Y534495D01*
Y531496D01*
X516859Y535495D02*
X518858D01*
X519858Y534495D01*
Y531496D01*
X516859D01*
X515859Y532496D01*
X516859Y533495D01*
X519858D01*
X521857Y531496D02*
Y535495D01*
X522857D01*
X523856Y534495D01*
Y531496D01*
Y534495D01*
X524856Y535495D01*
X525856Y534495D01*
Y531496D01*
X530854D02*
X528855D01*
X527855Y532496D01*
Y534495D01*
X528855Y535495D01*
X530854D01*
X531854Y534495D01*
Y533495D01*
X527855D01*
X537852Y537494D02*
Y531496D01*
X534853D01*
X533853Y532496D01*
Y534495D01*
X534853Y535495D01*
X537852D01*
X444882Y517686D02*
Y523684D01*
X447881D01*
X448881Y522684D01*
Y520685D01*
X447881Y519685D01*
X444882D01*
X450880Y523684D02*
Y519685D01*
Y521684D01*
X451880Y522684D01*
X452879Y523684D01*
X453879D01*
X457878Y519685D02*
X459877D01*
X460877Y520685D01*
Y522684D01*
X459877Y523684D01*
X457878D01*
X456878Y522684D01*
Y520685D01*
X457878Y519685D01*
X462876Y517686D02*
X463876D01*
X464875Y518685D01*
Y523684D01*
X471873Y519685D02*
X469874D01*
X468874Y520685D01*
Y522684D01*
X469874Y523684D01*
X471873D01*
X472873Y522684D01*
Y521684D01*
X468874D01*
X478871Y523684D02*
X475872D01*
X474872Y522684D01*
Y520685D01*
X475872Y519685D01*
X478871D01*
X481870Y524683D02*
Y523684D01*
X480870D01*
X482870D01*
X481870D01*
Y520685D01*
X482870Y519685D01*
X485869Y523684D02*
X486868D01*
Y522684D01*
X485869D01*
Y523684D01*
Y520685D02*
X486868D01*
Y519685D01*
X485869D01*
Y520685D01*
X496865Y523684D02*
Y520685D01*
X497865Y519685D01*
X498864Y520685D01*
X499864Y519685D01*
X500864Y520685D01*
Y523684D01*
X502863Y517686D02*
Y523684D01*
X505862D01*
X506862Y522684D01*
Y520685D01*
X505862Y519685D01*
X502863D01*
X512860D02*
X508861D01*
X512860Y523684D01*
Y524683D01*
X511860Y525683D01*
X509861D01*
X508861Y524683D01*
X514859D02*
X515859Y525683D01*
X517858D01*
X518858Y524683D01*
Y520685D01*
X517858Y519685D01*
X515859D01*
X514859Y520685D01*
Y524683D01*
X520857Y519685D02*
X522857D01*
X521857D01*
Y525683D01*
X520857Y524683D01*
X525856Y525683D02*
X529854D01*
Y524683D01*
X525856Y520685D01*
Y519685D01*
X444882Y511873D02*
Y507874D01*
Y509873D01*
X445882Y510873D01*
X446881Y511873D01*
X447881D01*
X453879Y507874D02*
X451880D01*
X450880Y508874D01*
Y510873D01*
X451880Y511873D01*
X453879D01*
X454879Y510873D01*
Y509873D01*
X450880D01*
X456878Y511873D02*
X458877Y507874D01*
X460877Y511873D01*
X462876Y507874D02*
X464875D01*
X463876D01*
Y511873D01*
X462876D01*
X467874Y507874D02*
X470873D01*
X471873Y508874D01*
X470873Y509873D01*
X468874D01*
X467874Y510873D01*
X468874Y511873D01*
X471873D01*
X473873Y507874D02*
X475872D01*
X474872D01*
Y511873D01*
X473873D01*
X479871Y507874D02*
X481870D01*
X482870Y508874D01*
Y510873D01*
X481870Y511873D01*
X479871D01*
X478871Y510873D01*
Y508874D01*
X479871Y507874D01*
X484869D02*
Y511873D01*
X487868D01*
X488868Y510873D01*
Y507874D01*
X490867Y511873D02*
X491867D01*
Y510873D01*
X490867D01*
Y511873D01*
Y508874D02*
X491867D01*
Y507874D01*
X490867D01*
Y508874D01*
X501863Y507874D02*
X503863D01*
X502863D01*
Y513872D01*
X501863Y512872D01*
X506862Y507874D02*
Y508874D01*
X507862D01*
Y507874D01*
X506862D01*
X511860Y512872D02*
X512860Y513872D01*
X514859D01*
X515859Y512872D01*
Y508874D01*
X514859Y507874D01*
X512860D01*
X511860Y508874D01*
Y512872D01*
X517858Y510873D02*
X521857D01*
X527855Y513872D02*
Y507874D01*
X524856D01*
X523856Y508874D01*
Y510873D01*
X524856Y511873D01*
X527855D01*
X529854Y513872D02*
Y507874D01*
X532853D01*
X533853Y508874D01*
Y509873D01*
Y510873D01*
X532853Y511873D01*
X529854D01*
X537852Y505875D02*
X538851D01*
X539851Y506874D01*
Y511873D01*
X536852D01*
X535852Y510873D01*
Y508874D01*
X536852Y507874D01*
X539851D01*
D39*
X221752Y642126D02*
X222293Y642667D01*
X221752Y642126D02*
X222293Y641585D01*
X221752Y612205D02*
X222293Y612746D01*
X221752Y612205D02*
X222293Y611663D01*
X221752Y626378D02*
X222293Y626919D01*
X221752Y626378D02*
X222293Y625837D01*
X511565Y590404D02*
X512106Y590945D01*
X511565Y591486D02*
X512106Y590945D01*
X511565Y627805D02*
X512106Y628346D01*
X511565Y628888D02*
X512106Y628346D01*
X511565Y603002D02*
X512106Y603543D01*
X511565Y604085D02*
X512106Y603543D01*
X511565Y640404D02*
X512106Y640945D01*
X511565Y641486D02*
X512106Y640945D01*
X511565Y577805D02*
X512106Y578346D01*
X511565Y578888D02*
X512106Y578346D01*
X511565Y615600D02*
X512106Y616142D01*
X511565Y616683D02*
X512106Y616142D01*
X416653Y354429D02*
X418209D01*
X416653D02*
Y355807D01*
X435236Y354429D02*
X436614D01*
X436654Y354429D02*
Y355807D01*
X416653Y653346D02*
Y654724D01*
X416693Y654724D02*
X418071D01*
X436654Y653346D02*
Y654724D01*
X435098D02*
X436654D01*
X236319Y680610D02*
Y682165D01*
X237697D01*
X236319Y662205D02*
Y663583D01*
X236319Y662165D02*
X237697D01*
X535236Y682165D02*
X536614D01*
X536614Y680748D02*
Y682126D01*
X535236Y662165D02*
X536614D01*
Y663721D01*
X246346Y456890D02*
Y466043D01*
Y506398D02*
Y514075D01*
X209842Y521457D02*
X237205D01*
X209842Y454626D02*
X244083D01*
X246346Y380118D02*
Y389272D01*
Y429626D02*
Y437303D01*
X209842Y444685D02*
X237205D01*
X209842Y377854D02*
X244083D01*
X307579Y346346D02*
X316732D01*
X259547D02*
X267224D01*
X252165Y309842D02*
Y337205D01*
X318996Y309842D02*
Y344083D01*
X384350Y346346D02*
X393504D01*
X336319D02*
X343996D01*
X328937Y309842D02*
Y337205D01*
X395768Y309842D02*
Y344083D01*
X520079Y313941D02*
Y327165D01*
X520060Y333661D02*
Y338287D01*
X479903Y333661D02*
Y338287D01*
X479921Y313941D02*
Y327165D01*
X479903Y338287D02*
X484252D01*
X515748D02*
X520060D01*
X464961Y617992D02*
X465748D01*
X464961Y615079D02*
X465748D01*
X308858Y657500D02*
Y660039D01*
Y635236D02*
Y637776D01*
X341535Y657500D02*
Y660039D01*
Y635236D02*
Y637776D01*
X308858Y660039D02*
X311260D01*
X339134D02*
X341535D01*
X308858Y635236D02*
X311260D01*
X339134D02*
X341535D01*
X354724Y557874D02*
Y616929D01*
X295669Y557874D02*
Y616929D01*
X354724D01*
X295669Y557874D02*
X354724D01*
X295669Y560184D02*
X297980Y557874D01*
X252953Y480512D02*
X257283D01*
X252953Y491929D02*
X257283D01*
X252953Y403740D02*
X257283D01*
X252953Y415158D02*
X257283D01*
X293110Y352953D02*
Y357283D01*
X281693Y352953D02*
Y357283D01*
X369882Y352953D02*
Y357283D01*
X358465Y352953D02*
Y357283D01*
X268996Y455315D02*
Y457875D01*
X269587D01*
X268996Y442520D02*
Y445079D01*
Y442520D02*
X269587D01*
X305414D02*
X306004D01*
Y445079D01*
Y455315D02*
Y457875D01*
X305414D02*
X306004D01*
X487598Y396457D02*
Y398228D01*
X489370D01*
X510630D02*
X512402D01*
Y396457D02*
Y398228D01*
Y373425D02*
Y375197D01*
X510630Y373425D02*
X512402D01*
X487598D02*
Y375197D01*
Y373425D02*
X489370D01*
D58*
X415551Y649409D02*
G03*
X415551Y649409I-787J0D01*
G01*
X532087Y684055D02*
G03*
X532087Y684055I-787J0D01*
G01*
D93*
X296752Y555315D02*
G03*
X296752Y555315I-492J0D01*
G01*
X305906Y460434D02*
G03*
X305906Y460434I-492J0D01*
G01*
X485532Y397638D02*
G03*
X485532Y397638I-492J0D01*
G01*
D95*
X459842Y614272D02*
G03*
X459842Y614272I-197J0D01*
G01*
X307480Y660039D02*
G03*
X307480Y660039I-197J0D01*
G01*
X251575Y491929D02*
G03*
X251575Y491929I-197J0D01*
G01*
Y415158D02*
G03*
X251575Y415158I-197J0D01*
G01*
X281890Y351378D02*
G03*
X281890Y351378I-197J0D01*
G01*
X358661D02*
G03*
X358661Y351378I-197J0D01*
G01*
M02*
