M48
;Layer_Color=9474304
;FILE_FORMAT=2:5
INCH,TZ
;TYPE=PLATED
T1F00S00C0.00787
T2F00S00C0.01181
T3F00S00C0.01378
T5F00S00C0.04016
T6F00S00C0.05906
T7F00S00C0.11811
;TYPE=NON_PLATED
T8F00S00C0.02559
%
T01
X272441Y336614
X287402Y349213
X287402Y359843
X281890Y379134
X278740
X292913Y383071
X296063
X307874Y379528
Y376378
X302398Y336650
X295374Y439764
X287402
X279626
X281595Y448229
Y452166
X284547Y450197
X287500Y452166
Y448229
X290453Y450197
X293406Y448229
Y452166
X296358Y450197
X299311Y448229
Y452166
X308661Y451181
X299606Y464173
X296850Y462205
X291732Y466142
X288976Y464173
X287500Y460630
X278642Y450197
X275689Y452166
Y448229
X266142Y451181
X259843Y409449
X249213Y409449
X236614Y394488
Y424409
X316929Y384646
X320079
X369685Y382677
X372835
X364173Y359843
X364173Y349213
X349213Y336614
X379134
X419685Y330709
X423902
X429134
X434252Y335433
X441339Y337402
X464961Y377165
Y380315
Y391339
Y394488
X474409Y408268
X470866Y413386
X484252Y388189
Y383465
Y379134
Y375197
X478740Y373228
X481890Y370079
X473622Y372047
X492913Y371260
X500787
X508661
X506496Y379331
Y383661
Y387992
Y392323
X502165
X497835
X493504
Y387992
X497835
X502165
Y383661
X497835
X493504
Y379331
X497835
X502165
X514567Y377165
X520471Y381102
X520472Y383858
X523228Y388189
X516929Y394488
Y398425
X514567Y405118
X508661
X506693Y400394
X525591Y413386
Y417323
Y421260
Y425197
Y429134
X524409Y442520
X520472
X515354Y447244
X511417
X511811Y431496
X516535Y434646
X527953Y455118
Y459842
X522047Y464961
X502264Y463287
X497736
Y458760
X502264
X500000Y461024
X491732Y465354
X480315Y462598
Y459449
Y450000
Y446850
X492913
Y450000
X533858Y413386
X541732Y418504
X499213Y362598
Y359843
X502362Y355512
Y352756
X498032Y344488
X499213Y338583
X501968
X504921Y338386
X510827Y337992
X495079Y338583
X489173Y337992
X501968Y469291
X523228Y474409
X521654Y492126
Y496063
X521654Y500000
Y503937
Y507874
X521654Y511811
Y515748
Y523228
Y526378
Y533071
Y536221
X519291Y578346
Y590945
Y603543
Y616142
X547244Y608268
Y586221
X489764Y583858
Y579921
X489764Y575984
X482677Y572441
X482598Y587008
X478819Y587087
X470866Y579921
X480315Y554724
X475984Y547244
X485039Y515748
Y511811
Y507874
Y503937
Y500000
Y496063
Y492126
X583858Y512598
Y516929
X477559Y613386
X459449Y616535
X457480Y604724
X457480Y595276
Y590158
X460630Y592520
X465354Y594095
X461811Y574409
X457480
X440945Y571260
X440945Y579921
X437402Y585827
Y594095
X408661Y611024
X404839
X401181
X397638
X398228Y619095
X390945Y603937
X383858
X366929Y608268
X366929Y598819
X369291Y595237
X366929Y591732
X372441Y589370
X366929Y583071
Y575984
X353543Y574803
Y571654
X350394Y568504
X344094Y568504
Y571654
X337795Y571654
X334646
X334646Y568504
X331496Y568504
Y565354
X334646Y565354
X337795Y565354
X344094Y559055
X347244
X353543Y559055
X350394Y577953
Y581102
X344094Y581102
X340945Y581102
Y577953
X337795Y577953
Y584252
X340945
X344094Y587402
Y590551
Y593701
X347244
Y596850
X344094
X340945Y600000
X340944Y603148
X344094Y603150
Y606299
X340945Y609449
Y612598
X331496
Y609449
X325197Y609449
Y600000
X328346Y600000
Y596850
X331496
X334646
Y600000
X331496Y603150
X331496Y593701
X328346
X325197
X322047
Y590551
X318898
X315748Y590551
Y593701
Y596850
X312598
X315748Y600000
X315747Y603148
X315748Y606299
X318898Y606299
Y603150
Y600000
Y596850
X318898Y584252
X322047
X325197
X331496Y584252
Y581102
Y577953
X328346Y577953
Y574803
X331496Y574803
Y571654
X328346Y571654
X322047
Y568504
Y562205
X315748
Y565354
Y568504
X312598Y568504
Y565354
Y571654
Y574803
X315748Y577953
X315748Y581102
Y584252
X312598Y584252
X312598Y587400
X312598Y581102
X322047Y581102
Y577953
X322047Y574803
X318898
X315748Y559055
X329921Y557874
X329134Y543701
X332283
X321260
X318110
X328346Y587402
X334646
X337795Y590551
Y593701
X334646
X354724Y588976
X354724Y601967
X354724Y604724
X353543Y615748
X350394
X361811Y618110
X315748Y615748
X347244Y574803
X369291Y550345
X374193Y547638
X373425Y540551
X381102Y540748
Y543701
Y546654
X388386Y541339
X384154Y536713
X378051Y536713
X372835Y527165
X370079Y528346
X367323Y529921
X364567Y531496
X386221Y482283
Y479134
X409055
Y482283
X437795Y523228
Y526378
Y533071
Y536221
X468504
Y533071
Y526378
Y523228
X463386Y560630
X414173Y567323
X395276Y575197
Y583858
X309449Y581102
Y577953
X303150
X306299Y574803
Y571654
Y568504
X303150Y568504
Y565354
X300000Y565354
Y568504
X303150Y571654
X295669Y573228
Y577559
X300000Y581102
X303150Y590551
Y593701
X306299Y596850
X309449
Y593701
Y590551
Y600000
X306299
X303150
X300000Y600000
X296850Y603150
X296850Y609449
X303150Y606299
X306299Y609449
X306299Y612598
Y615748
X300000Y615748
X299886Y620472
X303543Y620472
X306299Y603150
X309449
Y606299
X295669Y592126
X283465Y591732
Y598819
Y583071
Y575984
X284252Y569291
Y562992
X296850Y562205
Y559055
X303150Y559055
X309449
Y562205
Y565354
Y568504
X307087Y545276
X300787
X299606Y529921
X296457
X304331
X307480
X274410Y531890
Y535039
X270472Y528346
X267717Y541732
Y544882
X263386Y548032
Y555118
X268110Y552756
X268189Y565276
X256299Y560236
X252362
Y556299
X256299
X254331Y548032
X251181Y533465
X234252Y531102
X223622Y532677
X218504Y555118
Y558268
X221457Y562697
X221654Y573032
Y575984
Y578937
X224705Y583169
X218602Y583268
X214173Y578346
X229134Y579134
X229085Y575148
X242913Y568110
X248524Y565650
X245669Y560236
X240256Y558268
X254331Y577559
X263386Y577559
Y584646
X268110Y582283
X268238Y594360
X262205Y601968
X254331Y611811
X237402Y608268
X242913Y597638
X245669Y589764
X252362
X256299
Y585827
X252362
X218504Y616929
X236614Y501181
X255118Y507874
X258268
X259843Y486220
X249213Y486221
X236614Y471260
X277953Y477559
Y480709
X287795Y480709
Y477559
X279528Y491732
Y494882
Y502362
Y505512
X289370Y627559
X296850Y630315
X299606Y638976
X302870Y639090
X311811Y637402
Y657874
X296457Y679921
X257874Y684646
X265157Y659252
Y648228
X272736Y643209
X272835Y637894
X269291Y634252
X265354
X240158Y627559
X218504Y630709
X218406Y646752
X222047Y651968
X245276Y648425
X314566Y630707
X314567Y627953
X314566Y625196
X321654Y629134
X328740
X337008Y638189
X336476Y645138
X336437Y650000
X336614Y655118
X346063Y655512
Y651968
X356693Y653543
Y658661
X350000Y672047
X346457
X342913
X336614
X333071
X357087Y638189
X360630Y639370
X364173Y640551
X367717Y641732
X372835Y649606
Y653543
X381496Y652362
Y659842
X397244Y641732
X401181
X404839
X408661
X412205
Y637402
X408661
X391929Y629331
X437795Y647244
Y651968
X442913Y654818
X450000
X519291Y640945
Y628346
T02
X287402Y375197
X293307Y411811
X309055
X323228
X333071
X332677Y382677
X364173Y375197
X392126
X409449Y394488
X377165Y411811
X494776Y348031
X505224
X373622Y475197
X333071Y469291
X323228
X319291Y516929
X395669Y519685
X371260Y575984
X284252Y549606
X287402Y516929
X294488
X301969
X309449
X279921
X261417
X282283Y469291
X310236
X269685Y614173
X276378Y621654
X322441Y633858
X336221
X463386Y659842
X469685
T03
X490551Y326969
X493701
X496850
X495276Y329724
X498425
X501575
X504724
X503150Y326969
X506299
X509449
X511024Y329724
X488976
T05
X421654Y359606
Y369606
Y379606
Y389606
Y399606
Y409606
Y419606
Y429606
Y439606
Y449606
Y459606
X431653
Y449606
Y439606
Y429606
Y419606
Y409606
Y399606
Y389606
Y379606
Y369606
Y359606
X568740
X578740
Y369606
Y379606
Y389606
Y399606
Y409606
Y419606
Y429606
Y439606
Y449606
Y459606
X568740
Y449606
Y439606
Y429606
Y419606
Y409606
Y399606
Y389606
Y379606
Y369606
Y469606
X578740
Y479606
Y489606
Y499606
Y509606
Y519606
Y529606
Y539606
Y549606
Y559606
Y569606
Y579606
Y589606
Y599606
Y609606
Y619606
X568740
Y609606
Y599606
Y589606
Y579606
Y569606
Y559606
Y549606
Y539606
Y529606
Y519606
Y509606
Y499606
Y489606
Y479606
X431653
X421654
Y489606
Y499606
Y509606
Y519606
Y529606
Y539606
Y549606
Y559606
Y569606
Y579606
Y589606
Y599606
Y609606
Y619606
X431653
Y609606
Y599606
Y589606
Y579606
Y569606
Y559606
Y549606
Y539606
Y529606
Y519606
Y509606
Y499606
Y489606
Y469606
X421654
X311496Y667165
Y677165
X301496
X291496
X281496
X271496
X261496
X251496
X241496
Y667165
X251496
X261496
X271496
X281496
X291496
X301496
X321496
Y677165
X331496
X341496
X351496
X361496
X371496
X381496
X391496
X401496
X411496
X421496
X431496
X441496
X451496
X461496
Y667165
X451496
X441496
X431496
X421496
X411496
X401496
X391496
X381496
X371496
X361496
X351496
X341496
X331496
X421654Y649606
Y639606
Y629606
X431653
Y639606
Y649606
X471496Y667165
Y677165
X481496
X491496
X501496
X511496
X521496
X531496
Y667165
X521496
X511496
X501496
X491496
X481496
X568740Y649606
X578740
Y639606
Y629606
X568740
Y639606
T06
X262319Y333059
X312476
X233059Y384374
Y434531
Y461146
X339090Y333059
X389248
X233059Y511303
T07
X217598Y322047
X573898
X217598Y672165
X573898
T08
X485827Y332283
M30
