G04 Layer_Physical_Order=1*
G04 Layer_Color=255*
%FSLAX25Y25*%
%MOIN*%
G70*
G01*
G75*
%ADD10R,0.02520X0.02362*%
%ADD11R,0.02362X0.02520*%
%ADD12R,0.03937X0.05512*%
%ADD13R,0.07874X0.03543*%
%ADD14R,0.03543X0.07874*%
%ADD15R,0.01142X0.03543*%
%ADD16R,0.02284X0.03701*%
%ADD17R,0.02165X0.01968*%
%ADD18R,0.01968X0.02165*%
%ADD19R,0.04724X0.05512*%
%ADD20R,0.03543X0.01575*%
%ADD21R,0.18307X0.18898*%
%ADD22C,0.01378*%
%ADD23R,0.01378X0.00787*%
%ADD24R,0.02165X0.01575*%
%ADD25R,0.02165X0.01181*%
%ADD26R,0.00787X0.01378*%
%ADD27R,0.01575X0.02165*%
%ADD28R,0.01181X0.02165*%
%ADD29R,0.29724X0.08071*%
%ADD30O,0.03347X0.01181*%
%ADD31O,0.01181X0.03347*%
G04:AMPARAMS|DCode=32|XSize=7.87mil|YSize=25.59mil|CornerRadius=1.97mil|HoleSize=0mil|Usage=FLASHONLY|Rotation=90.000|XOffset=0mil|YOffset=0mil|HoleType=Round|Shape=RoundedRectangle|*
%AMROUNDEDRECTD32*
21,1,0.00787,0.02165,0,0,90.0*
21,1,0.00394,0.02559,0,0,90.0*
1,1,0.00394,0.01083,0.00197*
1,1,0.00394,0.01083,-0.00197*
1,1,0.00394,-0.01083,-0.00197*
1,1,0.00394,-0.01083,0.00197*
%
%ADD32ROUNDEDRECTD32*%
G04:AMPARAMS|DCode=33|XSize=7.87mil|YSize=25.59mil|CornerRadius=1.97mil|HoleSize=0mil|Usage=FLASHONLY|Rotation=0.000|XOffset=0mil|YOffset=0mil|HoleType=Round|Shape=RoundedRectangle|*
%AMROUNDEDRECTD33*
21,1,0.00787,0.02165,0,0,0.0*
21,1,0.00394,0.02559,0,0,0.0*
1,1,0.00394,0.00197,-0.01083*
1,1,0.00394,-0.00197,-0.01083*
1,1,0.00394,-0.00197,0.01083*
1,1,0.00394,0.00197,0.01083*
%
%ADD33ROUNDEDRECTD33*%
G04:AMPARAMS|DCode=34|XSize=169.29mil|YSize=169.29mil|CornerRadius=1.69mil|HoleSize=0mil|Usage=FLASHONLY|Rotation=0.000|XOffset=0mil|YOffset=0mil|HoleType=Round|Shape=RoundedRectangle|*
%AMROUNDEDRECTD34*
21,1,0.16929,0.16590,0,0,0.0*
21,1,0.16590,0.16929,0,0,0.0*
1,1,0.00339,0.08295,-0.08295*
1,1,0.00339,-0.08295,-0.08295*
1,1,0.00339,-0.08295,0.08295*
1,1,0.00339,0.08295,0.08295*
%
%ADD34ROUNDEDRECTD34*%
%ADD35C,0.00500*%
%ADD36C,0.01181*%
%ADD37C,0.00602*%
%ADD38C,0.01000*%
%ADD39C,0.00787*%
%ADD40C,0.02362*%
%ADD41C,0.00587*%
%ADD42C,0.01575*%
%ADD43C,0.19685*%
%ADD44R,0.05905X0.05905*%
%ADD45C,0.05905*%
%ADD46R,0.05905X0.05905*%
%ADD47R,0.11811X0.08661*%
%ADD48R,0.08661X0.11811*%
%ADD49O,0.03937X0.06299*%
%ADD50O,0.03740X0.02559*%
%ADD51C,0.02559*%
%ADD52O,0.03937X0.05905*%
%ADD53C,0.01575*%
%ADD54C,0.01968*%
%ADD55C,0.02362*%
G36*
X368191Y382058D02*
X368541Y381533D01*
X369066Y381183D01*
X369685Y381060D01*
X369891Y380891D01*
Y373010D01*
X369452Y372571D01*
X367035D01*
Y372441D01*
X361311D01*
Y372571D01*
X358894D01*
X358456Y373010D01*
Y375324D01*
X358389Y375656D01*
X358201Y375938D01*
X355072Y379067D01*
X354790Y379256D01*
X354457Y379322D01*
X341986D01*
X339388Y381920D01*
X339539Y382283D01*
X368146Y382283D01*
X368191Y382058D01*
D02*
G37*
G36*
X294267Y570645D02*
X294267Y570645D01*
X294291Y570629D01*
Y569572D01*
X277126Y552407D01*
X276937Y552125D01*
X276871Y551792D01*
Y535580D01*
X276412Y535122D01*
X275985Y535251D01*
X275904Y535658D01*
X275553Y536183D01*
X275028Y536534D01*
X274410Y536657D01*
X273790Y536534D01*
X273266Y536183D01*
X272915Y535658D01*
X272792Y535039D01*
X272915Y534420D01*
X273266Y533895D01*
X273556Y533701D01*
Y533228D01*
X273266Y533034D01*
X272915Y532509D01*
X272792Y531890D01*
X272915Y531271D01*
X273266Y530746D01*
X273790Y530395D01*
X274410Y530272D01*
X275028Y530395D01*
X275553Y530746D01*
X275904Y531271D01*
X276027Y531890D01*
X276196Y532095D01*
X276899D01*
X277231Y532162D01*
X277513Y532350D01*
X279355Y534192D01*
X279543Y534474D01*
X279609Y534806D01*
Y538189D01*
Y543592D01*
X279769Y543699D01*
X279957Y543980D01*
X280023Y544313D01*
Y545600D01*
X279957Y545933D01*
X279785Y546244D01*
X279957Y546555D01*
X280023Y546888D01*
Y548175D01*
X279957Y548508D01*
X279769Y548790D01*
X279609Y548896D01*
Y551018D01*
X293928Y565336D01*
X294291Y565186D01*
Y556299D01*
X297076Y556299D01*
X297226Y555935D01*
X283425Y542134D01*
X283237Y541852D01*
X283170Y541520D01*
Y503235D01*
Y479740D01*
X283237Y479408D01*
X283425Y479126D01*
X284531Y478019D01*
X284813Y477831D01*
X285146Y477765D01*
X285146Y477765D01*
X286009D01*
X286178Y477559D01*
X286301Y476940D01*
X286651Y476415D01*
X287176Y476064D01*
X287795Y475941D01*
X288414Y476064D01*
X288939Y476415D01*
X289290Y476940D01*
X289413Y477559D01*
X289290Y478178D01*
X288939Y478703D01*
X288649Y478897D01*
Y479371D01*
X288939Y479565D01*
X289290Y480090D01*
X289413Y480709D01*
X289290Y481328D01*
X288939Y481852D01*
X288414Y482203D01*
X287795Y482326D01*
X287176Y482203D01*
X286651Y481852D01*
X286301Y481328D01*
X285908Y481374D01*
Y483612D01*
X286027Y483636D01*
X286309Y483824D01*
X286498Y484106D01*
X286564Y484439D01*
Y485726D01*
X286498Y486059D01*
X286326Y486370D01*
X286498Y486681D01*
X286564Y487014D01*
Y488301D01*
X286498Y488634D01*
X286326Y488945D01*
X286498Y489256D01*
X286564Y489589D01*
Y490876D01*
X286498Y491209D01*
X286309Y491491D01*
X286498Y491831D01*
X286564Y492163D01*
Y493451D01*
X286498Y493783D01*
X286309Y494065D01*
X286027Y494254D01*
X285908Y494277D01*
Y514881D01*
X286262Y515055D01*
X286302Y515024D01*
X286832Y514804D01*
X286902Y514795D01*
Y516929D01*
Y519063D01*
X286832Y519054D01*
X286302Y518834D01*
X286262Y518804D01*
X285908Y518978D01*
Y540745D01*
X300141Y554978D01*
X300141Y554978D01*
X300141Y554978D01*
X301462Y556299D01*
X305430Y556299D01*
Y554530D01*
X302716Y551816D01*
X302528Y551534D01*
X302462Y551202D01*
Y546996D01*
X302068Y546806D01*
X301562Y547145D01*
X301287Y547199D01*
Y545276D01*
X300787D01*
Y544776D01*
X298864D01*
X298918Y544501D01*
X299357Y543845D01*
X300013Y543406D01*
X300700Y543270D01*
X300888Y542902D01*
X289543Y531556D01*
X289355Y531274D01*
X289288Y530942D01*
Y518638D01*
X288895Y518533D01*
X288502Y518834D01*
X287971Y519054D01*
X287902Y519063D01*
Y516929D01*
Y514795D01*
X287971Y514804D01*
X288502Y515024D01*
X288895Y515326D01*
X289288Y515220D01*
Y484646D01*
X289355Y484313D01*
X289543Y484031D01*
X293013Y480561D01*
Y467668D01*
X292619Y467457D01*
X292351Y467636D01*
X291732Y467759D01*
X291113Y467636D01*
X290588Y467286D01*
X290238Y466761D01*
X290115Y466142D01*
X290194Y465741D01*
X290174Y465713D01*
X289763Y465556D01*
X289595Y465668D01*
X288976Y465791D01*
X288357Y465668D01*
X287832Y465317D01*
X287482Y464792D01*
X287359Y464173D01*
X287359Y464173D01*
X277771Y464173D01*
X272441Y469504D01*
Y474909D01*
X272571D01*
Y477326D01*
X273010Y477765D01*
X274016D01*
X274016Y477765D01*
X276166D01*
X276335Y477559D01*
X276458Y476940D01*
X276809Y476415D01*
X277334Y476064D01*
X277953Y475941D01*
X278572Y476064D01*
X279097Y476415D01*
X279447Y476940D01*
X279570Y477559D01*
X279447Y478178D01*
X279097Y478703D01*
X278806Y478897D01*
Y479371D01*
X279097Y479565D01*
X279447Y480090D01*
X279570Y480709D01*
X279447Y481328D01*
X279097Y481852D01*
X278572Y482203D01*
X277953Y482326D01*
X277334Y482203D01*
X276809Y481852D01*
X276458Y481328D01*
X276335Y480709D01*
X276166Y480503D01*
X273010D01*
X272571Y480942D01*
Y483358D01*
X272441D01*
Y489083D01*
X272571D01*
Y491499D01*
X273010Y491938D01*
X273622D01*
X273622Y491938D01*
X277741D01*
X277910Y491732D01*
X278033Y491113D01*
X278384Y490588D01*
X278908Y490238D01*
X279528Y490115D01*
X280147Y490238D01*
X280671Y490588D01*
X281022Y491113D01*
X281145Y491732D01*
X281022Y492351D01*
X280671Y492876D01*
X280381Y493070D01*
Y493544D01*
X280671Y493738D01*
X281022Y494263D01*
X281145Y494882D01*
X281022Y495501D01*
X280671Y496026D01*
X280147Y496376D01*
X279528Y496500D01*
X278908Y496376D01*
X278384Y496026D01*
X278033Y495501D01*
X277910Y494882D01*
X277791Y494737D01*
X277559Y494676D01*
X277549Y494676D01*
X273010D01*
X272571Y495115D01*
Y497532D01*
X272441D01*
Y498819D01*
X255906Y498819D01*
X250787Y503937D01*
X250787Y507874D01*
X255906Y512992D01*
X263202Y512992D01*
X270079Y519869D01*
X270079Y526497D01*
X270383Y526747D01*
X270472Y526729D01*
X271092Y526852D01*
X271616Y527203D01*
X271967Y527727D01*
X272090Y528346D01*
X271967Y528966D01*
X271616Y529490D01*
X271092Y529841D01*
X270472Y529964D01*
X270383Y529946D01*
X270079Y530196D01*
X270079Y541732D01*
X270304Y541958D01*
X270538Y542004D01*
X270820Y542193D01*
X273646Y545019D01*
X273834Y545301D01*
X273901Y545633D01*
Y564171D01*
X281589Y571859D01*
X293053D01*
X294267Y570645D01*
D02*
G37*
G36*
X504930Y369164D02*
X504996Y368832D01*
X505185Y368550D01*
X510155Y363580D01*
Y345475D01*
X506760Y342080D01*
X506571Y341798D01*
X506505Y341465D01*
Y340729D01*
X506327Y340551D01*
X498718Y340551D01*
X498709Y340571D01*
X498662Y340748D01*
X498834Y341006D01*
X498901Y341339D01*
Y343161D01*
X499175Y343344D01*
X499526Y343869D01*
X499649Y344488D01*
X499526Y345107D01*
X499175Y345632D01*
X498651Y345983D01*
X498032Y346106D01*
X497412Y345983D01*
X496888Y345632D01*
X496537Y345107D01*
X496414Y344488D01*
X496537Y343869D01*
X496888Y343344D01*
X497162Y343161D01*
Y341699D01*
X496433Y340969D01*
X496244Y340687D01*
X496217Y340551D01*
X493540D01*
X493495Y340596D01*
Y341465D01*
X493429Y341798D01*
X493240Y342080D01*
X490452Y344869D01*
Y362612D01*
X496390Y368550D01*
X496579Y368832D01*
X496645Y369164D01*
Y371260D01*
X497056D01*
Y367683D01*
X494268Y364894D01*
X494079Y364612D01*
X494013Y364280D01*
Y356854D01*
X494079Y356521D01*
X494268Y356239D01*
X497487Y353019D01*
X497769Y352831D01*
X497769Y352831D01*
X498102Y352765D01*
X500737D01*
X500744Y352756D01*
X500868Y352137D01*
X501218Y351612D01*
X501743Y351261D01*
X502362Y351138D01*
X502981Y351261D01*
X503506Y351612D01*
X503857Y352137D01*
X503980Y352756D01*
X503857Y353375D01*
X503506Y353900D01*
X503303Y354035D01*
Y354232D01*
X503506Y354368D01*
X503857Y354893D01*
X503980Y355512D01*
X503857Y356131D01*
X503506Y356656D01*
X502981Y357006D01*
X502362Y357130D01*
X501743Y357006D01*
X501218Y356656D01*
X500868Y356131D01*
X500744Y355512D01*
X500737Y355503D01*
X498876D01*
X496751Y357628D01*
Y363505D01*
X499540Y366294D01*
X499540Y366294D01*
X499728Y366576D01*
X499794Y366909D01*
Y369806D01*
X499968Y369899D01*
X500168Y369765D01*
X500787Y369642D01*
X501406Y369765D01*
X501607Y369899D01*
X501781Y369806D01*
Y364336D01*
X500799Y363354D01*
X500603Y363374D01*
X500356Y363742D01*
X499832Y364093D01*
X499213Y364216D01*
X498594Y364093D01*
X498069Y363742D01*
X497718Y363217D01*
X497595Y362598D01*
X497718Y361979D01*
X498069Y361455D01*
X498272Y361319D01*
Y361122D01*
X498069Y360986D01*
X497718Y360462D01*
X497595Y359843D01*
X497718Y359224D01*
X498069Y358699D01*
X498594Y358348D01*
X499213Y358225D01*
X499832Y358348D01*
X500356Y358699D01*
X500707Y359224D01*
X500830Y359843D01*
X501021Y359894D01*
X501141Y359917D01*
X501141Y359917D01*
X501423Y360106D01*
X504264Y362948D01*
X504453Y363230D01*
X504519Y363562D01*
Y371260D01*
X504930D01*
Y369164D01*
D02*
G37*
G36*
X298634Y436311D02*
X298926Y436253D01*
Y409604D01*
X293053Y403731D01*
X273010D01*
X272571Y404170D01*
Y406587D01*
X272441D01*
Y412311D01*
X272571D01*
Y414728D01*
X273010Y415166D01*
X286741D01*
X287073Y415233D01*
X287355Y415421D01*
X293536Y421601D01*
X293724Y421883D01*
X293791Y422216D01*
X293791Y422216D01*
Y436327D01*
X298611D01*
X298634Y436311D01*
D02*
G37*
G36*
X311729Y556299D02*
Y518251D01*
X311377Y518051D01*
X311336Y518053D01*
X311004Y518485D01*
X310549Y518834D01*
X310018Y519054D01*
X309949Y519063D01*
Y516929D01*
Y514795D01*
X310018Y514804D01*
X310549Y515024D01*
X311004Y515374D01*
X311336Y515805D01*
X311377Y515807D01*
X311729Y515608D01*
Y490318D01*
X311795Y489986D01*
X311984Y489704D01*
X326690Y474998D01*
Y382483D01*
X323529Y379322D01*
X309661D01*
X309492Y379528D01*
X309369Y380147D01*
X309018Y380671D01*
X308493Y381022D01*
X307874Y381145D01*
X307255Y381022D01*
X306730Y380671D01*
X306380Y380147D01*
X306256Y379528D01*
X306380Y378908D01*
X306730Y378384D01*
X307021Y378189D01*
Y377716D01*
X306730Y377522D01*
X306380Y376997D01*
X306256Y376378D01*
X306380Y375759D01*
X306730Y375234D01*
X307255Y374883D01*
X307874Y374760D01*
X308493Y374883D01*
X309018Y375234D01*
X309369Y375759D01*
X309492Y376378D01*
X309661Y376584D01*
X324303D01*
X324636Y376650D01*
X324918Y376838D01*
X329174Y381094D01*
X329362Y381376D01*
X329428Y381709D01*
X329428Y381709D01*
Y475772D01*
X329428Y475772D01*
X329362Y476104D01*
X329174Y476386D01*
X314468Y491092D01*
Y556299D01*
X318603Y556299D01*
Y551161D01*
X318670Y550828D01*
X318858Y550546D01*
X323722Y545682D01*
Y493126D01*
X323788Y492793D01*
X323976Y492512D01*
X336139Y480349D01*
Y381657D01*
X336205Y381324D01*
X336393Y381042D01*
X340597Y376838D01*
X340879Y376650D01*
X341212Y376584D01*
X353683D01*
X355717Y374550D01*
Y373010D01*
X355279Y372571D01*
X352862D01*
Y372441D01*
X298713Y372441D01*
Y372571D01*
X296296D01*
X295857Y373010D01*
Y381284D01*
X296063Y381453D01*
X296682Y381576D01*
X297207Y381927D01*
X297557Y382452D01*
X297681Y383071D01*
X297557Y383690D01*
X297207Y384215D01*
X296682Y384565D01*
X296063Y384689D01*
X295444Y384565D01*
X294919Y384215D01*
X294725Y383924D01*
X294251D01*
X294057Y384215D01*
X293532Y384565D01*
X292913Y384689D01*
X292294Y384565D01*
X291770Y384215D01*
X291419Y383690D01*
X291296Y383071D01*
X291419Y382452D01*
X291770Y381927D01*
X292294Y381576D01*
X292913Y381453D01*
X293119Y381284D01*
Y374803D01*
X293119Y374803D01*
Y373010D01*
X292680Y372571D01*
X290264D01*
Y372441D01*
X284539D01*
Y372571D01*
X282123D01*
X281684Y373010D01*
Y373622D01*
X281684Y373622D01*
Y377347D01*
X281890Y377516D01*
X282509Y377639D01*
X283034Y377990D01*
X283384Y378515D01*
X283507Y379134D01*
X283384Y379753D01*
X283034Y380278D01*
X282509Y380628D01*
X281890Y380751D01*
X281271Y380628D01*
X280746Y380278D01*
X280552Y379987D01*
X280078D01*
X279884Y380278D01*
X279359Y380628D01*
X278740Y380751D01*
X278121Y380628D01*
X278007Y380552D01*
X272441Y386118D01*
Y398138D01*
X272571D01*
Y400554D01*
X273010Y400993D01*
X293828D01*
X294160Y401059D01*
X294442Y401248D01*
X301410Y408216D01*
X301598Y408497D01*
X301664Y408830D01*
Y436327D01*
X306231D01*
X311811Y441907D01*
X311811Y458661D01*
X306299Y464173D01*
X303633D01*
Y480701D01*
X303567Y481033D01*
X303378Y481315D01*
X299401Y485293D01*
Y516708D01*
X299794Y516734D01*
X299844Y516360D01*
X300063Y515829D01*
X300413Y515374D01*
X300869Y515024D01*
X301399Y514804D01*
X301468Y514795D01*
Y516929D01*
Y519063D01*
X301399Y519054D01*
X300869Y518834D01*
X300413Y518485D01*
X300063Y518029D01*
X299844Y517498D01*
X299794Y517124D01*
X299401Y517150D01*
Y528135D01*
X299606Y528304D01*
X300225Y528427D01*
X300750Y528777D01*
X301101Y529302D01*
X301224Y529921D01*
X301101Y530540D01*
X300750Y531065D01*
X300225Y531416D01*
X299606Y531539D01*
X298987Y531416D01*
X298462Y531065D01*
X298268Y530774D01*
X297795D01*
X297601Y531065D01*
X297076Y531416D01*
X296457Y531539D01*
X295838Y531416D01*
X295313Y531065D01*
X294962Y530540D01*
X294839Y529921D01*
X294962Y529302D01*
X295313Y528777D01*
X295838Y528427D01*
X296457Y528304D01*
X296662Y528135D01*
Y518325D01*
X296269Y518191D01*
X296044Y518485D01*
X295588Y518834D01*
X295058Y519054D01*
X294988Y519063D01*
Y516929D01*
Y514795D01*
X295058Y514804D01*
X295588Y515024D01*
X296044Y515374D01*
X296269Y515667D01*
X296662Y515533D01*
Y484519D01*
X296729Y484186D01*
X296917Y483904D01*
X300895Y479926D01*
Y476032D01*
X300704Y475994D01*
X300422Y475806D01*
X300233Y475524D01*
X300167Y475191D01*
Y473904D01*
X300233Y473571D01*
X300406Y473260D01*
X300233Y472949D01*
X300167Y472616D01*
Y471329D01*
X300233Y470996D01*
X300406Y470685D01*
X300233Y470374D01*
X300167Y470041D01*
Y468754D01*
X300233Y468421D01*
X300422Y468139D01*
X300704Y467951D01*
X300895Y467913D01*
Y465694D01*
X300501Y465484D01*
X300225Y465668D01*
X299606Y465791D01*
X298987Y465668D01*
X298462Y465317D01*
X298112Y464792D01*
X297989Y464173D01*
X297989Y464173D01*
X295751D01*
Y465629D01*
X295771D01*
X296104Y465695D01*
X296386Y465883D01*
X296574Y466165D01*
X296640Y466498D01*
Y467785D01*
X296574Y468118D01*
X296386Y468458D01*
X296574Y468740D01*
X296640Y469073D01*
Y470360D01*
X296574Y470693D01*
X296386Y470975D01*
X296104Y471163D01*
X295771Y471229D01*
X295751D01*
Y475197D01*
Y481335D01*
X295751Y481335D01*
X295685Y481668D01*
X295496Y481950D01*
X295496Y481950D01*
X292026Y485420D01*
Y516144D01*
X292420Y516222D01*
X292583Y515829D01*
X292933Y515374D01*
X293388Y515024D01*
X293919Y514804D01*
X293988Y514795D01*
Y516929D01*
Y519063D01*
X293919Y519054D01*
X293388Y518834D01*
X292933Y518485D01*
X292583Y518029D01*
X292420Y517636D01*
X292026Y517715D01*
Y530168D01*
X304945Y543086D01*
X304945Y543086D01*
X305134Y543368D01*
X305200Y543701D01*
Y544611D01*
X305592Y544657D01*
X305943Y544132D01*
X306468Y543781D01*
X307087Y543658D01*
X307706Y543781D01*
X308230Y544132D01*
X308581Y544657D01*
X308704Y545276D01*
X308581Y545895D01*
X308230Y546419D01*
X307706Y546770D01*
X307087Y546893D01*
X306468Y546770D01*
X305943Y546419D01*
X305592Y545895D01*
X305200Y545941D01*
Y550427D01*
X307914Y553141D01*
X308102Y553423D01*
X308168Y553756D01*
Y556299D01*
X311729D01*
D02*
G37*
%LPC*%
G36*
X364673Y377331D02*
Y375697D01*
X366307D01*
X366298Y375766D01*
X366078Y376297D01*
X365729Y376752D01*
X365273Y377102D01*
X364743Y377322D01*
X364673Y377331D01*
D02*
G37*
G36*
X363673D02*
X363604Y377322D01*
X363073Y377102D01*
X362618Y376752D01*
X362268Y376297D01*
X362048Y375766D01*
X362039Y375697D01*
X363673D01*
Y377331D01*
D02*
G37*
G36*
X366307Y374697D02*
X364673D01*
Y373063D01*
X364743Y373072D01*
X365273Y373292D01*
X365729Y373641D01*
X366078Y374097D01*
X366298Y374627D01*
X366307Y374697D01*
D02*
G37*
G36*
X363673D02*
X362039D01*
X362048Y374627D01*
X362268Y374097D01*
X362618Y373641D01*
X363073Y373292D01*
X363604Y373072D01*
X363673Y373063D01*
Y374697D01*
D02*
G37*
G36*
X281784Y468791D02*
X280149D01*
X280158Y468722D01*
X280378Y468191D01*
X280728Y467736D01*
X281184Y467386D01*
X281714Y467166D01*
X281784Y467157D01*
Y468791D01*
D02*
G37*
G36*
X280421Y519063D02*
Y517429D01*
X282055D01*
X282046Y517498D01*
X281826Y518029D01*
X281477Y518485D01*
X281021Y518834D01*
X280491Y519054D01*
X280421Y519063D01*
D02*
G37*
G36*
X279421D02*
X279352Y519054D01*
X278821Y518834D01*
X278366Y518485D01*
X278016Y518029D01*
X277796Y517498D01*
X277787Y517429D01*
X279421D01*
Y519063D01*
D02*
G37*
G36*
X286176Y562492D02*
X284752D01*
Y561068D01*
X285026Y561123D01*
X285683Y561562D01*
X286121Y562218D01*
X286176Y562492D01*
D02*
G37*
G36*
X283752D02*
X282328D01*
X282383Y562218D01*
X282821Y561562D01*
X283478Y561123D01*
X283752Y561068D01*
Y562492D01*
D02*
G37*
G36*
Y564916D02*
X283478Y564861D01*
X282821Y564423D01*
X282383Y563766D01*
X282328Y563492D01*
X283752D01*
Y564916D01*
D02*
G37*
G36*
X284252Y570909D02*
X283633Y570786D01*
X283108Y570435D01*
X282757Y569910D01*
X282634Y569291D01*
X282757Y568672D01*
X283108Y568148D01*
X283633Y567797D01*
X284252Y567674D01*
X284871Y567797D01*
X285396Y568148D01*
X285747Y568672D01*
X285870Y569291D01*
X285747Y569910D01*
X285396Y570435D01*
X284871Y570786D01*
X284252Y570909D01*
D02*
G37*
G36*
X284752Y564916D02*
Y563492D01*
X286176D01*
X286121Y563766D01*
X285683Y564423D01*
X285026Y564861D01*
X284752Y564916D01*
D02*
G37*
G36*
X283752Y549106D02*
X282118D01*
X282127Y549037D01*
X282347Y548506D01*
X282696Y548051D01*
X283152Y547701D01*
X283683Y547481D01*
X283752Y547472D01*
Y549106D01*
D02*
G37*
G36*
X300287Y547199D02*
X300013Y547145D01*
X299357Y546706D01*
X298918Y546050D01*
X298864Y545776D01*
X300287D01*
Y547199D01*
D02*
G37*
G36*
X286386Y549106D02*
X284752D01*
Y547472D01*
X284821Y547481D01*
X285352Y547701D01*
X285807Y548051D01*
X286157Y548506D01*
X286377Y549037D01*
X286386Y549106D01*
D02*
G37*
G36*
X284752Y551740D02*
Y550106D01*
X286386D01*
X286377Y550176D01*
X286157Y550706D01*
X285807Y551162D01*
X285352Y551511D01*
X284821Y551731D01*
X284752Y551740D01*
D02*
G37*
G36*
X283752D02*
X283683Y551731D01*
X283152Y551511D01*
X282696Y551162D01*
X282347Y550706D01*
X282127Y550176D01*
X282118Y550106D01*
X283752D01*
Y551740D01*
D02*
G37*
G36*
X281784Y471425D02*
X281714Y471416D01*
X281184Y471197D01*
X280728Y470847D01*
X280378Y470391D01*
X280158Y469861D01*
X280149Y469791D01*
X281784D01*
Y471425D01*
D02*
G37*
G36*
X282784D02*
Y469791D01*
X284418D01*
X284408Y469861D01*
X284189Y470391D01*
X283839Y470847D01*
X283383Y471197D01*
X282853Y471416D01*
X282784Y471425D01*
D02*
G37*
G36*
X284418Y468791D02*
X282784D01*
Y467157D01*
X282853Y467166D01*
X283383Y467386D01*
X283839Y467736D01*
X284189Y468191D01*
X284408Y468722D01*
X284418Y468791D01*
D02*
G37*
G36*
X279421Y516429D02*
X277787D01*
X277796Y516360D01*
X278016Y515829D01*
X278366Y515374D01*
X278821Y515024D01*
X279352Y514804D01*
X279421Y514795D01*
Y516429D01*
D02*
G37*
G36*
X258268Y509492D02*
X257649Y509369D01*
X257124Y509018D01*
X256930Y508727D01*
X256456D01*
X256262Y509018D01*
X255737Y509369D01*
X255118Y509492D01*
X254499Y509369D01*
X253974Y509018D01*
X253624Y508493D01*
X253500Y507874D01*
X253624Y507255D01*
X253974Y506730D01*
X254499Y506380D01*
X255118Y506256D01*
X255324Y506087D01*
Y505385D01*
X255390Y505052D01*
X255578Y504771D01*
X257526Y502822D01*
X257808Y502634D01*
X258141Y502568D01*
X277741D01*
X277910Y502362D01*
X278033Y501743D01*
X278384Y501218D01*
X278908Y500868D01*
X279528Y500744D01*
X280147Y500868D01*
X280671Y501218D01*
X281022Y501743D01*
X281145Y502362D01*
X281022Y502981D01*
X280671Y503506D01*
X280381Y503700D01*
Y504174D01*
X280671Y504368D01*
X281022Y504893D01*
X281145Y505512D01*
X281022Y506131D01*
X280671Y506656D01*
X280147Y507006D01*
X279528Y507129D01*
X278908Y507006D01*
X278384Y506656D01*
X278033Y506131D01*
X277910Y505512D01*
X277741Y505306D01*
X258915D01*
X258350Y505871D01*
X258479Y506298D01*
X258887Y506380D01*
X259412Y506730D01*
X259762Y507255D01*
X259885Y507874D01*
X259762Y508493D01*
X259412Y509018D01*
X258887Y509369D01*
X258268Y509492D01*
D02*
G37*
G36*
X282055Y516429D02*
X280421D01*
Y514795D01*
X280491Y514804D01*
X281021Y515024D01*
X281477Y515374D01*
X281826Y515829D01*
X282046Y516360D01*
X282055Y516429D01*
D02*
G37*
G36*
X504724Y350156D02*
X504373Y350086D01*
X503652Y349604D01*
X503170Y348883D01*
X503100Y348532D01*
X504724D01*
Y350156D01*
D02*
G37*
G36*
X495276D02*
Y348532D01*
X496900D01*
X496830Y348883D01*
X496348Y349604D01*
X495627Y350086D01*
X495276Y350156D01*
D02*
G37*
G36*
X505724D02*
Y348532D01*
X507349D01*
X507279Y348883D01*
X506797Y349604D01*
X506075Y350086D01*
X505724Y350156D01*
D02*
G37*
G36*
X494276D02*
X493925Y350086D01*
X493203Y349604D01*
X492721Y348883D01*
X492651Y348532D01*
X494276D01*
Y350156D01*
D02*
G37*
G36*
X496900Y347532D02*
X495276D01*
Y345907D01*
X495627Y345977D01*
X496348Y346459D01*
X496830Y347181D01*
X496900Y347532D01*
D02*
G37*
G36*
X494276D02*
X492651D01*
X492721Y347181D01*
X493203Y346459D01*
X493925Y345977D01*
X494276Y345907D01*
Y347532D01*
D02*
G37*
G36*
X507349D02*
X505724D01*
Y345907D01*
X506075Y345977D01*
X506797Y346459D01*
X507279Y347181D01*
X507349Y347532D01*
D02*
G37*
G36*
X504724D02*
X503100D01*
X503170Y347181D01*
X503652Y346459D01*
X504373Y345977D01*
X504724Y345907D01*
Y347532D01*
D02*
G37*
G36*
X295441Y411311D02*
X293807D01*
Y409677D01*
X293877Y409686D01*
X294407Y409906D01*
X294863Y410255D01*
X295212Y410711D01*
X295432Y411242D01*
X295441Y411311D01*
D02*
G37*
G36*
X292807D02*
X291173D01*
X291182Y411242D01*
X291402Y410711D01*
X291752Y410255D01*
X292207Y409906D01*
X292738Y409686D01*
X292807Y409677D01*
Y411311D01*
D02*
G37*
G36*
Y413945D02*
X292738Y413936D01*
X292207Y413716D01*
X291752Y413367D01*
X291402Y412911D01*
X291182Y412380D01*
X291173Y412311D01*
X292807D01*
Y413945D01*
D02*
G37*
G36*
X293807D02*
Y412311D01*
X295441D01*
X295432Y412380D01*
X295212Y412911D01*
X294863Y413367D01*
X294407Y413716D01*
X293877Y413936D01*
X293807Y413945D01*
D02*
G37*
G36*
X325362Y411311D02*
X323728D01*
Y409677D01*
X323798Y409686D01*
X324328Y409906D01*
X324784Y410255D01*
X325133Y410711D01*
X325353Y411242D01*
X325362Y411311D01*
D02*
G37*
G36*
X332571D02*
X330937D01*
X330946Y411242D01*
X331166Y410711D01*
X331515Y410255D01*
X331971Y409906D01*
X332502Y409686D01*
X332571Y409677D01*
Y411311D01*
D02*
G37*
G36*
X333177Y384811D02*
Y383177D01*
X334811D01*
X334802Y383246D01*
X334582Y383777D01*
X334233Y384233D01*
X333777Y384582D01*
X333246Y384802D01*
X333177Y384811D01*
D02*
G37*
G36*
X322728Y411311D02*
X321094D01*
X321103Y411242D01*
X321323Y410711D01*
X321673Y410255D01*
X322128Y409906D01*
X322659Y409686D01*
X322728Y409677D01*
Y411311D01*
D02*
G37*
G36*
X311189D02*
X309555D01*
Y409677D01*
X309625Y409686D01*
X310155Y409906D01*
X310611Y410255D01*
X310960Y410711D01*
X311180Y411242D01*
X311189Y411311D01*
D02*
G37*
G36*
X308555D02*
X306921D01*
X306930Y411242D01*
X307150Y410711D01*
X307500Y410255D01*
X307955Y409906D01*
X308486Y409686D01*
X308555Y409677D01*
Y411311D01*
D02*
G37*
G36*
X323728Y413945D02*
Y412311D01*
X325362D01*
X325353Y412380D01*
X325133Y412911D01*
X324784Y413367D01*
X324328Y413716D01*
X323798Y413936D01*
X323728Y413945D01*
D02*
G37*
G36*
X322728D02*
X322659Y413936D01*
X322128Y413716D01*
X321673Y413367D01*
X321323Y412911D01*
X321103Y412380D01*
X321094Y412311D01*
X322728D01*
Y413945D01*
D02*
G37*
G36*
X332571D02*
X332502Y413936D01*
X331971Y413716D01*
X331515Y413367D01*
X331166Y412911D01*
X330946Y412380D01*
X330937Y412311D01*
X332571D01*
Y413945D01*
D02*
G37*
G36*
X333571D02*
Y412311D01*
X335205D01*
X335196Y412380D01*
X334976Y412911D01*
X334627Y413367D01*
X334171Y413716D01*
X333640Y413936D01*
X333571Y413945D01*
D02*
G37*
G36*
X335205Y411311D02*
X333571D01*
Y409677D01*
X333640Y409686D01*
X334171Y409906D01*
X334627Y410255D01*
X334976Y410711D01*
X335196Y411242D01*
X335205Y411311D01*
D02*
G37*
G36*
X309555Y413945D02*
Y412311D01*
X311189D01*
X311180Y412380D01*
X310960Y412911D01*
X310611Y413367D01*
X310155Y413716D01*
X309625Y413936D01*
X309555Y413945D01*
D02*
G37*
G36*
X308555D02*
X308486Y413936D01*
X307955Y413716D01*
X307500Y413367D01*
X307150Y412911D01*
X306930Y412380D01*
X306921Y412311D01*
X308555D01*
Y413945D01*
D02*
G37*
G36*
X286902Y374697D02*
X285267D01*
X285277Y374627D01*
X285496Y374097D01*
X285846Y373641D01*
X286302Y373292D01*
X286832Y373072D01*
X286902Y373063D01*
Y374697D01*
D02*
G37*
G36*
X289536D02*
X287902D01*
Y373063D01*
X287971Y373072D01*
X288502Y373292D01*
X288957Y373641D01*
X289307Y374097D01*
X289527Y374627D01*
X289536Y374697D01*
D02*
G37*
G36*
X332177Y382177D02*
X330543D01*
X330552Y382108D01*
X330772Y381577D01*
X331122Y381122D01*
X331577Y380772D01*
X332108Y380552D01*
X332177Y380543D01*
Y382177D01*
D02*
G37*
G36*
Y384811D02*
X332108Y384802D01*
X331577Y384582D01*
X331122Y384233D01*
X330772Y383777D01*
X330552Y383246D01*
X330543Y383177D01*
X332177D01*
Y384811D01*
D02*
G37*
G36*
X334811Y382177D02*
X333177D01*
Y380543D01*
X333246Y380552D01*
X333777Y380772D01*
X334233Y381122D01*
X334582Y381577D01*
X334802Y382108D01*
X334811Y382177D01*
D02*
G37*
G36*
X287902Y377331D02*
Y375697D01*
X289536D01*
X289527Y375766D01*
X289307Y376297D01*
X288957Y376752D01*
X288502Y377102D01*
X287971Y377322D01*
X287902Y377331D01*
D02*
G37*
G36*
X286902D02*
X286832Y377322D01*
X286302Y377102D01*
X285846Y376752D01*
X285496Y376297D01*
X285277Y375766D01*
X285267Y375697D01*
X286902D01*
Y377331D01*
D02*
G37*
G36*
X323183Y543201D02*
X321760D01*
Y541777D01*
X322034Y541832D01*
X322690Y542270D01*
X323129Y542927D01*
X323183Y543201D01*
D02*
G37*
G36*
X317610D02*
X316187D01*
X316241Y542927D01*
X316680Y542270D01*
X317336Y541832D01*
X317610Y541777D01*
Y543201D01*
D02*
G37*
G36*
Y545624D02*
X317336Y545570D01*
X316680Y545131D01*
X316241Y544475D01*
X316187Y544201D01*
X317610D01*
Y545624D01*
D02*
G37*
G36*
X320760D02*
X320486Y545570D01*
X319957Y545217D01*
X319685Y545161D01*
X319413Y545217D01*
X318884Y545570D01*
X318610Y545624D01*
Y543701D01*
Y541777D01*
X318884Y541832D01*
X319413Y542185D01*
X319685Y542241D01*
X319957Y542185D01*
X320486Y541832D01*
X320760Y541777D01*
Y543701D01*
Y545624D01*
D02*
G37*
G36*
X321760D02*
Y544201D01*
X323183D01*
X323129Y544475D01*
X322690Y545131D01*
X322034Y545570D01*
X321760Y545624D01*
D02*
G37*
G36*
X318791Y519063D02*
X318722Y519054D01*
X318191Y518834D01*
X317736Y518485D01*
X317386Y518029D01*
X317166Y517498D01*
X317157Y517429D01*
X318791D01*
Y519063D01*
D02*
G37*
G36*
X307480Y531539D02*
X306861Y531416D01*
X306336Y531065D01*
X306142Y530774D01*
X305669D01*
X305475Y531065D01*
X304950Y531416D01*
X304331Y531539D01*
X303712Y531416D01*
X303187Y531065D01*
X302836Y530540D01*
X302713Y529921D01*
X302836Y529302D01*
X303187Y528777D01*
X303712Y528427D01*
X304331Y528304D01*
X304537Y528135D01*
Y517150D01*
X304143Y517124D01*
X304094Y517498D01*
X303874Y518029D01*
X303524Y518485D01*
X303068Y518834D01*
X302538Y519054D01*
X302468Y519063D01*
Y516929D01*
Y514795D01*
X302538Y514804D01*
X303068Y515024D01*
X303524Y515374D01*
X303874Y515829D01*
X304094Y516360D01*
X304143Y516734D01*
X304537Y516708D01*
Y486881D01*
X304603Y486549D01*
X304791Y486267D01*
X317135Y473923D01*
Y386432D01*
X316929Y386263D01*
X316310Y386140D01*
X315785Y385790D01*
X315435Y385265D01*
X315311Y384646D01*
X315435Y384027D01*
X315785Y383502D01*
X316310Y383151D01*
X316929Y383028D01*
X317548Y383151D01*
X318073Y383502D01*
X318267Y383792D01*
X318741D01*
X318935Y383502D01*
X319460Y383151D01*
X320079Y383028D01*
X320698Y383151D01*
X321223Y383502D01*
X321573Y384027D01*
X321696Y384646D01*
X321573Y385265D01*
X321223Y385790D01*
X320698Y386140D01*
X320079Y386263D01*
X319873Y386432D01*
Y474697D01*
X319807Y475029D01*
X319619Y475311D01*
X307275Y487655D01*
Y515533D01*
X307668Y515667D01*
X307893Y515374D01*
X308349Y515024D01*
X308879Y514804D01*
X308949Y514795D01*
Y516929D01*
Y519063D01*
X308879Y519054D01*
X308349Y518834D01*
X307893Y518485D01*
X307668Y518191D01*
X307275Y518325D01*
Y528135D01*
X307480Y528304D01*
X308099Y528427D01*
X308624Y528777D01*
X308975Y529302D01*
X309098Y529921D01*
X308975Y530540D01*
X308624Y531065D01*
X308099Y531416D01*
X307480Y531539D01*
D02*
G37*
G36*
X319791Y519063D02*
Y517429D01*
X321425D01*
X321416Y517498D01*
X321197Y518029D01*
X320847Y518485D01*
X320391Y518834D01*
X319861Y519054D01*
X319791Y519063D01*
D02*
G37*
G36*
X335205Y468791D02*
X333571D01*
Y467157D01*
X333640Y467166D01*
X334171Y467386D01*
X334627Y467736D01*
X334976Y468191D01*
X335196Y468722D01*
X335205Y468791D01*
D02*
G37*
G36*
X332571D02*
X330937D01*
X330946Y468722D01*
X331166Y468191D01*
X331515Y467736D01*
X331971Y467386D01*
X332502Y467166D01*
X332571Y467157D01*
Y468791D01*
D02*
G37*
G36*
X309736Y471425D02*
X309667Y471416D01*
X309136Y471197D01*
X308681Y470847D01*
X308331Y470391D01*
X308111Y469861D01*
X308102Y469791D01*
X309736D01*
Y471425D01*
D02*
G37*
G36*
Y468791D02*
X308102D01*
X308111Y468722D01*
X308331Y468191D01*
X308681Y467736D01*
X309136Y467386D01*
X309667Y467166D01*
X309736Y467157D01*
Y468791D01*
D02*
G37*
G36*
X312370D02*
X310736D01*
Y467157D01*
X310806Y467166D01*
X311336Y467386D01*
X311792Y467736D01*
X312141Y468191D01*
X312361Y468722D01*
X312370Y468791D01*
D02*
G37*
G36*
X325362D02*
X323728D01*
Y467157D01*
X323798Y467166D01*
X324328Y467386D01*
X324784Y467736D01*
X325133Y468191D01*
X325353Y468722D01*
X325362Y468791D01*
D02*
G37*
G36*
X322728D02*
X321094D01*
X321103Y468722D01*
X321323Y468191D01*
X321673Y467736D01*
X322128Y467386D01*
X322659Y467166D01*
X322728Y467157D01*
Y468791D01*
D02*
G37*
G36*
X321425Y516429D02*
X319791D01*
Y514795D01*
X319861Y514804D01*
X320391Y515024D01*
X320847Y515374D01*
X321197Y515829D01*
X321416Y516360D01*
X321425Y516429D01*
D02*
G37*
G36*
X318791D02*
X317157D01*
X317166Y516360D01*
X317386Y515829D01*
X317736Y515374D01*
X318191Y515024D01*
X318722Y514804D01*
X318791Y514795D01*
Y516429D01*
D02*
G37*
G36*
X322728Y471425D02*
X322659Y471416D01*
X322128Y471197D01*
X321673Y470847D01*
X321323Y470391D01*
X321103Y469861D01*
X321094Y469791D01*
X322728D01*
Y471425D01*
D02*
G37*
G36*
X310736D02*
Y469791D01*
X312370D01*
X312361Y469861D01*
X312141Y470391D01*
X311792Y470847D01*
X311336Y471197D01*
X310806Y471416D01*
X310736Y471425D01*
D02*
G37*
G36*
X323728D02*
Y469791D01*
X325362D01*
X325353Y469861D01*
X325133Y470391D01*
X324784Y470847D01*
X324328Y471197D01*
X323798Y471416D01*
X323728Y471425D01*
D02*
G37*
G36*
X333571D02*
Y469791D01*
X335205D01*
X335196Y469861D01*
X334976Y470391D01*
X334627Y470847D01*
X334171Y471197D01*
X333640Y471416D01*
X333571Y471425D01*
D02*
G37*
G36*
X332571D02*
X332502Y471416D01*
X331971Y471197D01*
X331515Y470847D01*
X331166Y470391D01*
X330946Y469861D01*
X330937Y469791D01*
X332571D01*
Y471425D01*
D02*
G37*
%LPD*%
D10*
X474803Y613307D02*
D03*
Y609528D02*
D03*
X296850Y367008D02*
D03*
Y370787D02*
D03*
X292126Y367008D02*
D03*
Y370787D02*
D03*
X282677Y367008D02*
D03*
Y370787D02*
D03*
X277953Y367008D02*
D03*
Y370787D02*
D03*
X373622Y367008D02*
D03*
Y370787D02*
D03*
X368898Y367008D02*
D03*
Y370787D02*
D03*
X359449Y367008D02*
D03*
Y370787D02*
D03*
X354724Y367008D02*
D03*
Y370787D02*
D03*
D11*
X267008Y476772D02*
D03*
X270787D02*
D03*
X267008Y481496D02*
D03*
X270787D02*
D03*
X267008Y490945D02*
D03*
X270787D02*
D03*
X267008Y495669D02*
D03*
X270787D02*
D03*
X267008Y400000D02*
D03*
X270787D02*
D03*
X267008Y404724D02*
D03*
X270787D02*
D03*
X267008Y414173D02*
D03*
X270787D02*
D03*
X267008Y418898D02*
D03*
X270787D02*
D03*
X468583Y395276D02*
D03*
X472362D02*
D03*
X468583Y390551D02*
D03*
X472362D02*
D03*
X468583Y376378D02*
D03*
X472362D02*
D03*
X468583Y381102D02*
D03*
X472362D02*
D03*
D12*
X225689Y642126D02*
D03*
X218406D02*
D03*
X225689Y612205D02*
D03*
X218406D02*
D03*
X225689Y626378D02*
D03*
X218406D02*
D03*
X508169Y590945D02*
D03*
X515453D02*
D03*
X508169Y628346D02*
D03*
X515453D02*
D03*
X508169Y603543D02*
D03*
X515453D02*
D03*
X508169Y640945D02*
D03*
X515453D02*
D03*
X508169Y578346D02*
D03*
X515453D02*
D03*
X508169Y616142D02*
D03*
X515453D02*
D03*
D13*
X242350Y501224D02*
D03*
Y496224D02*
D03*
Y491224D02*
D03*
Y486224D02*
D03*
Y481224D02*
D03*
Y476224D02*
D03*
Y471224D02*
D03*
Y424453D02*
D03*
Y419453D02*
D03*
Y414453D02*
D03*
Y409453D02*
D03*
Y404453D02*
D03*
Y399453D02*
D03*
Y394453D02*
D03*
D14*
X272398Y342350D02*
D03*
X277398D02*
D03*
X282398D02*
D03*
X287398D02*
D03*
X292398D02*
D03*
X297398D02*
D03*
X302398D02*
D03*
X349169D02*
D03*
X354169D02*
D03*
X359169D02*
D03*
X364169D02*
D03*
X369169D02*
D03*
X374169D02*
D03*
X379169D02*
D03*
D15*
X489173Y334488D02*
D03*
X491142D02*
D03*
X493110D02*
D03*
X495079D02*
D03*
X497047D02*
D03*
X499016D02*
D03*
X500984D02*
D03*
X502953D02*
D03*
X504921D02*
D03*
X506890D02*
D03*
X508858D02*
D03*
X510827D02*
D03*
D16*
X462244Y616535D02*
D03*
X468465D02*
D03*
D17*
X456299Y609941D02*
D03*
Y613681D02*
D03*
X451968Y601279D02*
D03*
Y605020D02*
D03*
D18*
X222146Y648425D02*
D03*
X225886D02*
D03*
X222146Y618898D02*
D03*
X225886D02*
D03*
X222146Y632677D02*
D03*
X225886D02*
D03*
X498130Y590945D02*
D03*
X501870D02*
D03*
X498130Y628346D02*
D03*
X501870D02*
D03*
X498130Y603543D02*
D03*
X501870D02*
D03*
X498130Y640945D02*
D03*
X501870D02*
D03*
X498130Y578346D02*
D03*
X501870D02*
D03*
X498130Y616142D02*
D03*
X501870D02*
D03*
D19*
X461614Y601181D02*
D03*
Y609842D02*
D03*
X469095Y601181D02*
D03*
Y609842D02*
D03*
D20*
X309882Y655138D02*
D03*
Y650138D02*
D03*
Y645138D02*
D03*
Y640138D02*
D03*
X340512Y655138D02*
D03*
Y650138D02*
D03*
Y645138D02*
D03*
Y640138D02*
D03*
D21*
X325197Y647638D02*
D03*
D22*
X351969Y614173D02*
D03*
Y611024D02*
D03*
Y607874D02*
D03*
Y604725D02*
D03*
Y601575D02*
D03*
Y598425D02*
D03*
Y595276D02*
D03*
Y592126D02*
D03*
Y588976D02*
D03*
Y585827D02*
D03*
Y582677D02*
D03*
Y579528D02*
D03*
Y576378D02*
D03*
Y573228D02*
D03*
Y570079D02*
D03*
Y566929D02*
D03*
Y563780D02*
D03*
Y560630D02*
D03*
X348819Y614173D02*
D03*
Y611024D02*
D03*
Y607874D02*
D03*
Y604725D02*
D03*
Y601575D02*
D03*
Y598425D02*
D03*
Y595276D02*
D03*
Y592126D02*
D03*
Y588976D02*
D03*
Y585827D02*
D03*
Y582677D02*
D03*
Y579528D02*
D03*
Y576378D02*
D03*
Y573228D02*
D03*
Y570079D02*
D03*
Y566929D02*
D03*
Y563780D02*
D03*
Y560630D02*
D03*
X345669Y614173D02*
D03*
Y611024D02*
D03*
Y607874D02*
D03*
Y604725D02*
D03*
Y601575D02*
D03*
Y598425D02*
D03*
Y595276D02*
D03*
Y592126D02*
D03*
Y588976D02*
D03*
Y585827D02*
D03*
Y582677D02*
D03*
Y579528D02*
D03*
Y576378D02*
D03*
Y573228D02*
D03*
Y570079D02*
D03*
Y566929D02*
D03*
Y563780D02*
D03*
Y560630D02*
D03*
X342520Y614173D02*
D03*
Y611024D02*
D03*
Y607874D02*
D03*
Y604725D02*
D03*
Y601575D02*
D03*
Y598425D02*
D03*
Y595276D02*
D03*
Y592126D02*
D03*
Y588976D02*
D03*
Y585827D02*
D03*
Y582677D02*
D03*
Y579528D02*
D03*
Y576378D02*
D03*
Y573228D02*
D03*
Y570079D02*
D03*
Y566929D02*
D03*
Y563780D02*
D03*
Y560630D02*
D03*
X339370Y614173D02*
D03*
Y611024D02*
D03*
Y607874D02*
D03*
Y604725D02*
D03*
Y601575D02*
D03*
Y598425D02*
D03*
Y595276D02*
D03*
Y592126D02*
D03*
Y588976D02*
D03*
Y585827D02*
D03*
Y582677D02*
D03*
Y579528D02*
D03*
Y576378D02*
D03*
Y573228D02*
D03*
Y570079D02*
D03*
Y566929D02*
D03*
Y563780D02*
D03*
Y560630D02*
D03*
X336221Y614173D02*
D03*
Y611024D02*
D03*
Y607874D02*
D03*
Y604725D02*
D03*
Y601575D02*
D03*
Y598425D02*
D03*
Y595276D02*
D03*
Y592126D02*
D03*
Y588976D02*
D03*
Y585827D02*
D03*
Y582677D02*
D03*
Y579528D02*
D03*
Y576378D02*
D03*
Y573228D02*
D03*
Y570079D02*
D03*
Y566929D02*
D03*
Y563780D02*
D03*
Y560630D02*
D03*
X333071Y614173D02*
D03*
Y611024D02*
D03*
Y607874D02*
D03*
Y604725D02*
D03*
Y601575D02*
D03*
Y598425D02*
D03*
Y595276D02*
D03*
Y592126D02*
D03*
Y588976D02*
D03*
Y585827D02*
D03*
Y582677D02*
D03*
Y579528D02*
D03*
Y576378D02*
D03*
Y573228D02*
D03*
Y570079D02*
D03*
Y566929D02*
D03*
Y563780D02*
D03*
Y560630D02*
D03*
X329921Y614173D02*
D03*
Y611024D02*
D03*
Y607874D02*
D03*
Y604725D02*
D03*
Y601575D02*
D03*
Y598425D02*
D03*
Y595276D02*
D03*
Y592126D02*
D03*
Y588976D02*
D03*
Y585827D02*
D03*
Y582677D02*
D03*
Y579528D02*
D03*
Y576378D02*
D03*
Y573228D02*
D03*
Y570079D02*
D03*
Y566929D02*
D03*
Y563780D02*
D03*
Y560630D02*
D03*
X326772Y614173D02*
D03*
Y611024D02*
D03*
Y607874D02*
D03*
Y604725D02*
D03*
Y601575D02*
D03*
Y598425D02*
D03*
Y595276D02*
D03*
Y592126D02*
D03*
Y588976D02*
D03*
Y585827D02*
D03*
Y582677D02*
D03*
Y579528D02*
D03*
Y576378D02*
D03*
Y573228D02*
D03*
Y570079D02*
D03*
Y566929D02*
D03*
Y563780D02*
D03*
Y560630D02*
D03*
X323622Y614173D02*
D03*
Y611024D02*
D03*
Y607874D02*
D03*
Y604725D02*
D03*
Y601575D02*
D03*
Y598425D02*
D03*
Y595276D02*
D03*
Y592126D02*
D03*
Y588976D02*
D03*
Y585827D02*
D03*
Y582677D02*
D03*
Y579528D02*
D03*
Y576378D02*
D03*
Y573228D02*
D03*
Y570079D02*
D03*
Y566929D02*
D03*
Y563780D02*
D03*
Y560630D02*
D03*
X320472Y614173D02*
D03*
Y611024D02*
D03*
Y607874D02*
D03*
Y604725D02*
D03*
Y601575D02*
D03*
Y598425D02*
D03*
Y595276D02*
D03*
Y592126D02*
D03*
Y588976D02*
D03*
Y585827D02*
D03*
Y582677D02*
D03*
Y579528D02*
D03*
Y576378D02*
D03*
Y573228D02*
D03*
Y570079D02*
D03*
Y566929D02*
D03*
Y563780D02*
D03*
Y560630D02*
D03*
X317323Y614173D02*
D03*
Y611024D02*
D03*
Y607874D02*
D03*
Y604725D02*
D03*
Y601575D02*
D03*
Y598425D02*
D03*
Y595276D02*
D03*
Y592126D02*
D03*
Y588976D02*
D03*
Y585827D02*
D03*
Y582677D02*
D03*
Y579528D02*
D03*
Y576378D02*
D03*
Y573228D02*
D03*
Y570079D02*
D03*
Y566929D02*
D03*
Y563780D02*
D03*
Y560630D02*
D03*
X314173Y614173D02*
D03*
Y611024D02*
D03*
Y607874D02*
D03*
Y604725D02*
D03*
Y601575D02*
D03*
Y598425D02*
D03*
Y595276D02*
D03*
Y592126D02*
D03*
Y588976D02*
D03*
Y585827D02*
D03*
Y582677D02*
D03*
Y579528D02*
D03*
Y576378D02*
D03*
Y573228D02*
D03*
Y570079D02*
D03*
Y566929D02*
D03*
Y563780D02*
D03*
Y560630D02*
D03*
X311024Y614173D02*
D03*
Y611024D02*
D03*
Y607874D02*
D03*
Y604725D02*
D03*
Y601575D02*
D03*
Y598425D02*
D03*
Y595276D02*
D03*
Y592126D02*
D03*
Y588976D02*
D03*
Y585827D02*
D03*
Y582677D02*
D03*
Y579528D02*
D03*
Y576378D02*
D03*
Y573228D02*
D03*
Y570079D02*
D03*
Y566929D02*
D03*
Y563780D02*
D03*
Y560630D02*
D03*
X307874Y614173D02*
D03*
Y611024D02*
D03*
Y607874D02*
D03*
Y604725D02*
D03*
Y601575D02*
D03*
Y598425D02*
D03*
Y595276D02*
D03*
Y592126D02*
D03*
Y588976D02*
D03*
Y585827D02*
D03*
Y582677D02*
D03*
Y579528D02*
D03*
Y576378D02*
D03*
Y573228D02*
D03*
Y570079D02*
D03*
Y566929D02*
D03*
Y563780D02*
D03*
Y560630D02*
D03*
X304724Y614173D02*
D03*
Y611024D02*
D03*
Y607874D02*
D03*
Y604725D02*
D03*
Y601575D02*
D03*
Y598425D02*
D03*
Y595276D02*
D03*
Y592126D02*
D03*
Y588976D02*
D03*
Y585827D02*
D03*
Y582677D02*
D03*
Y579528D02*
D03*
Y576378D02*
D03*
Y573228D02*
D03*
Y570079D02*
D03*
Y566929D02*
D03*
Y563780D02*
D03*
Y560630D02*
D03*
X301575Y614173D02*
D03*
Y611024D02*
D03*
Y607874D02*
D03*
Y604725D02*
D03*
Y601575D02*
D03*
Y598425D02*
D03*
Y595276D02*
D03*
Y592126D02*
D03*
Y588976D02*
D03*
Y585827D02*
D03*
Y582677D02*
D03*
Y579528D02*
D03*
Y576378D02*
D03*
Y573228D02*
D03*
Y570079D02*
D03*
Y566929D02*
D03*
Y563780D02*
D03*
Y560630D02*
D03*
X298425Y614173D02*
D03*
Y611024D02*
D03*
Y607874D02*
D03*
Y604725D02*
D03*
Y601575D02*
D03*
Y598425D02*
D03*
Y595276D02*
D03*
Y592126D02*
D03*
Y588976D02*
D03*
Y585827D02*
D03*
Y582677D02*
D03*
Y579528D02*
D03*
Y576378D02*
D03*
Y573228D02*
D03*
Y570079D02*
D03*
Y566929D02*
D03*
Y563780D02*
D03*
Y560630D02*
D03*
D23*
X256634Y482283D02*
D03*
Y484252D02*
D03*
Y488189D02*
D03*
Y490158D02*
D03*
Y405512D02*
D03*
Y407480D02*
D03*
Y411417D02*
D03*
Y413386D02*
D03*
D24*
Y486221D02*
D03*
X253602D02*
D03*
X256634Y409449D02*
D03*
X253602D02*
D03*
D25*
Y482283D02*
D03*
Y484252D02*
D03*
Y488189D02*
D03*
Y490158D02*
D03*
Y405512D02*
D03*
Y407480D02*
D03*
Y411417D02*
D03*
Y413386D02*
D03*
D26*
X291339Y356634D02*
D03*
X289370D02*
D03*
X285433D02*
D03*
X283465D02*
D03*
X368110D02*
D03*
X366142D02*
D03*
X362205D02*
D03*
X360236D02*
D03*
D27*
X287402D02*
D03*
Y353602D02*
D03*
X364173Y356634D02*
D03*
Y353602D02*
D03*
D28*
X291339D02*
D03*
X289370D02*
D03*
X285433D02*
D03*
X283465D02*
D03*
X368110D02*
D03*
X366142D02*
D03*
X362205D02*
D03*
X360236D02*
D03*
D29*
X287500Y450197D02*
D03*
D30*
X305118Y453150D02*
D03*
Y451182D02*
D03*
Y449213D02*
D03*
Y447245D02*
D03*
X269882D02*
D03*
Y449213D02*
D03*
Y451182D02*
D03*
Y453150D02*
D03*
D31*
X303248Y443406D02*
D03*
X301280D02*
D03*
X299311D02*
D03*
X297343D02*
D03*
X295374D02*
D03*
X293406D02*
D03*
X291437D02*
D03*
X289469D02*
D03*
X287500D02*
D03*
X285532D02*
D03*
X283563D02*
D03*
X281595D02*
D03*
X279626D02*
D03*
X277658D02*
D03*
X275689D02*
D03*
X273721D02*
D03*
X271752D02*
D03*
Y456989D02*
D03*
X273721D02*
D03*
X275689D02*
D03*
X277658D02*
D03*
X279626D02*
D03*
X281595D02*
D03*
X283563D02*
D03*
X285532D02*
D03*
X287500D02*
D03*
X289469D02*
D03*
X291437D02*
D03*
X293406D02*
D03*
X295374D02*
D03*
X297343D02*
D03*
X299311D02*
D03*
X301280D02*
D03*
X303248D02*
D03*
D32*
X488583Y394488D02*
D03*
Y392913D02*
D03*
Y391339D02*
D03*
Y389764D02*
D03*
Y388189D02*
D03*
Y386614D02*
D03*
Y385039D02*
D03*
Y383465D02*
D03*
Y381890D02*
D03*
Y380315D02*
D03*
Y378740D02*
D03*
Y377165D02*
D03*
X511417D02*
D03*
Y378740D02*
D03*
Y380315D02*
D03*
Y381890D02*
D03*
Y383465D02*
D03*
Y385039D02*
D03*
Y386614D02*
D03*
Y388189D02*
D03*
Y389764D02*
D03*
Y391339D02*
D03*
Y392913D02*
D03*
Y394488D02*
D03*
D33*
X491339Y374409D02*
D03*
X492913D02*
D03*
X494488D02*
D03*
X496063D02*
D03*
X497638D02*
D03*
X499213D02*
D03*
X500787D02*
D03*
X502362D02*
D03*
X503937D02*
D03*
X505512D02*
D03*
X507087D02*
D03*
X508661D02*
D03*
Y397244D02*
D03*
X507087D02*
D03*
X505512D02*
D03*
X503937D02*
D03*
X502362D02*
D03*
X500787D02*
D03*
X499213D02*
D03*
X497638D02*
D03*
X496063D02*
D03*
X494488D02*
D03*
X492913D02*
D03*
X491339D02*
D03*
D34*
X500000Y385827D02*
D03*
D35*
X291921Y438258D02*
Y440999D01*
Y438258D02*
Y438258D01*
X291093Y436971D02*
Y438258D01*
Y436970D02*
Y436971D01*
X299795Y437114D02*
Y437114D01*
Y409244D02*
Y437114D01*
X246537Y491224D02*
Y492207D01*
Y495407D02*
Y496224D01*
Y480234D02*
Y481224D01*
Y476224D02*
Y477033D01*
Y419453D02*
Y419453D01*
Y418636D02*
Y419453D01*
Y404453D02*
Y404453D01*
Y403463D02*
Y404453D01*
X277398Y346537D02*
X278215D01*
X277398D02*
X277398D01*
X292398D02*
X293388D01*
X292398D02*
X292398D01*
X362205Y353602D02*
Y356634D01*
Y352270D02*
Y353602D01*
X359169Y346537D02*
X359169D01*
X358187D02*
X359169D01*
X366142Y353602D02*
Y356634D01*
Y352270D02*
Y353602D01*
X374169Y346537D02*
X374169D01*
X373360D02*
X374169D01*
X499016Y338583D02*
Y338976D01*
Y334488D02*
Y338583D01*
X290453Y453150D02*
X305118D01*
X269882D02*
X284547D01*
X353937Y602362D02*
X354724D01*
X351496Y667026D02*
X354122D01*
X255491Y634039D02*
X293307Y596224D01*
X240142Y634039D02*
X255491D01*
X293307Y589370D02*
Y596224D01*
X325230Y613352D02*
X325984Y612598D01*
X325230Y613352D02*
Y614927D01*
X294882Y571260D02*
X296457D01*
X293413Y572728D02*
X294882Y571260D01*
X281229Y572728D02*
X293413D01*
X296817Y571620D02*
X298997D01*
X296457Y571260D02*
X296817Y571620D01*
X298997D02*
X299967Y572590D01*
X294882Y575197D02*
X296457D01*
X293413Y573728D02*
X294882Y575197D01*
X280815Y573728D02*
X293413D01*
X296817Y574837D02*
X300821D01*
X296457Y575197D02*
X296817Y574837D01*
X299967Y572607D02*
X300588Y573228D01*
X299967Y572590D02*
Y572607D01*
X316535Y623622D02*
X325230Y614927D01*
X323622Y614173D02*
Y614961D01*
X307874Y588189D02*
Y588976D01*
X342520Y592126D02*
X344094Y593701D01*
X329921Y570079D02*
X331496Y568504D01*
X348819Y604724D02*
X350394Y606299D01*
X301575Y560003D02*
Y560630D01*
X311024Y607874D02*
X312598Y609449D01*
X329921Y573228D02*
X331496Y571654D01*
X339370Y588976D02*
X340945Y587402D01*
X348819Y588976D02*
X349606D01*
X351969Y607874D02*
X358967D01*
X307874Y607874D02*
X309449Y609449D01*
X329921Y566929D02*
X331496Y565354D01*
X329921Y601575D02*
X331496Y603150D01*
X348819Y607874D02*
X350394Y609449D01*
X301575Y575591D02*
Y576378D01*
X329921Y604724D02*
X331496Y606299D01*
X333071Y573228D02*
X334646Y571654D01*
X351969Y611024D02*
X359288D01*
X326772Y573228D02*
X328346Y571654D01*
X342520Y595276D02*
X344094Y596850D01*
X348819Y611024D02*
X350394Y612598D01*
X320472Y551575D02*
Y560630D01*
X345669Y585827D02*
X347244Y587401D01*
X345669Y601575D02*
X347244Y603150D01*
X329921Y585827D02*
X331496Y584252D01*
X345669Y582677D02*
X347244Y584252D01*
X326772Y576378D02*
X328346Y574803D01*
X333071Y553688D02*
Y560630D01*
X342520Y582677D02*
X344094Y581102D01*
X342520Y598425D02*
X344094Y600000D01*
X345669Y588976D02*
X347244Y590551D01*
X322047Y610419D02*
Y614961D01*
Y610419D02*
X322984Y609482D01*
X323000D01*
X323622Y608860D01*
X303150Y596850D02*
X304724Y595276D01*
X294094Y596850D02*
X303150D01*
X300821Y574837D02*
X301575Y575591D01*
X387295Y480209D02*
X407980D01*
X386221Y479134D02*
X387295Y480209D01*
X407980D02*
X409055Y479134D01*
X272032Y564945D02*
X280815Y573728D01*
X272032Y546047D02*
Y564945D01*
X268791Y543807D02*
X269791D01*
X272032Y546047D01*
X267717Y544882D02*
X268791Y543807D01*
X258141Y503437D02*
X278453D01*
X279528Y502362D01*
X255118Y507874D02*
X256193Y506799D01*
Y505385D02*
X258141Y503437D01*
X256193Y505385D02*
Y506799D01*
X407980Y481209D02*
X409055Y482283D01*
X273032Y564531D02*
X281229Y572728D01*
X273032Y545633D02*
Y564531D01*
X268791Y542807D02*
X270205D01*
X273032Y545633D01*
X267717Y541732D02*
X268791Y542807D01*
X386221Y482283D02*
X387295Y481209D01*
X407980D01*
X257193Y506799D02*
X258268Y507874D01*
X257193Y505799D02*
Y506799D01*
Y505799D02*
X258555Y504437D01*
X278453D02*
X279528Y505512D01*
X258555Y504437D02*
X278453D01*
X300588Y573228D02*
X301575D01*
X340944Y603148D02*
X340990Y603194D01*
X312598Y600000D02*
X314173Y598425D01*
X326772Y607874D02*
X327559D01*
X328346Y608661D01*
X329921Y611024D02*
Y611811D01*
X300000Y612598D02*
X301575Y611024D01*
X323622Y607874D02*
Y608860D01*
X306299Y606299D02*
X307874Y604724D01*
X297850Y611598D02*
X298425Y611024D01*
X303150Y609449D02*
X304724Y607874D01*
X333071Y604724D02*
X333858D01*
X335433Y606299D01*
X314566Y624016D02*
X323622Y614961D01*
X316535Y623622D02*
Y625812D01*
X319685Y609449D02*
X321260D01*
X322047Y608661D01*
X312598Y602362D02*
X313385Y603148D01*
X312598Y600000D02*
Y602362D01*
X313598Y560055D02*
X314173Y560630D01*
X313598Y490732D02*
Y560055D01*
Y490732D02*
X328559Y475772D01*
X312598Y562205D02*
X314173Y563780D01*
X312598Y490318D02*
Y562205D01*
Y490318D02*
X327559Y475357D01*
X527740Y515173D02*
X582102D01*
X527165Y515748D02*
X527740Y515173D01*
X521654Y515748D02*
X527165D01*
X527559Y514173D02*
X582283D01*
X525197Y511811D02*
X527559Y514173D01*
X521654Y511811D02*
X525197D01*
X527347Y504937D02*
X581910D01*
X524409Y507874D02*
X527347Y504937D01*
X521654Y507874D02*
X524409D01*
X521654Y500000D02*
X523068D01*
X521654Y496063D02*
X525591D01*
X521654Y492126D02*
X525984D01*
X536526Y523228D02*
X563779Y550482D01*
X521654Y523228D02*
X536526D01*
X563779Y550482D02*
Y666929D01*
X538262Y526378D02*
X562780Y550896D01*
X521654Y526378D02*
X538262D01*
X562780Y550896D02*
Y666515D01*
X543540Y533071D02*
X561779Y551310D01*
X521654Y533071D02*
X543540D01*
X561779Y551310D02*
Y666101D01*
X560779Y551724D02*
Y665687D01*
X545276Y536221D02*
X560779Y551724D01*
X521654Y536221D02*
X545276D01*
X541095Y578336D02*
Y669608D01*
X542095Y577921D02*
Y670022D01*
X540095Y578750D02*
Y669194D01*
X331339Y667165D02*
X331496D01*
X341496Y666772D02*
Y667165D01*
X251496Y677165D02*
X255118D01*
X281496Y667165D02*
X282126D01*
X361496D02*
X364724D01*
X539095Y579164D02*
Y668779D01*
X507646Y683315D02*
X547394D01*
X501496Y677165D02*
X507646Y683315D01*
X547394D02*
X563779Y666929D01*
X516646Y682315D02*
X546980D01*
X511496Y677165D02*
X516646Y682315D01*
X546980D02*
X562780Y666515D01*
X525646Y681315D02*
X546565D01*
X521496Y677165D02*
X525646Y681315D01*
X546565D02*
X561779Y666101D01*
X546151Y680315D02*
X560779Y665687D01*
X534646Y680315D02*
X546151D01*
X547244Y586221D02*
Y608268D01*
X431653Y577402D02*
X440551Y568504D01*
X431653Y469606D02*
X487480D01*
X431653Y589606D02*
X437953D01*
X437795Y523228D02*
X468504D01*
X437795Y526378D02*
X468504D01*
X437795Y533071D02*
X468504D01*
X437795Y536221D02*
X468504D01*
X248819Y532283D02*
X250000Y531102D01*
X251969D01*
X254724Y528346D01*
X270472D01*
X508760Y544587D02*
X542095Y577921D01*
X507760Y545001D02*
X541095Y578336D01*
X506760Y545415D02*
X540095Y578750D01*
X505760Y545829D02*
X539095Y579164D01*
X505760Y430169D02*
Y545829D01*
X506760Y429528D02*
Y545415D01*
X507760Y429114D02*
Y545001D01*
X508760Y428699D02*
Y544587D01*
X404839Y641732D02*
Y642634D01*
X415650Y643996D02*
Y683331D01*
X413386Y641732D02*
X415650Y643996D01*
X412205Y641732D02*
X413386D01*
X410827Y639567D02*
X413189D01*
X408661Y637402D02*
X410827Y639567D01*
X280401Y683242D02*
X404393D01*
X277378Y680219D02*
X280401Y683242D01*
X277378Y672228D02*
Y680219D01*
X279987Y684242D02*
X404807D01*
X276378Y680633D02*
X279987Y684242D01*
X276378Y672047D02*
Y680633D01*
X289764Y682242D02*
X403978D01*
X495276Y579134D02*
Y590318D01*
X493882Y591712D02*
X495276Y590318D01*
X493882Y591712D02*
Y602896D01*
X491094Y605683D02*
X493882Y602896D01*
X494882Y592126D02*
Y603310D01*
X492095Y606098D02*
X494882Y603310D01*
X492095Y606098D02*
Y623814D01*
X359449Y603542D02*
Y605527D01*
X355907Y600000D02*
X359449Y603542D01*
X344094Y600000D02*
X355907D01*
X353937Y606693D02*
X359200D01*
X224508Y621260D02*
X227362D01*
X222146Y618898D02*
X224508Y621260D01*
X236614Y558268D02*
X243996Y565650D01*
X218504Y558268D02*
X236614D01*
X256206Y567142D02*
X263386Y574321D01*
Y577559D01*
X253917Y567142D02*
X256206D01*
X256620Y566142D02*
X257247Y566769D01*
X254331Y566142D02*
X256620D01*
X257247Y566769D02*
X265748Y575269D01*
Y598425D01*
X278113Y586221D02*
X291732D01*
X259449Y567556D02*
X278113Y586221D01*
X259449Y543147D02*
Y567556D01*
X276378Y583071D02*
X283465D01*
X260449Y567142D02*
X276378Y583071D01*
X260449Y542732D02*
Y567142D01*
X249606Y558822D02*
Y561417D01*
X234252Y543468D02*
X249606Y558822D01*
X234252Y531102D02*
Y543468D01*
X248606Y559236D02*
Y561832D01*
X223622Y534252D02*
X248606Y559236D01*
X223622Y532677D02*
Y534252D01*
X248606Y561832D02*
X253917Y567142D01*
X249606Y561417D02*
X254331Y566142D01*
X262205Y601968D02*
X265748Y598425D01*
X251181Y533465D02*
X260449Y542732D01*
X252129Y535827D02*
X259449Y543147D01*
X250000Y535827D02*
X252129D01*
X248819Y534646D02*
X250000Y535827D01*
X248819Y532283D02*
Y534646D01*
X290110Y619717D02*
X295440D01*
X285315Y624512D02*
X290110Y619717D01*
X285315Y624512D02*
Y648347D01*
X289696Y618716D02*
X298130D01*
X284315Y624098D02*
X289696Y618716D01*
X284315Y624098D02*
Y648761D01*
X289282Y617717D02*
X301181D01*
X283315Y623684D02*
X289282Y617717D01*
X283315Y623684D02*
Y649175D01*
X282315Y623269D02*
X292986Y612598D01*
X282315Y623269D02*
Y649589D01*
X292986Y612598D02*
X300000D01*
X292572Y611598D02*
X297850D01*
X281315Y622855D02*
X292572Y611598D01*
X281315Y622855D02*
Y650003D01*
X280315Y622441D02*
X296457Y606299D01*
X280315Y622441D02*
Y650418D01*
X402839Y593390D02*
Y605823D01*
X397638Y611024D02*
X402839Y605823D01*
X398933Y589484D02*
X402839Y593390D01*
X401181Y611024D02*
X403839Y608366D01*
Y592976D02*
Y608366D01*
X399347Y588484D02*
X403839Y592976D01*
X405839Y592147D02*
Y608201D01*
X399912Y586221D02*
X405839Y592147D01*
X358858Y586221D02*
X399912D01*
X404839Y592561D02*
Y611024D01*
X399679Y587402D02*
X404839Y592561D01*
X357087Y587402D02*
X399679D01*
X373327Y588484D02*
X399347D01*
X376658Y589484D02*
X398933D01*
X451968Y605020D02*
Y610630D01*
X447638Y614961D02*
X451968Y610630D01*
X373622Y614961D02*
X447638D01*
X420504Y605543D02*
X445819D01*
X416142Y601181D02*
X420504Y605543D01*
X416142Y574803D02*
Y601181D01*
X427559Y601735D02*
X429367Y603543D01*
X427559Y585512D02*
Y601735D01*
X426559Y602150D02*
X428953Y604543D01*
X426559Y594512D02*
Y602150D01*
X574130Y454216D02*
X578740Y449606D01*
X564228Y445094D02*
X568740Y449606D01*
X564252Y444095D02*
X568740Y439606D01*
X555724Y445094D02*
X564228D01*
X528051Y417421D02*
X555724Y445094D01*
X556299Y444095D02*
X564252D01*
X525591Y413386D02*
X556299Y444095D01*
X525689Y417421D02*
X528051D01*
X500500Y328650D02*
X501575Y329724D01*
X498425D02*
X499500Y328650D01*
X438583Y339764D02*
Y352677D01*
X434252Y335433D02*
X438583Y339764D01*
X441339Y337402D02*
Y359921D01*
X562431Y413011D02*
Y430482D01*
X564431Y412182D02*
Y421518D01*
X568740Y467383D02*
Y469606D01*
X530491Y429134D02*
X568740Y467383D01*
X525591Y429134D02*
X530491D01*
X497638Y417577D02*
X508760Y428699D01*
X496063Y417417D02*
X507760Y429114D01*
X494488Y417256D02*
X506760Y429528D01*
X492913Y417323D02*
X505760Y430169D01*
X292921Y422216D02*
Y440999D01*
X286741Y416035D02*
X292921Y422216D01*
X272650Y416035D02*
X286741D01*
X291921Y422630D02*
Y436970D01*
X286327Y417035D02*
X291921Y422630D01*
X272650Y417035D02*
X286327D01*
X320472Y551575D02*
X325590Y546457D01*
X338008Y382071D02*
Y390951D01*
X338681D01*
Y392238D01*
X338008D02*
X338681D01*
X338008D02*
Y393526D01*
X338681D01*
Y394813D01*
X338008D02*
X338681D01*
X338008D02*
Y396100D01*
X338681D01*
Y397388D01*
X338008D02*
X338681D01*
X338008D02*
Y398031D01*
Y382071D02*
X341626Y378453D01*
X354457D01*
X357587Y375324D01*
Y372650D02*
Y375324D01*
Y372650D02*
X359449Y370787D01*
X356587Y372650D02*
Y374909D01*
X354043Y377453D02*
X356587Y374909D01*
X341212Y377453D02*
X354043D01*
X337008Y381657D02*
X341212Y377453D01*
X327559Y382123D02*
Y475357D01*
X323889Y378453D02*
X327559Y382123D01*
X308949Y378453D02*
X323889D01*
X328559Y381709D02*
Y475772D01*
X324303Y377453D02*
X328559Y381709D01*
X308949Y377453D02*
X324303D01*
X319472Y551161D02*
X324590Y546042D01*
X319472Y551161D02*
Y558874D01*
X306299Y554170D02*
Y562205D01*
X303331Y551202D02*
X306299Y554170D01*
X307299Y553756D02*
Y560055D01*
X304331Y550787D02*
X307299Y553756D01*
X277740Y535220D02*
Y551792D01*
X294952Y569004D02*
X296313D01*
X277740Y551792D02*
X294952Y569004D01*
X295366Y568004D02*
X296313D01*
X278740Y551378D02*
X295366Y568004D01*
X278740Y548819D02*
Y551378D01*
X284039Y503235D02*
Y541520D01*
X285039Y494095D02*
Y541106D01*
X299526Y555592D02*
X299526D01*
X285039Y541106D02*
X299526Y555592D01*
X301000Y559428D02*
X301575Y560003D01*
X301000Y557066D02*
Y559428D01*
X299526Y555592D02*
X301000Y557066D01*
X300000Y557480D02*
Y562205D01*
X284039Y541520D02*
X300000Y557480D01*
X276899Y532965D02*
X278740Y534806D01*
Y538189D01*
X275484Y532965D02*
X276899D01*
X276484Y533965D02*
X277740Y535220D01*
X275484Y533965D02*
X276484D01*
X412205Y637402D02*
X412992D01*
X417650Y642059D01*
X328346Y571654D02*
X328346D01*
X322047Y568504D02*
X322047D01*
Y568504D01*
X328346Y574803D02*
X328346D01*
X445819Y605543D02*
X450083Y601279D01*
X457874Y597244D02*
X465158D01*
X453839Y601279D02*
X457874Y597244D01*
X451968Y601279D02*
X453839D01*
X416142Y535118D02*
Y560236D01*
X411811Y564567D02*
X416142Y560236D01*
X411811Y564567D02*
Y570472D01*
X416142Y574803D01*
X450083Y601279D02*
X451968D01*
X417717Y563779D02*
X460236D01*
X414173Y567323D02*
X417717Y563779D01*
X337795Y593701D02*
X337795D01*
X313385Y603148D02*
X315747D01*
X306299Y606299D02*
Y609449D01*
X309449Y596850D02*
X311024Y595276D01*
X312598Y596850D02*
X314173Y595276D01*
X312598Y587400D02*
Y587401D01*
X312597Y587400D02*
X312598D01*
X311024Y585827D02*
Y585827D01*
X315747Y603148D02*
X315748Y603148D01*
X340945Y587402D02*
X344094D01*
X344094Y590551D02*
X344094D01*
X516929Y383465D02*
X519291Y385827D01*
X511417Y383465D02*
X516929D01*
X288976Y464173D02*
X289370D01*
X289953Y463590D01*
X291006Y465415D02*
X291732Y466142D01*
X291006Y459343D02*
Y465415D01*
X291732Y466142D02*
Y466142D01*
X298880Y459343D02*
Y463840D01*
Y459343D02*
X299311Y458912D01*
X298880Y463840D02*
X299213Y464173D01*
X296850Y462205D02*
X297244D01*
X297818Y461630D01*
X299213Y464173D02*
X299606D01*
X296457Y529921D02*
X297532Y528847D01*
Y484519D02*
Y528847D01*
Y484519D02*
X301764Y480287D01*
Y477559D02*
Y480287D01*
Y459396D02*
Y468110D01*
Y476478D02*
Y477559D01*
Y475191D02*
Y476478D01*
X301036Y475191D02*
X301764D01*
X301036Y473904D02*
Y475191D01*
Y473904D02*
X301764D01*
Y472616D02*
Y473904D01*
X301036Y472616D02*
X301764D01*
X301036Y471329D02*
Y472616D01*
Y471329D02*
X301764D01*
Y470041D02*
Y471329D01*
X301036Y470041D02*
X301764D01*
X301036Y468754D02*
Y470041D01*
Y468754D02*
X301764D01*
Y468110D02*
Y468754D01*
X301280Y458912D02*
X301764Y459396D01*
X301280Y456989D02*
Y458912D01*
X513234Y379028D02*
X518217D01*
X524016Y373228D01*
Y337795D02*
Y373228D01*
Y324016D02*
Y329427D01*
X523228D02*
X524016D01*
X523228D02*
Y330715D01*
X524016D01*
Y332002D01*
X523228D02*
X524016D01*
X523228D02*
Y333289D01*
X524016D01*
Y334577D01*
X523228D02*
X524016D01*
X523228D02*
Y335864D01*
X524016D01*
Y337152D01*
Y337795D01*
X520079Y320079D02*
X523819Y323819D01*
X524016Y324016D01*
X504724Y320079D02*
X520079D01*
X500500Y324303D02*
X504724Y320079D01*
X500500Y324303D02*
Y328650D01*
X499500Y323889D02*
X504017Y319372D01*
X511417Y380315D02*
X512947D01*
X513234Y380028D01*
X499500Y323889D02*
Y328650D01*
X512947Y378740D02*
X513234Y379028D01*
X511417Y378740D02*
X512947D01*
X501575Y329724D02*
X501596D01*
X513234Y380028D02*
X518631D01*
X524723Y373935D01*
Y373935D02*
Y373935D01*
Y373935D02*
X525016Y373642D01*
Y323602D02*
Y373642D01*
X524723Y323309D02*
X525016Y323602D01*
X524723Y323309D02*
Y323309D01*
X511417Y388189D02*
X516784D01*
X511417Y389764D02*
X516945D01*
X511417Y391339D02*
X517105D01*
X520786Y319372D02*
X524723Y323309D01*
X520786Y319372D02*
X520786D01*
X520493Y319079D02*
X520786Y319372D01*
X504310Y319079D02*
X520493D01*
X504017Y319372D02*
X504310Y319079D01*
X504017Y319372D02*
X504017D01*
X500984Y337598D02*
X501968Y338583D01*
X500984Y334488D02*
Y337598D01*
X497047Y340354D02*
X498032Y341339D01*
X497047Y334488D02*
Y340354D01*
X307874Y379528D02*
X308949Y378453D01*
X294988Y381996D02*
X296063Y383071D01*
X294988Y372650D02*
X296850Y370787D01*
X294988Y372814D02*
X294988Y372814D01*
X294988Y372814D02*
Y381996D01*
X294988Y372650D02*
Y372814D01*
X292913Y383071D02*
X293988Y381996D01*
Y374803D02*
X293988Y374803D01*
X292126Y370787D02*
X293988Y372650D01*
Y374803D01*
X293988Y374803D02*
Y381996D01*
X405839Y608201D02*
X408661Y611024D01*
X372441Y589370D02*
X373327Y588484D01*
X493094Y606512D02*
Y624228D01*
X494095Y617717D02*
Y628113D01*
X488661Y633547D02*
X494095Y628113D01*
X493094Y606512D02*
X496063Y603543D01*
X489075Y634547D02*
X495276Y628346D01*
X382812Y634547D02*
X489075D01*
X383226Y633547D02*
X488661D01*
X359128Y609449D02*
X383226Y633547D01*
X350394Y609449D02*
X359128D01*
X495276Y628346D02*
X498130D01*
X359288Y611024D02*
X382812Y634547D01*
X359449Y612598D02*
X382398Y635547D01*
X350394Y612598D02*
X359449D01*
X382398Y635547D02*
X489090D01*
X318898Y622835D02*
Y629921D01*
Y622835D02*
X322835Y618898D01*
X309842Y625197D02*
Y629921D01*
X296457Y679921D02*
X297778Y681242D01*
X395923D01*
X286614Y672047D02*
Y679092D01*
X289764Y682242D01*
X298011Y672653D02*
X306984D01*
X295571Y670213D02*
X298011Y672653D01*
X295571Y665650D02*
Y670213D01*
X298425Y671654D02*
X306693D01*
X296571Y669799D02*
X298425Y671654D01*
X279573Y685242D02*
X413738D01*
X264195Y686242D02*
X414153D01*
X260470Y687242D02*
X414567D01*
X395923Y681242D02*
X397244Y679921D01*
Y641732D02*
Y679921D01*
X413738Y685242D02*
X415650Y683331D01*
X414153Y686242D02*
X416650Y683745D01*
Y643027D02*
Y683745D01*
X257874Y684646D02*
X260470Y687242D01*
X414567D02*
X417650Y684159D01*
Y642059D02*
Y684159D01*
X413189Y639567D02*
X416650Y643027D01*
X562431Y430482D02*
X566201Y434252D01*
X568740Y415077D02*
Y419606D01*
Y406535D02*
Y409606D01*
X499213Y397244D02*
Y404403D01*
X500787Y397244D02*
Y404564D01*
X502362Y397244D02*
Y404724D01*
X511417Y386614D02*
X516624D01*
X473622Y372047D02*
X482677Y381102D01*
X484646D01*
X485433Y381890D01*
X488583D01*
Y376378D02*
Y377165D01*
X485433Y373228D02*
X488583Y376378D01*
X478740Y373228D02*
X485433D01*
X436827Y599627D02*
X441178Y595276D01*
X435827Y599213D02*
X442520Y592520D01*
X441178Y595276D02*
X457480D01*
X297133Y660165D02*
X314568D01*
X285315Y648347D02*
X297133Y660165D01*
X280315Y650418D02*
X295382Y665484D01*
X295440Y619717D02*
X298164Y622441D01*
X296719Y661165D02*
X314154D01*
X284315Y648761D02*
X296719Y661165D01*
X281315Y650003D02*
X295796Y664484D01*
X283315Y649175D02*
X296305Y662165D01*
X282315Y649589D02*
X295890Y663165D01*
X296305Y662165D02*
X313739D01*
X295890Y663165D02*
X313165D01*
X295406Y665484D02*
X295571Y665650D01*
X295382Y665484D02*
X295406D01*
X295796Y664484D02*
X295820D01*
X296571Y665235D01*
Y669799D01*
X298130Y618716D02*
X299886Y620472D01*
X255906Y635039D02*
X294094Y596850D01*
X224508Y635039D02*
X255906D01*
X309449Y562205D02*
Y562205D01*
Y565354D02*
Y565354D01*
X303150Y565354D02*
X304724Y566929D01*
X307874Y566929D02*
X307874D01*
X306299Y568504D02*
Y568504D01*
X303150Y609449D02*
Y615748D01*
X306299Y603150D02*
X307874Y601575D01*
X309449Y600000D02*
X311024Y598425D01*
X306299Y600000D02*
X307874Y598425D01*
X303150Y600000D02*
X304724Y598425D01*
X309449Y609449D02*
Y618110D01*
X307874Y576378D02*
Y576378D01*
X306299Y574803D02*
X307874Y576378D01*
Y573228D02*
Y573228D01*
X306299Y571654D02*
X307874Y573228D01*
X300000Y562205D02*
X301575Y563780D01*
X298164Y622441D02*
X301575D01*
X303543Y620472D01*
X309842Y625197D02*
X318898Y616142D01*
Y610236D02*
Y616142D01*
X353150Y603150D02*
X353937Y602362D01*
X353543Y590945D02*
X355906D01*
X353150Y590551D02*
X353543Y590945D01*
X351181Y590551D02*
X353150D01*
X356299Y586614D02*
X357087Y587402D01*
X353543Y586614D02*
X356299D01*
X352756Y587401D02*
X353543Y586614D01*
X355906Y590945D02*
X357087Y589764D01*
X368898D01*
X370866Y591732D01*
X347244Y587401D02*
X352756D01*
X327673Y559055D02*
X328346Y559728D01*
X326388Y560152D02*
X326772Y560536D01*
Y560630D01*
X307299Y560055D02*
X307874Y560630D01*
X322047Y562205D02*
X322047D01*
X322047D02*
Y562205D01*
X474409Y408268D02*
Y413386D01*
X429134Y330709D02*
Y333465D01*
X427165Y335433D02*
X429134Y333465D01*
X427165Y335433D02*
Y375118D01*
X425984Y335433D02*
Y375276D01*
X423902Y333350D02*
X425984Y335433D01*
X423902Y330709D02*
Y333350D01*
X287402Y439764D02*
Y443308D01*
X287500Y443406D01*
X308661Y451181D02*
X309054D01*
X309055Y451182D01*
X295374Y439764D02*
Y443406D01*
X295276Y443308D02*
X295374Y443406D01*
X279626Y439764D02*
Y443406D01*
X269882Y451181D02*
X269882Y451182D01*
X266142Y451181D02*
X269882D01*
X287500Y456989D02*
Y460630D01*
X285532Y443406D02*
Y448229D01*
X297388Y570079D02*
X298425D01*
X314173Y607873D02*
Y607874D01*
X302764Y459396D02*
Y480701D01*
X298532Y484933D02*
X302764Y480701D01*
X298532Y484933D02*
Y528847D01*
X293882Y459388D02*
Y480921D01*
X290158Y484646D02*
X293882Y480921D01*
X302764Y459396D02*
X303248Y458912D01*
Y456989D02*
Y458912D01*
X304724Y570079D02*
Y570079D01*
X303150Y568504D02*
X304724Y570079D01*
X298532Y528847D02*
X299606Y529921D01*
X304724Y566929D02*
Y566929D01*
X316929Y384646D02*
X318004Y385720D01*
X309449Y568504D02*
X311024Y570079D01*
X309449Y568504D02*
Y568504D01*
X304331Y529921D02*
X305405Y528847D01*
X371760Y381602D02*
X372835Y382677D01*
X371760Y372650D02*
X373622Y370787D01*
X371760Y374889D02*
Y381602D01*
X371760Y372650D02*
Y374889D01*
X319004Y385720D02*
X320079Y384646D01*
X309449Y565354D02*
X311024Y566929D01*
X306405Y528847D02*
X307480Y529921D01*
X369685Y382677D02*
X370760Y381602D01*
Y372814D02*
Y381602D01*
X370760Y372814D02*
X370760Y372814D01*
X370760Y372650D02*
Y372814D01*
X368898Y370787D02*
X370760Y372650D01*
X296313Y569004D02*
X297388Y570079D01*
X279815Y377559D02*
X279815Y377559D01*
Y372650D02*
Y377559D01*
X277953Y370787D02*
X279815Y372650D01*
X279815Y377559D02*
Y378059D01*
X278740Y379134D02*
X279815Y378059D01*
X274410Y535039D02*
X275484Y533965D01*
X280815Y378059D02*
X281890Y379134D01*
X280815Y372650D02*
X282677Y370787D01*
X280815Y373622D02*
Y378059D01*
X280815Y372650D02*
Y373622D01*
X280815Y373622D02*
X280815Y373622D01*
X274410Y531890D02*
X275484Y532965D01*
X270787Y495669D02*
X272650Y493807D01*
X278453Y492807D02*
X279528Y491732D01*
X278453Y493807D02*
X279528Y494882D01*
X318898Y562205D02*
X320472Y563780D01*
X318898Y559449D02*
Y562205D01*
Y559449D02*
X319472Y558874D01*
X354724Y370787D02*
X356587Y372650D01*
X293406Y458912D02*
X293882Y459388D01*
X276772Y479634D02*
X276878D01*
X276772Y479634D02*
X276772Y479634D01*
X270787Y481496D02*
X272650Y479634D01*
X276772D01*
X274016Y478634D02*
X274016Y478634D01*
X272650Y478634D02*
X274016D01*
X270787Y476772D02*
X272650Y478634D01*
X284039Y479740D02*
X285146Y478634D01*
X284039Y479740D02*
Y503235D01*
X285146Y478634D02*
X286720D01*
X306299Y562205D02*
X307874Y563780D01*
X293406Y456989D02*
Y458912D01*
X315748Y568504D02*
X317323Y570079D01*
X315748Y568504D02*
Y568504D01*
X277559Y493807D02*
X278453D01*
X277559Y493807D02*
X277559Y493807D01*
X272650Y493807D02*
X277559D01*
X317323Y566929D02*
Y566929D01*
X315748Y565354D02*
X317323Y566929D01*
X273622Y492807D02*
X278453D01*
X272650Y492807D02*
X273622D01*
X270787Y490945D02*
X272650Y492807D01*
X309882Y655138D02*
Y655945D01*
X327471Y615828D02*
X328346Y614953D01*
Y613386D02*
Y614953D01*
X349606Y588976D02*
X351181Y590551D01*
X325904Y615828D02*
X327471D01*
X322835Y618898D02*
X325904Y615828D01*
X353543Y606299D02*
X353937Y606693D01*
X350394Y606299D02*
X353543D01*
X347244Y603150D02*
X353150D01*
X337008Y606299D02*
X337795Y607087D01*
X335433Y606299D02*
X337008D01*
X333858D02*
X334646Y607087D01*
X325984Y612598D02*
X327559D01*
X328346Y611811D01*
X318898Y610236D02*
X319685Y609449D01*
X322047Y606299D02*
Y608661D01*
X312598Y609449D02*
Y618110D01*
X305512Y587402D02*
X306299Y588189D01*
X295276Y587402D02*
X305512D01*
Y584252D02*
X306299Y585039D01*
X293701Y584252D02*
X305512D01*
X306299Y586614D02*
X307874Y588189D01*
X306299Y585039D02*
Y586614D01*
X350394Y592913D02*
X351181Y593701D01*
X350394Y591339D02*
Y592913D01*
X326772Y579528D02*
X326772D01*
X337795Y584252D02*
Y584252D01*
X336220Y582677D02*
X336221D01*
X314173Y585827D02*
Y585827D01*
X329921Y595275D02*
Y595276D01*
X326772Y592126D02*
X326772D01*
X320472Y582677D02*
X320473D01*
X320472Y585827D02*
Y585827D01*
X317323Y582677D02*
X317323D01*
X320472Y592126D02*
X320472D01*
X322047Y593701D02*
Y593701D01*
X325197Y584252D02*
Y584252D01*
X326772Y582677D02*
Y582677D01*
X325197Y584252D02*
X325197D01*
X315748Y559055D02*
Y559055D01*
X309449Y559055D02*
Y559055D01*
X354724Y588976D02*
X354724Y588976D01*
X300000Y581102D02*
X301575Y582677D01*
X298425Y579528D02*
X298425D01*
X298425Y582677D02*
Y582677D01*
X323622Y566929D02*
X323622D01*
X318898Y574803D02*
Y574803D01*
X309449Y577953D02*
Y577953D01*
X311024Y576378D02*
X311024D01*
X307874Y579528D02*
Y579528D01*
X303150Y577953D02*
Y577953D01*
Y577953D02*
Y577953D01*
X301575Y582677D02*
Y582677D01*
X301575Y579528D02*
X301575D01*
Y614173D02*
Y614173D01*
X298425Y614173D02*
Y614173D01*
X351969Y560630D02*
Y560630D01*
X306299Y590551D02*
X307874Y592126D01*
X336220Y604724D02*
X336221D01*
X337795Y607087D02*
Y617717D01*
X323622Y611024D02*
X323622D01*
X281415Y346537D02*
X282398D01*
X369169D02*
X370159D01*
X354169D02*
X354986D01*
X296589D02*
X297398D01*
X291093Y436970D02*
X291921D01*
X291093Y438258D02*
X291921D01*
X298967Y437114D02*
X299795D01*
X298967Y438402D02*
X299795D01*
Y440999D01*
X242350Y491224D02*
X246537D01*
Y492207D02*
X247638Y493307D01*
X249394Y490440D02*
X251161Y488673D01*
X251785D02*
X252270Y488189D01*
X242350Y496224D02*
X246537D01*
X250394Y490854D02*
Y492540D01*
X251785Y489673D02*
X252270Y490157D01*
X249394Y480315D02*
Y482001D01*
X251785Y483768D02*
X252270Y484252D01*
X253602D01*
X242350Y476224D02*
X246537D01*
Y477033D02*
X247638Y478134D01*
X248627D01*
X250394Y479901D01*
Y481587D01*
X251575Y482768D02*
X251785D01*
X252270Y482283D02*
X253602D01*
X242350Y414453D02*
X246537D01*
Y415435D02*
X247638Y416535D01*
X249394Y413668D02*
X251161Y411902D01*
X251785D02*
X252270Y411417D01*
X242350Y419453D02*
X246537D01*
X250394Y414083D02*
Y415769D01*
X251785Y412902D02*
X252270Y413386D01*
X249394Y403543D02*
Y405229D01*
X251785Y406996D02*
X252270Y407480D01*
X253602D01*
X242350Y399453D02*
X246537D01*
Y400262D02*
X247638Y401362D01*
X248627D01*
X250394Y403129D01*
Y404815D01*
X251575Y405996D02*
X251785D01*
X252270Y405512D02*
X253602D01*
X282398Y342350D02*
Y346537D01*
X284949Y351161D02*
Y351785D01*
X285433Y352270D02*
Y353602D01*
X279315Y348627D02*
X281082Y350394D01*
X282768D02*
X283949Y351575D01*
X283465Y352270D02*
X283949Y351785D01*
X283465Y352270D02*
Y353602D01*
X289370Y352270D02*
X289854Y351785D01*
X293307Y349394D02*
X294488Y348213D01*
X293388Y346537D02*
X294488Y347638D01*
X292398Y342350D02*
Y346537D01*
X290854Y351575D02*
Y351785D01*
Y351575D02*
X292035Y350394D01*
X293721D01*
X295488Y347638D02*
Y348627D01*
X359169Y342350D02*
Y346537D01*
X361720Y351161D02*
Y351785D01*
X356087Y348627D02*
X357854Y350394D01*
X359539D02*
X360720Y351575D01*
X360236Y352270D02*
X360720Y351785D01*
X360236Y352270D02*
Y353602D01*
X366142Y352270D02*
X366626Y351785D01*
X370079Y349394D02*
X371260Y348213D01*
X370159Y346537D02*
X371260Y347638D01*
X369169Y342350D02*
Y346537D01*
X367626Y351575D02*
Y351785D01*
Y351575D02*
X368807Y350394D01*
X370493D01*
X372260Y347638D02*
Y348627D01*
X264173Y492807D02*
X265146D01*
X267008Y490945D01*
X256634Y490157D02*
X257967D01*
X258541Y489583D02*
X259535D01*
X265146Y493807D02*
X267008Y495669D01*
X256634Y484252D02*
X257967D01*
X258360Y483858D02*
X259949D01*
X264173Y479634D01*
X265146D02*
X267008Y481496D01*
X265146Y478634D02*
X267008Y476772D01*
X264173Y416035D02*
X265146D01*
X267008Y414173D01*
X256634Y413386D02*
X257967D01*
X258541Y412811D02*
X259535D01*
X265146Y417035D02*
X267008Y418898D01*
X256634Y407480D02*
X257967D01*
X258360Y407087D02*
X259949D01*
X264173Y402862D01*
X265146D02*
X267008Y404724D01*
X265146Y401862D02*
X267008Y400000D01*
X280815Y365146D02*
X282677Y367008D01*
X280815Y364173D02*
Y365146D01*
Y364173D02*
X285039Y359949D01*
Y358360D02*
Y359949D01*
X279815Y363759D02*
Y365146D01*
Y363759D02*
X284039Y359535D01*
Y358541D02*
Y359535D01*
X283465Y356634D02*
Y357967D01*
X289370Y356634D02*
Y357967D01*
X289764Y358360D01*
Y359949D01*
X293988Y364173D01*
Y365146D01*
X290764Y358541D02*
Y359535D01*
X294988Y363759D01*
Y365146D02*
X296850Y367008D01*
X357587Y365146D02*
X359449Y367008D01*
X357587Y364173D02*
Y365146D01*
Y364173D02*
X361811Y359949D01*
Y358360D02*
Y359949D01*
X356587Y363759D02*
Y365146D01*
Y363759D02*
X360811Y359535D01*
Y358541D02*
Y359535D01*
X360236Y356634D02*
Y357967D01*
X366142Y356634D02*
Y357967D01*
X366535Y358360D01*
Y359949D01*
X370760Y364173D01*
Y365146D01*
X367535Y358541D02*
Y359535D01*
X371760Y363759D01*
Y365146D02*
X373622Y367008D01*
X472362Y390551D02*
X474224Y392413D01*
X476378D01*
X478634Y390157D01*
X487053Y389764D02*
X488583D01*
X472362Y395276D02*
X474224Y393413D01*
X487053Y391339D02*
X488583D01*
X499213Y359843D02*
X500091Y360720D01*
X500808D01*
X503650Y363562D01*
Y372593D02*
X503937Y372880D01*
X500394Y361720D02*
X502650Y363976D01*
X497638Y372880D02*
Y374409D01*
Y372880D02*
X497925Y372593D01*
X494882Y364280D02*
X497925Y367323D01*
X494882Y356854D02*
Y364280D01*
X499213Y372880D02*
Y374409D01*
X498925Y372593D02*
X499213Y372880D01*
X495882Y363865D02*
X498925Y366909D01*
X495882Y357268D02*
Y363865D01*
Y357268D02*
X498516Y354634D01*
X501484D01*
X270787Y418898D02*
X272650Y417035D01*
X291437Y441483D02*
X291921Y440999D01*
X291437Y441483D02*
Y443406D01*
X270787Y414173D02*
X272650Y416035D01*
X292921Y440999D02*
X293406Y441483D01*
Y443406D01*
X270787Y400000D02*
X272650Y401862D01*
X300795Y440999D02*
X301280Y441483D01*
Y443406D01*
X270787Y404724D02*
X272650Y402862D01*
X299311Y441483D02*
X299795Y440999D01*
X299311Y441483D02*
Y443406D01*
X269882Y449213D02*
X274705D01*
X300492Y448229D02*
X303248Y445473D01*
X247638Y493307D02*
X248213D01*
X249394Y492126D01*
Y490440D02*
Y492126D01*
X251161Y488673D02*
X251785D01*
X252270Y488189D02*
X253602D01*
X246537Y495407D02*
X247638Y494307D01*
X248627D01*
X250394Y492540D01*
Y490854D02*
X251575Y489673D01*
X251785D01*
X252270Y490157D02*
X253602D01*
X242350Y481224D02*
X246537D01*
Y480234D02*
X247638Y479134D01*
X248213D01*
X249394Y480315D01*
Y482001D02*
X251161Y483768D01*
X251785D01*
X250394Y481587D02*
X251575Y482768D01*
X251785D02*
X252270Y482283D01*
X247638Y416535D02*
X248213D01*
X249394Y415354D01*
Y413668D02*
Y415354D01*
X251161Y411902D02*
X251785D01*
X252270Y411417D02*
X253602D01*
X246537Y418636D02*
X247638Y417535D01*
X248627D01*
X250394Y415769D01*
Y414083D02*
X251575Y412902D01*
X251785D01*
X252270Y413386D02*
X253602D01*
X242350Y404453D02*
X246537D01*
Y403463D02*
X247638Y402362D01*
X248213D01*
X249394Y403543D01*
Y405229D02*
X251161Y406996D01*
X251785D01*
X250394Y404815D02*
X251575Y405996D01*
X251785D02*
X252270Y405512D01*
X280315Y347638D02*
X281415Y346537D01*
X280315Y347638D02*
Y348213D01*
X281496Y349394D01*
X283182D01*
X284949Y351161D01*
Y351785D02*
X285433Y352270D01*
X277398Y342350D02*
Y346537D01*
X278215D02*
X279315Y347638D01*
Y348627D01*
X281082Y350394D02*
X282768D01*
X283949Y351575D02*
Y351785D01*
X289370Y352270D02*
Y353602D01*
X289854Y351161D02*
Y351785D01*
Y351161D02*
X291621Y349394D01*
X293307D01*
X294488Y347638D02*
Y348213D01*
X291339Y352270D02*
Y353602D01*
X290854Y351785D02*
X291339Y352270D01*
X293721Y350394D02*
X295488Y348627D01*
Y347638D02*
X296589Y346537D01*
X297398Y342350D02*
Y346537D01*
X357087Y347638D02*
X358187Y346537D01*
X357087Y347638D02*
Y348213D01*
X358268Y349394D01*
X359954D01*
X361720Y351161D01*
Y351785D02*
X362205Y352270D01*
X354169Y342350D02*
Y346537D01*
X354986D02*
X356087Y347638D01*
Y348627D01*
X357854Y350394D02*
X359539D01*
X360720Y351575D02*
Y351785D01*
X366626Y351161D02*
Y351785D01*
Y351161D02*
X368393Y349394D01*
X370079D01*
X371260Y347638D02*
Y348213D01*
X368110Y352270D02*
Y353602D01*
X367626Y351785D02*
X368110Y352270D01*
X370493Y350394D02*
X372260Y348627D01*
Y347638D02*
X373360Y346537D01*
X374169Y342350D02*
Y346537D01*
X256634Y488189D02*
X257967D01*
X258360Y488583D01*
X259949D01*
X264173Y492807D01*
X257967Y490157D02*
X258541Y489583D01*
X259535D02*
X263759Y493807D01*
X265146D01*
X257967Y484252D02*
X258360Y483858D01*
X264173Y479634D02*
X265146D01*
X256634Y482283D02*
X257967D01*
X258541Y482858D01*
X259535D01*
X263759Y478634D01*
X265146D01*
X256634Y411417D02*
X257967D01*
X258360Y411811D01*
X259949D01*
X264173Y416035D01*
X257967Y413386D02*
X258541Y412811D01*
X259535D02*
X263759Y417035D01*
X265146D01*
X257967Y407480D02*
X258360Y407087D01*
X264173Y402862D02*
X265146D01*
X256634Y405512D02*
X257967D01*
X258541Y406087D01*
X259535D01*
X263759Y401862D01*
X265146D01*
X285039Y358360D02*
X285433Y357967D01*
Y356634D02*
Y357967D01*
X277953Y367008D02*
X279815Y365146D01*
X283465Y357967D02*
X284039Y358541D01*
X292126Y367008D02*
X293988Y365146D01*
X291339Y356634D02*
Y357967D01*
X290764Y358541D02*
X291339Y357967D01*
X294988Y363759D02*
Y365146D01*
X361811Y358360D02*
X362205Y357967D01*
Y356634D02*
Y357967D01*
X354724Y367008D02*
X356587Y365146D01*
X360236Y357967D02*
X360811Y358541D01*
X368898Y367008D02*
X370760Y365146D01*
X368110Y356634D02*
Y357967D01*
X367535Y358541D02*
X368110Y357967D01*
X371760Y363759D02*
Y365146D01*
X486659Y390157D02*
X487053Y389764D01*
X474224Y393413D02*
X476792D01*
X479048Y391157D01*
X486872D01*
X487053Y391339D01*
X511417Y381890D02*
X518110D01*
X503650Y363562D02*
Y372593D01*
X503937Y372880D02*
Y374409D01*
X499213Y362598D02*
X500091Y361720D01*
X500394D01*
X502650Y363976D02*
Y372593D01*
X502362Y372880D02*
X502650Y372593D01*
X502362Y372880D02*
Y374409D01*
X497925Y367323D02*
Y372593D01*
X494882Y356854D02*
X498102Y353634D01*
X501484D01*
X502362Y352756D01*
X498925Y366909D02*
Y372593D01*
X501484Y354634D02*
X502362Y355512D01*
X299311Y448229D02*
X300295Y449213D01*
X303248Y443406D02*
Y445473D01*
X271752Y443406D02*
Y445473D01*
X464961Y391339D02*
X466036Y392413D01*
X466720D01*
X468583Y390551D01*
X291437Y456989D02*
Y458912D01*
X291006Y459343D02*
X291437Y458912D01*
X466035Y393413D02*
X466720D01*
X464961Y394488D02*
X466035Y393413D01*
X466720D02*
X468583Y395276D01*
X289469Y456989D02*
Y458912D01*
X289953Y459396D01*
Y463590D01*
X299311Y456989D02*
Y458912D01*
X464961Y377165D02*
X466036Y378240D01*
X466720D01*
X468583Y376378D01*
X297343Y458912D02*
X297818Y459388D01*
X297343Y456989D02*
Y458912D01*
X297818Y459388D02*
Y461630D01*
X464961Y380315D02*
X466035Y379240D01*
X466720D01*
X468583Y381102D01*
X298967Y437114D02*
Y438402D01*
Y438402D01*
X299795Y436471D02*
Y437114D01*
X298967D02*
X299795D01*
X298967D02*
Y438402D01*
X299795D01*
Y439689D01*
Y439764D01*
X291921Y436327D02*
Y436971D01*
X291093D02*
X291921D01*
X291093D02*
Y438258D01*
X291921D01*
Y439370D01*
X246537Y399453D02*
Y400262D01*
Y414453D02*
Y415435D01*
X333071Y592126D02*
X333071D01*
X336220Y595275D02*
Y595276D01*
X328346Y587402D02*
X328346D01*
X329921Y588976D02*
Y588976D01*
Y585827D02*
Y585827D01*
X326772Y585827D02*
X326772D01*
X333071D02*
X333071D01*
X336220D02*
Y585827D01*
X304724Y560630D02*
Y560630D01*
X348819Y598425D02*
X348819D01*
X303150Y571654D02*
Y571654D01*
X317323Y563779D02*
Y563780D01*
X345669Y601575D02*
X345669D01*
X347244Y590551D02*
X349606D01*
X350394Y591339D01*
X311024Y601575D02*
Y601575D01*
Y588976D02*
Y588976D01*
X322047Y584252D02*
Y584252D01*
X354724Y604724D02*
X354724Y604724D01*
X306299Y588189D02*
Y590551D01*
X337008Y638189D02*
X338563D01*
X340512Y640138D01*
X309882Y645138D02*
X312343D01*
X304724Y598425D02*
Y598425D01*
X307874Y598425D02*
Y598425D01*
Y601575D02*
Y601575D01*
Y604724D02*
Y604724D01*
X311024Y604724D02*
Y604724D01*
Y598425D02*
Y598425D01*
Y595276D02*
Y595276D01*
X309449Y581102D02*
X311024Y582677D01*
X309449Y581102D02*
Y581102D01*
X314173Y582677D02*
Y582677D01*
X312598Y581102D02*
X314173Y582677D01*
Y595276D02*
Y595276D01*
X323622Y576378D02*
Y576378D01*
X322047Y574803D02*
X323622Y576378D01*
Y573228D02*
Y573228D01*
X322047Y571654D02*
X323622Y573228D01*
X329921Y601575D02*
X329921D01*
X339370Y563780D02*
Y563780D01*
Y588976D02*
X339370D01*
X342520Y595276D02*
X342520D01*
X342520Y592126D02*
X342520D01*
X344094Y581102D02*
X344094D01*
X326772Y601575D02*
Y601575D01*
X323622Y598425D02*
X323622D01*
X323622Y592126D02*
X323622D01*
X325197Y593701D02*
Y593701D01*
X314173Y588976D02*
Y588976D01*
X320472Y588976D02*
Y588976D01*
X340945Y584252D02*
Y584252D01*
X339370Y582677D02*
X339370D01*
X336220Y579528D02*
X336220D01*
X336220Y573228D02*
X336220D01*
X347244Y574803D02*
X347244D01*
X350394Y568504D02*
Y568504D01*
X492913Y397244D02*
Y401968D01*
X492913Y401968D02*
X492913Y401968D01*
X494488Y397244D02*
Y402362D01*
X494488Y402362D02*
X494488Y402362D01*
X322047Y606299D02*
X323622Y604724D01*
X328346Y613386D02*
X329921Y611811D01*
X489090Y635547D02*
X494488Y640945D01*
X498130D01*
X496063Y603543D02*
X498130D01*
X494095Y617717D02*
X495669Y616142D01*
X498130D01*
X494882Y592126D02*
X496063Y590945D01*
X498130D01*
X495276Y579134D02*
X496063Y578346D01*
X498130D01*
X501870Y640945D02*
X508169D01*
X501870Y628346D02*
X508169D01*
X501870Y616142D02*
X508169D01*
X501870Y603543D02*
X508169D01*
X501870Y590945D02*
X508169D01*
X501870Y578346D02*
X508169D01*
X225886Y642323D02*
Y648425D01*
X225689Y642126D02*
X225886Y642323D01*
Y612401D02*
Y618898D01*
X225689Y612205D02*
X225886Y612401D01*
X218406Y642126D02*
Y646752D01*
X487480Y469606D02*
X491732Y465354D01*
X225492Y626083D02*
X225689Y626279D01*
X222146Y632677D02*
X224508Y635039D01*
X456299Y609941D02*
X461516D01*
X456299Y613681D02*
X465256D01*
X469095Y609842D01*
X315748Y577953D02*
X315748D01*
X318898Y574803D02*
X318898D01*
X496063Y397244D02*
Y417417D01*
X366929Y608268D02*
X373622Y614961D01*
X491339Y373228D02*
Y374409D01*
X481890Y370079D02*
X488189D01*
X491339Y373228D01*
X511417Y391339D02*
X511478Y391278D01*
X478634Y390157D02*
X486659D01*
X470866Y413386D02*
Y415354D01*
X347244Y584252D02*
X356890D01*
X358858Y586221D01*
X247638Y651431D02*
Y652718D01*
X258018D01*
Y654006D01*
X247638D02*
X258018D01*
X235289D02*
X247638D01*
X235289D02*
Y655293D01*
X247638D01*
X258018D01*
Y656581D01*
X247638D02*
X258018D01*
X235289D02*
X247638D01*
X235289D02*
Y657868D01*
X247638D01*
X258018D01*
Y659156D01*
X247638D02*
X258018D01*
X235289D02*
X247638D01*
X235289D02*
Y660443D01*
X247638D01*
X258018D01*
Y661730D01*
X247638D02*
X258018D01*
X247638D02*
Y663018D01*
Y663307D01*
X351181Y593701D02*
X367755D01*
X369291Y595237D01*
X437795Y647244D02*
Y651968D01*
X265157Y648228D02*
Y659252D01*
X442913Y654818D02*
X450000D01*
X437402Y574803D02*
X440945Y571260D01*
X437402Y574803D02*
Y585827D01*
X457087D02*
X465354Y594095D01*
X441102Y590158D02*
X457480D01*
X437953Y589606D02*
X441732Y585827D01*
X457087D01*
X465158Y597244D02*
X469095Y601181D01*
X442520Y592520D02*
X460630D01*
X237106Y555118D02*
X240256Y558268D01*
X243996Y565650D02*
X248524D01*
X454216Y566815D02*
X461811Y574409D01*
X434445Y566815D02*
X454216D01*
X440551Y568504D02*
X451575D01*
X457480Y574409D01*
X340374Y650000D02*
X340512Y650138D01*
X336476Y645138D02*
X340512D01*
X336437Y650000D02*
X340374D01*
X370866Y591732D02*
X374410D01*
X376658Y589484D01*
X291732Y586221D02*
X293701Y584252D01*
X274016Y478634D02*
X276878D01*
Y479634D02*
X277953Y480709D01*
X276878Y478634D02*
X277953Y477559D01*
X286720Y478634D02*
X287795Y477559D01*
X460236Y563779D02*
X463386Y560630D01*
X337795Y617717D02*
X340945Y620866D01*
X359055D01*
X383858Y603937D02*
X390945D01*
X395276Y575197D02*
Y583858D01*
X381496Y652362D02*
Y659842D01*
X306405Y487295D02*
Y528847D01*
Y487295D02*
X319004Y474697D01*
Y385720D02*
Y474697D01*
X305405Y486881D02*
Y528847D01*
Y486881D02*
X318004Y474283D01*
Y385720D02*
Y474283D01*
X301181Y617717D02*
X303150Y615748D01*
X309882Y655945D02*
X311811Y657874D01*
X302870Y627839D02*
X312598Y618110D01*
X302870Y627839D02*
Y639090D01*
X299606Y627953D02*
X309449Y618110D01*
X299606Y627953D02*
Y638976D01*
X497638Y397244D02*
Y417577D01*
X494488Y402362D02*
Y417256D01*
X492913Y401968D02*
Y417323D01*
X218504Y555118D02*
X237106D01*
X558547Y454216D02*
X574130D01*
X525591Y421260D02*
X558547Y454216D01*
X525591Y417323D02*
X525689Y417421D01*
X364173Y640551D02*
Y647114D01*
X356814Y665748D02*
Y671847D01*
X359055Y620866D02*
X361811Y618110D01*
X328346Y608661D02*
Y611811D01*
X334646Y587402D02*
X334646D01*
X331496Y606299D02*
X333858D01*
X334646Y571654D02*
X334646D01*
X325197Y565354D02*
X326772Y566929D01*
X325197Y555905D02*
Y565354D01*
X329921Y557874D02*
X329921Y557874D01*
X331496Y568504D02*
X331496D01*
X296457Y606299D02*
X300000D01*
X301575Y607874D01*
X303150Y606299D02*
Y606299D01*
X309449Y606299D02*
X311024Y604724D01*
X225689Y626279D02*
Y626378D01*
Y632382D01*
X285433Y353603D02*
Y356634D01*
X285433Y353602D02*
X285433Y353603D01*
X283465Y353602D02*
Y356634D01*
Y353602D02*
X283465Y353602D01*
X289370Y353603D02*
Y356634D01*
X289370Y353602D02*
X289370Y353603D01*
X291339Y353602D02*
Y356634D01*
Y353602D02*
X291339Y353602D01*
X360236Y353602D02*
Y356634D01*
X360236Y353602D02*
X360236Y353602D01*
X362205Y356634D02*
X362205Y356634D01*
X366142Y356634D02*
X366142Y356634D01*
X368110Y353602D02*
Y356634D01*
X368110Y353602D02*
X368110Y353602D01*
X253602Y413386D02*
X256634D01*
X256634Y413386D01*
X253602Y411417D02*
X256634D01*
X256634Y411417D01*
X253602Y407480D02*
X256634D01*
X256634Y407480D01*
X253602Y405512D02*
X256634D01*
X256634Y405512D01*
X253602Y490158D02*
X256634D01*
X256634Y490157D01*
X253602Y488189D02*
X256634D01*
X256634Y488189D01*
X253602Y484252D02*
X256634D01*
X256634Y484252D01*
X253602Y482283D02*
X256634D01*
X256634Y482283D01*
X295374Y456989D02*
Y458912D01*
X294882Y459404D02*
X295374Y458912D01*
X291158Y485060D02*
X294882Y481335D01*
Y459404D02*
Y464567D01*
Y475197D02*
Y481335D01*
Y464567D02*
Y465211D01*
Y466498D01*
X295771D01*
Y467785D01*
X294882D02*
X295771D01*
X294882D02*
Y469073D01*
X295771D01*
Y470360D01*
X294882D02*
X295771D01*
X294882D02*
Y475197D01*
X307874Y376378D02*
X308949Y377453D01*
X286720Y479634D02*
X287795Y480709D01*
X285560Y479634D02*
X286720D01*
X285039Y480154D02*
X285560Y479634D01*
X285039Y480154D02*
Y481102D01*
Y493451D02*
Y494095D01*
Y493451D02*
X285695D01*
Y492163D02*
Y493451D01*
X285039Y492163D02*
X285695D01*
X285039Y490876D02*
Y492163D01*
Y490876D02*
X285695D01*
Y489589D02*
Y490876D01*
X285039Y489589D02*
X285695D01*
X285039Y488301D02*
Y489589D01*
Y488301D02*
X285695D01*
Y487014D02*
Y488301D01*
X285039Y487014D02*
X285695D01*
X285039Y485726D02*
Y487014D01*
Y485726D02*
X285695D01*
Y484439D02*
Y485726D01*
X285039Y484439D02*
X285695D01*
X285039Y481102D02*
Y484439D01*
X278740Y548175D02*
Y548819D01*
Y548175D02*
X279154D01*
Y546888D02*
Y548175D01*
X278740Y546888D02*
X279154D01*
X278740Y545600D02*
Y546888D01*
Y545600D02*
X279154D01*
Y544313D02*
Y545600D01*
X278740Y544313D02*
X279154D01*
X278740Y538189D02*
Y544313D01*
X296313Y568004D02*
X297388Y566929D01*
X298425D01*
X300295Y449213D02*
X305118D01*
X287500Y450197D02*
X290453Y453150D01*
X284547D02*
X287500Y450197D01*
X285532Y448229D02*
X287500Y450197D01*
X274705Y449213D02*
X275689Y448229D01*
X271752Y445473D02*
X274508Y448229D01*
X299311Y448229D02*
X300492D01*
X274508Y448229D02*
X275689Y448229D01*
X360630Y639370D02*
Y644985D01*
X357087Y638189D02*
Y642856D01*
X429367Y603543D02*
X433858D01*
X435827Y601575D01*
Y599213D02*
Y601575D01*
X428953Y604543D02*
X434272D01*
X436827Y601989D01*
Y599627D02*
Y601989D01*
X317323Y579528D02*
Y579528D01*
X291158Y485060D02*
Y530528D01*
X304331Y543701D01*
Y550787D01*
X290158Y484646D02*
Y530942D01*
X303331Y544115D01*
Y551202D01*
X334646Y607087D02*
Y621829D01*
X306299Y648819D02*
Y651575D01*
X313961Y657895D02*
X315334Y659268D01*
X306299Y648819D02*
X309882Y645236D01*
Y645138D02*
Y645236D01*
X306299Y651575D02*
X307480Y652756D01*
X292126Y630315D02*
X296850D01*
X289370Y627559D02*
X292126Y630315D01*
X247638Y650787D02*
Y651431D01*
X245276Y648425D02*
X247638Y650787D01*
X227362Y621260D02*
X240142Y634039D01*
X293307Y589370D02*
X295276Y587402D01*
X326217Y664961D02*
X329134D01*
X325590Y665748D02*
Y671260D01*
X307480Y652756D02*
X311972D01*
X313961Y654745D01*
Y657895D01*
X312343Y645138D02*
X313779Y643701D01*
X309842Y629921D02*
X313779Y633858D01*
Y643701D01*
X314961Y657480D02*
X315748Y658268D01*
X310827Y650197D02*
X314961Y654331D01*
Y657480D01*
X314779Y634039D02*
X318898Y629921D01*
X314779Y634039D02*
Y646244D01*
X310827Y650197D02*
X314779Y646244D01*
X346063Y651968D02*
X348425Y654331D01*
Y659842D01*
X351425Y646701D02*
Y661085D01*
X340512Y640138D02*
X344862D01*
X351425Y646701D01*
X350425Y649638D02*
Y660671D01*
X340512Y645138D02*
X345925D01*
X350425Y649638D01*
X337614Y669898D02*
X341496Y673779D01*
X337614Y664748D02*
Y669898D01*
Y664748D02*
X346063Y656299D01*
Y655512D02*
Y656299D01*
X315748Y658268D02*
X330315D01*
X336614Y664567D01*
X315334Y659268D02*
X329901D01*
X335614Y664981D01*
X313165Y663165D02*
X315748Y665748D01*
Y671417D01*
X346457Y664640D02*
X350425Y660671D01*
X313739Y662165D02*
X316535Y664961D01*
X319291D01*
X336614Y664567D02*
Y672047D01*
X346457Y664640D02*
Y672047D01*
X356693Y643876D02*
Y653543D01*
X334646Y621829D02*
X356693Y643876D01*
Y653543D02*
Y658661D01*
X277378Y672228D02*
X281496Y668110D01*
X306693Y671654D02*
X311181Y667165D01*
X286614Y672047D02*
X291496Y667165D01*
X281496D02*
Y668110D01*
X271496Y667165D02*
X276378Y672047D01*
X271496Y677165D02*
X279573Y685242D01*
X340512Y650138D02*
X347382D01*
X349425Y652181D01*
Y660257D01*
X462598Y425197D02*
X474409Y413386D01*
X462024Y424197D02*
X470866Y415354D01*
X300795Y408830D02*
Y440999D01*
X272650Y401862D02*
X293828D01*
X300795Y408830D01*
X272650Y402862D02*
X293413D01*
X299795Y409244D01*
X335614Y664981D02*
Y669504D01*
X333071Y672047D02*
X335614Y669504D01*
X421654Y579606D02*
X427559Y585512D01*
X421654Y589606D02*
X426559Y594512D01*
X416142Y535118D02*
X421654Y529606D01*
X326388Y556129D02*
Y560152D01*
X327673Y556258D02*
Y559055D01*
X331890Y553455D02*
Y558661D01*
X331496Y559055D02*
X331890Y558661D01*
X331496Y559055D02*
Y562205D01*
X333071Y563779D01*
X328346Y559728D02*
Y562205D01*
X329921Y563779D01*
X364567Y523606D02*
X384055Y504118D01*
X370079Y520923D02*
Y528346D01*
Y520923D02*
X376829Y514173D01*
X372835Y519581D02*
Y527165D01*
Y519581D02*
X377062Y515354D01*
X409842Y425197D02*
X462598D01*
X409428Y424197D02*
X462024D01*
X379528Y455512D02*
X409842Y425197D01*
X379528Y455512D02*
Y502989D01*
X326388Y556129D02*
X379528Y502989D01*
X378528Y455098D02*
X409428Y424197D01*
X378528Y455098D02*
Y502575D01*
X325197Y555905D02*
X378528Y502575D01*
X480315Y515748D02*
X485039D01*
X479921Y515354D02*
X480315Y515748D01*
X377062Y515354D02*
X479921D01*
X482283Y511811D02*
X485039D01*
X479921Y514173D02*
X482283Y511811D01*
X376829Y514173D02*
X479921D01*
X384470Y505118D02*
X479921D01*
X482677Y507874D01*
X485039D01*
X485039Y507874D01*
X384055Y504118D02*
X479740D01*
X479921Y503937D01*
X485039D01*
X485039Y503937D01*
X483858Y500000D02*
X485039D01*
X481335Y496063D02*
X485039D01*
X481890Y492126D02*
X485039D01*
X566201Y434252D02*
X574016D01*
X578740Y438976D01*
Y439606D01*
X574016Y414882D02*
X578740Y419606D01*
X575016Y405863D02*
Y405882D01*
X578740Y409606D01*
X574016Y408661D02*
Y414882D01*
X568740Y429606D02*
X572126D01*
X576772Y434252D01*
X564431Y421518D02*
X567323Y424409D01*
X573543D01*
X578740Y429606D01*
X521654Y503937D02*
X581496D01*
X563431Y412596D02*
Y424297D01*
X568740Y429606D01*
Y419606D02*
X573150D01*
X577953Y424409D01*
X579134D01*
X582102Y515173D02*
X583858Y516929D01*
X582283Y514173D02*
X583858Y512598D01*
X324590Y493126D02*
Y546042D01*
Y493126D02*
X337008Y480709D01*
Y381657D02*
Y480709D01*
X325590Y493540D02*
Y546457D01*
X492626Y336994D02*
Y341465D01*
Y336994D02*
X493110Y336510D01*
Y334488D02*
Y336510D01*
X495776Y372593D02*
X496063Y372880D01*
Y374409D01*
X491142Y334488D02*
Y336510D01*
X491626Y336994D01*
X494488Y372880D02*
Y374409D01*
Y372880D02*
X494776Y372593D01*
X508374Y336994D02*
Y341051D01*
X507374Y336994D02*
Y341465D01*
X511024Y345115D01*
X508374Y341051D02*
X512024Y344701D01*
X506890Y334488D02*
Y336510D01*
X507374Y336994D01*
X505512Y372880D02*
Y374409D01*
Y372880D02*
X505799Y372593D01*
X508858Y334488D02*
Y336510D01*
X508374Y336994D02*
X508858Y336510D01*
X506799Y372593D02*
X507087Y372880D01*
Y374409D01*
X494776Y369579D02*
Y372593D01*
X495776Y369164D02*
Y372593D01*
X506799Y369579D02*
Y372593D01*
Y369579D02*
X512024Y364354D01*
Y344701D02*
Y364354D01*
X505799Y369164D02*
Y372593D01*
Y369164D02*
X511024Y363940D01*
Y345115D02*
Y363940D01*
X491626Y336994D02*
Y341051D01*
X488583Y344094D02*
X491626Y341051D01*
X488583Y344094D02*
Y363386D01*
X494776Y369579D01*
X489583Y344509D02*
X492626Y341465D01*
X489583Y344509D02*
Y362972D01*
X495776Y369164D01*
X498032Y341339D02*
Y344488D01*
X325590Y493540D02*
X338008Y481123D01*
Y398031D02*
Y481123D01*
X347457Y665054D02*
X351425Y661085D01*
X347457Y665054D02*
Y669504D01*
X350000Y672047D01*
X345457Y664225D02*
X349425Y660257D01*
X345457Y664225D02*
Y669504D01*
X342913Y672047D02*
X345457Y669504D01*
X314568Y660165D02*
X316214Y661811D01*
X323068D01*
X326217Y664961D01*
X319291D02*
X321496Y667165D01*
X329134Y664961D02*
X331339Y667165D01*
X306984Y672653D02*
X311496Y677165D01*
X311181Y667165D02*
X311496D01*
X325590Y671260D02*
X331496Y677165D01*
X247638Y663307D02*
X251496Y667165D01*
X341496Y673779D02*
Y677165D01*
X315748Y671417D02*
X321496Y677165D01*
X314154Y661165D02*
X315800Y662811D01*
X322654D01*
X325590Y665748D01*
X357087Y642856D02*
X364567Y650336D01*
Y656581D01*
X360630Y644985D02*
X365567Y649922D01*
Y656995D01*
X356814Y665748D02*
X365567Y656995D01*
X364173Y647114D02*
X366567Y649508D01*
Y665323D01*
X367567Y641882D02*
X367717Y641732D01*
X367567Y641882D02*
Y671095D01*
X401181Y641732D02*
X405512Y646063D01*
Y680709D01*
X403978Y682242D02*
X405512Y680709D01*
X404393Y683242D02*
X406512Y681123D01*
X404839Y642634D02*
X406512Y644307D01*
Y681123D01*
X407006Y643387D02*
X408661Y641732D01*
X407512Y643893D02*
Y681537D01*
X404807Y684242D02*
X407512Y681537D01*
X407006Y643387D02*
Y643387D01*
X407512Y643893D01*
X431653Y359606D02*
X438583Y352677D01*
X421654Y379606D02*
X425984Y375276D01*
X431653Y369606D02*
X441339Y359921D01*
X427165Y375118D02*
X431653Y379606D01*
Y577402D02*
Y579606D01*
Y569606D02*
X434445Y566815D01*
X359200Y606693D02*
X377196Y624689D01*
X491220D01*
X492095Y623814D01*
X358967Y607874D02*
X376782Y625689D01*
X491634D01*
X493094Y624228D01*
X359449Y605527D02*
X377610Y623689D01*
X490805D02*
X491094Y623400D01*
Y605683D02*
Y623400D01*
X377610Y623689D02*
X490805D01*
X331890Y553455D02*
X390857Y494488D01*
X479761D01*
X481335Y496063D01*
X333071Y553688D02*
X391271Y495488D01*
X479347D01*
X483858Y500000D01*
X327673Y556258D02*
X390443Y493488D01*
X480175D01*
X480351Y493665D01*
X480351D01*
X481890Y492126D01*
X538101Y674016D02*
X542095Y670022D01*
X525646Y673016D02*
X537687D01*
X541095Y669608D01*
X537273Y672016D02*
X540095Y669194D01*
X516646Y672016D02*
X537273D01*
X361496Y677165D02*
X367567Y671095D01*
X351496Y677165D02*
X356814Y671847D01*
X521496Y677165D02*
X525646Y673016D01*
X341496Y666772D02*
X348425Y659842D01*
X255118Y677165D02*
X264195Y686242D01*
X531496Y677165D02*
X534646Y680315D01*
X531496Y677165D02*
X534646Y674016D01*
X538101D01*
X511496Y677165D02*
X516646Y672016D01*
X364724Y667165D02*
X366567Y665323D01*
X354122Y667026D02*
X364567Y656581D01*
X536858Y671016D02*
X539095Y668779D01*
X507646Y671016D02*
X536858D01*
X501496Y677165D02*
X507646Y671016D01*
X523068Y500000D02*
X527398Y495669D01*
X525591Y496063D02*
X526984Y494669D01*
X525984Y492126D02*
X527528Y493669D01*
X527398Y495669D02*
X581496D01*
X526984Y494669D02*
X581082D01*
X527528Y493669D02*
X580668D01*
X578740Y419606D02*
X586614Y427480D01*
Y500233D01*
X581910Y504937D02*
X586614Y500233D01*
X579134Y424409D02*
X585614Y430890D01*
Y499819D01*
X581496Y503937D02*
X585614Y499819D01*
X578740Y429606D02*
X584614Y435480D01*
Y492551D01*
X581496Y495669D02*
X584614Y492551D01*
X583614Y438732D02*
Y492137D01*
X581082Y494669D02*
X583614Y492137D01*
X580668Y493669D02*
X582614Y491723D01*
X579134Y434252D02*
X583614Y438732D01*
X576772Y434252D02*
X579134D01*
X582614Y443480D02*
Y491723D01*
X578740Y439606D02*
X582614Y443480D01*
X499213Y404403D02*
X504652Y409842D01*
X559263D01*
X562431Y413011D01*
X500787Y404564D02*
X505066Y408843D01*
X559677D01*
X563431Y412596D01*
X502362Y404724D02*
X505480Y407842D01*
X560091D01*
X564431Y412182D01*
X538033Y406843D02*
X560506D01*
X568740Y415077D01*
X538447Y405842D02*
X568047D01*
X568740Y406535D01*
X538861Y404843D02*
X570197D01*
X574016Y408661D01*
X539276Y403842D02*
X572995D01*
X575016Y405863D01*
X517105Y391339D02*
X519074Y393307D01*
X524498D01*
X538033Y406843D01*
X516945Y389764D02*
X519488Y392307D01*
X524912D01*
X538447Y405842D01*
X516784Y388189D02*
X519902Y391307D01*
X525326D01*
X538861Y404843D01*
X516624Y386614D02*
X520317Y390307D01*
X525740D01*
X539276Y403842D01*
X520079Y383858D02*
X520472D01*
X518110Y381890D02*
X520079Y383858D01*
X520471Y381260D02*
Y381495D01*
Y381102D02*
X522441Y383071D01*
Y384646D01*
X519291Y385827D02*
X521260D01*
X522441Y384646D01*
X486766Y385327D02*
X487053Y385039D01*
X486766Y386327D02*
X487053Y386614D01*
X480794Y386327D02*
X486766D01*
X481209Y385327D02*
X486766D01*
X480815Y384933D02*
X481209Y385327D01*
X479911Y385443D02*
X480794Y386327D01*
X487053Y385039D02*
X488583D01*
X472362Y376378D02*
X474224Y378240D01*
X476398D01*
X479346Y381188D01*
Y383465D01*
X480815Y384933D01*
X487053Y386614D02*
X488583D01*
X472362Y381102D02*
X474224Y379240D01*
X475984D01*
X478346Y381602D01*
Y383879D01*
X479911Y385443D01*
X312205Y624803D02*
Y628740D01*
X364567Y523606D02*
Y531496D01*
X367323Y522265D02*
X384470Y505118D01*
X367323Y522265D02*
Y529921D01*
X312205Y624803D02*
X322047Y614961D01*
X314566Y624016D02*
Y625196D01*
X314172Y630707D02*
X314566D01*
X312205Y628740D02*
X314172Y630707D01*
X305118Y451182D02*
X309055D01*
X431653Y599606D02*
X441102Y590158D01*
X314567Y627780D02*
X316535Y625812D01*
X314567Y627780D02*
Y627953D01*
D36*
X474803Y613307D02*
X477874D01*
X461024Y601181D02*
X461614Y601772D01*
X340492Y655118D02*
X340512Y655138D01*
X336614Y655118D02*
X340492D01*
X309882Y639331D02*
X311811Y637402D01*
X309882Y639331D02*
Y640138D01*
X218504Y626476D02*
Y630709D01*
X218406Y626378D02*
X218504Y626476D01*
Y612303D02*
Y616929D01*
X218406Y612205D02*
X218504Y612303D01*
X515453Y640945D02*
X519291D01*
X515453Y640945D02*
X515453Y640945D01*
X515453Y628346D02*
X519291D01*
X515453Y628346D02*
X515453Y628346D01*
X515453Y616142D02*
X519291D01*
X515453Y616142D02*
X515453Y616142D01*
X515453Y603543D02*
X519291D01*
X515453Y603543D02*
X515453Y603543D01*
X515453Y590945D02*
X519291D01*
X515453Y590945D02*
X515453Y590945D01*
X515453Y578346D02*
X519291D01*
X515453Y578346D02*
X515453Y578346D01*
X222047Y648524D02*
X222146Y648425D01*
X468465Y617323D02*
X468504Y617283D01*
X461614Y601181D02*
Y601772D01*
X477795Y613386D02*
X477874Y613307D01*
X477559Y613386D02*
X477795D01*
D37*
X500000Y385827D02*
X507087Y392913D01*
X574402Y455268D02*
X578740Y459606D01*
X417323Y333071D02*
Y385276D01*
Y333071D02*
X419685Y330709D01*
X558112Y455268D02*
X574402D01*
X528041Y425197D02*
X558112Y455268D01*
X525591Y425197D02*
X528041D01*
X516536Y385039D02*
X519685Y388189D01*
X523228D01*
X487008Y378740D02*
X488583D01*
X484252Y375984D02*
X487008Y378740D01*
X484252Y375197D02*
Y375984D01*
X516929Y398425D02*
X516929D01*
X512992Y394488D02*
X516929Y398425D01*
X515354Y392913D02*
X516929Y394488D01*
X511417Y392913D02*
X515354D01*
X511417Y394488D02*
X512992D01*
X511417Y385039D02*
X516536D01*
X221457Y567520D02*
X229085Y575148D01*
X221457Y562697D02*
Y567520D01*
X511417Y394488D02*
X511417Y394488D01*
X485433Y388189D02*
X488583D01*
X484252Y383465D02*
X488583D01*
X500787Y371260D02*
Y374409D01*
X508661Y371260D02*
Y374409D01*
X508661Y374409D02*
X508661Y374409D01*
X222047Y648524D02*
Y651968D01*
X492913Y371260D02*
Y374409D01*
X492913Y371260D02*
X492913Y371260D01*
X511417Y377165D02*
X514567D01*
X514567Y377165D01*
X507087Y392913D02*
Y397244D01*
X505512D02*
Y399213D01*
X506693Y400394D01*
X483858Y392913D02*
X488583D01*
X484252Y394488D02*
X488583D01*
X474409Y404331D02*
X484252Y394488D01*
X474409Y404331D02*
Y408268D01*
X470944Y405828D02*
Y413308D01*
X470866Y413386D02*
X470944Y413308D01*
X511417Y392913D02*
X511417Y392913D01*
X508661Y397244D02*
Y399213D01*
X514567Y405118D01*
X503937Y397244D02*
Y400394D01*
X508661Y405118D01*
X485433Y380315D02*
X488583D01*
X489764Y568898D02*
Y575984D01*
X440945Y579921D02*
X470866D01*
X425906Y565354D02*
X486221D01*
X489764Y568898D01*
X470944Y405828D02*
X483858Y392913D01*
X484252Y379134D02*
X485433Y380315D01*
X421811Y569449D02*
X425906Y565354D01*
X417323Y385276D02*
X421654Y389606D01*
D38*
X379134Y336614D02*
Y342350D01*
X236614Y501181D02*
X242350D01*
X242354Y486220D02*
X242354Y486221D01*
X236614Y471260D02*
X242350D01*
X236614Y424409D02*
X242350D01*
X236614Y394488D02*
X242350D01*
X504921Y334488D02*
Y338386D01*
X349213Y336614D02*
Y342307D01*
X349169Y342350D02*
X349213Y342307D01*
X364173Y349213D02*
Y353602D01*
X364173Y353602D02*
X364173Y353602D01*
Y342354D02*
Y349213D01*
X364173Y342354D02*
X364173Y342354D01*
X302398Y336650D02*
Y342350D01*
X272398D02*
X272441Y342307D01*
Y336614D02*
Y342307D01*
X287402Y342354D02*
Y349213D01*
X242354Y409449D02*
X249213D01*
Y486221D02*
X253602D01*
X253602Y486220D01*
X242354Y486221D02*
X249213D01*
X287398Y342350D02*
X287402Y342354D01*
X256634Y409449D02*
X259843D01*
X364173Y356634D02*
Y359843D01*
X287402Y356634D02*
Y359843D01*
X242350Y409453D02*
X242354Y409449D01*
X364169Y342350D02*
X364173Y342354D01*
X242350Y486224D02*
X242354Y486220D01*
X256634D02*
X259843D01*
X242354Y409449D02*
X242354Y409449D01*
X287402Y342354D02*
X287402Y342354D01*
X495079Y334488D02*
Y338583D01*
X510827Y334488D02*
Y337992D01*
X489173Y334488D02*
Y337992D01*
X287402Y349213D02*
Y353602D01*
Y356634D01*
X364173Y353602D02*
Y356634D01*
X364173Y353602D02*
X364173Y353602D01*
X256634Y409449D02*
X256634Y409449D01*
X253602Y409449D02*
X256634D01*
X249213D02*
X253602D01*
Y486221D02*
X256634D01*
X256634Y486220D01*
D39*
X318898Y574803D02*
X322047Y577953D01*
X312598Y574803D02*
X315748Y577953D01*
X315748D02*
X318898Y574803D01*
X320472Y570079D02*
X322047Y568504D01*
X320472Y566929D02*
X322047Y568504D01*
X323622Y566929D02*
X326772Y570079D01*
X351969Y560630D02*
X353543Y559055D01*
X329921Y579528D02*
X331496Y577953D01*
X326772Y585827D02*
X328346Y587402D01*
X336220Y579528D02*
X337795Y577953D01*
X333071Y585827D02*
X334646Y587402D01*
X325197Y593701D02*
X326772Y595276D01*
X295669Y577559D02*
X296457D01*
X297638Y576378D01*
X298425D01*
X295669Y573228D02*
X295669Y573228D01*
X298425D01*
X326772Y595276D02*
X328346Y596850D01*
X326772Y598425D02*
X328346Y600000D01*
X333071Y598425D02*
X334646Y600000D01*
X339370Y598425D02*
X340945Y600000D01*
X342520Y588976D02*
X344094Y590551D01*
X342520Y601575D02*
X344094Y603150D01*
X329921Y607874D02*
X331496Y609449D01*
X339370Y611024D02*
X340945Y612598D01*
X345669Y592126D02*
X347244Y593701D01*
X348819Y582677D02*
X350394Y581102D01*
X351969Y604724D02*
X354724D01*
X348819Y614173D02*
X350394Y615748D01*
X333071Y566929D02*
X334646Y565354D01*
X342520Y570079D02*
X344094Y568504D01*
X345669Y560630D02*
X347244Y559055D01*
X329921Y576378D02*
X331496Y574803D01*
X351969Y573228D02*
X353543Y571654D01*
X339370Y579528D02*
X340945Y577953D01*
X311024Y573228D02*
X312598Y571654D01*
X304724Y563779D02*
X307874Y566929D01*
X311024Y576378D02*
X312598Y574803D01*
X317323Y573228D02*
X318898Y574803D01*
X301575Y579528D02*
X303150Y577953D01*
X307874Y579528D02*
X309449Y577953D01*
X298425Y579528D02*
X300000Y581102D01*
X298425Y582677D02*
X300000Y581102D01*
X311024Y585827D02*
X312597Y587400D01*
X320473Y582677D02*
X322047Y584252D01*
X298425Y614173D02*
X300000Y615748D01*
X314173Y607873D02*
X315748Y606299D01*
X329921Y557874D02*
Y560630D01*
X336220Y573228D02*
X337795Y571654D01*
X345669Y576378D02*
X347244Y574803D01*
X348819Y566929D02*
X350394Y568504D01*
X323622Y585827D02*
X325197Y584252D01*
X326772Y588976D02*
X328346Y587402D01*
X333071Y588976D02*
X334646Y587402D01*
X323622Y592126D02*
X325197Y593701D01*
X329921Y592126D02*
X331496Y593701D01*
X323622Y598425D02*
X325197Y600000D01*
X323622Y611024D02*
X325197Y609449D01*
X336220Y592126D02*
X337795Y593701D01*
X333071Y595276D02*
X334646Y596850D01*
X336221Y604724D02*
X337796Y603148D01*
X339370Y582677D02*
X340945Y581102D01*
X339370Y582677D02*
X340945Y584252D01*
X351969Y588976D02*
X354724D01*
X351969Y614173D02*
X353543Y615748D01*
X314173Y579528D02*
X315748Y581102D01*
X320472Y579528D02*
X322047Y581102D01*
X326772Y579528D02*
X328346Y577953D01*
X314173Y592126D02*
X315748Y590551D01*
X317323Y582677D02*
X318898Y584252D01*
X320472Y592126D02*
X322047Y593701D01*
X326772Y592126D02*
X328346Y593701D01*
X329921Y582677D02*
X331496Y581102D01*
X333071Y592126D02*
X334646Y593701D01*
X329921Y595276D02*
X331496Y596850D01*
X336221Y582677D02*
X337795Y584252D01*
X336220Y588976D02*
X337795Y590551D01*
X306299Y596850D02*
X307874Y595276D01*
X307874D01*
X300000Y600000D02*
X301575Y598425D01*
X295669Y592126D02*
X298425D01*
X296850Y609449D02*
X298425Y607874D01*
X306299Y612598D02*
X307874Y611024D01*
X315748Y615748D02*
X317323Y614173D01*
X306299Y568504D02*
X307874Y566929D01*
X303150Y606299D02*
X304724Y604724D01*
X300000Y615748D02*
X301575Y614173D01*
X318898Y606299D02*
X320472Y604724D01*
X322047Y568504D02*
X323622Y566929D01*
X337795Y593701D02*
X339370Y595276D01*
X315748Y600000D02*
X317323Y598425D01*
X312598Y587401D02*
X314173Y588976D01*
X312598Y565354D02*
X314173Y566929D01*
X303150Y559055D02*
X304724Y560630D01*
X309449Y593701D02*
Y593701D01*
Y603150D02*
X311024Y601575D01*
X300000Y565354D02*
X301575Y566929D01*
X296850Y562205D02*
X298425Y563780D01*
X322047Y590551D02*
X323622Y588976D01*
Y588976D02*
Y588976D01*
X322047Y562205D02*
X323622Y560630D01*
X322047Y562205D02*
X323622Y563780D01*
X318898Y596850D02*
X320472Y595276D01*
X322047Y593701D02*
X323622Y595276D01*
X315748Y559055D02*
X317323Y560630D01*
X309449Y559055D02*
X311024Y560630D01*
X303150Y577953D02*
X304724Y579528D01*
X344094Y606299D02*
X345669Y607874D01*
X331496Y612598D02*
X333071Y614173D01*
X322047Y581102D02*
X323622Y582677D01*
X312598Y571654D02*
X314173Y573228D01*
X296850Y559055D02*
X298425Y560630D01*
X303150Y571654D02*
X304724Y573228D01*
X334646Y593701D02*
X336220Y595275D01*
X300000Y568504D02*
X301575Y570079D01*
X315748Y562205D02*
X317323Y563779D01*
X328346Y596850D02*
X329921Y598425D01*
X347244Y596850D02*
X348819Y598425D01*
X325197Y600000D02*
X326772Y601575D01*
X340945Y584252D02*
X342520Y585827D01*
X331496Y581102D02*
X333071Y579528D01*
X315748Y590551D02*
X317323Y588976D01*
X309449Y590551D02*
X311024Y588976D01*
X315748Y593701D02*
X317323Y592126D01*
X309449Y577953D02*
X311024Y576378D01*
X303150Y577953D02*
X304724Y576378D01*
X300000Y581102D02*
X301575Y579528D01*
X318898Y574803D02*
X320472Y573228D01*
X318898Y600000D02*
X320472Y598425D01*
X315748Y596850D02*
X317323Y595276D01*
X309449Y593701D02*
X311024Y592126D01*
X303150Y590551D02*
X304724Y588976D01*
X328346Y587402D02*
X329921Y588976D01*
X331496Y584252D02*
X333071Y582677D01*
X328346Y587402D02*
X329921Y585827D01*
X325197Y584252D02*
X326772Y585827D01*
X325197Y584252D02*
X326772Y582677D01*
X309449Y562205D02*
X311024Y563780D01*
X306299Y568504D02*
X307874Y570079D01*
X337795Y584252D02*
X339370Y585827D01*
X318898Y584252D02*
X320472Y585827D01*
X312598Y584252D02*
X314173Y585827D01*
X315748Y581102D02*
X317323Y582677D01*
X334646Y596850D02*
X336220Y598425D01*
X322047Y584252D02*
X323622Y585827D01*
X322047Y577953D02*
X323622Y579528D01*
X315748Y584252D02*
X317323Y585827D01*
X309449Y577953D02*
X311024Y579528D01*
X312598Y568504D02*
X314173Y570079D01*
X318898Y590551D02*
X320472Y588976D01*
X334646Y587402D02*
X336220Y585827D01*
X337795Y590551D02*
X339370Y592126D01*
X328346Y593701D02*
X329921Y595275D01*
X337795Y565354D02*
X339370Y563780D01*
X315748Y577953D02*
X317323Y579528D01*
D40*
X409449Y394488D02*
X426535D01*
X395669Y519685D02*
Y564173D01*
X383858Y575984D02*
X395669Y564173D01*
X371260Y575984D02*
X383858D01*
X322441Y633858D02*
X336221D01*
X426535Y394488D02*
X431653Y399606D01*
D41*
X337796Y603148D02*
X340944D01*
D42*
X469409Y609528D02*
X474803D01*
X469095Y609842D02*
Y613583D01*
X468504Y614173D02*
X469095Y613583D01*
X459449Y616535D02*
X462244D01*
X462244Y616535D01*
X457480Y604724D02*
X461024Y601181D01*
X468504Y614173D02*
Y617283D01*
D43*
X217598Y322047D02*
D03*
X573898D02*
D03*
Y672165D02*
D03*
X217598D02*
D03*
D44*
X421654Y649606D02*
D03*
X578740D02*
D03*
D45*
X421654Y639606D02*
D03*
Y629606D02*
D03*
Y619606D02*
D03*
Y609606D02*
D03*
Y599606D02*
D03*
Y589606D02*
D03*
Y579606D02*
D03*
Y569606D02*
D03*
Y559606D02*
D03*
Y549606D02*
D03*
Y539606D02*
D03*
Y529606D02*
D03*
Y519606D02*
D03*
Y509606D02*
D03*
Y499606D02*
D03*
Y489606D02*
D03*
Y479606D02*
D03*
Y469606D02*
D03*
Y459606D02*
D03*
Y449606D02*
D03*
Y439606D02*
D03*
Y429606D02*
D03*
Y419606D02*
D03*
Y409606D02*
D03*
Y399606D02*
D03*
Y389606D02*
D03*
Y379606D02*
D03*
Y369606D02*
D03*
Y359606D02*
D03*
X431653Y649606D02*
D03*
Y639606D02*
D03*
Y629606D02*
D03*
Y619606D02*
D03*
Y609606D02*
D03*
Y599606D02*
D03*
Y589606D02*
D03*
Y579606D02*
D03*
Y569606D02*
D03*
Y559606D02*
D03*
Y549606D02*
D03*
Y539606D02*
D03*
Y529606D02*
D03*
Y519606D02*
D03*
Y509606D02*
D03*
Y499606D02*
D03*
Y489606D02*
D03*
Y479606D02*
D03*
Y469606D02*
D03*
Y459606D02*
D03*
Y449606D02*
D03*
Y439606D02*
D03*
Y429606D02*
D03*
Y419606D02*
D03*
Y409606D02*
D03*
Y399606D02*
D03*
Y389606D02*
D03*
Y379606D02*
D03*
Y369606D02*
D03*
Y359606D02*
D03*
X521496Y677165D02*
D03*
X511496D02*
D03*
X501496D02*
D03*
X491496D02*
D03*
X481496D02*
D03*
X471496D02*
D03*
X461496D02*
D03*
X451496D02*
D03*
X441496D02*
D03*
X431496D02*
D03*
X421496D02*
D03*
X411496D02*
D03*
X401496D02*
D03*
X391496D02*
D03*
X381496D02*
D03*
X371496D02*
D03*
X361496D02*
D03*
X351496D02*
D03*
X341496D02*
D03*
X331496D02*
D03*
X321496D02*
D03*
X311496D02*
D03*
X301496D02*
D03*
X291496D02*
D03*
X281496D02*
D03*
X271496D02*
D03*
X261496D02*
D03*
X251496D02*
D03*
X241496D02*
D03*
X531496Y667165D02*
D03*
X521496D02*
D03*
X511496D02*
D03*
X501496D02*
D03*
X491496D02*
D03*
X481496D02*
D03*
X471496D02*
D03*
X461496D02*
D03*
X451496D02*
D03*
X441496D02*
D03*
X431496D02*
D03*
X421496D02*
D03*
X411496D02*
D03*
X401496D02*
D03*
X391496D02*
D03*
X381496D02*
D03*
X371496D02*
D03*
X361496D02*
D03*
X351496D02*
D03*
X341496D02*
D03*
X331496D02*
D03*
X321496D02*
D03*
X311496D02*
D03*
X301496D02*
D03*
X291496D02*
D03*
X281496D02*
D03*
X271496D02*
D03*
X261496D02*
D03*
X251496D02*
D03*
X241496D02*
D03*
X578740Y639606D02*
D03*
Y629606D02*
D03*
Y619606D02*
D03*
Y609606D02*
D03*
Y599606D02*
D03*
Y589606D02*
D03*
Y579606D02*
D03*
Y569606D02*
D03*
Y559606D02*
D03*
Y549606D02*
D03*
Y539606D02*
D03*
Y529606D02*
D03*
Y519606D02*
D03*
Y509606D02*
D03*
Y499606D02*
D03*
Y489606D02*
D03*
Y479606D02*
D03*
Y469606D02*
D03*
Y459606D02*
D03*
Y449606D02*
D03*
Y439606D02*
D03*
Y429606D02*
D03*
Y419606D02*
D03*
Y409606D02*
D03*
Y399606D02*
D03*
Y389606D02*
D03*
Y379606D02*
D03*
Y369606D02*
D03*
Y359606D02*
D03*
X568740Y649606D02*
D03*
Y639606D02*
D03*
Y629606D02*
D03*
Y619606D02*
D03*
Y609606D02*
D03*
Y599606D02*
D03*
Y589606D02*
D03*
Y579606D02*
D03*
Y569606D02*
D03*
Y559606D02*
D03*
Y549606D02*
D03*
Y539606D02*
D03*
Y529606D02*
D03*
Y519606D02*
D03*
Y509606D02*
D03*
Y499606D02*
D03*
Y489606D02*
D03*
Y479606D02*
D03*
Y469606D02*
D03*
Y459606D02*
D03*
Y449606D02*
D03*
Y439606D02*
D03*
Y429606D02*
D03*
Y419606D02*
D03*
Y409606D02*
D03*
Y399606D02*
D03*
Y389606D02*
D03*
Y379606D02*
D03*
Y369606D02*
D03*
Y359606D02*
D03*
D46*
X531496Y677165D02*
D03*
D47*
X233059Y511303D02*
D03*
Y461146D02*
D03*
Y434531D02*
D03*
Y384374D02*
D03*
D48*
X262319Y333059D02*
D03*
X312476D02*
D03*
X339090D02*
D03*
X389248D02*
D03*
D49*
X517677Y310079D02*
D03*
X482323D02*
D03*
D50*
X514173Y332283D02*
D03*
D51*
X488976Y329724D02*
D03*
X495276D02*
D03*
X498425D02*
D03*
X501575D02*
D03*
X504724D02*
D03*
X511024D02*
D03*
X490551Y326969D02*
D03*
X493701D02*
D03*
X496850D02*
D03*
X503150D02*
D03*
X506299D02*
D03*
X509449D02*
D03*
X485827Y332283D02*
D03*
D52*
X483740Y327362D02*
D03*
X516260D02*
D03*
D53*
X295669Y577559D02*
D03*
X306299Y596850D02*
D03*
X303150Y593701D02*
D03*
X300000Y600000D02*
D03*
X295669Y573228D02*
D03*
Y592126D02*
D03*
X318898Y606299D02*
D03*
X331496Y571654D02*
D03*
X334646Y568504D02*
D03*
X337795Y571654D02*
D03*
X328346D02*
D03*
X322047Y568504D02*
D03*
X328346Y574803D02*
D03*
Y577953D02*
D03*
X340944Y603148D02*
D03*
X315748Y600000D02*
D03*
X309449Y596850D02*
D03*
X312598D02*
D03*
X312598Y587400D02*
D03*
X315747Y603148D02*
D03*
X344094Y587402D02*
D03*
Y590551D02*
D03*
Y593701D02*
D03*
X312598Y565354D02*
D03*
X309449Y562205D02*
D03*
Y565354D02*
D03*
X303150D02*
D03*
Y559055D02*
D03*
X306299Y568504D02*
D03*
Y603150D02*
D03*
X309449Y600000D02*
D03*
Y593701D02*
D03*
X306299Y600000D02*
D03*
X303150D02*
D03*
X309449Y603150D02*
D03*
X296850D02*
D03*
X296850Y609449D02*
D03*
X306299Y574803D02*
D03*
Y571654D02*
D03*
X300000Y565354D02*
D03*
X296850Y562205D02*
D03*
X354724Y601967D02*
D03*
X322047Y562205D02*
D03*
X303150Y568504D02*
D03*
X309449D02*
D03*
X315748D02*
D03*
Y565354D02*
D03*
X337795Y584252D02*
D03*
X322047Y593701D02*
D03*
X325197Y584252D02*
D03*
X315748Y559055D02*
D03*
X354724Y588976D02*
D03*
X300000Y581102D02*
D03*
X315748Y577953D02*
D03*
X318898Y574803D02*
D03*
X309449Y577953D02*
D03*
X303150D02*
D03*
X306299Y615748D02*
D03*
X300000Y615748D02*
D03*
X306299Y612598D02*
D03*
X350394Y577953D02*
D03*
X353543Y574803D02*
D03*
X353543Y559055D02*
D03*
X303150Y590551D02*
D03*
X344094Y606299D02*
D03*
X340945Y609449D02*
D03*
X315748Y615748D02*
D03*
X318898Y603150D02*
D03*
X315748Y606299D02*
D03*
X325197Y609449D02*
D03*
X331496Y612598D02*
D03*
X344094Y571654D02*
D03*
X331496Y581102D02*
D03*
X315748Y590551D02*
D03*
X334646Y600000D02*
D03*
X296850Y559055D02*
D03*
X312598Y568504D02*
D03*
Y574803D02*
D03*
X322047Y577953D02*
D03*
X331496D02*
D03*
Y584252D02*
D03*
X315748Y593701D02*
D03*
X340945Y581102D02*
D03*
X318898Y596850D02*
D03*
X337795Y593701D02*
D03*
X353543Y615748D02*
D03*
X350394D02*
D03*
X340945Y612598D02*
D03*
X347244Y593701D02*
D03*
X353543Y571654D02*
D03*
X340945Y577953D02*
D03*
X312598Y571654D02*
D03*
X331496Y574803D02*
D03*
X322047Y581102D02*
D03*
X318898Y600000D02*
D03*
X315748Y596850D02*
D03*
X322047Y590551D02*
D03*
X334646Y593701D02*
D03*
X334646Y596850D02*
D03*
X328346Y587402D02*
D03*
X309449Y559055D02*
D03*
X315748Y581102D02*
D03*
X303150Y571654D02*
D03*
X300000Y568504D02*
D03*
X315748Y562205D02*
D03*
X312598Y584252D02*
D03*
X318898D02*
D03*
X322047D02*
D03*
X315748Y584252D02*
D03*
X328346Y596850D02*
D03*
X331496Y593701D02*
D03*
X354724Y604724D02*
D03*
X309449Y581102D02*
D03*
Y590551D02*
D03*
X312598Y581102D02*
D03*
X322047Y574803D02*
D03*
Y571654D02*
D03*
X347244Y596850D02*
D03*
X344094D02*
D03*
Y581102D02*
D03*
X325197Y600000D02*
D03*
X331496Y596850D02*
D03*
X325197Y593701D02*
D03*
X340945Y584252D02*
D03*
X337795Y577953D02*
D03*
X347244Y574803D02*
D03*
X350394Y568504D02*
D03*
X350394Y581102D02*
D03*
X318898Y590551D02*
D03*
X340945Y600000D02*
D03*
X344094Y603150D02*
D03*
X331496Y609449D02*
D03*
X334646Y587402D02*
D03*
X337795Y590551D02*
D03*
X328346Y593701D02*
D03*
X331496Y603150D02*
D03*
X328346Y600000D02*
D03*
X334646Y571654D02*
D03*
X337795Y565354D02*
D03*
X334646Y565354D02*
D03*
X329921Y557874D02*
D03*
X331496Y568504D02*
D03*
X347244Y559055D02*
D03*
X344094D02*
D03*
Y568504D02*
D03*
X303150Y606299D02*
D03*
X306299Y609449D02*
D03*
X309449Y606299D02*
D03*
X331496Y565354D02*
D03*
D54*
X480315Y554724D02*
D03*
X409055Y479134D02*
D03*
X386221D02*
D03*
X267717Y544882D02*
D03*
X279528Y502362D02*
D03*
X255118Y507874D02*
D03*
X409055Y482283D02*
D03*
X267717Y541732D02*
D03*
X258268Y507874D02*
D03*
X386221Y482283D02*
D03*
X279528Y505512D02*
D03*
X547244Y586221D02*
D03*
X521654Y523228D02*
D03*
Y526378D02*
D03*
Y533071D02*
D03*
Y536221D02*
D03*
X468504Y523228D02*
D03*
Y526378D02*
D03*
Y533071D02*
D03*
Y536221D02*
D03*
X437795Y523228D02*
D03*
Y526378D02*
D03*
Y533071D02*
D03*
Y536221D02*
D03*
X412205Y637402D02*
D03*
X245669Y589764D02*
D03*
X288976Y464173D02*
D03*
X291732Y466142D02*
D03*
X296850Y462205D02*
D03*
X299606Y464173D02*
D03*
X523228Y388189D02*
D03*
X504921Y338386D02*
D03*
X501968Y338583D02*
D03*
X499213D02*
D03*
X296063Y383071D02*
D03*
X307874Y379528D02*
D03*
X292913Y383071D02*
D03*
X307874Y376378D02*
D03*
X296457Y679921D02*
D03*
X391929Y629331D02*
D03*
X484252Y383465D02*
D03*
Y379134D02*
D03*
Y375197D02*
D03*
X516929Y398425D02*
D03*
Y394488D02*
D03*
X268110Y552756D02*
D03*
Y582283D02*
D03*
X263386Y577559D02*
D03*
X254331Y577559D02*
D03*
X263386Y584646D02*
D03*
Y548032D02*
D03*
Y555118D02*
D03*
X268189Y565276D02*
D03*
X268238Y594360D02*
D03*
X242913Y597638D02*
D03*
Y568110D02*
D03*
X245669Y560236D02*
D03*
X287402Y439764D02*
D03*
X308661Y451181D02*
D03*
X295374Y439764D02*
D03*
X279626D02*
D03*
X266142Y451181D02*
D03*
X287500Y460630D02*
D03*
X511417Y447244D02*
D03*
X515354D02*
D03*
X520472Y442520D02*
D03*
X524409D02*
D03*
X492913Y446850D02*
D03*
Y450000D02*
D03*
X480315Y446850D02*
D03*
Y450000D02*
D03*
Y459449D02*
D03*
Y462598D02*
D03*
X522047Y464961D02*
D03*
X284252Y562992D02*
D03*
Y569291D02*
D03*
X523228Y474409D02*
D03*
X501968Y469291D02*
D03*
X388386Y541339D02*
D03*
X214173Y578346D02*
D03*
X218602Y583268D02*
D03*
X384154Y536713D02*
D03*
X378051Y536713D02*
D03*
X373425Y540551D02*
D03*
X229085Y575148D02*
D03*
X229134Y579134D02*
D03*
X221457Y562697D02*
D03*
X369291Y550345D02*
D03*
X349213Y336614D02*
D03*
X379134D02*
D03*
X364173Y349213D02*
D03*
X302398Y336650D02*
D03*
X272441Y336614D02*
D03*
X287402Y349213D02*
D03*
X249213Y409449D02*
D03*
Y486221D02*
D03*
X236614Y501181D02*
D03*
Y471260D02*
D03*
Y394488D02*
D03*
Y424409D02*
D03*
X336614Y655118D02*
D03*
X299606Y529921D02*
D03*
X296457D02*
D03*
X316929Y384646D02*
D03*
X304331Y529921D02*
D03*
X320079Y384646D02*
D03*
X307480Y529921D02*
D03*
X372835Y382677D02*
D03*
X369685D02*
D03*
X278740Y379134D02*
D03*
X274410Y535039D02*
D03*
X281890Y379134D02*
D03*
X274410Y531890D02*
D03*
X279528Y491732D02*
D03*
Y494882D02*
D03*
X287402Y359843D02*
D03*
X259843Y409449D02*
D03*
X364173Y359843D02*
D03*
X259843Y486220D02*
D03*
X499213Y359843D02*
D03*
Y362598D02*
D03*
X502362Y352756D02*
D03*
Y355512D02*
D03*
X464961Y391339D02*
D03*
Y394488D02*
D03*
Y377165D02*
D03*
Y380315D02*
D03*
X307087Y545276D02*
D03*
X300787D02*
D03*
X337008Y638189D02*
D03*
X311811Y637402D02*
D03*
X500787Y371260D02*
D03*
X508661D02*
D03*
X218504Y630709D02*
D03*
Y616929D02*
D03*
X519291Y640945D02*
D03*
Y628346D02*
D03*
Y616142D02*
D03*
Y603543D02*
D03*
Y590945D02*
D03*
Y578346D02*
D03*
X218406Y646752D02*
D03*
X222047Y651968D02*
D03*
X491732Y465354D02*
D03*
X269291Y634252D02*
D03*
X265354D02*
D03*
X283465Y598819D02*
D03*
Y591732D02*
D03*
Y583071D02*
D03*
Y575984D02*
D03*
X318110Y543701D02*
D03*
X332283D02*
D03*
X366929Y575984D02*
D03*
Y583071D02*
D03*
Y598819D02*
D03*
X321654Y629134D02*
D03*
X328740D02*
D03*
X489764Y579921D02*
D03*
Y583858D02*
D03*
X482598Y587008D02*
D03*
X482677Y572441D02*
D03*
X366929Y608268D02*
D03*
X477559Y613386D02*
D03*
X492913Y371260D02*
D03*
X514567Y377165D02*
D03*
X272835Y637894D02*
D03*
X272736Y643209D02*
D03*
X506693Y400394D02*
D03*
X525591Y421260D02*
D03*
Y425197D02*
D03*
Y417323D02*
D03*
Y413386D02*
D03*
X478740Y373228D02*
D03*
X481890Y370079D02*
D03*
X474409Y408268D02*
D03*
X470866Y413386D02*
D03*
X514567Y405118D02*
D03*
X495079Y338583D02*
D03*
X489173Y337992D02*
D03*
X510827D02*
D03*
X527953Y459842D02*
D03*
Y455118D02*
D03*
X508661Y405118D02*
D03*
X511811Y431496D02*
D03*
X516535Y434646D02*
D03*
X541732Y418504D02*
D03*
X533858Y413386D02*
D03*
X473622Y372047D02*
D03*
X525591Y429134D02*
D03*
X254331Y611811D02*
D03*
X240158Y627559D02*
D03*
X270472Y528346D02*
D03*
X401181Y611024D02*
D03*
Y641732D02*
D03*
X404839Y611024D02*
D03*
X408661Y641732D02*
D03*
X404839D02*
D03*
X408661Y611024D02*
D03*
X366929Y591732D02*
D03*
X372441Y589370D02*
D03*
X369291Y595237D02*
D03*
X397244Y641732D02*
D03*
X437795Y647244D02*
D03*
Y651968D02*
D03*
X265157Y648228D02*
D03*
Y659252D02*
D03*
X450000Y654818D02*
D03*
X442913D02*
D03*
X237402Y608268D02*
D03*
X459449Y616535D02*
D03*
X489764Y575984D02*
D03*
X470866Y579921D02*
D03*
X440945D02*
D03*
X478819Y587087D02*
D03*
X465354Y594095D02*
D03*
X440945Y571260D02*
D03*
X437402Y594095D02*
D03*
Y585827D02*
D03*
X224705Y583169D02*
D03*
X457480Y604724D02*
D03*
X457480Y590158D02*
D03*
X460630Y592520D02*
D03*
X248524Y565650D02*
D03*
X240256Y558268D02*
D03*
X218504Y558268D02*
D03*
Y555118D02*
D03*
X457480Y595276D02*
D03*
X461811Y574409D02*
D03*
X457480D02*
D03*
X223622Y532677D02*
D03*
X429134Y330709D02*
D03*
X423902D02*
D03*
X254331Y548032D02*
D03*
X419685Y330709D02*
D03*
X262205Y601968D02*
D03*
X234252Y531102D02*
D03*
X434252Y335433D02*
D03*
X296850Y630315D02*
D03*
X336476Y645138D02*
D03*
X336437Y650000D02*
D03*
X397638Y611024D02*
D03*
X412205Y641732D02*
D03*
X408661Y637402D02*
D03*
X257874Y684646D02*
D03*
X277953Y480709D02*
D03*
X287795Y480709D02*
D03*
X277953Y477559D02*
D03*
X287795D02*
D03*
X414173Y567323D02*
D03*
X463386Y560630D02*
D03*
X251181Y533465D02*
D03*
X441339Y337402D02*
D03*
X475984Y547244D02*
D03*
X372835Y653543D02*
D03*
Y649606D02*
D03*
X383858Y603937D02*
D03*
X390945D02*
D03*
X395276Y575197D02*
D03*
Y583858D02*
D03*
X381496Y652362D02*
D03*
Y659842D02*
D03*
X547244Y608268D02*
D03*
X299886Y620472D02*
D03*
X303543Y620472D02*
D03*
X311811Y657874D02*
D03*
X302870Y639090D02*
D03*
X299606Y638976D02*
D03*
X367717Y641732D02*
D03*
X364173Y640551D02*
D03*
X361811Y618110D02*
D03*
X484252Y388189D02*
D03*
X360630Y639370D02*
D03*
X357087Y638189D02*
D03*
X329134Y543701D02*
D03*
X321260D02*
D03*
X374193Y547638D02*
D03*
X289370Y627559D02*
D03*
X245276Y648425D02*
D03*
X346063Y651968D02*
D03*
Y655512D02*
D03*
X336614Y672047D02*
D03*
X346457D02*
D03*
X350000D02*
D03*
X342913D02*
D03*
X356693Y653543D02*
D03*
Y658661D02*
D03*
X333071Y672047D02*
D03*
X370079Y528346D02*
D03*
X372835Y527165D02*
D03*
X485039Y515748D02*
D03*
Y511811D02*
D03*
Y507874D02*
D03*
Y503937D02*
D03*
Y492126D02*
D03*
Y496063D02*
D03*
Y500000D02*
D03*
X521654Y515748D02*
D03*
Y511811D02*
D03*
X521654Y507874D02*
D03*
Y503937D02*
D03*
Y500000D02*
D03*
X521654Y496063D02*
D03*
Y492126D02*
D03*
X583858Y516929D02*
D03*
Y512598D02*
D03*
X398228Y619095D02*
D03*
X498032Y344488D02*
D03*
X381102Y543701D02*
D03*
Y546654D02*
D03*
Y540748D02*
D03*
X221654Y575984D02*
D03*
Y573032D02*
D03*
Y578937D02*
D03*
X256299Y589764D02*
D03*
X252362D02*
D03*
X256299Y585827D02*
D03*
X252362D02*
D03*
X256299Y560236D02*
D03*
X252362D02*
D03*
X256299Y556299D02*
D03*
X252362D02*
D03*
X278642Y450197D02*
D03*
X299311Y448229D02*
D03*
Y452166D02*
D03*
X296358Y450197D02*
D03*
X275689Y452166D02*
D03*
Y448229D02*
D03*
X281595D02*
D03*
X284547Y450197D02*
D03*
X287500Y452166D02*
D03*
X281595D02*
D03*
X287500Y448229D02*
D03*
X290453Y450197D02*
D03*
X293406Y448229D02*
D03*
Y452166D02*
D03*
X493504Y392323D02*
D03*
X497835D02*
D03*
X502165D02*
D03*
X506496D02*
D03*
X493504Y387992D02*
D03*
X497835D02*
D03*
X502165D02*
D03*
X506496D02*
D03*
X493504Y383661D02*
D03*
X497835D02*
D03*
X502165D02*
D03*
X506496D02*
D03*
X493504Y379331D02*
D03*
X497835D02*
D03*
X502165D02*
D03*
X506496D02*
D03*
X497736Y458760D02*
D03*
Y463287D02*
D03*
X502264D02*
D03*
Y458760D02*
D03*
X500000Y461024D02*
D03*
X520471Y381102D02*
D03*
X520472Y383858D02*
D03*
X364567Y531496D02*
D03*
X367323Y529921D02*
D03*
X314566Y625196D02*
D03*
Y630707D02*
D03*
X314567Y627953D02*
D03*
D55*
X409449Y394488D02*
D03*
X395669Y519685D02*
D03*
X371260Y575984D02*
D03*
X322441Y633858D02*
D03*
X336221D02*
D03*
X469685Y659842D02*
D03*
X463386D02*
D03*
X284252Y549606D02*
D03*
X287402Y516929D02*
D03*
X294488D02*
D03*
X301969D02*
D03*
X309449D02*
D03*
X319291D02*
D03*
X279921D02*
D03*
X282283Y469291D02*
D03*
X310236D02*
D03*
X323228D02*
D03*
X333071D02*
D03*
X293307Y411811D02*
D03*
X309055D02*
D03*
X323228D02*
D03*
X333071D02*
D03*
X505224Y348031D02*
D03*
X494776D02*
D03*
X364173Y375197D02*
D03*
X287402D02*
D03*
X332677Y382677D02*
D03*
X373622Y475197D02*
D03*
X377165Y411811D02*
D03*
X392126Y375197D02*
D03*
X261417Y516929D02*
D03*
X269685Y614173D02*
D03*
X276378Y621654D02*
D03*
M02*
