G04 Layer_Physical_Order=2*
G04 Layer_Color=32768*
%FSLAX25Y25*%
%MOIN*%
G70*
G01*
G75*
%ADD35C,0.00500*%
%ADD36C,0.01181*%
%ADD38C,0.01000*%
%ADD55C,0.02362*%
%ADD56C,0.02000*%
%ADD57C,0.04000*%
%ADD58C,0.01968*%
G04:AMPARAMS|DCode=59|XSize=168.11mil|YSize=168.11mil|CornerRadius=0mil|HoleSize=0mil|Usage=FLASHONLY|Rotation=0.000|XOffset=0mil|YOffset=0mil|HoleType=Round|Shape=Relief|Width=20mil|Gap=5mil|Entries=4|*
%AMTHD59*
7,0,0,0.16811,0.15811,0.02000,45*
%
%ADD59THD59*%
%ADD60C,0.08016*%
G04:AMPARAMS|DCode=61|XSize=90.157mil|YSize=90.157mil|CornerRadius=0mil|HoleSize=0mil|Usage=FLASHONLY|Rotation=0.000|XOffset=0mil|YOffset=0mil|HoleType=Round|Shape=Relief|Width=20mil|Gap=5mil|Entries=4|*
%AMTHD61*
7,0,0,0.09016,0.08016,0.02000,45*
%
%ADD61THD61*%
%ADD62C,0.09906*%
%ADD63O,0.07740X0.06559*%
%ADD64C,0.04528*%
%ADD65C,0.05378*%
%ADD66C,0.06559*%
%ADD67C,0.07165*%
%ADD68C,0.02756*%
D35*
X573622Y584646D02*
Y585039D01*
X562992Y604957D02*
X563108Y604841D01*
D36*
X573622Y584646D02*
X593701D01*
X573622Y585039D02*
Y604841D01*
X562992Y614173D02*
X593701D01*
X562992Y604957D02*
Y614173D01*
X563108Y604841D02*
X573622D01*
X574016Y574803D02*
X593701D01*
X574016Y334252D02*
Y574803D01*
X535039Y311417D02*
X574803D01*
X528740D02*
X535039D01*
X574016Y334252D02*
X581496Y326772D01*
Y318110D02*
Y326772D01*
X574803Y311417D02*
X581496Y318110D01*
D38*
X512464Y322838D02*
G03*
X520056Y331886I3796J4524D01*
G01*
X479944D02*
G03*
X487536Y322838I3796J-4524D01*
G01*
X511973Y308550D02*
G03*
X511973Y311607I5704J1529D01*
G01*
X488027D02*
G03*
X488027Y308550I-5704J-1529D01*
G01*
D55*
X295669Y577559D02*
D03*
X300000Y600000D02*
D03*
X409055Y479134D02*
D03*
X386221D02*
D03*
X267717Y544882D02*
D03*
X279528Y502362D02*
D03*
X255118Y507874D02*
D03*
X409055Y482283D02*
D03*
X267717Y541732D02*
D03*
X258268Y507874D02*
D03*
X386221Y482283D02*
D03*
X279528Y505512D02*
D03*
X318898Y606299D02*
D03*
X547244Y586221D02*
D03*
X521654Y523228D02*
D03*
Y526378D02*
D03*
Y533071D02*
D03*
Y536221D02*
D03*
X468504Y523228D02*
D03*
Y526378D02*
D03*
Y533071D02*
D03*
Y536221D02*
D03*
X437795Y523228D02*
D03*
Y526378D02*
D03*
Y533071D02*
D03*
Y536221D02*
D03*
X412205Y637402D02*
D03*
X331496Y571654D02*
D03*
X328346Y571654D02*
D03*
Y574803D02*
D03*
Y577953D02*
D03*
X309449Y596850D02*
D03*
X312598D02*
D03*
X315747Y603148D02*
D03*
X344094Y587402D02*
D03*
Y590551D02*
D03*
Y593701D02*
D03*
X245669Y589764D02*
D03*
X288976Y464173D02*
D03*
X291732Y466142D02*
D03*
X296850Y462205D02*
D03*
X299606Y464173D02*
D03*
X523228Y388189D02*
D03*
X504921Y338386D02*
D03*
X501968Y338583D02*
D03*
X499213D02*
D03*
X296063Y383071D02*
D03*
X307874Y379528D02*
D03*
X292913Y383071D02*
D03*
X307874Y376378D02*
D03*
X296457Y679921D02*
D03*
X484252Y383465D02*
D03*
Y379134D02*
D03*
Y375197D02*
D03*
X516929Y398425D02*
D03*
X312598Y565354D02*
D03*
X309449Y565354D02*
D03*
X303150D02*
D03*
Y559055D02*
D03*
X306299Y603150D02*
D03*
X309449Y600000D02*
D03*
Y593701D02*
D03*
X306299Y600000D02*
D03*
X303150D02*
D03*
X309449Y603150D02*
D03*
X296850Y609449D02*
D03*
X306299Y574803D02*
D03*
Y571654D02*
D03*
X296850Y562205D02*
D03*
X354724Y601967D02*
D03*
X268110Y552756D02*
D03*
Y582283D02*
D03*
X263386Y577559D02*
D03*
Y584646D02*
D03*
Y548032D02*
D03*
Y555118D02*
D03*
X245669Y560236D02*
D03*
X287402Y439764D02*
D03*
X308661Y451181D02*
D03*
X295374Y439764D02*
D03*
X279626D02*
D03*
X266142Y451181D02*
D03*
X287500Y460630D02*
D03*
X480315Y446850D02*
D03*
Y450000D02*
D03*
Y459449D02*
D03*
Y462598D02*
D03*
X284252Y569291D02*
D03*
X388386Y541339D02*
D03*
X214173Y578346D02*
D03*
X218602Y583268D02*
D03*
X384154Y536713D02*
D03*
X229085Y575148D02*
D03*
X221457Y562697D02*
D03*
X369291Y550345D02*
D03*
X336614Y655118D02*
D03*
X303150Y568504D02*
D03*
X299606Y529921D02*
D03*
X296457D02*
D03*
X316929Y384646D02*
D03*
X309449Y568504D02*
D03*
X304331Y529921D02*
D03*
X320079Y384646D02*
D03*
X307480Y529921D02*
D03*
X372835Y382677D02*
D03*
X369685D02*
D03*
X278740Y379134D02*
D03*
X274410Y535039D02*
D03*
X281890Y379134D02*
D03*
X274410Y531890D02*
D03*
X279528Y491732D02*
D03*
Y494882D02*
D03*
X315748Y568504D02*
D03*
Y565354D02*
D03*
X337795Y584252D02*
D03*
X322047Y593701D02*
D03*
X306299Y612598D02*
D03*
X303150Y590551D02*
D03*
X315748Y615748D02*
D03*
X331496Y581102D02*
D03*
X315748Y590551D02*
D03*
X334646Y600000D02*
D03*
X350394Y615748D02*
D03*
X340945Y612598D02*
D03*
X347244Y593701D02*
D03*
X353543Y571654D02*
D03*
X340945Y577953D02*
D03*
X499213Y359843D02*
D03*
Y362598D02*
D03*
X502362Y352756D02*
D03*
Y355512D02*
D03*
X464961Y391339D02*
D03*
Y394488D02*
D03*
Y377165D02*
D03*
Y380315D02*
D03*
X312598Y571654D02*
D03*
X331496Y574803D02*
D03*
X322047Y581102D02*
D03*
X318898Y600000D02*
D03*
X315748Y596850D02*
D03*
X322047Y590551D02*
D03*
X334646Y593701D02*
D03*
X309449Y559055D02*
D03*
X315748Y581102D02*
D03*
X303150Y571654D02*
D03*
X300000Y568504D02*
D03*
X315748Y562205D02*
D03*
X312598Y584252D02*
D03*
X318898D02*
D03*
X354724Y604724D02*
D03*
X307087Y545276D02*
D03*
X337008Y638189D02*
D03*
X309449Y581102D02*
D03*
Y590551D02*
D03*
X312598Y581102D02*
D03*
X322047Y574803D02*
D03*
Y571654D02*
D03*
X344094Y596850D02*
D03*
Y581102D02*
D03*
X331496Y596850D02*
D03*
X500787Y371260D02*
D03*
X508661D02*
D03*
X350394Y581102D02*
D03*
X218406Y646752D02*
D03*
X222047Y651968D02*
D03*
X491732Y465354D02*
D03*
X265354Y634252D02*
D03*
X283465Y591732D02*
D03*
Y583071D02*
D03*
X332283Y543701D02*
D03*
X366929Y575984D02*
D03*
Y598819D02*
D03*
X328740Y629134D02*
D03*
X489764Y583858D02*
D03*
X366929Y608268D02*
D03*
X492913Y371260D02*
D03*
X514567Y377165D02*
D03*
X272736Y643209D02*
D03*
X506693Y400394D02*
D03*
X525591Y421260D02*
D03*
Y425197D02*
D03*
Y417323D02*
D03*
Y413386D02*
D03*
X478740Y373228D02*
D03*
X481890Y370079D02*
D03*
X474409Y408268D02*
D03*
X470866Y413386D02*
D03*
X514567Y405118D02*
D03*
X495079Y338583D02*
D03*
X527953Y459842D02*
D03*
Y455118D02*
D03*
X541732Y418504D02*
D03*
X533858Y413386D02*
D03*
X473622Y372047D02*
D03*
X525591Y429134D02*
D03*
X270472Y528346D02*
D03*
X340945Y600000D02*
D03*
X344094Y603150D02*
D03*
X401181Y611024D02*
D03*
Y641732D02*
D03*
X404839Y611024D02*
D03*
X408661Y641732D02*
D03*
X404839D02*
D03*
X408661Y611024D02*
D03*
X372441Y589370D02*
D03*
X369291Y595237D02*
D03*
X397244Y641732D02*
D03*
X437795Y647244D02*
D03*
Y651968D02*
D03*
X265157Y648228D02*
D03*
Y659252D02*
D03*
X450000Y654818D02*
D03*
X442913D02*
D03*
X237402Y608268D02*
D03*
X459449Y616535D02*
D03*
X489764Y575984D02*
D03*
X470866Y579921D02*
D03*
X440945D02*
D03*
X478819Y587087D02*
D03*
X465354Y594095D02*
D03*
X440945Y571260D02*
D03*
X437402Y594095D02*
D03*
Y585827D02*
D03*
X457480Y590158D02*
D03*
X460630Y592520D02*
D03*
X248524Y565650D02*
D03*
X240256Y558268D02*
D03*
X218504Y558268D02*
D03*
Y555118D02*
D03*
X457480Y595276D02*
D03*
X461811Y574409D02*
D03*
X457480D02*
D03*
X223622Y532677D02*
D03*
X429134Y330709D02*
D03*
X423902D02*
D03*
X419685D02*
D03*
X262205Y601968D02*
D03*
X234252Y531102D02*
D03*
X434252Y335433D02*
D03*
X296850Y630315D02*
D03*
X336476Y645138D02*
D03*
X336437Y650000D02*
D03*
X397638Y611024D02*
D03*
X412205Y641732D02*
D03*
X408661Y637402D02*
D03*
X257874Y684646D02*
D03*
X277953Y480709D02*
D03*
X287795Y480709D02*
D03*
X277953Y477559D02*
D03*
X287795D02*
D03*
X414173Y567323D02*
D03*
X463386Y560630D02*
D03*
X251181Y533465D02*
D03*
X441339Y337402D02*
D03*
X372835Y653543D02*
D03*
Y649606D02*
D03*
X383858Y603937D02*
D03*
X390945D02*
D03*
X395276Y575197D02*
D03*
Y583858D02*
D03*
X381496Y652362D02*
D03*
Y659842D02*
D03*
X547244Y608268D02*
D03*
X299886Y620472D02*
D03*
X303543Y620472D02*
D03*
X311811Y657874D02*
D03*
X302870Y639090D02*
D03*
X299606Y638976D02*
D03*
X367717Y641732D02*
D03*
X364173Y640551D02*
D03*
X361811Y618110D02*
D03*
X331496Y609449D02*
D03*
X337795Y590551D02*
D03*
X328346Y593701D02*
D03*
X331496Y603150D02*
D03*
X328346Y600000D02*
D03*
X334646Y571654D02*
D03*
X334646Y565354D02*
D03*
X331496Y568504D02*
D03*
X347244Y559055D02*
D03*
X344094Y568504D02*
D03*
X306299Y609449D02*
D03*
X309449Y606299D02*
D03*
X484252Y388189D02*
D03*
X360630Y639370D02*
D03*
X357087Y638189D02*
D03*
X329134Y543701D02*
D03*
X374193Y547638D02*
D03*
X289370Y627559D02*
D03*
X245276Y648425D02*
D03*
X346063Y651968D02*
D03*
Y655512D02*
D03*
X336614Y672047D02*
D03*
X346457D02*
D03*
X350000D02*
D03*
X342913D02*
D03*
X356693Y653543D02*
D03*
Y658661D02*
D03*
X333071Y672047D02*
D03*
X331496Y565354D02*
D03*
X370079Y528346D02*
D03*
X372835Y527165D02*
D03*
X485039Y515748D02*
D03*
Y511811D02*
D03*
Y507874D02*
D03*
Y503937D02*
D03*
Y492126D02*
D03*
Y496063D02*
D03*
Y500000D02*
D03*
X521654Y515748D02*
D03*
Y511811D02*
D03*
X521654Y507874D02*
D03*
Y503937D02*
D03*
Y500000D02*
D03*
X521654Y496063D02*
D03*
Y492126D02*
D03*
X583858Y516929D02*
D03*
Y512598D02*
D03*
X398228Y619095D02*
D03*
X498032Y344488D02*
D03*
X520471Y381102D02*
D03*
X520472Y383858D02*
D03*
X364567Y531496D02*
D03*
X367323Y529921D02*
D03*
X314566Y625196D02*
D03*
Y630707D02*
D03*
X314567Y627953D02*
D03*
D56*
X471260Y344488D02*
X528740D01*
Y311417D02*
Y344488D01*
X471260Y300000D02*
Y344488D01*
D57*
X200000Y300000D02*
X593701D01*
Y693701D01*
X200000D02*
X593701D01*
X200000Y300000D02*
Y693701D01*
D58*
X505905Y401575D02*
Y409449D01*
Y401575D02*
X511220D01*
Y389764D02*
Y401575D01*
Y389764D02*
X520015D01*
Y436944D01*
X505892D02*
X520015D01*
X505892Y409972D02*
Y436944D01*
D59*
X217598Y322047D02*
D03*
X573898D02*
D03*
Y672165D02*
D03*
X217598D02*
D03*
D60*
X421654Y649606D02*
D03*
Y639606D02*
D03*
Y629606D02*
D03*
Y619606D02*
D03*
Y599606D02*
D03*
Y589606D02*
D03*
Y579606D02*
D03*
Y569606D02*
D03*
Y559606D02*
D03*
Y549606D02*
D03*
Y529606D02*
D03*
Y519606D02*
D03*
Y499606D02*
D03*
Y489606D02*
D03*
Y479606D02*
D03*
Y469606D02*
D03*
Y459606D02*
D03*
Y449606D02*
D03*
Y439606D02*
D03*
Y429606D02*
D03*
Y419606D02*
D03*
Y409606D02*
D03*
Y399606D02*
D03*
Y389606D02*
D03*
Y379606D02*
D03*
Y369606D02*
D03*
Y359606D02*
D03*
X431653Y649606D02*
D03*
Y639606D02*
D03*
Y629606D02*
D03*
Y619606D02*
D03*
Y609606D02*
D03*
Y599606D02*
D03*
Y589606D02*
D03*
Y579606D02*
D03*
Y569606D02*
D03*
Y559606D02*
D03*
Y549606D02*
D03*
Y539606D02*
D03*
Y529606D02*
D03*
Y519606D02*
D03*
Y509606D02*
D03*
Y499606D02*
D03*
Y489606D02*
D03*
Y479606D02*
D03*
Y469606D02*
D03*
Y459606D02*
D03*
Y449606D02*
D03*
Y439606D02*
D03*
Y429606D02*
D03*
Y419606D02*
D03*
Y409606D02*
D03*
Y399606D02*
D03*
Y389606D02*
D03*
Y379606D02*
D03*
Y369606D02*
D03*
Y359606D02*
D03*
X531496Y677165D02*
D03*
X521496D02*
D03*
X511496D02*
D03*
X501496D02*
D03*
X491496D02*
D03*
X481496D02*
D03*
X471496D02*
D03*
X461496D02*
D03*
X451496D02*
D03*
X441496D02*
D03*
X431496D02*
D03*
X421496D02*
D03*
X411496D02*
D03*
X401496D02*
D03*
X391496D02*
D03*
X381496D02*
D03*
X371496D02*
D03*
X361496D02*
D03*
X351496D02*
D03*
X341496D02*
D03*
X331496D02*
D03*
X321496D02*
D03*
X311496D02*
D03*
X301496D02*
D03*
X291496D02*
D03*
X281496D02*
D03*
X271496D02*
D03*
X261496D02*
D03*
X251496D02*
D03*
X531496Y667165D02*
D03*
X521496D02*
D03*
X511496D02*
D03*
X501496D02*
D03*
X491496D02*
D03*
X481496D02*
D03*
X471496D02*
D03*
X461496D02*
D03*
X451496D02*
D03*
X441496D02*
D03*
X431496D02*
D03*
X421496D02*
D03*
X411496D02*
D03*
X401496D02*
D03*
X391496D02*
D03*
X381496D02*
D03*
X371496D02*
D03*
X361496D02*
D03*
X351496D02*
D03*
X341496D02*
D03*
X331496D02*
D03*
X321496D02*
D03*
X311496D02*
D03*
X301496D02*
D03*
X291496D02*
D03*
X281496D02*
D03*
X271496D02*
D03*
X261496D02*
D03*
X251496D02*
D03*
X578740Y649606D02*
D03*
Y639606D02*
D03*
Y629606D02*
D03*
Y619606D02*
D03*
Y579606D02*
D03*
Y529606D02*
D03*
Y509606D02*
D03*
Y499606D02*
D03*
Y489606D02*
D03*
Y479606D02*
D03*
Y469606D02*
D03*
Y459606D02*
D03*
Y449606D02*
D03*
Y439606D02*
D03*
Y429606D02*
D03*
Y419606D02*
D03*
Y409606D02*
D03*
Y399606D02*
D03*
Y389606D02*
D03*
Y379606D02*
D03*
Y369606D02*
D03*
Y359606D02*
D03*
X568740Y649606D02*
D03*
Y639606D02*
D03*
Y629606D02*
D03*
Y619606D02*
D03*
Y579606D02*
D03*
Y569606D02*
D03*
Y559606D02*
D03*
Y529606D02*
D03*
Y519606D02*
D03*
Y509606D02*
D03*
Y499606D02*
D03*
Y489606D02*
D03*
Y479606D02*
D03*
Y469606D02*
D03*
Y449606D02*
D03*
Y439606D02*
D03*
Y429606D02*
D03*
Y419606D02*
D03*
Y409606D02*
D03*
Y399606D02*
D03*
Y389606D02*
D03*
Y379606D02*
D03*
Y369606D02*
D03*
Y359606D02*
D03*
D61*
X421654Y609606D02*
D03*
Y539606D02*
D03*
Y509606D02*
D03*
X241496Y677165D02*
D03*
Y667165D02*
D03*
X578740Y609606D02*
D03*
Y599606D02*
D03*
Y589606D02*
D03*
X568740Y609606D02*
D03*
Y599606D02*
D03*
Y589606D02*
D03*
Y549606D02*
D03*
Y539606D02*
D03*
Y459606D02*
D03*
D62*
X233059Y511303D02*
D03*
Y461146D02*
D03*
Y434531D02*
D03*
Y384374D02*
D03*
X262319Y333059D02*
D03*
X312476D02*
D03*
X339090D02*
D03*
X389248D02*
D03*
D63*
X514173Y332283D02*
D03*
D64*
X495276Y329724D02*
D03*
X504724D02*
D03*
D65*
X498425D02*
D03*
X501575D02*
D03*
X490551Y326969D02*
D03*
X493701D02*
D03*
X496850D02*
D03*
X503150D02*
D03*
X506299D02*
D03*
X509449D02*
D03*
D66*
X485827Y332283D02*
D03*
D67*
X578740Y569606D02*
D03*
Y559606D02*
D03*
Y519606D02*
D03*
D68*
X409449Y394488D02*
D03*
X395669Y519685D02*
D03*
X371260Y575984D02*
D03*
X322441Y633858D02*
D03*
X336221D02*
D03*
X469685Y659842D02*
D03*
X463386D02*
D03*
M02*
