G04 Layer_Color=8421504*
%FSLAX25Y25*%
%MOIN*%
G70*
G01*
G75*
%ADD10R,0.02520X0.02362*%
%ADD11R,0.02362X0.02520*%
%ADD12R,0.03937X0.05512*%
%ADD15R,0.01142X0.03543*%
%ADD16R,0.02284X0.03701*%
%ADD17R,0.02165X0.01968*%
%ADD18R,0.01968X0.02165*%
%ADD19R,0.04724X0.05512*%
%ADD20R,0.03543X0.01575*%
%ADD22C,0.01378*%
%ADD24R,0.02165X0.01575*%
%ADD25R,0.02165X0.01181*%
%ADD27R,0.01575X0.02165*%
%ADD28R,0.01181X0.02165*%
G04:AMPARAMS|DCode=32|XSize=7.87mil|YSize=25.59mil|CornerRadius=1.97mil|HoleSize=0mil|Usage=FLASHONLY|Rotation=90.000|XOffset=0mil|YOffset=0mil|HoleType=Round|Shape=RoundedRectangle|*
%AMROUNDEDRECTD32*
21,1,0.00787,0.02165,0,0,90.0*
21,1,0.00394,0.02559,0,0,90.0*
1,1,0.00394,0.01083,0.00197*
1,1,0.00394,0.01083,-0.00197*
1,1,0.00394,-0.01083,-0.00197*
1,1,0.00394,-0.01083,0.00197*
%
%ADD32ROUNDEDRECTD32*%
G04:AMPARAMS|DCode=33|XSize=7.87mil|YSize=25.59mil|CornerRadius=1.97mil|HoleSize=0mil|Usage=FLASHONLY|Rotation=0.000|XOffset=0mil|YOffset=0mil|HoleType=Round|Shape=RoundedRectangle|*
%AMROUNDEDRECTD33*
21,1,0.00787,0.02165,0,0,0.0*
21,1,0.00394,0.02559,0,0,0.0*
1,1,0.00394,0.00197,-0.01083*
1,1,0.00394,-0.00197,-0.01083*
1,1,0.00394,-0.00197,0.01083*
1,1,0.00394,0.00197,0.01083*
%
%ADD33ROUNDEDRECTD33*%
G04:AMPARAMS|DCode=34|XSize=169.29mil|YSize=169.29mil|CornerRadius=1.69mil|HoleSize=0mil|Usage=FLASHONLY|Rotation=0.000|XOffset=0mil|YOffset=0mil|HoleType=Round|Shape=RoundedRectangle|*
%AMROUNDEDRECTD34*
21,1,0.16929,0.16590,0,0,0.0*
21,1,0.16590,0.16929,0,0,0.0*
1,1,0.00339,0.08295,-0.08295*
1,1,0.00339,-0.08295,-0.08295*
1,1,0.00339,-0.08295,0.08295*
1,1,0.00339,0.08295,0.08295*
%
%ADD34ROUNDEDRECTD34*%
%ADD96R,0.03780X0.03937*%
%ADD97R,0.03937X0.03051*%
%ADD98R,0.03937X0.03051*%
%ADD99O,0.03150X0.00984*%
%ADD100O,0.00984X0.03150*%
D10*
X474803Y613307D02*
D03*
Y609528D02*
D03*
X296850Y367008D02*
D03*
Y370787D02*
D03*
X292126Y367008D02*
D03*
Y370787D02*
D03*
X282677Y367008D02*
D03*
Y370787D02*
D03*
X277953Y367008D02*
D03*
Y370787D02*
D03*
X373622Y367008D02*
D03*
Y370787D02*
D03*
X368898Y367008D02*
D03*
Y370787D02*
D03*
X359449Y367008D02*
D03*
Y370787D02*
D03*
X354724Y367008D02*
D03*
Y370787D02*
D03*
D11*
X267008Y476772D02*
D03*
X270787D02*
D03*
X267008Y481496D02*
D03*
X270787D02*
D03*
X267008Y490945D02*
D03*
X270787D02*
D03*
X267008Y495669D02*
D03*
X270787D02*
D03*
X267008Y400000D02*
D03*
X270787D02*
D03*
X267008Y404724D02*
D03*
X270787D02*
D03*
X267008Y414173D02*
D03*
X270787D02*
D03*
X267008Y418898D02*
D03*
X270787D02*
D03*
X468583Y395276D02*
D03*
X472362D02*
D03*
X468583Y390551D02*
D03*
X472362D02*
D03*
X468583Y376378D02*
D03*
X472362D02*
D03*
X468583Y381102D02*
D03*
X472362D02*
D03*
D12*
X225689Y642126D02*
D03*
X218406D02*
D03*
X225689Y612205D02*
D03*
X218406D02*
D03*
X225689Y626378D02*
D03*
X218406D02*
D03*
X508169Y590945D02*
D03*
X515453D02*
D03*
X508169Y628346D02*
D03*
X515453D02*
D03*
X508169Y603543D02*
D03*
X515453D02*
D03*
X508169Y640945D02*
D03*
X515453D02*
D03*
X508169Y578346D02*
D03*
X515453D02*
D03*
X508169Y616142D02*
D03*
X515453D02*
D03*
D15*
X489173Y334488D02*
D03*
X491142D02*
D03*
X493110D02*
D03*
X495079D02*
D03*
X497047D02*
D03*
X499016D02*
D03*
X500984D02*
D03*
X502953D02*
D03*
X504921D02*
D03*
X506890D02*
D03*
X508858D02*
D03*
X510827D02*
D03*
D16*
X462244Y616535D02*
D03*
X468465D02*
D03*
D17*
X456299Y609941D02*
D03*
Y613681D02*
D03*
X451968Y601279D02*
D03*
Y605020D02*
D03*
D18*
X222146Y648425D02*
D03*
X225886D02*
D03*
X222146Y618898D02*
D03*
X225886D02*
D03*
X222146Y632677D02*
D03*
X225886D02*
D03*
X498130Y590945D02*
D03*
X501870D02*
D03*
X498130Y628346D02*
D03*
X501870D02*
D03*
X498130Y603543D02*
D03*
X501870D02*
D03*
X498130Y640945D02*
D03*
X501870D02*
D03*
X498130Y578346D02*
D03*
X501870D02*
D03*
X498130Y616142D02*
D03*
X501870D02*
D03*
D19*
X461614Y601181D02*
D03*
Y609842D02*
D03*
X469095Y601181D02*
D03*
Y609842D02*
D03*
D20*
X309882Y655138D02*
D03*
Y650138D02*
D03*
Y645138D02*
D03*
Y640138D02*
D03*
X340512Y655138D02*
D03*
Y650138D02*
D03*
Y645138D02*
D03*
Y640138D02*
D03*
D22*
X351969Y614173D02*
D03*
Y611024D02*
D03*
Y607874D02*
D03*
Y604725D02*
D03*
Y601575D02*
D03*
Y598425D02*
D03*
Y595276D02*
D03*
Y592126D02*
D03*
Y588976D02*
D03*
Y585827D02*
D03*
Y582677D02*
D03*
Y579528D02*
D03*
Y576378D02*
D03*
Y573228D02*
D03*
Y570079D02*
D03*
Y566929D02*
D03*
Y563780D02*
D03*
Y560630D02*
D03*
X348819Y614173D02*
D03*
Y611024D02*
D03*
Y607874D02*
D03*
Y604725D02*
D03*
Y601575D02*
D03*
Y598425D02*
D03*
Y595276D02*
D03*
Y592126D02*
D03*
Y588976D02*
D03*
Y585827D02*
D03*
Y582677D02*
D03*
Y579528D02*
D03*
Y576378D02*
D03*
Y573228D02*
D03*
Y570079D02*
D03*
Y566929D02*
D03*
Y563780D02*
D03*
Y560630D02*
D03*
X345669Y614173D02*
D03*
Y611024D02*
D03*
Y607874D02*
D03*
Y604725D02*
D03*
Y601575D02*
D03*
Y598425D02*
D03*
Y595276D02*
D03*
Y592126D02*
D03*
Y588976D02*
D03*
Y585827D02*
D03*
Y582677D02*
D03*
Y579528D02*
D03*
Y576378D02*
D03*
Y573228D02*
D03*
Y570079D02*
D03*
Y566929D02*
D03*
Y563780D02*
D03*
Y560630D02*
D03*
X342520Y614173D02*
D03*
Y611024D02*
D03*
Y607874D02*
D03*
Y604725D02*
D03*
Y601575D02*
D03*
Y598425D02*
D03*
Y595276D02*
D03*
Y592126D02*
D03*
Y588976D02*
D03*
Y585827D02*
D03*
Y582677D02*
D03*
Y579528D02*
D03*
Y576378D02*
D03*
Y573228D02*
D03*
Y570079D02*
D03*
Y566929D02*
D03*
Y563780D02*
D03*
Y560630D02*
D03*
X339370Y614173D02*
D03*
Y611024D02*
D03*
Y607874D02*
D03*
Y604725D02*
D03*
Y601575D02*
D03*
Y598425D02*
D03*
Y595276D02*
D03*
Y592126D02*
D03*
Y588976D02*
D03*
Y585827D02*
D03*
Y582677D02*
D03*
Y579528D02*
D03*
Y576378D02*
D03*
Y573228D02*
D03*
Y570079D02*
D03*
Y566929D02*
D03*
Y563780D02*
D03*
Y560630D02*
D03*
X336221Y614173D02*
D03*
Y611024D02*
D03*
Y607874D02*
D03*
Y604725D02*
D03*
Y601575D02*
D03*
Y598425D02*
D03*
Y595276D02*
D03*
Y592126D02*
D03*
Y588976D02*
D03*
Y585827D02*
D03*
Y582677D02*
D03*
Y579528D02*
D03*
Y576378D02*
D03*
Y573228D02*
D03*
Y570079D02*
D03*
Y566929D02*
D03*
Y563780D02*
D03*
Y560630D02*
D03*
X333071Y614173D02*
D03*
Y611024D02*
D03*
Y607874D02*
D03*
Y604725D02*
D03*
Y601575D02*
D03*
Y598425D02*
D03*
Y595276D02*
D03*
Y592126D02*
D03*
Y588976D02*
D03*
Y585827D02*
D03*
Y582677D02*
D03*
Y579528D02*
D03*
Y576378D02*
D03*
Y573228D02*
D03*
Y570079D02*
D03*
Y566929D02*
D03*
Y563780D02*
D03*
Y560630D02*
D03*
X329921Y614173D02*
D03*
Y611024D02*
D03*
Y607874D02*
D03*
Y604725D02*
D03*
Y601575D02*
D03*
Y598425D02*
D03*
Y595276D02*
D03*
Y592126D02*
D03*
Y588976D02*
D03*
Y585827D02*
D03*
Y582677D02*
D03*
Y579528D02*
D03*
Y576378D02*
D03*
Y573228D02*
D03*
Y570079D02*
D03*
Y566929D02*
D03*
Y563780D02*
D03*
Y560630D02*
D03*
X326772Y614173D02*
D03*
Y611024D02*
D03*
Y607874D02*
D03*
Y604725D02*
D03*
Y601575D02*
D03*
Y598425D02*
D03*
Y595276D02*
D03*
Y592126D02*
D03*
Y588976D02*
D03*
Y585827D02*
D03*
Y582677D02*
D03*
Y579528D02*
D03*
Y576378D02*
D03*
Y573228D02*
D03*
Y570079D02*
D03*
Y566929D02*
D03*
Y563780D02*
D03*
Y560630D02*
D03*
X323622Y614173D02*
D03*
Y611024D02*
D03*
Y607874D02*
D03*
Y604725D02*
D03*
Y601575D02*
D03*
Y598425D02*
D03*
Y595276D02*
D03*
Y592126D02*
D03*
Y588976D02*
D03*
Y585827D02*
D03*
Y582677D02*
D03*
Y579528D02*
D03*
Y576378D02*
D03*
Y573228D02*
D03*
Y570079D02*
D03*
Y566929D02*
D03*
Y563780D02*
D03*
Y560630D02*
D03*
X320472Y614173D02*
D03*
Y611024D02*
D03*
Y607874D02*
D03*
Y604725D02*
D03*
Y601575D02*
D03*
Y598425D02*
D03*
Y595276D02*
D03*
Y592126D02*
D03*
Y588976D02*
D03*
Y585827D02*
D03*
Y582677D02*
D03*
Y579528D02*
D03*
Y576378D02*
D03*
Y573228D02*
D03*
Y570079D02*
D03*
Y566929D02*
D03*
Y563780D02*
D03*
Y560630D02*
D03*
X317323Y614173D02*
D03*
Y611024D02*
D03*
Y607874D02*
D03*
Y604725D02*
D03*
Y601575D02*
D03*
Y598425D02*
D03*
Y595276D02*
D03*
Y592126D02*
D03*
Y588976D02*
D03*
Y585827D02*
D03*
Y582677D02*
D03*
Y579528D02*
D03*
Y576378D02*
D03*
Y573228D02*
D03*
Y570079D02*
D03*
Y566929D02*
D03*
Y563780D02*
D03*
Y560630D02*
D03*
X314173Y614173D02*
D03*
Y611024D02*
D03*
Y607874D02*
D03*
Y604725D02*
D03*
Y601575D02*
D03*
Y598425D02*
D03*
Y595276D02*
D03*
Y592126D02*
D03*
Y588976D02*
D03*
Y585827D02*
D03*
Y582677D02*
D03*
Y579528D02*
D03*
Y576378D02*
D03*
Y573228D02*
D03*
Y570079D02*
D03*
Y566929D02*
D03*
Y563780D02*
D03*
Y560630D02*
D03*
X311024Y614173D02*
D03*
Y611024D02*
D03*
Y607874D02*
D03*
Y604725D02*
D03*
Y601575D02*
D03*
Y598425D02*
D03*
Y595276D02*
D03*
Y592126D02*
D03*
Y588976D02*
D03*
Y585827D02*
D03*
Y582677D02*
D03*
Y579528D02*
D03*
Y576378D02*
D03*
Y573228D02*
D03*
Y570079D02*
D03*
Y566929D02*
D03*
Y563780D02*
D03*
Y560630D02*
D03*
X307874Y614173D02*
D03*
Y611024D02*
D03*
Y607874D02*
D03*
Y604725D02*
D03*
Y601575D02*
D03*
Y598425D02*
D03*
Y595276D02*
D03*
Y592126D02*
D03*
Y588976D02*
D03*
Y585827D02*
D03*
Y582677D02*
D03*
Y579528D02*
D03*
Y576378D02*
D03*
Y573228D02*
D03*
Y570079D02*
D03*
Y566929D02*
D03*
Y563780D02*
D03*
Y560630D02*
D03*
X304724Y614173D02*
D03*
Y611024D02*
D03*
Y607874D02*
D03*
Y604725D02*
D03*
Y601575D02*
D03*
Y598425D02*
D03*
Y595276D02*
D03*
Y592126D02*
D03*
Y588976D02*
D03*
Y585827D02*
D03*
Y582677D02*
D03*
Y579528D02*
D03*
Y576378D02*
D03*
Y573228D02*
D03*
Y570079D02*
D03*
Y566929D02*
D03*
Y563780D02*
D03*
Y560630D02*
D03*
X301575Y614173D02*
D03*
Y611024D02*
D03*
Y607874D02*
D03*
Y604725D02*
D03*
Y601575D02*
D03*
Y598425D02*
D03*
Y595276D02*
D03*
Y592126D02*
D03*
Y588976D02*
D03*
Y585827D02*
D03*
Y582677D02*
D03*
Y579528D02*
D03*
Y576378D02*
D03*
Y573228D02*
D03*
Y570079D02*
D03*
Y566929D02*
D03*
Y563780D02*
D03*
Y560630D02*
D03*
X298425Y614173D02*
D03*
Y611024D02*
D03*
Y607874D02*
D03*
Y604725D02*
D03*
Y601575D02*
D03*
Y598425D02*
D03*
Y595276D02*
D03*
Y592126D02*
D03*
Y588976D02*
D03*
Y585827D02*
D03*
Y582677D02*
D03*
Y579528D02*
D03*
Y576378D02*
D03*
Y573228D02*
D03*
Y570079D02*
D03*
Y566929D02*
D03*
Y563780D02*
D03*
Y560630D02*
D03*
D24*
X256634Y486221D02*
D03*
X253602D02*
D03*
X256634Y409449D02*
D03*
X253602D02*
D03*
D25*
Y482283D02*
D03*
Y484252D02*
D03*
Y488189D02*
D03*
Y490158D02*
D03*
Y405512D02*
D03*
Y407480D02*
D03*
Y411417D02*
D03*
Y413386D02*
D03*
D27*
X287402Y356634D02*
D03*
Y353602D02*
D03*
X364173Y356634D02*
D03*
Y353602D02*
D03*
D28*
X291339D02*
D03*
X289370D02*
D03*
X285433D02*
D03*
X283465D02*
D03*
X368110D02*
D03*
X366142D02*
D03*
X362205D02*
D03*
X360236D02*
D03*
D32*
X488583Y394488D02*
D03*
Y392913D02*
D03*
Y391339D02*
D03*
Y389764D02*
D03*
Y388189D02*
D03*
Y386614D02*
D03*
Y385039D02*
D03*
Y383465D02*
D03*
Y381890D02*
D03*
Y380315D02*
D03*
Y378740D02*
D03*
Y377165D02*
D03*
X511417D02*
D03*
Y378740D02*
D03*
Y380315D02*
D03*
Y381890D02*
D03*
Y383465D02*
D03*
Y385039D02*
D03*
Y386614D02*
D03*
Y388189D02*
D03*
Y389764D02*
D03*
Y391339D02*
D03*
Y392913D02*
D03*
Y394488D02*
D03*
D33*
X491339Y374409D02*
D03*
X492913D02*
D03*
X494488D02*
D03*
X496063D02*
D03*
X497638D02*
D03*
X499213D02*
D03*
X500787D02*
D03*
X502362D02*
D03*
X503937D02*
D03*
X505512D02*
D03*
X507087D02*
D03*
X508661D02*
D03*
Y397244D02*
D03*
X507087D02*
D03*
X505512D02*
D03*
X503937D02*
D03*
X502362D02*
D03*
X500787D02*
D03*
X499213D02*
D03*
X497638D02*
D03*
X496063D02*
D03*
X494488D02*
D03*
X492913D02*
D03*
X491339D02*
D03*
D34*
X500000Y385827D02*
D03*
D96*
X318347Y654724D02*
D03*
Y650000D02*
D03*
Y645276D02*
D03*
Y640551D02*
D03*
X322913Y654724D02*
D03*
Y650000D02*
D03*
Y645276D02*
D03*
Y640551D02*
D03*
X327480Y654724D02*
D03*
Y650000D02*
D03*
Y645276D02*
D03*
Y640551D02*
D03*
X332047Y654724D02*
D03*
Y650000D02*
D03*
Y645276D02*
D03*
Y640551D02*
D03*
D97*
X300000Y448081D02*
D03*
X300000Y452314D02*
D03*
X295079Y452314D02*
D03*
X275197Y448081D02*
D03*
X275197Y452314D02*
D03*
X280118Y448081D02*
D03*
X280118Y452314D02*
D03*
X285040Y448081D02*
D03*
X285039Y452314D02*
D03*
X289961Y452314D02*
D03*
X289961Y448081D02*
D03*
D98*
X295079Y448081D02*
D03*
D99*
X305118Y453150D02*
D03*
Y451182D02*
D03*
Y449213D02*
D03*
Y447245D02*
D03*
X269882D02*
D03*
Y449213D02*
D03*
Y451182D02*
D03*
Y453150D02*
D03*
D100*
X303248Y443406D02*
D03*
X301280D02*
D03*
X299311D02*
D03*
X297343D02*
D03*
X295374D02*
D03*
X293406D02*
D03*
X291437D02*
D03*
X289469D02*
D03*
X287500D02*
D03*
X285532D02*
D03*
X283563D02*
D03*
X281595D02*
D03*
X279626D02*
D03*
X277658D02*
D03*
X275689D02*
D03*
X273721D02*
D03*
X271752D02*
D03*
Y456989D02*
D03*
X273721D02*
D03*
X275689D02*
D03*
X277658D02*
D03*
X279626D02*
D03*
X281595D02*
D03*
X283563D02*
D03*
X285532D02*
D03*
X287500D02*
D03*
X289469D02*
D03*
X291437D02*
D03*
X293406D02*
D03*
X295374D02*
D03*
X297343D02*
D03*
X299311D02*
D03*
X301280D02*
D03*
X303248D02*
D03*
M02*
